G04 EAGLE Gerber RS-274X export*
G75*
%MOMM*%
%FSLAX34Y34*%
%LPD*%
%INBottom Solder Mask*%
%IPPOS*%
%AMOC8*
5,1,8,0,0,1.08239X$1,22.5*%
G01*
%ADD10C,3.479800*%
%ADD11P,1.649562X8X112.500000*%
%ADD12C,1.524000*%
%ADD13C,1.879600*%
%ADD14R,1.853200X1.853200*%
%ADD15C,1.853200*%
%ADD16C,1.727200*%
%ADD17P,1.649562X8X292.500000*%
%ADD18P,1.649562X8X22.500000*%
%ADD19C,1.981200*%
%ADD20P,1.759533X8X112.500000*%
%ADD21P,1.759533X8X292.500000*%
%ADD22R,1.611200X1.611200*%
%ADD23C,1.611200*%
%ADD24R,1.473200X2.743200*%
%ADD25C,0.959600*%


D10*
X100000Y800000D03*
X500000Y600000D03*
X600000Y700000D03*
D11*
X444500Y482600D03*
X444500Y508000D03*
D12*
X533400Y336804D02*
X533400Y323596D01*
X533400Y399796D02*
X533400Y413004D01*
D13*
X622300Y533400D03*
X622300Y431800D03*
D14*
X101600Y876300D03*
D15*
X101600Y914400D03*
D16*
X614680Y330200D02*
X629920Y330200D01*
X629920Y355600D02*
X614680Y355600D01*
X614680Y381000D02*
X629920Y381000D01*
D12*
X495300Y443992D02*
X495300Y457200D01*
X520700Y457200D02*
X520700Y443992D01*
X520700Y533400D02*
X520700Y546608D01*
X495300Y546608D02*
X495300Y533400D01*
X546100Y457200D02*
X546100Y443992D01*
X571500Y443992D02*
X571500Y457200D01*
X546100Y533400D02*
X546100Y546608D01*
X571500Y546608D02*
X571500Y533400D01*
D11*
X495300Y317500D03*
X495300Y393700D03*
D17*
X571500Y393700D03*
X571500Y317500D03*
D18*
X596900Y596900D03*
X584200Y615950D03*
X571500Y596900D03*
D19*
X228600Y457200D03*
X228600Y482600D03*
X228600Y508000D03*
X228600Y533400D03*
X228600Y558800D03*
X228600Y584200D03*
X228600Y609600D03*
X228600Y635000D03*
X228600Y660400D03*
X228600Y685800D03*
X228600Y711200D03*
X228600Y736600D03*
X228600Y762000D03*
X228600Y787400D03*
X228600Y812800D03*
X228600Y838200D03*
X228600Y863600D03*
X228600Y889000D03*
X228600Y914400D03*
X228600Y939800D03*
X381000Y457200D03*
X381000Y482600D03*
X381000Y508000D03*
X381000Y533400D03*
X381000Y558800D03*
X381000Y584200D03*
X381000Y609600D03*
X381000Y635000D03*
X381000Y660400D03*
X381000Y685800D03*
X381000Y711200D03*
X381000Y736600D03*
X381000Y762000D03*
X381000Y787400D03*
X381000Y812800D03*
X381000Y838200D03*
X381000Y863600D03*
X381000Y889000D03*
X381000Y914400D03*
X381000Y939800D03*
X342900Y495300D03*
X317500Y495300D03*
X292100Y495300D03*
X266700Y495300D03*
D20*
X533400Y711200D03*
X508000Y711200D03*
X533400Y736600D03*
X508000Y736600D03*
X533400Y762000D03*
X508000Y762000D03*
X533400Y787400D03*
X508000Y787400D03*
X533400Y812800D03*
X508000Y812800D03*
X533400Y838200D03*
X508000Y838200D03*
X533400Y863600D03*
X508000Y863600D03*
X533400Y889000D03*
X508000Y889000D03*
D21*
X76200Y660400D03*
X101600Y660400D03*
X76200Y635000D03*
X101600Y635000D03*
X76200Y609600D03*
X101600Y609600D03*
X76200Y584200D03*
X101600Y584200D03*
X76200Y558800D03*
X101600Y558800D03*
X76200Y533400D03*
X101600Y533400D03*
X76200Y508000D03*
X101600Y508000D03*
X76200Y482600D03*
X101600Y482600D03*
D16*
X139700Y375920D02*
X139700Y360680D01*
X165100Y360680D02*
X165100Y375920D01*
X190500Y375920D02*
X190500Y360680D01*
X50800Y360680D02*
X50800Y375920D01*
X76200Y375920D02*
X76200Y360680D01*
X419100Y360680D02*
X419100Y375920D01*
X444500Y375920D02*
X444500Y360680D01*
X304800Y360680D02*
X304800Y375920D01*
X330200Y375920D02*
X330200Y360680D01*
X355600Y360680D02*
X355600Y375920D01*
X279400Y375920D02*
X279400Y360680D01*
X254000Y360680D02*
X254000Y375920D01*
D22*
X628650Y838200D03*
D23*
X628650Y858200D03*
X628650Y878200D03*
X628650Y898200D03*
X628650Y918200D03*
D24*
X50800Y412750D03*
X76200Y412750D03*
D25*
X425450Y768350D03*
X419100Y615950D03*
X482600Y749300D03*
X171450Y647700D03*
X161925Y590550D03*
M02*
