G04 EAGLE Gerber RS-274X export*
G75*
%MOMM*%
%FSLAX34Y34*%
%LPD*%
%INTop Copper*%
%IPPOS*%
%AMOC8*
5,1,8,0,0,1.08239X$1,22.5*%
G01*
%ADD10P,1.429621X8X112.500000*%
%ADD11C,1.320800*%
%ADD12C,1.676400*%
%ADD13R,1.650000X1.650000*%
%ADD14C,1.650000*%
%ADD15C,1.524000*%
%ADD16P,1.429621X8X292.500000*%
%ADD17P,1.429621X8X22.500000*%
%ADD18C,1.778000*%
%ADD19P,1.539592X8X112.500000*%
%ADD20P,1.539592X8X292.500000*%
%ADD21R,1.408000X1.408000*%
%ADD22C,1.408000*%
%ADD23C,0.304800*%
%ADD24C,0.756400*%

G36*
X661998Y289564D02*
X661998Y289564D01*
X662017Y289562D01*
X662119Y289584D01*
X662221Y289600D01*
X662238Y289610D01*
X662258Y289614D01*
X662347Y289667D01*
X662438Y289716D01*
X662452Y289730D01*
X662469Y289740D01*
X662536Y289819D01*
X662608Y289894D01*
X662616Y289912D01*
X662629Y289927D01*
X662668Y290023D01*
X662711Y290117D01*
X662713Y290137D01*
X662721Y290155D01*
X662739Y290322D01*
X662739Y953518D01*
X662736Y953538D01*
X662738Y953557D01*
X662716Y953659D01*
X662700Y953761D01*
X662690Y953778D01*
X662686Y953798D01*
X662633Y953887D01*
X662584Y953978D01*
X662570Y953992D01*
X662560Y954009D01*
X662481Y954076D01*
X662406Y954148D01*
X662388Y954156D01*
X662373Y954169D01*
X662277Y954208D01*
X662183Y954251D01*
X662163Y954253D01*
X662145Y954261D01*
X661978Y954279D01*
X10922Y954279D01*
X10902Y954276D01*
X10883Y954278D01*
X10781Y954256D01*
X10679Y954240D01*
X10662Y954230D01*
X10642Y954226D01*
X10553Y954173D01*
X10462Y954124D01*
X10448Y954110D01*
X10431Y954100D01*
X10364Y954021D01*
X10292Y953946D01*
X10284Y953928D01*
X10271Y953913D01*
X10232Y953817D01*
X10189Y953723D01*
X10187Y953703D01*
X10179Y953685D01*
X10161Y953518D01*
X10161Y290322D01*
X10164Y290302D01*
X10162Y290283D01*
X10184Y290181D01*
X10200Y290079D01*
X10210Y290062D01*
X10214Y290042D01*
X10267Y289953D01*
X10316Y289862D01*
X10330Y289848D01*
X10340Y289831D01*
X10419Y289764D01*
X10494Y289692D01*
X10512Y289684D01*
X10527Y289671D01*
X10623Y289632D01*
X10717Y289589D01*
X10737Y289587D01*
X10755Y289579D01*
X10922Y289561D01*
X661978Y289561D01*
X661998Y289564D01*
G37*
%LPC*%
G36*
X378928Y497585D02*
X378928Y497585D01*
X375100Y499171D01*
X372171Y502100D01*
X371816Y502957D01*
X371754Y503057D01*
X371694Y503157D01*
X371690Y503161D01*
X371686Y503166D01*
X371596Y503241D01*
X371507Y503317D01*
X371502Y503319D01*
X371497Y503323D01*
X371388Y503365D01*
X371279Y503409D01*
X371272Y503410D01*
X371267Y503411D01*
X371249Y503412D01*
X371113Y503427D01*
X366406Y503427D01*
X357377Y512456D01*
X357377Y567044D01*
X366406Y576073D01*
X372561Y576073D01*
X372632Y576084D01*
X372703Y576086D01*
X372752Y576104D01*
X372804Y576112D01*
X372867Y576146D01*
X372934Y576171D01*
X372975Y576203D01*
X373021Y576228D01*
X373070Y576280D01*
X373126Y576324D01*
X373154Y576368D01*
X373190Y576406D01*
X373221Y576471D01*
X373259Y576531D01*
X373272Y576582D01*
X373294Y576629D01*
X373302Y576700D01*
X373319Y576770D01*
X373315Y576822D01*
X373321Y576873D01*
X373306Y576944D01*
X373300Y577015D01*
X373280Y577063D01*
X373269Y577114D01*
X373232Y577175D01*
X373204Y577241D01*
X373159Y577297D01*
X373143Y577325D01*
X373125Y577340D01*
X373099Y577372D01*
X372171Y578300D01*
X371816Y579157D01*
X371754Y579257D01*
X371694Y579357D01*
X371690Y579361D01*
X371686Y579366D01*
X371596Y579441D01*
X371507Y579517D01*
X371502Y579519D01*
X371497Y579523D01*
X371388Y579565D01*
X371279Y579609D01*
X371272Y579610D01*
X371267Y579611D01*
X371249Y579612D01*
X371113Y579627D01*
X366406Y579627D01*
X357377Y588656D01*
X357377Y617844D01*
X366406Y626873D01*
X372561Y626873D01*
X372632Y626884D01*
X372703Y626886D01*
X372752Y626904D01*
X372804Y626912D01*
X372867Y626946D01*
X372934Y626971D01*
X372975Y627003D01*
X373021Y627028D01*
X373070Y627080D01*
X373126Y627124D01*
X373154Y627168D01*
X373190Y627206D01*
X373221Y627271D01*
X373259Y627331D01*
X373272Y627382D01*
X373294Y627429D01*
X373302Y627500D01*
X373319Y627570D01*
X373315Y627622D01*
X373321Y627673D01*
X373306Y627744D01*
X373300Y627815D01*
X373280Y627863D01*
X373269Y627914D01*
X373232Y627975D01*
X373204Y628041D01*
X373159Y628097D01*
X373143Y628125D01*
X373125Y628140D01*
X373099Y628172D01*
X372171Y629100D01*
X371816Y629957D01*
X371754Y630057D01*
X371694Y630157D01*
X371690Y630161D01*
X371686Y630166D01*
X371596Y630241D01*
X371507Y630317D01*
X371502Y630319D01*
X371497Y630323D01*
X371388Y630365D01*
X371279Y630409D01*
X371272Y630410D01*
X371267Y630411D01*
X371249Y630412D01*
X371113Y630427D01*
X366406Y630427D01*
X357377Y639456D01*
X357377Y795644D01*
X360279Y798546D01*
X363504Y801771D01*
X366406Y804673D01*
X372561Y804673D01*
X372632Y804684D01*
X372703Y804686D01*
X372752Y804704D01*
X372804Y804712D01*
X372867Y804746D01*
X372934Y804771D01*
X372975Y804803D01*
X373021Y804828D01*
X373070Y804880D01*
X373126Y804924D01*
X373154Y804968D01*
X373190Y805006D01*
X373221Y805071D01*
X373259Y805131D01*
X373272Y805182D01*
X373294Y805229D01*
X373302Y805300D01*
X373319Y805370D01*
X373315Y805422D01*
X373321Y805473D01*
X373306Y805544D01*
X373300Y805615D01*
X373280Y805663D01*
X373269Y805714D01*
X373232Y805775D01*
X373204Y805841D01*
X373159Y805897D01*
X373143Y805925D01*
X373125Y805940D01*
X373099Y805972D01*
X372171Y806900D01*
X370585Y810728D01*
X370585Y814872D01*
X372171Y818700D01*
X375100Y821629D01*
X378928Y823215D01*
X383072Y823215D01*
X386900Y821629D01*
X389829Y818700D01*
X391415Y814872D01*
X391415Y810728D01*
X389829Y806900D01*
X388901Y805972D01*
X388859Y805914D01*
X388810Y805862D01*
X388788Y805815D01*
X388757Y805773D01*
X388736Y805704D01*
X388706Y805639D01*
X388700Y805587D01*
X388685Y805537D01*
X388687Y805466D01*
X388679Y805395D01*
X388690Y805344D01*
X388691Y805292D01*
X388716Y805224D01*
X388731Y805154D01*
X388758Y805109D01*
X388776Y805061D01*
X388821Y805005D01*
X388857Y804943D01*
X388897Y804909D01*
X388930Y804869D01*
X388990Y804830D01*
X389044Y804783D01*
X389093Y804764D01*
X389136Y804736D01*
X389206Y804718D01*
X389272Y804691D01*
X389344Y804683D01*
X389375Y804675D01*
X389398Y804677D01*
X389439Y804673D01*
X416891Y804673D01*
X416981Y804687D01*
X417072Y804695D01*
X417101Y804707D01*
X417133Y804712D01*
X417214Y804755D01*
X417298Y804791D01*
X417330Y804817D01*
X417351Y804828D01*
X417373Y804851D01*
X417429Y804896D01*
X480706Y868173D01*
X500043Y868173D01*
X500133Y868187D01*
X500224Y868195D01*
X500254Y868207D01*
X500286Y868212D01*
X500366Y868255D01*
X500451Y868291D01*
X500483Y868317D01*
X500503Y868328D01*
X500525Y868351D01*
X500582Y868396D01*
X502614Y870428D01*
X502655Y870486D01*
X502705Y870538D01*
X502727Y870585D01*
X502757Y870627D01*
X502778Y870696D01*
X502808Y870761D01*
X502814Y870813D01*
X502829Y870863D01*
X502828Y870934D01*
X502836Y871005D01*
X502824Y871056D01*
X502823Y871108D01*
X502798Y871176D01*
X502783Y871246D01*
X502757Y871291D01*
X502739Y871339D01*
X502694Y871395D01*
X502657Y871457D01*
X502618Y871491D01*
X502585Y871531D01*
X502525Y871570D01*
X502470Y871617D01*
X502422Y871636D01*
X502378Y871664D01*
X502309Y871682D01*
X502242Y871709D01*
X502171Y871717D01*
X502140Y871725D01*
X502116Y871723D01*
X502075Y871727D01*
X465759Y871727D01*
X465669Y871713D01*
X465578Y871705D01*
X465549Y871693D01*
X465517Y871688D01*
X465436Y871645D01*
X465352Y871609D01*
X465320Y871583D01*
X465299Y871572D01*
X465277Y871549D01*
X465221Y871504D01*
X427344Y833627D01*
X390887Y833627D01*
X390773Y833608D01*
X390656Y833591D01*
X390651Y833589D01*
X390645Y833588D01*
X390542Y833533D01*
X390437Y833480D01*
X390433Y833475D01*
X390427Y833472D01*
X390347Y833388D01*
X390265Y833304D01*
X390261Y833298D01*
X390258Y833294D01*
X390250Y833277D01*
X390184Y833157D01*
X389829Y832300D01*
X386900Y829371D01*
X383072Y827785D01*
X378928Y827785D01*
X375100Y829371D01*
X372171Y832300D01*
X370585Y836128D01*
X370585Y840272D01*
X372171Y844100D01*
X375100Y847029D01*
X378928Y848615D01*
X383072Y848615D01*
X386900Y847029D01*
X389829Y844100D01*
X390184Y843243D01*
X390246Y843143D01*
X390306Y843043D01*
X390310Y843039D01*
X390314Y843034D01*
X390404Y842959D01*
X390493Y842883D01*
X390498Y842881D01*
X390503Y842877D01*
X390612Y842835D01*
X390721Y842791D01*
X390728Y842790D01*
X390733Y842789D01*
X390751Y842788D01*
X390887Y842773D01*
X423241Y842773D01*
X423331Y842787D01*
X423422Y842795D01*
X423451Y842807D01*
X423483Y842812D01*
X423564Y842855D01*
X423648Y842891D01*
X423680Y842917D01*
X423701Y842928D01*
X423723Y842951D01*
X423779Y842996D01*
X461656Y880873D01*
X500638Y880873D01*
X500709Y880884D01*
X500781Y880886D01*
X500830Y880904D01*
X500881Y880912D01*
X500945Y880946D01*
X501012Y880971D01*
X501053Y881003D01*
X501099Y881028D01*
X501148Y881080D01*
X501204Y881124D01*
X501232Y881168D01*
X501268Y881206D01*
X501298Y881271D01*
X501337Y881331D01*
X501350Y881382D01*
X501372Y881429D01*
X501379Y881500D01*
X501397Y881570D01*
X501393Y881622D01*
X501399Y881673D01*
X501383Y881744D01*
X501378Y881815D01*
X501358Y881863D01*
X501346Y881914D01*
X501310Y881975D01*
X501282Y882041D01*
X501237Y882097D01*
X501220Y882125D01*
X501202Y882140D01*
X501177Y882172D01*
X498347Y885002D01*
X498347Y887477D01*
X507238Y887477D01*
X507258Y887480D01*
X507277Y887478D01*
X507379Y887500D01*
X507481Y887517D01*
X507498Y887526D01*
X507518Y887530D01*
X507607Y887583D01*
X507698Y887632D01*
X507712Y887646D01*
X507729Y887656D01*
X507796Y887735D01*
X507867Y887810D01*
X507876Y887828D01*
X507889Y887843D01*
X507927Y887939D01*
X507971Y888033D01*
X507973Y888053D01*
X507981Y888071D01*
X507999Y888238D01*
X507999Y889001D01*
X508001Y889001D01*
X508001Y888238D01*
X508004Y888218D01*
X508002Y888199D01*
X508024Y888097D01*
X508041Y887995D01*
X508050Y887978D01*
X508054Y887958D01*
X508107Y887869D01*
X508156Y887778D01*
X508170Y887764D01*
X508180Y887747D01*
X508259Y887680D01*
X508334Y887609D01*
X508352Y887600D01*
X508367Y887587D01*
X508463Y887548D01*
X508557Y887505D01*
X508577Y887503D01*
X508595Y887495D01*
X508762Y887477D01*
X517653Y887477D01*
X517653Y885002D01*
X514823Y882172D01*
X514781Y882114D01*
X514732Y882062D01*
X514710Y882015D01*
X514680Y881973D01*
X514659Y881904D01*
X514628Y881839D01*
X514623Y881787D01*
X514607Y881737D01*
X514609Y881666D01*
X514601Y881595D01*
X514612Y881544D01*
X514614Y881492D01*
X514638Y881424D01*
X514654Y881354D01*
X514680Y881309D01*
X514698Y881261D01*
X514743Y881205D01*
X514780Y881143D01*
X514819Y881109D01*
X514852Y881069D01*
X514912Y881030D01*
X514967Y880983D01*
X515015Y880964D01*
X515059Y880936D01*
X515128Y880918D01*
X515195Y880891D01*
X515266Y880883D01*
X515297Y880875D01*
X515321Y880877D01*
X515362Y880873D01*
X516244Y880873D01*
X519146Y877971D01*
X522371Y874746D01*
X525273Y871844D01*
X525273Y869525D01*
X525284Y869454D01*
X525286Y869382D01*
X525304Y869333D01*
X525312Y869282D01*
X525346Y869219D01*
X525371Y869151D01*
X525403Y869111D01*
X525428Y869065D01*
X525480Y869015D01*
X525524Y868959D01*
X525568Y868931D01*
X525606Y868895D01*
X525671Y868865D01*
X525731Y868826D01*
X525782Y868814D01*
X525829Y868792D01*
X525900Y868784D01*
X525970Y868766D01*
X526022Y868770D01*
X526073Y868764D01*
X526144Y868780D01*
X526215Y868785D01*
X526263Y868806D01*
X526314Y868817D01*
X526375Y868854D01*
X526441Y868882D01*
X526497Y868926D01*
X526525Y868943D01*
X526540Y868961D01*
X526572Y868986D01*
X529823Y872237D01*
X536977Y872237D01*
X542037Y867177D01*
X542037Y860023D01*
X536977Y854963D01*
X529823Y854963D01*
X526572Y858214D01*
X526514Y858255D01*
X526462Y858305D01*
X526415Y858327D01*
X526373Y858357D01*
X526304Y858378D01*
X526239Y858408D01*
X526187Y858414D01*
X526137Y858429D01*
X526066Y858428D01*
X525995Y858436D01*
X525944Y858424D01*
X525892Y858423D01*
X525824Y858398D01*
X525754Y858383D01*
X525709Y858357D01*
X525661Y858339D01*
X525605Y858294D01*
X525543Y858257D01*
X525509Y858218D01*
X525469Y858185D01*
X525430Y858125D01*
X525383Y858070D01*
X525364Y858022D01*
X525336Y857978D01*
X525318Y857909D01*
X525291Y857842D01*
X525283Y857771D01*
X525275Y857740D01*
X525277Y857716D01*
X525273Y857675D01*
X525273Y844125D01*
X525284Y844054D01*
X525286Y843982D01*
X525304Y843933D01*
X525312Y843882D01*
X525346Y843819D01*
X525371Y843751D01*
X525403Y843711D01*
X525428Y843665D01*
X525480Y843615D01*
X525524Y843559D01*
X525568Y843531D01*
X525606Y843495D01*
X525671Y843465D01*
X525731Y843426D01*
X525782Y843414D01*
X525829Y843392D01*
X525900Y843384D01*
X525970Y843366D01*
X526022Y843370D01*
X526073Y843364D01*
X526144Y843380D01*
X526215Y843385D01*
X526263Y843406D01*
X526314Y843417D01*
X526375Y843454D01*
X526441Y843482D01*
X526497Y843526D01*
X526525Y843543D01*
X526540Y843561D01*
X526572Y843586D01*
X529823Y846837D01*
X536977Y846837D01*
X542037Y841777D01*
X542037Y834623D01*
X536977Y829563D01*
X529823Y829563D01*
X526572Y832814D01*
X526514Y832855D01*
X526462Y832905D01*
X526415Y832927D01*
X526373Y832957D01*
X526304Y832978D01*
X526239Y833008D01*
X526187Y833014D01*
X526137Y833029D01*
X526066Y833028D01*
X525995Y833036D01*
X525944Y833024D01*
X525892Y833023D01*
X525824Y832998D01*
X525754Y832983D01*
X525709Y832957D01*
X525661Y832939D01*
X525605Y832894D01*
X525543Y832857D01*
X525509Y832818D01*
X525469Y832785D01*
X525430Y832725D01*
X525383Y832670D01*
X525364Y832622D01*
X525336Y832578D01*
X525318Y832509D01*
X525291Y832442D01*
X525283Y832371D01*
X525275Y832340D01*
X525277Y832316D01*
X525273Y832275D01*
X525273Y818725D01*
X525284Y818654D01*
X525286Y818582D01*
X525304Y818533D01*
X525312Y818482D01*
X525346Y818419D01*
X525371Y818351D01*
X525403Y818311D01*
X525428Y818265D01*
X525480Y818215D01*
X525524Y818159D01*
X525568Y818131D01*
X525606Y818095D01*
X525671Y818065D01*
X525731Y818026D01*
X525782Y818014D01*
X525829Y817992D01*
X525900Y817984D01*
X525970Y817966D01*
X526022Y817970D01*
X526073Y817964D01*
X526144Y817980D01*
X526215Y817985D01*
X526263Y818006D01*
X526314Y818017D01*
X526375Y818054D01*
X526441Y818082D01*
X526497Y818126D01*
X526525Y818143D01*
X526540Y818161D01*
X526572Y818186D01*
X529823Y821437D01*
X536977Y821437D01*
X542037Y816377D01*
X542037Y809223D01*
X536977Y804163D01*
X529823Y804163D01*
X526572Y807414D01*
X526514Y807455D01*
X526462Y807505D01*
X526415Y807527D01*
X526373Y807557D01*
X526304Y807578D01*
X526239Y807608D01*
X526187Y807614D01*
X526137Y807629D01*
X526066Y807628D01*
X525995Y807636D01*
X525944Y807624D01*
X525892Y807623D01*
X525824Y807598D01*
X525754Y807583D01*
X525709Y807557D01*
X525661Y807539D01*
X525605Y807494D01*
X525543Y807457D01*
X525509Y807418D01*
X525469Y807385D01*
X525430Y807325D01*
X525383Y807270D01*
X525364Y807222D01*
X525336Y807178D01*
X525318Y807109D01*
X525291Y807042D01*
X525283Y806971D01*
X525275Y806940D01*
X525277Y806916D01*
X525273Y806875D01*
X525273Y793325D01*
X525284Y793254D01*
X525286Y793182D01*
X525304Y793133D01*
X525312Y793082D01*
X525346Y793019D01*
X525371Y792951D01*
X525403Y792911D01*
X525428Y792865D01*
X525480Y792815D01*
X525524Y792759D01*
X525568Y792731D01*
X525606Y792695D01*
X525671Y792665D01*
X525731Y792626D01*
X525782Y792614D01*
X525829Y792592D01*
X525900Y792584D01*
X525970Y792566D01*
X526022Y792570D01*
X526073Y792564D01*
X526144Y792580D01*
X526215Y792585D01*
X526263Y792606D01*
X526314Y792617D01*
X526375Y792654D01*
X526441Y792682D01*
X526497Y792726D01*
X526525Y792743D01*
X526540Y792761D01*
X526572Y792786D01*
X529823Y796037D01*
X536977Y796037D01*
X542037Y790977D01*
X542037Y783823D01*
X536977Y778763D01*
X529823Y778763D01*
X526572Y782014D01*
X526514Y782055D01*
X526462Y782105D01*
X526415Y782127D01*
X526373Y782157D01*
X526304Y782178D01*
X526239Y782208D01*
X526187Y782214D01*
X526137Y782229D01*
X526066Y782228D01*
X525995Y782236D01*
X525944Y782224D01*
X525892Y782223D01*
X525824Y782198D01*
X525754Y782183D01*
X525709Y782157D01*
X525661Y782139D01*
X525605Y782094D01*
X525543Y782057D01*
X525509Y782018D01*
X525469Y781985D01*
X525430Y781925D01*
X525383Y781870D01*
X525364Y781822D01*
X525336Y781778D01*
X525318Y781709D01*
X525291Y781642D01*
X525283Y781571D01*
X525275Y781540D01*
X525277Y781516D01*
X525273Y781475D01*
X525273Y767925D01*
X525284Y767854D01*
X525286Y767782D01*
X525304Y767733D01*
X525312Y767682D01*
X525346Y767619D01*
X525371Y767551D01*
X525403Y767511D01*
X525428Y767465D01*
X525480Y767415D01*
X525524Y767359D01*
X525568Y767331D01*
X525606Y767295D01*
X525671Y767265D01*
X525731Y767226D01*
X525782Y767214D01*
X525829Y767192D01*
X525900Y767184D01*
X525970Y767166D01*
X526022Y767170D01*
X526073Y767164D01*
X526144Y767180D01*
X526215Y767185D01*
X526263Y767206D01*
X526314Y767217D01*
X526375Y767254D01*
X526441Y767282D01*
X526497Y767326D01*
X526525Y767343D01*
X526540Y767361D01*
X526572Y767386D01*
X529823Y770637D01*
X536977Y770637D01*
X540818Y766796D01*
X540892Y766743D01*
X540962Y766683D01*
X540992Y766671D01*
X541018Y766652D01*
X541105Y766625D01*
X541190Y766591D01*
X541231Y766587D01*
X541253Y766580D01*
X541285Y766581D01*
X541357Y766573D01*
X547994Y766573D01*
X569723Y744844D01*
X569723Y658506D01*
X541644Y630427D01*
X478459Y630427D01*
X478369Y630413D01*
X478278Y630405D01*
X478249Y630393D01*
X478217Y630388D01*
X478136Y630345D01*
X478052Y630309D01*
X478020Y630283D01*
X477999Y630272D01*
X477977Y630249D01*
X477921Y630204D01*
X449296Y601579D01*
X449243Y601505D01*
X449183Y601435D01*
X449171Y601405D01*
X449152Y601379D01*
X449125Y601292D01*
X449091Y601207D01*
X449087Y601166D01*
X449080Y601144D01*
X449081Y601112D01*
X449073Y601041D01*
X449073Y556906D01*
X420994Y528827D01*
X390887Y528827D01*
X390773Y528808D01*
X390656Y528791D01*
X390651Y528789D01*
X390645Y528788D01*
X390542Y528733D01*
X390437Y528680D01*
X390433Y528675D01*
X390427Y528672D01*
X390347Y528588D01*
X390265Y528504D01*
X390261Y528498D01*
X390258Y528494D01*
X390250Y528477D01*
X390184Y528357D01*
X389829Y527500D01*
X386900Y524571D01*
X383072Y522985D01*
X378928Y522985D01*
X375100Y524571D01*
X372171Y527500D01*
X370585Y531328D01*
X370585Y535472D01*
X372171Y539300D01*
X375100Y542229D01*
X378928Y543815D01*
X383072Y543815D01*
X386900Y542229D01*
X389829Y539300D01*
X390184Y538443D01*
X390246Y538343D01*
X390306Y538243D01*
X390310Y538239D01*
X390314Y538234D01*
X390404Y538159D01*
X390493Y538083D01*
X390498Y538081D01*
X390503Y538077D01*
X390612Y538035D01*
X390721Y537991D01*
X390728Y537990D01*
X390733Y537989D01*
X390751Y537988D01*
X390887Y537973D01*
X416891Y537973D01*
X416981Y537987D01*
X417072Y537995D01*
X417101Y538007D01*
X417133Y538012D01*
X417214Y538055D01*
X417298Y538091D01*
X417330Y538117D01*
X417351Y538128D01*
X417373Y538151D01*
X417429Y538196D01*
X439704Y560471D01*
X439757Y560545D01*
X439817Y560615D01*
X439829Y560645D01*
X439848Y560671D01*
X439875Y560758D01*
X439909Y560843D01*
X439913Y560884D01*
X439920Y560906D01*
X439919Y560938D01*
X439927Y561009D01*
X439927Y605144D01*
X474356Y639573D01*
X537541Y639573D01*
X537631Y639587D01*
X537722Y639595D01*
X537751Y639607D01*
X537783Y639612D01*
X537864Y639655D01*
X537948Y639691D01*
X537980Y639717D01*
X538001Y639728D01*
X538023Y639751D01*
X538079Y639796D01*
X560354Y662071D01*
X560402Y662137D01*
X560409Y662145D01*
X560411Y662150D01*
X560467Y662215D01*
X560479Y662245D01*
X560498Y662271D01*
X560525Y662358D01*
X560559Y662443D01*
X560563Y662484D01*
X560570Y662506D01*
X560569Y662538D01*
X560577Y662609D01*
X560577Y740741D01*
X560563Y740831D01*
X560555Y740922D01*
X560543Y740951D01*
X560538Y740983D01*
X560495Y741064D01*
X560459Y741148D01*
X560433Y741180D01*
X560422Y741201D01*
X560399Y741223D01*
X560354Y741279D01*
X558322Y743311D01*
X558264Y743353D01*
X558212Y743402D01*
X558165Y743424D01*
X558123Y743454D01*
X558054Y743476D01*
X557989Y743506D01*
X557937Y743511D01*
X557887Y743527D01*
X557816Y743525D01*
X557745Y743533D01*
X557694Y743522D01*
X557642Y743520D01*
X557574Y743496D01*
X557504Y743481D01*
X557459Y743454D01*
X557411Y743436D01*
X557355Y743391D01*
X557293Y743354D01*
X557259Y743315D01*
X557219Y743282D01*
X557180Y743222D01*
X557133Y743168D01*
X557114Y743119D01*
X557086Y743075D01*
X557068Y743006D01*
X557041Y742939D01*
X557033Y742868D01*
X557025Y742837D01*
X557027Y742814D01*
X557023Y742773D01*
X557023Y715656D01*
X547994Y706627D01*
X541357Y706627D01*
X541267Y706613D01*
X541176Y706605D01*
X541146Y706593D01*
X541114Y706588D01*
X541033Y706545D01*
X540949Y706509D01*
X540917Y706483D01*
X540897Y706472D01*
X540874Y706449D01*
X540818Y706404D01*
X536977Y702563D01*
X529823Y702563D01*
X526572Y705814D01*
X526514Y705855D01*
X526462Y705905D01*
X526415Y705927D01*
X526373Y705957D01*
X526304Y705978D01*
X526239Y706008D01*
X526187Y706014D01*
X526137Y706029D01*
X526066Y706028D01*
X525995Y706036D01*
X525944Y706024D01*
X525892Y706023D01*
X525824Y705998D01*
X525754Y705983D01*
X525709Y705957D01*
X525661Y705939D01*
X525605Y705894D01*
X525543Y705857D01*
X525509Y705818D01*
X525469Y705785D01*
X525430Y705725D01*
X525383Y705670D01*
X525364Y705622D01*
X525336Y705578D01*
X525318Y705509D01*
X525291Y705442D01*
X525283Y705371D01*
X525275Y705340D01*
X525277Y705316D01*
X525273Y705275D01*
X525273Y696606D01*
X395594Y566927D01*
X389439Y566927D01*
X389368Y566916D01*
X389297Y566914D01*
X389248Y566896D01*
X389196Y566888D01*
X389133Y566854D01*
X389066Y566829D01*
X389025Y566797D01*
X388979Y566772D01*
X388930Y566720D01*
X388874Y566676D01*
X388846Y566632D01*
X388810Y566594D01*
X388779Y566529D01*
X388741Y566469D01*
X388728Y566418D01*
X388706Y566371D01*
X388698Y566300D01*
X388681Y566230D01*
X388685Y566178D01*
X388679Y566127D01*
X388694Y566056D01*
X388700Y565985D01*
X388720Y565937D01*
X388731Y565886D01*
X388768Y565825D01*
X388796Y565759D01*
X388841Y565703D01*
X388857Y565675D01*
X388875Y565660D01*
X388901Y565628D01*
X389829Y564700D01*
X391415Y560872D01*
X391415Y556728D01*
X389829Y552900D01*
X386900Y549971D01*
X383072Y548385D01*
X378928Y548385D01*
X375100Y549971D01*
X372171Y552900D01*
X370585Y556728D01*
X370585Y560872D01*
X372171Y564700D01*
X373099Y565628D01*
X373141Y565686D01*
X373190Y565738D01*
X373212Y565785D01*
X373243Y565827D01*
X373264Y565896D01*
X373294Y565961D01*
X373300Y566013D01*
X373315Y566063D01*
X373313Y566134D01*
X373321Y566205D01*
X373310Y566256D01*
X373309Y566308D01*
X373284Y566376D01*
X373269Y566446D01*
X373242Y566491D01*
X373224Y566539D01*
X373179Y566595D01*
X373143Y566657D01*
X373103Y566691D01*
X373070Y566731D01*
X373010Y566770D01*
X372956Y566817D01*
X372907Y566836D01*
X372864Y566864D01*
X372794Y566882D01*
X372728Y566909D01*
X372656Y566917D01*
X372625Y566925D01*
X372602Y566923D01*
X372561Y566927D01*
X370509Y566927D01*
X370419Y566913D01*
X370328Y566905D01*
X370299Y566893D01*
X370267Y566888D01*
X370186Y566845D01*
X370102Y566809D01*
X370070Y566783D01*
X370049Y566772D01*
X370027Y566749D01*
X369971Y566704D01*
X366746Y563479D01*
X366693Y563405D01*
X366633Y563335D01*
X366621Y563305D01*
X366602Y563279D01*
X366575Y563192D01*
X366541Y563107D01*
X366537Y563066D01*
X366530Y563044D01*
X366531Y563012D01*
X366523Y562941D01*
X366523Y516559D01*
X366537Y516469D01*
X366545Y516378D01*
X366557Y516349D01*
X366562Y516317D01*
X366605Y516236D01*
X366641Y516152D01*
X366667Y516120D01*
X366678Y516099D01*
X366701Y516077D01*
X366746Y516021D01*
X369971Y512796D01*
X370045Y512743D01*
X370115Y512683D01*
X370145Y512671D01*
X370171Y512652D01*
X370258Y512625D01*
X370343Y512591D01*
X370384Y512587D01*
X370406Y512580D01*
X370438Y512581D01*
X370509Y512573D01*
X371113Y512573D01*
X371227Y512592D01*
X371344Y512609D01*
X371349Y512611D01*
X371355Y512612D01*
X371458Y512667D01*
X371563Y512720D01*
X371567Y512725D01*
X371573Y512728D01*
X371652Y512811D01*
X371735Y512896D01*
X371739Y512902D01*
X371742Y512906D01*
X371750Y512923D01*
X371816Y513043D01*
X372171Y513900D01*
X375100Y516829D01*
X378928Y518415D01*
X383072Y518415D01*
X386900Y516829D01*
X389829Y513900D01*
X391415Y510072D01*
X391415Y505928D01*
X389829Y502100D01*
X386900Y499171D01*
X383072Y497585D01*
X378928Y497585D01*
G37*
%LPD*%
%LPC*%
G36*
X72623Y499363D02*
X72623Y499363D01*
X67563Y504423D01*
X67563Y511577D01*
X72623Y516637D01*
X78055Y516637D01*
X78145Y516651D01*
X78236Y516659D01*
X78265Y516671D01*
X78297Y516676D01*
X78378Y516719D01*
X78462Y516755D01*
X78494Y516781D01*
X78515Y516792D01*
X78537Y516815D01*
X78593Y516860D01*
X84104Y522371D01*
X87006Y525273D01*
X95675Y525273D01*
X95746Y525284D01*
X95818Y525286D01*
X95867Y525304D01*
X95918Y525312D01*
X95981Y525346D01*
X96049Y525371D01*
X96089Y525403D01*
X96135Y525428D01*
X96185Y525480D01*
X96241Y525524D01*
X96269Y525568D01*
X96305Y525606D01*
X96335Y525671D01*
X96374Y525731D01*
X96386Y525782D01*
X96408Y525829D01*
X96416Y525900D01*
X96434Y525970D01*
X96430Y526022D01*
X96436Y526073D01*
X96420Y526144D01*
X96415Y526215D01*
X96394Y526263D01*
X96383Y526314D01*
X96346Y526375D01*
X96318Y526441D01*
X96274Y526497D01*
X96257Y526525D01*
X96239Y526540D01*
X96214Y526572D01*
X92963Y529823D01*
X92963Y536977D01*
X96214Y540228D01*
X96255Y540286D01*
X96305Y540338D01*
X96327Y540385D01*
X96357Y540427D01*
X96378Y540496D01*
X96408Y540561D01*
X96414Y540613D01*
X96429Y540663D01*
X96428Y540734D01*
X96436Y540805D01*
X96424Y540856D01*
X96423Y540908D01*
X96398Y540976D01*
X96383Y541046D01*
X96357Y541091D01*
X96339Y541139D01*
X96294Y541195D01*
X96257Y541257D01*
X96218Y541291D01*
X96185Y541331D01*
X96125Y541370D01*
X96070Y541417D01*
X96022Y541436D01*
X95978Y541464D01*
X95909Y541482D01*
X95842Y541509D01*
X95771Y541517D01*
X95740Y541525D01*
X95716Y541523D01*
X95675Y541527D01*
X93356Y541527D01*
X84327Y550556D01*
X84327Y552875D01*
X84316Y552946D01*
X84314Y553018D01*
X84296Y553067D01*
X84288Y553118D01*
X84254Y553181D01*
X84229Y553249D01*
X84197Y553289D01*
X84172Y553335D01*
X84120Y553385D01*
X84076Y553441D01*
X84032Y553469D01*
X83994Y553505D01*
X83929Y553535D01*
X83869Y553574D01*
X83818Y553586D01*
X83771Y553608D01*
X83700Y553616D01*
X83630Y553634D01*
X83578Y553630D01*
X83527Y553636D01*
X83456Y553620D01*
X83385Y553615D01*
X83337Y553594D01*
X83286Y553583D01*
X83225Y553546D01*
X83159Y553518D01*
X83103Y553474D01*
X83075Y553457D01*
X83060Y553439D01*
X83028Y553414D01*
X79777Y550163D01*
X72623Y550163D01*
X67563Y555223D01*
X67563Y562377D01*
X72623Y567437D01*
X79777Y567437D01*
X83028Y564186D01*
X83086Y564145D01*
X83138Y564095D01*
X83185Y564073D01*
X83227Y564043D01*
X83296Y564022D01*
X83361Y563992D01*
X83413Y563986D01*
X83463Y563971D01*
X83534Y563972D01*
X83605Y563964D01*
X83656Y563976D01*
X83708Y563977D01*
X83776Y564002D01*
X83846Y564017D01*
X83891Y564043D01*
X83939Y564061D01*
X83995Y564106D01*
X84057Y564143D01*
X84091Y564182D01*
X84131Y564215D01*
X84170Y564275D01*
X84217Y564330D01*
X84236Y564378D01*
X84264Y564422D01*
X84282Y564491D01*
X84309Y564558D01*
X84317Y564629D01*
X84325Y564660D01*
X84323Y564684D01*
X84327Y564725D01*
X84327Y573394D01*
X87229Y576296D01*
X92740Y581807D01*
X92793Y581881D01*
X92853Y581951D01*
X92865Y581981D01*
X92884Y582007D01*
X92911Y582094D01*
X92945Y582179D01*
X92949Y582220D01*
X92956Y582242D01*
X92955Y582274D01*
X92963Y582345D01*
X92963Y587777D01*
X96214Y591028D01*
X96255Y591086D01*
X96305Y591138D01*
X96327Y591185D01*
X96357Y591227D01*
X96378Y591296D01*
X96408Y591361D01*
X96414Y591413D01*
X96429Y591463D01*
X96428Y591534D01*
X96436Y591605D01*
X96424Y591656D01*
X96423Y591708D01*
X96398Y591776D01*
X96383Y591846D01*
X96357Y591891D01*
X96339Y591939D01*
X96294Y591995D01*
X96257Y592057D01*
X96218Y592091D01*
X96185Y592131D01*
X96125Y592170D01*
X96070Y592217D01*
X96022Y592236D01*
X95978Y592264D01*
X95909Y592282D01*
X95842Y592309D01*
X95771Y592317D01*
X95740Y592325D01*
X95716Y592323D01*
X95675Y592327D01*
X91109Y592327D01*
X91019Y592313D01*
X90928Y592305D01*
X90899Y592293D01*
X90867Y592288D01*
X90786Y592245D01*
X90702Y592209D01*
X90670Y592183D01*
X90649Y592172D01*
X90627Y592149D01*
X90571Y592104D01*
X85060Y586593D01*
X85007Y586519D01*
X84947Y586449D01*
X84935Y586419D01*
X84916Y586393D01*
X84889Y586306D01*
X84855Y586221D01*
X84851Y586180D01*
X84844Y586158D01*
X84845Y586126D01*
X84837Y586055D01*
X84837Y580623D01*
X79777Y575563D01*
X72623Y575563D01*
X67563Y580623D01*
X67563Y587777D01*
X72623Y592837D01*
X78055Y592837D01*
X78145Y592851D01*
X78236Y592859D01*
X78265Y592871D01*
X78297Y592876D01*
X78378Y592919D01*
X78462Y592955D01*
X78494Y592981D01*
X78515Y592992D01*
X78537Y593015D01*
X78593Y593060D01*
X87006Y601473D01*
X95675Y601473D01*
X95746Y601484D01*
X95818Y601486D01*
X95867Y601504D01*
X95918Y601512D01*
X95981Y601546D01*
X96049Y601571D01*
X96089Y601603D01*
X96135Y601628D01*
X96185Y601680D01*
X96241Y601724D01*
X96269Y601768D01*
X96305Y601806D01*
X96335Y601871D01*
X96374Y601931D01*
X96386Y601982D01*
X96408Y602029D01*
X96416Y602100D01*
X96434Y602170D01*
X96430Y602222D01*
X96436Y602273D01*
X96420Y602344D01*
X96415Y602415D01*
X96394Y602463D01*
X96383Y602514D01*
X96346Y602575D01*
X96318Y602641D01*
X96274Y602697D01*
X96257Y602725D01*
X96239Y602740D01*
X96214Y602772D01*
X92963Y606023D01*
X92963Y613177D01*
X98023Y618237D01*
X105177Y618237D01*
X110237Y613177D01*
X110237Y607491D01*
X110248Y607421D01*
X110250Y607349D01*
X110268Y607300D01*
X110276Y607249D01*
X110310Y607185D01*
X110335Y607118D01*
X110367Y607077D01*
X110392Y607031D01*
X110443Y606982D01*
X110488Y606926D01*
X110532Y606898D01*
X110570Y606862D01*
X110635Y606832D01*
X110695Y606793D01*
X110746Y606780D01*
X110793Y606758D01*
X110864Y606750D01*
X110934Y606733D01*
X110986Y606737D01*
X111037Y606731D01*
X111108Y606746D01*
X111179Y606752D01*
X111227Y606772D01*
X111278Y606783D01*
X111339Y606820D01*
X111405Y606848D01*
X111461Y606893D01*
X111489Y606910D01*
X111504Y606927D01*
X111536Y606953D01*
X147604Y643021D01*
X147649Y643083D01*
X147678Y643114D01*
X147683Y643126D01*
X147717Y643165D01*
X147729Y643195D01*
X147748Y643221D01*
X147775Y643308D01*
X147809Y643393D01*
X147813Y643434D01*
X147820Y643456D01*
X147819Y643488D01*
X147827Y643559D01*
X147827Y694044D01*
X194956Y741173D01*
X218713Y741173D01*
X218827Y741192D01*
X218944Y741209D01*
X218949Y741211D01*
X218955Y741212D01*
X219058Y741267D01*
X219163Y741320D01*
X219167Y741325D01*
X219173Y741328D01*
X219253Y741412D01*
X219335Y741496D01*
X219339Y741502D01*
X219342Y741506D01*
X219350Y741523D01*
X219416Y741643D01*
X219771Y742500D01*
X222700Y745429D01*
X226528Y747015D01*
X230672Y747015D01*
X234500Y745429D01*
X237429Y742500D01*
X239015Y738672D01*
X239015Y734528D01*
X237429Y730700D01*
X236501Y729772D01*
X236459Y729714D01*
X236410Y729662D01*
X236388Y729615D01*
X236357Y729573D01*
X236336Y729504D01*
X236306Y729439D01*
X236300Y729387D01*
X236285Y729337D01*
X236287Y729266D01*
X236279Y729195D01*
X236290Y729144D01*
X236291Y729092D01*
X236316Y729024D01*
X236331Y728954D01*
X236358Y728909D01*
X236376Y728861D01*
X236421Y728805D01*
X236457Y728743D01*
X236497Y728709D01*
X236530Y728669D01*
X236590Y728630D01*
X236644Y728583D01*
X236693Y728564D01*
X236736Y728536D01*
X236806Y728518D01*
X236872Y728491D01*
X236944Y728483D01*
X236975Y728475D01*
X236998Y728477D01*
X237039Y728473D01*
X239091Y728473D01*
X239181Y728487D01*
X239272Y728495D01*
X239301Y728507D01*
X239333Y728512D01*
X239414Y728555D01*
X239498Y728591D01*
X239530Y728617D01*
X239551Y728628D01*
X239573Y728651D01*
X239629Y728696D01*
X242854Y731921D01*
X242907Y731995D01*
X242967Y732065D01*
X242979Y732095D01*
X242998Y732121D01*
X243025Y732208D01*
X243059Y732293D01*
X243063Y732334D01*
X243070Y732356D01*
X243069Y732388D01*
X243077Y732459D01*
X243077Y899491D01*
X243063Y899581D01*
X243055Y899672D01*
X243043Y899701D01*
X243038Y899733D01*
X242995Y899814D01*
X242959Y899898D01*
X242933Y899930D01*
X242922Y899951D01*
X242899Y899973D01*
X242854Y900029D01*
X236444Y906439D01*
X236428Y906451D01*
X236416Y906466D01*
X236328Y906522D01*
X236244Y906583D01*
X236225Y906588D01*
X236209Y906599D01*
X236108Y906624D01*
X236009Y906655D01*
X235989Y906654D01*
X235970Y906659D01*
X235867Y906651D01*
X235764Y906649D01*
X235745Y906642D01*
X235725Y906640D01*
X235630Y906600D01*
X235532Y906564D01*
X235517Y906552D01*
X235499Y906544D01*
X235368Y906439D01*
X234500Y905571D01*
X230672Y903985D01*
X226528Y903985D01*
X222700Y905571D01*
X219771Y908500D01*
X218185Y912328D01*
X218185Y916472D01*
X219771Y920300D01*
X222700Y923229D01*
X226528Y924815D01*
X230672Y924815D01*
X234500Y923229D01*
X237429Y920300D01*
X238723Y917176D01*
X238758Y917120D01*
X238783Y917060D01*
X238835Y916995D01*
X238853Y916967D01*
X238868Y916954D01*
X238888Y916929D01*
X239746Y916071D01*
X252223Y903594D01*
X252223Y728356D01*
X243194Y719327D01*
X237039Y719327D01*
X236968Y719316D01*
X236897Y719314D01*
X236848Y719296D01*
X236796Y719288D01*
X236733Y719254D01*
X236666Y719229D01*
X236625Y719197D01*
X236579Y719172D01*
X236530Y719120D01*
X236474Y719076D01*
X236446Y719032D01*
X236410Y718994D01*
X236379Y718929D01*
X236341Y718869D01*
X236328Y718818D01*
X236306Y718771D01*
X236298Y718700D01*
X236281Y718630D01*
X236285Y718578D01*
X236279Y718527D01*
X236294Y718456D01*
X236300Y718385D01*
X236320Y718337D01*
X236331Y718286D01*
X236368Y718225D01*
X236396Y718159D01*
X236441Y718103D01*
X236457Y718075D01*
X236475Y718060D01*
X236501Y718028D01*
X237429Y717100D01*
X237784Y716243D01*
X237846Y716143D01*
X237906Y716043D01*
X237910Y716039D01*
X237914Y716034D01*
X238004Y715959D01*
X238093Y715883D01*
X238098Y715881D01*
X238103Y715877D01*
X238212Y715835D01*
X238321Y715791D01*
X238328Y715790D01*
X238333Y715789D01*
X238351Y715788D01*
X238487Y715773D01*
X243194Y715773D01*
X252223Y706744D01*
X252223Y601356D01*
X243194Y592327D01*
X237039Y592327D01*
X236968Y592316D01*
X236897Y592314D01*
X236848Y592296D01*
X236796Y592288D01*
X236733Y592254D01*
X236666Y592229D01*
X236625Y592197D01*
X236579Y592172D01*
X236530Y592120D01*
X236474Y592076D01*
X236446Y592032D01*
X236410Y591994D01*
X236379Y591929D01*
X236341Y591869D01*
X236328Y591818D01*
X236306Y591771D01*
X236298Y591700D01*
X236281Y591630D01*
X236285Y591578D01*
X236279Y591527D01*
X236294Y591456D01*
X236300Y591385D01*
X236320Y591337D01*
X236331Y591286D01*
X236368Y591225D01*
X236396Y591159D01*
X236441Y591103D01*
X236457Y591075D01*
X236475Y591060D01*
X236501Y591028D01*
X237429Y590100D01*
X239015Y586272D01*
X239015Y582128D01*
X237429Y578300D01*
X234500Y575371D01*
X230672Y573785D01*
X226528Y573785D01*
X222700Y575371D01*
X219771Y578300D01*
X218185Y582128D01*
X218185Y586272D01*
X219771Y590100D01*
X220699Y591028D01*
X220741Y591086D01*
X220790Y591138D01*
X220812Y591185D01*
X220843Y591227D01*
X220864Y591296D01*
X220894Y591361D01*
X220900Y591413D01*
X220915Y591463D01*
X220913Y591534D01*
X220921Y591605D01*
X220910Y591656D01*
X220909Y591708D01*
X220884Y591776D01*
X220869Y591846D01*
X220842Y591891D01*
X220824Y591939D01*
X220779Y591995D01*
X220743Y592057D01*
X220703Y592091D01*
X220670Y592131D01*
X220610Y592170D01*
X220556Y592217D01*
X220507Y592236D01*
X220464Y592264D01*
X220394Y592282D01*
X220328Y592309D01*
X220256Y592317D01*
X220225Y592325D01*
X220202Y592323D01*
X220161Y592327D01*
X199059Y592327D01*
X198969Y592313D01*
X198878Y592305D01*
X198849Y592293D01*
X198817Y592288D01*
X198736Y592245D01*
X198652Y592209D01*
X198620Y592183D01*
X198599Y592172D01*
X198577Y592149D01*
X198521Y592104D01*
X109844Y503427D01*
X109557Y503427D01*
X109467Y503413D01*
X109376Y503405D01*
X109346Y503393D01*
X109314Y503388D01*
X109233Y503345D01*
X109149Y503309D01*
X109117Y503283D01*
X109097Y503272D01*
X109074Y503249D01*
X109018Y503204D01*
X105177Y499363D01*
X98023Y499363D01*
X92963Y504423D01*
X92963Y511577D01*
X96214Y514828D01*
X96255Y514886D01*
X96305Y514938D01*
X96327Y514985D01*
X96357Y515027D01*
X96378Y515096D01*
X96408Y515161D01*
X96414Y515213D01*
X96429Y515263D01*
X96428Y515334D01*
X96436Y515405D01*
X96424Y515456D01*
X96423Y515508D01*
X96398Y515576D01*
X96383Y515646D01*
X96357Y515691D01*
X96339Y515739D01*
X96294Y515795D01*
X96257Y515857D01*
X96218Y515891D01*
X96185Y515931D01*
X96125Y515970D01*
X96070Y516017D01*
X96022Y516036D01*
X95978Y516064D01*
X95909Y516082D01*
X95842Y516109D01*
X95771Y516117D01*
X95740Y516125D01*
X95716Y516123D01*
X95675Y516127D01*
X91109Y516127D01*
X91019Y516113D01*
X90928Y516105D01*
X90899Y516093D01*
X90867Y516088D01*
X90786Y516045D01*
X90702Y516009D01*
X90670Y515983D01*
X90649Y515972D01*
X90627Y515949D01*
X90571Y515904D01*
X85060Y510393D01*
X85007Y510319D01*
X84947Y510249D01*
X84935Y510219D01*
X84916Y510193D01*
X84889Y510106D01*
X84855Y510021D01*
X84851Y509980D01*
X84844Y509958D01*
X84845Y509926D01*
X84837Y509855D01*
X84837Y504423D01*
X79777Y499363D01*
X72623Y499363D01*
G37*
%LPD*%
%LPC*%
G36*
X48981Y351535D02*
X48981Y351535D01*
X45620Y352927D01*
X43047Y355500D01*
X41655Y358861D01*
X41655Y377739D01*
X43047Y381100D01*
X45620Y383673D01*
X45757Y383729D01*
X45857Y383791D01*
X45957Y383851D01*
X45961Y383856D01*
X45966Y383859D01*
X46041Y383949D01*
X46117Y384038D01*
X46119Y384044D01*
X46123Y384048D01*
X46165Y384157D01*
X46209Y384266D01*
X46210Y384273D01*
X46211Y384278D01*
X46212Y384296D01*
X46227Y384433D01*
X46227Y389244D01*
X52354Y395371D01*
X52407Y395445D01*
X52467Y395515D01*
X52479Y395545D01*
X52498Y395571D01*
X52525Y395658D01*
X52559Y395743D01*
X52563Y395784D01*
X52570Y395806D01*
X52569Y395838D01*
X52577Y395909D01*
X52577Y643244D01*
X61606Y652273D01*
X70275Y652273D01*
X70346Y652284D01*
X70418Y652286D01*
X70467Y652304D01*
X70518Y652312D01*
X70581Y652346D01*
X70649Y652371D01*
X70689Y652403D01*
X70735Y652428D01*
X70785Y652480D01*
X70841Y652524D01*
X70869Y652568D01*
X70905Y652606D01*
X70935Y652671D01*
X70974Y652731D01*
X70986Y652782D01*
X71008Y652829D01*
X71016Y652900D01*
X71034Y652970D01*
X71030Y653022D01*
X71036Y653073D01*
X71020Y653144D01*
X71015Y653215D01*
X70994Y653263D01*
X70983Y653314D01*
X70946Y653375D01*
X70918Y653441D01*
X70874Y653497D01*
X70857Y653525D01*
X70839Y653540D01*
X70814Y653572D01*
X67563Y656823D01*
X67563Y663977D01*
X71404Y667818D01*
X71457Y667892D01*
X71517Y667962D01*
X71529Y667992D01*
X71548Y668018D01*
X71575Y668105D01*
X71609Y668190D01*
X71613Y668231D01*
X71620Y668253D01*
X71619Y668285D01*
X71627Y668357D01*
X71627Y725794D01*
X147604Y801771D01*
X147657Y801845D01*
X147717Y801915D01*
X147729Y801945D01*
X147748Y801971D01*
X147775Y802058D01*
X147809Y802143D01*
X147813Y802184D01*
X147820Y802206D01*
X147819Y802238D01*
X147827Y802309D01*
X147827Y890894D01*
X201306Y944373D01*
X218713Y944373D01*
X218827Y944392D01*
X218944Y944409D01*
X218949Y944411D01*
X218955Y944412D01*
X219058Y944467D01*
X219163Y944520D01*
X219167Y944525D01*
X219173Y944528D01*
X219253Y944612D01*
X219335Y944696D01*
X219339Y944702D01*
X219342Y944706D01*
X219350Y944723D01*
X219416Y944843D01*
X219771Y945700D01*
X222700Y948629D01*
X226528Y950215D01*
X230672Y950215D01*
X234500Y948629D01*
X237429Y945700D01*
X239015Y941872D01*
X239015Y937728D01*
X237429Y933900D01*
X234500Y930971D01*
X230672Y929385D01*
X226528Y929385D01*
X222700Y930971D01*
X219771Y933900D01*
X219416Y934757D01*
X219354Y934857D01*
X219294Y934957D01*
X219290Y934961D01*
X219286Y934966D01*
X219196Y935041D01*
X219107Y935117D01*
X219102Y935119D01*
X219097Y935123D01*
X218988Y935165D01*
X218879Y935209D01*
X218872Y935210D01*
X218867Y935211D01*
X218849Y935212D01*
X218713Y935227D01*
X205409Y935227D01*
X205319Y935213D01*
X205228Y935205D01*
X205199Y935193D01*
X205167Y935188D01*
X205086Y935145D01*
X205002Y935109D01*
X204970Y935083D01*
X204949Y935072D01*
X204927Y935049D01*
X204871Y935004D01*
X157196Y887329D01*
X157143Y887255D01*
X157083Y887185D01*
X157071Y887155D01*
X157052Y887129D01*
X157025Y887042D01*
X156991Y886957D01*
X156987Y886916D01*
X156980Y886894D01*
X156981Y886862D01*
X156973Y886791D01*
X156973Y798206D01*
X80996Y722229D01*
X80943Y722155D01*
X80883Y722085D01*
X80871Y722055D01*
X80852Y722029D01*
X80825Y721942D01*
X80791Y721857D01*
X80787Y721816D01*
X80780Y721794D01*
X80781Y721762D01*
X80773Y721691D01*
X80773Y668357D01*
X80787Y668267D01*
X80795Y668176D01*
X80807Y668146D01*
X80812Y668114D01*
X80855Y668033D01*
X80891Y667949D01*
X80917Y667917D01*
X80928Y667897D01*
X80951Y667874D01*
X80996Y667818D01*
X84837Y663977D01*
X84837Y656823D01*
X81586Y653572D01*
X81545Y653514D01*
X81495Y653462D01*
X81473Y653415D01*
X81443Y653373D01*
X81422Y653304D01*
X81392Y653239D01*
X81386Y653187D01*
X81371Y653137D01*
X81372Y653066D01*
X81364Y652995D01*
X81376Y652944D01*
X81377Y652892D01*
X81402Y652824D01*
X81417Y652754D01*
X81443Y652709D01*
X81461Y652661D01*
X81506Y652605D01*
X81543Y652543D01*
X81582Y652509D01*
X81615Y652469D01*
X81675Y652430D01*
X81730Y652383D01*
X81778Y652364D01*
X81822Y652336D01*
X81891Y652318D01*
X81958Y652291D01*
X82029Y652283D01*
X82060Y652275D01*
X82084Y652277D01*
X82125Y652273D01*
X95675Y652273D01*
X95746Y652284D01*
X95818Y652286D01*
X95867Y652304D01*
X95918Y652312D01*
X95981Y652346D01*
X96049Y652371D01*
X96089Y652403D01*
X96135Y652428D01*
X96185Y652480D01*
X96241Y652524D01*
X96269Y652568D01*
X96305Y652606D01*
X96335Y652671D01*
X96374Y652731D01*
X96386Y652782D01*
X96408Y652829D01*
X96416Y652900D01*
X96434Y652970D01*
X96430Y653022D01*
X96436Y653073D01*
X96420Y653144D01*
X96415Y653215D01*
X96394Y653263D01*
X96383Y653314D01*
X96346Y653375D01*
X96318Y653441D01*
X96274Y653497D01*
X96257Y653525D01*
X96239Y653540D01*
X96214Y653572D01*
X92963Y656823D01*
X92963Y663977D01*
X96804Y667818D01*
X96857Y667892D01*
X96917Y667962D01*
X96929Y667992D01*
X96948Y668018D01*
X96975Y668105D01*
X97009Y668190D01*
X97013Y668231D01*
X97020Y668253D01*
X97019Y668285D01*
X97027Y668357D01*
X97027Y713094D01*
X173004Y789071D01*
X173057Y789145D01*
X173117Y789215D01*
X173129Y789245D01*
X173148Y789271D01*
X173175Y789358D01*
X173209Y789443D01*
X173213Y789484D01*
X173220Y789506D01*
X173219Y789538D01*
X173227Y789609D01*
X173227Y852794D01*
X188606Y868173D01*
X218713Y868173D01*
X218827Y868192D01*
X218944Y868209D01*
X218949Y868211D01*
X218955Y868212D01*
X219058Y868267D01*
X219163Y868320D01*
X219167Y868325D01*
X219173Y868328D01*
X219253Y868412D01*
X219335Y868496D01*
X219339Y868502D01*
X219342Y868506D01*
X219350Y868523D01*
X219416Y868643D01*
X219771Y869500D01*
X222700Y872429D01*
X226528Y874015D01*
X230672Y874015D01*
X234500Y872429D01*
X237429Y869500D01*
X239015Y865672D01*
X239015Y861528D01*
X237429Y857700D01*
X234500Y854771D01*
X230672Y853185D01*
X226528Y853185D01*
X222700Y854771D01*
X219771Y857700D01*
X219416Y858557D01*
X219354Y858657D01*
X219294Y858757D01*
X219290Y858761D01*
X219286Y858766D01*
X219196Y858841D01*
X219107Y858917D01*
X219102Y858919D01*
X219097Y858923D01*
X218988Y858965D01*
X218879Y859009D01*
X218872Y859010D01*
X218867Y859011D01*
X218849Y859012D01*
X218713Y859027D01*
X192709Y859027D01*
X192619Y859013D01*
X192528Y859005D01*
X192499Y858993D01*
X192467Y858988D01*
X192386Y858945D01*
X192302Y858909D01*
X192270Y858883D01*
X192249Y858872D01*
X192227Y858849D01*
X192171Y858804D01*
X182596Y849229D01*
X182543Y849155D01*
X182483Y849085D01*
X182471Y849055D01*
X182452Y849029D01*
X182425Y848942D01*
X182391Y848857D01*
X182387Y848816D01*
X182380Y848794D01*
X182381Y848762D01*
X182373Y848691D01*
X182373Y785506D01*
X106396Y709529D01*
X106351Y709467D01*
X106323Y709438D01*
X106318Y709427D01*
X106283Y709385D01*
X106271Y709355D01*
X106252Y709329D01*
X106225Y709242D01*
X106191Y709157D01*
X106187Y709116D01*
X106180Y709094D01*
X106181Y709062D01*
X106173Y708991D01*
X106173Y668357D01*
X106187Y668267D01*
X106195Y668176D01*
X106207Y668146D01*
X106212Y668114D01*
X106255Y668033D01*
X106291Y667949D01*
X106317Y667917D01*
X106328Y667897D01*
X106351Y667874D01*
X106396Y667818D01*
X110237Y663977D01*
X110237Y658291D01*
X110248Y658221D01*
X110250Y658149D01*
X110268Y658100D01*
X110276Y658049D01*
X110310Y657985D01*
X110335Y657918D01*
X110367Y657877D01*
X110392Y657831D01*
X110444Y657782D01*
X110488Y657726D01*
X110532Y657698D01*
X110570Y657662D01*
X110635Y657632D01*
X110695Y657593D01*
X110746Y657580D01*
X110793Y657558D01*
X110864Y657550D01*
X110934Y657533D01*
X110986Y657537D01*
X111037Y657531D01*
X111108Y657546D01*
X111179Y657552D01*
X111227Y657572D01*
X111278Y657583D01*
X111339Y657620D01*
X111405Y657648D01*
X111461Y657693D01*
X111489Y657710D01*
X111504Y657727D01*
X111536Y657753D01*
X122204Y668421D01*
X122257Y668495D01*
X122317Y668565D01*
X122329Y668595D01*
X122348Y668621D01*
X122375Y668708D01*
X122409Y668793D01*
X122413Y668834D01*
X122420Y668856D01*
X122419Y668888D01*
X122427Y668959D01*
X122427Y713094D01*
X201306Y791973D01*
X218713Y791973D01*
X218827Y791992D01*
X218944Y792009D01*
X218949Y792011D01*
X218955Y792012D01*
X219058Y792067D01*
X219163Y792120D01*
X219167Y792125D01*
X219173Y792128D01*
X219253Y792212D01*
X219335Y792296D01*
X219339Y792302D01*
X219342Y792306D01*
X219350Y792323D01*
X219416Y792443D01*
X219771Y793300D01*
X222700Y796229D01*
X226528Y797815D01*
X230672Y797815D01*
X234500Y796229D01*
X237429Y793300D01*
X239015Y789472D01*
X239015Y785328D01*
X237429Y781500D01*
X234500Y778571D01*
X230672Y776985D01*
X226528Y776985D01*
X222700Y778571D01*
X219771Y781500D01*
X219416Y782357D01*
X219354Y782457D01*
X219294Y782557D01*
X219290Y782561D01*
X219286Y782566D01*
X219196Y782641D01*
X219107Y782717D01*
X219102Y782719D01*
X219097Y782723D01*
X218988Y782765D01*
X218879Y782809D01*
X218872Y782810D01*
X218867Y782811D01*
X218849Y782812D01*
X218713Y782827D01*
X205409Y782827D01*
X205319Y782813D01*
X205228Y782805D01*
X205199Y782793D01*
X205167Y782788D01*
X205086Y782745D01*
X205002Y782709D01*
X204970Y782683D01*
X204949Y782672D01*
X204927Y782649D01*
X204871Y782604D01*
X131796Y709529D01*
X131751Y709467D01*
X131723Y709438D01*
X131718Y709427D01*
X131683Y709385D01*
X131671Y709355D01*
X131652Y709329D01*
X131625Y709242D01*
X131591Y709157D01*
X131587Y709116D01*
X131580Y709094D01*
X131581Y709062D01*
X131573Y708991D01*
X131573Y664856D01*
X109844Y643127D01*
X107525Y643127D01*
X107454Y643116D01*
X107382Y643114D01*
X107333Y643096D01*
X107282Y643088D01*
X107219Y643054D01*
X107151Y643029D01*
X107111Y642997D01*
X107065Y642972D01*
X107015Y642920D01*
X106959Y642876D01*
X106931Y642832D01*
X106895Y642794D01*
X106865Y642729D01*
X106826Y642669D01*
X106814Y642618D01*
X106792Y642571D01*
X106784Y642500D01*
X106766Y642430D01*
X106770Y642378D01*
X106764Y642327D01*
X106780Y642256D01*
X106785Y642185D01*
X106806Y642137D01*
X106817Y642086D01*
X106854Y642025D01*
X106882Y641959D01*
X106926Y641903D01*
X106943Y641875D01*
X106961Y641860D01*
X106986Y641828D01*
X110237Y638577D01*
X110237Y631423D01*
X105177Y626363D01*
X98023Y626363D01*
X92963Y631423D01*
X92963Y638577D01*
X96214Y641828D01*
X96255Y641886D01*
X96305Y641938D01*
X96327Y641985D01*
X96357Y642027D01*
X96378Y642096D01*
X96408Y642161D01*
X96414Y642213D01*
X96429Y642263D01*
X96428Y642334D01*
X96436Y642405D01*
X96424Y642456D01*
X96423Y642508D01*
X96399Y642576D01*
X96383Y642646D01*
X96357Y642691D01*
X96339Y642739D01*
X96294Y642795D01*
X96257Y642857D01*
X96218Y642891D01*
X96185Y642931D01*
X96125Y642970D01*
X96070Y643017D01*
X96022Y643036D01*
X95978Y643064D01*
X95909Y643082D01*
X95842Y643109D01*
X95771Y643117D01*
X95740Y643125D01*
X95716Y643123D01*
X95675Y643127D01*
X82125Y643127D01*
X82054Y643116D01*
X81982Y643114D01*
X81933Y643096D01*
X81882Y643088D01*
X81819Y643054D01*
X81751Y643029D01*
X81711Y642997D01*
X81665Y642972D01*
X81615Y642920D01*
X81559Y642876D01*
X81531Y642832D01*
X81495Y642794D01*
X81465Y642729D01*
X81426Y642669D01*
X81414Y642618D01*
X81392Y642571D01*
X81384Y642500D01*
X81366Y642430D01*
X81370Y642378D01*
X81364Y642327D01*
X81380Y642256D01*
X81385Y642185D01*
X81406Y642137D01*
X81417Y642086D01*
X81454Y642025D01*
X81482Y641959D01*
X81526Y641903D01*
X81543Y641875D01*
X81561Y641860D01*
X81586Y641828D01*
X84837Y638577D01*
X84837Y631423D01*
X79777Y626363D01*
X72623Y626363D01*
X67563Y631423D01*
X67563Y638577D01*
X70814Y641828D01*
X70855Y641886D01*
X70905Y641938D01*
X70927Y641985D01*
X70957Y642027D01*
X70978Y642096D01*
X71008Y642161D01*
X71014Y642213D01*
X71029Y642263D01*
X71028Y642334D01*
X71036Y642405D01*
X71024Y642456D01*
X71023Y642508D01*
X70999Y642576D01*
X70983Y642646D01*
X70957Y642691D01*
X70939Y642739D01*
X70894Y642795D01*
X70857Y642857D01*
X70818Y642891D01*
X70785Y642931D01*
X70725Y642970D01*
X70670Y643017D01*
X70622Y643036D01*
X70578Y643064D01*
X70509Y643082D01*
X70442Y643109D01*
X70371Y643117D01*
X70340Y643125D01*
X70316Y643123D01*
X70275Y643127D01*
X65709Y643127D01*
X65619Y643113D01*
X65528Y643105D01*
X65499Y643093D01*
X65467Y643088D01*
X65386Y643045D01*
X65302Y643009D01*
X65270Y642983D01*
X65249Y642972D01*
X65227Y642949D01*
X65171Y642904D01*
X61946Y639679D01*
X61893Y639605D01*
X61833Y639535D01*
X61821Y639505D01*
X61802Y639479D01*
X61775Y639392D01*
X61741Y639307D01*
X61737Y639266D01*
X61730Y639244D01*
X61731Y639212D01*
X61723Y639141D01*
X61723Y391806D01*
X55596Y385679D01*
X55543Y385605D01*
X55483Y385535D01*
X55471Y385505D01*
X55452Y385479D01*
X55425Y385392D01*
X55391Y385307D01*
X55387Y385266D01*
X55380Y385244D01*
X55381Y385212D01*
X55373Y385141D01*
X55373Y384433D01*
X55392Y384318D01*
X55409Y384202D01*
X55411Y384196D01*
X55412Y384190D01*
X55467Y384087D01*
X55520Y383983D01*
X55525Y383978D01*
X55528Y383973D01*
X55612Y383892D01*
X55696Y383810D01*
X55702Y383807D01*
X55706Y383803D01*
X55723Y383795D01*
X55843Y383729D01*
X55980Y383673D01*
X58553Y381100D01*
X59945Y377739D01*
X59945Y358861D01*
X58553Y355500D01*
X55980Y352927D01*
X52619Y351535D01*
X48981Y351535D01*
G37*
%LPD*%
G36*
X392286Y633924D02*
X392286Y633924D01*
X392357Y633930D01*
X392405Y633950D01*
X392456Y633961D01*
X392517Y633998D01*
X392583Y634026D01*
X392639Y634071D01*
X392667Y634088D01*
X392682Y634105D01*
X392714Y634131D01*
X420654Y662071D01*
X420702Y662137D01*
X420709Y662145D01*
X420712Y662150D01*
X420767Y662215D01*
X420779Y662245D01*
X420798Y662271D01*
X420825Y662358D01*
X420859Y662443D01*
X420863Y662484D01*
X420870Y662506D01*
X420869Y662538D01*
X420877Y662609D01*
X420877Y725794D01*
X487056Y791973D01*
X500043Y791973D01*
X500133Y791987D01*
X500224Y791995D01*
X500254Y792007D01*
X500286Y792012D01*
X500367Y792055D01*
X500451Y792091D01*
X500483Y792117D01*
X500503Y792128D01*
X500515Y792140D01*
X500516Y792141D01*
X500528Y792153D01*
X500582Y792196D01*
X504423Y796037D01*
X511577Y796037D01*
X514828Y792786D01*
X514886Y792745D01*
X514938Y792695D01*
X514985Y792673D01*
X515027Y792643D01*
X515096Y792622D01*
X515161Y792592D01*
X515213Y792586D01*
X515263Y792571D01*
X515334Y792572D01*
X515405Y792564D01*
X515456Y792576D01*
X515508Y792577D01*
X515576Y792602D01*
X515646Y792617D01*
X515691Y792643D01*
X515739Y792661D01*
X515795Y792706D01*
X515857Y792743D01*
X515891Y792782D01*
X515931Y792815D01*
X515970Y792875D01*
X516017Y792930D01*
X516036Y792978D01*
X516064Y793022D01*
X516082Y793091D01*
X516109Y793158D01*
X516117Y793229D01*
X516125Y793260D01*
X516123Y793284D01*
X516127Y793325D01*
X516127Y806875D01*
X516116Y806946D01*
X516114Y807018D01*
X516096Y807067D01*
X516088Y807118D01*
X516054Y807181D01*
X516029Y807249D01*
X515997Y807289D01*
X515972Y807335D01*
X515920Y807385D01*
X515876Y807441D01*
X515832Y807469D01*
X515794Y807505D01*
X515729Y807535D01*
X515669Y807574D01*
X515618Y807586D01*
X515571Y807608D01*
X515500Y807616D01*
X515430Y807634D01*
X515378Y807630D01*
X515327Y807636D01*
X515256Y807620D01*
X515185Y807615D01*
X515137Y807594D01*
X515086Y807583D01*
X515025Y807546D01*
X514959Y807518D01*
X514903Y807474D01*
X514875Y807457D01*
X514860Y807439D01*
X514828Y807414D01*
X511577Y804163D01*
X504423Y804163D01*
X499363Y809223D01*
X499363Y816377D01*
X504423Y821437D01*
X511577Y821437D01*
X514828Y818186D01*
X514886Y818145D01*
X514938Y818095D01*
X514985Y818073D01*
X515027Y818043D01*
X515096Y818022D01*
X515161Y817992D01*
X515213Y817986D01*
X515263Y817971D01*
X515334Y817972D01*
X515405Y817964D01*
X515456Y817976D01*
X515508Y817977D01*
X515576Y818002D01*
X515646Y818017D01*
X515691Y818043D01*
X515739Y818061D01*
X515795Y818106D01*
X515857Y818143D01*
X515891Y818182D01*
X515931Y818215D01*
X515970Y818275D01*
X516017Y818330D01*
X516036Y818378D01*
X516064Y818422D01*
X516082Y818491D01*
X516109Y818558D01*
X516117Y818629D01*
X516125Y818660D01*
X516123Y818684D01*
X516127Y818725D01*
X516127Y832275D01*
X516116Y832346D01*
X516114Y832418D01*
X516096Y832467D01*
X516088Y832518D01*
X516054Y832581D01*
X516029Y832649D01*
X515997Y832689D01*
X515972Y832735D01*
X515920Y832785D01*
X515876Y832841D01*
X515832Y832869D01*
X515794Y832905D01*
X515729Y832935D01*
X515669Y832974D01*
X515618Y832986D01*
X515571Y833008D01*
X515500Y833016D01*
X515430Y833034D01*
X515378Y833030D01*
X515327Y833036D01*
X515256Y833020D01*
X515185Y833015D01*
X515137Y832994D01*
X515086Y832983D01*
X515025Y832946D01*
X514959Y832918D01*
X514903Y832874D01*
X514875Y832857D01*
X514860Y832839D01*
X514828Y832814D01*
X511577Y829563D01*
X504423Y829563D01*
X500582Y833404D01*
X500508Y833457D01*
X500438Y833517D01*
X500408Y833529D01*
X500382Y833548D01*
X500295Y833575D01*
X500210Y833609D01*
X500169Y833613D01*
X500147Y833620D01*
X500115Y833619D01*
X500043Y833627D01*
X497509Y833627D01*
X497419Y833613D01*
X497328Y833605D01*
X497299Y833593D01*
X497267Y833588D01*
X497186Y833545D01*
X497102Y833509D01*
X497070Y833483D01*
X497049Y833472D01*
X497027Y833449D01*
X496971Y833404D01*
X455646Y792079D01*
X455593Y792005D01*
X455533Y791935D01*
X455521Y791905D01*
X455502Y791879D01*
X455475Y791792D01*
X455441Y791707D01*
X455437Y791666D01*
X455430Y791644D01*
X455431Y791612D01*
X455423Y791541D01*
X455423Y766456D01*
X452521Y763554D01*
X398496Y709529D01*
X395594Y706627D01*
X390887Y706627D01*
X390773Y706608D01*
X390656Y706591D01*
X390651Y706589D01*
X390645Y706588D01*
X390542Y706533D01*
X390437Y706480D01*
X390433Y706475D01*
X390427Y706472D01*
X390347Y706388D01*
X390265Y706304D01*
X390261Y706298D01*
X390258Y706294D01*
X390250Y706277D01*
X390184Y706157D01*
X389829Y705300D01*
X386900Y702371D01*
X383072Y700785D01*
X378928Y700785D01*
X375100Y702371D01*
X372171Y705300D01*
X370585Y709128D01*
X370585Y713272D01*
X372171Y717100D01*
X375100Y720029D01*
X378928Y721615D01*
X383072Y721615D01*
X386900Y720029D01*
X389829Y717100D01*
X390184Y716243D01*
X390246Y716143D01*
X390306Y716043D01*
X390310Y716039D01*
X390314Y716034D01*
X390404Y715959D01*
X390493Y715883D01*
X390498Y715881D01*
X390503Y715877D01*
X390612Y715835D01*
X390721Y715791D01*
X390728Y715790D01*
X390733Y715789D01*
X390751Y715788D01*
X390887Y715773D01*
X391491Y715773D01*
X391581Y715787D01*
X391672Y715795D01*
X391701Y715807D01*
X391733Y715812D01*
X391814Y715855D01*
X391898Y715891D01*
X391930Y715917D01*
X391951Y715928D01*
X391973Y715951D01*
X392029Y715996D01*
X446054Y770021D01*
X446107Y770095D01*
X446167Y770165D01*
X446179Y770195D01*
X446198Y770221D01*
X446225Y770308D01*
X446259Y770393D01*
X446263Y770434D01*
X446270Y770456D01*
X446269Y770488D01*
X446277Y770559D01*
X446277Y795644D01*
X493406Y842773D01*
X500043Y842773D01*
X500133Y842787D01*
X500224Y842795D01*
X500254Y842807D01*
X500286Y842812D01*
X500367Y842855D01*
X500451Y842891D01*
X500483Y842917D01*
X500503Y842928D01*
X500526Y842951D01*
X500582Y842996D01*
X504423Y846837D01*
X511577Y846837D01*
X514828Y843586D01*
X514886Y843545D01*
X514938Y843495D01*
X514985Y843473D01*
X515027Y843443D01*
X515096Y843422D01*
X515161Y843392D01*
X515213Y843386D01*
X515263Y843371D01*
X515334Y843372D01*
X515405Y843364D01*
X515456Y843376D01*
X515508Y843377D01*
X515576Y843402D01*
X515646Y843417D01*
X515691Y843443D01*
X515739Y843461D01*
X515795Y843506D01*
X515857Y843543D01*
X515891Y843582D01*
X515931Y843615D01*
X515970Y843675D01*
X516017Y843730D01*
X516036Y843778D01*
X516064Y843822D01*
X516082Y843891D01*
X516109Y843958D01*
X516117Y844029D01*
X516125Y844060D01*
X516123Y844084D01*
X516127Y844125D01*
X516127Y857675D01*
X516116Y857746D01*
X516114Y857818D01*
X516096Y857867D01*
X516088Y857918D01*
X516054Y857981D01*
X516029Y858049D01*
X515997Y858089D01*
X515972Y858135D01*
X515920Y858185D01*
X515876Y858241D01*
X515832Y858269D01*
X515794Y858305D01*
X515729Y858335D01*
X515669Y858374D01*
X515618Y858386D01*
X515571Y858408D01*
X515500Y858416D01*
X515430Y858434D01*
X515378Y858430D01*
X515327Y858436D01*
X515256Y858420D01*
X515185Y858415D01*
X515137Y858394D01*
X515086Y858383D01*
X515025Y858346D01*
X514959Y858318D01*
X514903Y858274D01*
X514875Y858257D01*
X514860Y858239D01*
X514828Y858214D01*
X511577Y854963D01*
X504423Y854963D01*
X500582Y858804D01*
X500508Y858857D01*
X500438Y858917D01*
X500408Y858929D01*
X500382Y858948D01*
X500295Y858975D01*
X500210Y859009D01*
X500169Y859013D01*
X500147Y859020D01*
X500115Y859019D01*
X500043Y859027D01*
X484809Y859027D01*
X484719Y859013D01*
X484628Y859005D01*
X484599Y858993D01*
X484567Y858988D01*
X484486Y858945D01*
X484402Y858909D01*
X484370Y858883D01*
X484349Y858872D01*
X484327Y858849D01*
X484271Y858804D01*
X420994Y795527D01*
X389439Y795527D01*
X389368Y795516D01*
X389297Y795514D01*
X389248Y795496D01*
X389196Y795488D01*
X389133Y795454D01*
X389066Y795429D01*
X389025Y795397D01*
X388979Y795372D01*
X388930Y795320D01*
X388874Y795276D01*
X388846Y795232D01*
X388810Y795194D01*
X388779Y795129D01*
X388741Y795069D01*
X388728Y795018D01*
X388706Y794971D01*
X388698Y794900D01*
X388681Y794830D01*
X388685Y794778D01*
X388679Y794727D01*
X388694Y794656D01*
X388700Y794585D01*
X388720Y794537D01*
X388731Y794486D01*
X388768Y794425D01*
X388796Y794359D01*
X388841Y794303D01*
X388857Y794275D01*
X388875Y794260D01*
X388901Y794228D01*
X389829Y793300D01*
X391415Y789472D01*
X391415Y785328D01*
X389829Y781500D01*
X386900Y778571D01*
X383072Y776985D01*
X378928Y776985D01*
X375100Y778571D01*
X372171Y781500D01*
X370585Y785328D01*
X370585Y789472D01*
X372171Y793300D01*
X373099Y794228D01*
X373141Y794286D01*
X373190Y794338D01*
X373212Y794385D01*
X373243Y794427D01*
X373264Y794496D01*
X373294Y794561D01*
X373300Y794613D01*
X373315Y794663D01*
X373313Y794734D01*
X373321Y794805D01*
X373310Y794856D01*
X373309Y794908D01*
X373284Y794976D01*
X373269Y795046D01*
X373242Y795091D01*
X373224Y795139D01*
X373179Y795195D01*
X373143Y795257D01*
X373103Y795291D01*
X373070Y795331D01*
X373010Y795370D01*
X372956Y795417D01*
X372907Y795436D01*
X372864Y795464D01*
X372794Y795482D01*
X372728Y795509D01*
X372656Y795517D01*
X372625Y795525D01*
X372602Y795523D01*
X372561Y795527D01*
X370509Y795527D01*
X370419Y795513D01*
X370328Y795505D01*
X370299Y795493D01*
X370267Y795488D01*
X370186Y795445D01*
X370102Y795409D01*
X370070Y795383D01*
X370049Y795372D01*
X370027Y795349D01*
X369971Y795304D01*
X366746Y792079D01*
X366693Y792005D01*
X366633Y791935D01*
X366621Y791905D01*
X366602Y791879D01*
X366575Y791792D01*
X366541Y791707D01*
X366537Y791666D01*
X366530Y791644D01*
X366531Y791612D01*
X366523Y791541D01*
X366523Y643559D01*
X366537Y643469D01*
X366545Y643378D01*
X366557Y643349D01*
X366562Y643317D01*
X366605Y643236D01*
X366641Y643152D01*
X366667Y643120D01*
X366678Y643099D01*
X366701Y643077D01*
X366713Y643062D01*
X366720Y643051D01*
X366726Y643045D01*
X366746Y643021D01*
X369971Y639796D01*
X370045Y639743D01*
X370115Y639683D01*
X370145Y639671D01*
X370171Y639652D01*
X370258Y639625D01*
X370343Y639591D01*
X370384Y639587D01*
X370406Y639580D01*
X370438Y639581D01*
X370509Y639573D01*
X371113Y639573D01*
X371227Y639592D01*
X371344Y639609D01*
X371349Y639611D01*
X371355Y639612D01*
X371458Y639667D01*
X371563Y639720D01*
X371567Y639725D01*
X371573Y639728D01*
X371653Y639812D01*
X371735Y639896D01*
X371739Y639902D01*
X371742Y639906D01*
X371750Y639923D01*
X371816Y640043D01*
X372171Y640900D01*
X375100Y643829D01*
X378928Y645415D01*
X383072Y645415D01*
X386900Y643829D01*
X389829Y640900D01*
X391415Y637072D01*
X391415Y634669D01*
X391426Y634599D01*
X391428Y634527D01*
X391446Y634478D01*
X391454Y634427D01*
X391488Y634363D01*
X391513Y634296D01*
X391545Y634255D01*
X391570Y634209D01*
X391622Y634160D01*
X391666Y634104D01*
X391710Y634076D01*
X391748Y634040D01*
X391813Y634010D01*
X391873Y633971D01*
X391924Y633958D01*
X391971Y633936D01*
X392042Y633928D01*
X392112Y633911D01*
X392164Y633915D01*
X392215Y633909D01*
X392286Y633924D01*
G37*
%LPC*%
G36*
X296556Y338327D02*
X296556Y338327D01*
X287527Y347356D01*
X287527Y354037D01*
X287516Y354108D01*
X287514Y354179D01*
X287496Y354228D01*
X287488Y354280D01*
X287454Y354343D01*
X287429Y354410D01*
X287397Y354451D01*
X287372Y354497D01*
X287320Y354546D01*
X287276Y354602D01*
X287232Y354631D01*
X287194Y354666D01*
X287129Y354697D01*
X287069Y354735D01*
X287018Y354748D01*
X286971Y354770D01*
X286900Y354778D01*
X286830Y354795D01*
X286778Y354791D01*
X286727Y354797D01*
X286656Y354782D01*
X286585Y354776D01*
X286537Y354756D01*
X286486Y354745D01*
X286425Y354708D01*
X286359Y354680D01*
X286303Y354635D01*
X286275Y354619D01*
X286260Y354601D01*
X286228Y354575D01*
X284580Y352927D01*
X281219Y351535D01*
X277581Y351535D01*
X274220Y352927D01*
X271647Y355500D01*
X270255Y358861D01*
X270255Y377739D01*
X271647Y381100D01*
X271702Y381155D01*
X271714Y381171D01*
X271729Y381183D01*
X271760Y381231D01*
X271772Y381244D01*
X271783Y381267D01*
X271785Y381270D01*
X271846Y381354D01*
X271851Y381373D01*
X271862Y381390D01*
X271887Y381490D01*
X271918Y381589D01*
X271917Y381609D01*
X271922Y381629D01*
X271914Y381732D01*
X271912Y381835D01*
X271905Y381854D01*
X271903Y381874D01*
X271863Y381969D01*
X271827Y382066D01*
X271815Y382082D01*
X271807Y382100D01*
X271702Y382231D01*
X265029Y388904D01*
X264955Y388957D01*
X264885Y389017D01*
X264855Y389029D01*
X264829Y389048D01*
X264742Y389075D01*
X264657Y389109D01*
X264616Y389113D01*
X264594Y389120D01*
X264562Y389119D01*
X264491Y389127D01*
X91109Y389127D01*
X91019Y389113D01*
X90928Y389105D01*
X90899Y389093D01*
X90867Y389088D01*
X90786Y389045D01*
X90702Y389009D01*
X90670Y388983D01*
X90649Y388972D01*
X90627Y388949D01*
X90571Y388904D01*
X83898Y382231D01*
X83886Y382215D01*
X83871Y382202D01*
X83815Y382115D01*
X83754Y382031D01*
X83749Y382012D01*
X83738Y381996D01*
X83712Y381895D01*
X83682Y381796D01*
X83683Y381776D01*
X83678Y381757D01*
X83686Y381654D01*
X83688Y381550D01*
X83695Y381532D01*
X83697Y381512D01*
X83737Y381417D01*
X83773Y381319D01*
X83785Y381304D01*
X83793Y381286D01*
X83871Y381188D01*
X83875Y381181D01*
X83880Y381177D01*
X83898Y381155D01*
X83953Y381100D01*
X85345Y377739D01*
X85345Y358861D01*
X83953Y355500D01*
X81380Y352927D01*
X78019Y351535D01*
X74381Y351535D01*
X71020Y352927D01*
X68447Y355500D01*
X67055Y358861D01*
X67055Y377739D01*
X68447Y381100D01*
X71020Y383673D01*
X73246Y384594D01*
X73301Y384629D01*
X73362Y384655D01*
X73427Y384707D01*
X73455Y384724D01*
X73467Y384739D01*
X73493Y384759D01*
X74529Y385796D01*
X84104Y395371D01*
X87006Y398273D01*
X268594Y398273D01*
X271496Y395371D01*
X282107Y384759D01*
X282160Y384721D01*
X282207Y384675D01*
X282280Y384635D01*
X282307Y384616D01*
X282326Y384610D01*
X282354Y384594D01*
X284580Y383673D01*
X286228Y382025D01*
X286286Y381983D01*
X286338Y381934D01*
X286385Y381912D01*
X286427Y381881D01*
X286496Y381860D01*
X286561Y381830D01*
X286613Y381824D01*
X286663Y381809D01*
X286734Y381811D01*
X286805Y381803D01*
X286856Y381814D01*
X286908Y381815D01*
X286976Y381840D01*
X287046Y381855D01*
X287091Y381882D01*
X287139Y381900D01*
X287195Y381945D01*
X287257Y381981D01*
X287291Y382021D01*
X287331Y382053D01*
X287370Y382114D01*
X287417Y382168D01*
X287436Y382217D01*
X287464Y382260D01*
X287482Y382330D01*
X287509Y382396D01*
X287517Y382468D01*
X287525Y382499D01*
X287523Y382522D01*
X287527Y382563D01*
X287527Y391491D01*
X287513Y391581D01*
X287505Y391672D01*
X287493Y391701D01*
X287488Y391733D01*
X287445Y391814D01*
X287409Y391898D01*
X287383Y391930D01*
X287372Y391951D01*
X287349Y391973D01*
X287304Y392029D01*
X232358Y446975D01*
X232264Y447043D01*
X232169Y447113D01*
X232163Y447115D01*
X232158Y447119D01*
X232047Y447153D01*
X231935Y447189D01*
X231929Y447189D01*
X231923Y447191D01*
X231806Y447188D01*
X231690Y447187D01*
X231682Y447185D01*
X231677Y447185D01*
X231660Y447178D01*
X231528Y447140D01*
X230672Y446785D01*
X226528Y446785D01*
X222700Y448371D01*
X219771Y451300D01*
X218185Y455128D01*
X218185Y459272D01*
X219771Y463100D01*
X222700Y466029D01*
X226528Y467615D01*
X230672Y467615D01*
X234500Y466029D01*
X237429Y463100D01*
X239015Y459272D01*
X239015Y455128D01*
X238660Y454272D01*
X238650Y454229D01*
X238634Y454196D01*
X238628Y454136D01*
X238605Y454044D01*
X238605Y454038D01*
X238604Y454032D01*
X238609Y453971D01*
X238607Y453951D01*
X238614Y453918D01*
X238615Y453916D01*
X238624Y453799D01*
X238626Y453794D01*
X238627Y453787D01*
X238658Y453716D01*
X238659Y453711D01*
X238664Y453703D01*
X238675Y453680D01*
X238720Y453573D01*
X238725Y453567D01*
X238727Y453563D01*
X238739Y453549D01*
X238825Y453442D01*
X296673Y395594D01*
X296673Y382563D01*
X296684Y382492D01*
X296686Y382421D01*
X296704Y382372D01*
X296712Y382320D01*
X296746Y382257D01*
X296771Y382190D01*
X296803Y382149D01*
X296828Y382103D01*
X296880Y382054D01*
X296924Y381998D01*
X296968Y381969D01*
X297006Y381934D01*
X297071Y381903D01*
X297131Y381865D01*
X297182Y381852D01*
X297229Y381830D01*
X297300Y381822D01*
X297370Y381805D01*
X297422Y381809D01*
X297473Y381803D01*
X297544Y381818D01*
X297615Y381824D01*
X297663Y381844D01*
X297714Y381855D01*
X297775Y381892D01*
X297841Y381920D01*
X297897Y381965D01*
X297925Y381981D01*
X297940Y381999D01*
X297972Y382025D01*
X299620Y383673D01*
X299757Y383729D01*
X299857Y383791D01*
X299957Y383851D01*
X299961Y383856D01*
X299966Y383859D01*
X300041Y383949D01*
X300117Y384038D01*
X300119Y384044D01*
X300123Y384048D01*
X300165Y384157D01*
X300209Y384266D01*
X300210Y384273D01*
X300211Y384278D01*
X300212Y384296D01*
X300227Y384433D01*
X300227Y486861D01*
X300216Y486932D01*
X300214Y487003D01*
X300196Y487052D01*
X300188Y487104D01*
X300154Y487167D01*
X300129Y487234D01*
X300097Y487275D01*
X300072Y487321D01*
X300020Y487370D01*
X299976Y487426D01*
X299932Y487454D01*
X299894Y487490D01*
X299829Y487521D01*
X299769Y487559D01*
X299718Y487572D01*
X299671Y487594D01*
X299600Y487602D01*
X299530Y487619D01*
X299478Y487615D01*
X299427Y487621D01*
X299356Y487606D01*
X299285Y487600D01*
X299237Y487580D01*
X299186Y487569D01*
X299125Y487532D01*
X299059Y487504D01*
X299003Y487459D01*
X298975Y487443D01*
X298960Y487425D01*
X298928Y487399D01*
X298000Y486471D01*
X294172Y484885D01*
X290028Y484885D01*
X286200Y486471D01*
X283271Y489400D01*
X281685Y493228D01*
X281685Y497372D01*
X283271Y501200D01*
X286200Y504129D01*
X290028Y505715D01*
X294172Y505715D01*
X298000Y504129D01*
X298928Y503201D01*
X298986Y503159D01*
X299038Y503110D01*
X299085Y503088D01*
X299127Y503057D01*
X299196Y503036D01*
X299261Y503006D01*
X299313Y503000D01*
X299363Y502985D01*
X299434Y502987D01*
X299505Y502979D01*
X299556Y502990D01*
X299608Y502991D01*
X299676Y503016D01*
X299746Y503031D01*
X299791Y503058D01*
X299839Y503076D01*
X299895Y503121D01*
X299957Y503157D01*
X299991Y503197D01*
X300031Y503230D01*
X300070Y503290D01*
X300117Y503344D01*
X300136Y503393D01*
X300164Y503436D01*
X300182Y503506D01*
X300209Y503572D01*
X300217Y503644D01*
X300225Y503675D01*
X300223Y503698D01*
X300227Y503739D01*
X300227Y789294D01*
X370775Y859842D01*
X370843Y859936D01*
X370913Y860031D01*
X370915Y860037D01*
X370919Y860042D01*
X370953Y860153D01*
X370989Y860265D01*
X370989Y860271D01*
X370991Y860277D01*
X370988Y860394D01*
X370987Y860510D01*
X370985Y860518D01*
X370985Y860523D01*
X370978Y860540D01*
X370940Y860672D01*
X370585Y861528D01*
X370585Y865672D01*
X372171Y869500D01*
X375100Y872429D01*
X378928Y874015D01*
X383072Y874015D01*
X386900Y872429D01*
X389829Y869500D01*
X391415Y865672D01*
X391415Y861528D01*
X389829Y857700D01*
X386900Y854771D01*
X383072Y853185D01*
X378928Y853185D01*
X378072Y853540D01*
X377958Y853567D01*
X377844Y853595D01*
X377838Y853595D01*
X377832Y853596D01*
X377716Y853585D01*
X377599Y853576D01*
X377594Y853574D01*
X377587Y853573D01*
X377480Y853525D01*
X377373Y853480D01*
X377367Y853475D01*
X377363Y853473D01*
X377349Y853461D01*
X377242Y853375D01*
X309596Y785729D01*
X309543Y785655D01*
X309483Y785585D01*
X309471Y785555D01*
X309452Y785529D01*
X309425Y785442D01*
X309391Y785357D01*
X309387Y785316D01*
X309380Y785294D01*
X309381Y785262D01*
X309373Y785191D01*
X309373Y503739D01*
X309384Y503668D01*
X309386Y503597D01*
X309404Y503548D01*
X309412Y503496D01*
X309446Y503433D01*
X309471Y503366D01*
X309503Y503325D01*
X309528Y503279D01*
X309580Y503230D01*
X309624Y503174D01*
X309668Y503146D01*
X309706Y503110D01*
X309771Y503079D01*
X309831Y503041D01*
X309882Y503028D01*
X309929Y503006D01*
X310000Y502998D01*
X310070Y502981D01*
X310122Y502985D01*
X310173Y502979D01*
X310244Y502994D01*
X310315Y503000D01*
X310363Y503020D01*
X310414Y503031D01*
X310475Y503068D01*
X310541Y503096D01*
X310597Y503141D01*
X310625Y503157D01*
X310640Y503175D01*
X310672Y503201D01*
X311600Y504129D01*
X315428Y505715D01*
X319572Y505715D01*
X323400Y504129D01*
X326329Y501200D01*
X327915Y497372D01*
X327915Y493228D01*
X326329Y489400D01*
X323400Y486471D01*
X319572Y484885D01*
X315428Y484885D01*
X311600Y486471D01*
X310672Y487399D01*
X310614Y487441D01*
X310562Y487490D01*
X310515Y487512D01*
X310473Y487543D01*
X310404Y487564D01*
X310339Y487594D01*
X310287Y487600D01*
X310237Y487615D01*
X310166Y487613D01*
X310095Y487621D01*
X310044Y487610D01*
X309992Y487609D01*
X309924Y487584D01*
X309854Y487569D01*
X309809Y487542D01*
X309761Y487524D01*
X309705Y487479D01*
X309643Y487443D01*
X309609Y487403D01*
X309569Y487370D01*
X309530Y487310D01*
X309483Y487256D01*
X309464Y487207D01*
X309436Y487164D01*
X309418Y487094D01*
X309391Y487028D01*
X309383Y486956D01*
X309375Y486925D01*
X309377Y486902D01*
X309373Y486861D01*
X309373Y384433D01*
X309392Y384318D01*
X309409Y384202D01*
X309411Y384196D01*
X309412Y384190D01*
X309467Y384087D01*
X309520Y383983D01*
X309525Y383978D01*
X309528Y383973D01*
X309612Y383892D01*
X309696Y383810D01*
X309702Y383807D01*
X309706Y383803D01*
X309723Y383795D01*
X309843Y383729D01*
X309980Y383673D01*
X312553Y381100D01*
X313945Y377739D01*
X313945Y358861D01*
X312553Y355500D01*
X309980Y352927D01*
X306619Y351535D01*
X302981Y351535D01*
X299620Y352927D01*
X297972Y354575D01*
X297914Y354617D01*
X297862Y354666D01*
X297815Y354688D01*
X297773Y354719D01*
X297704Y354740D01*
X297639Y354770D01*
X297587Y354776D01*
X297537Y354791D01*
X297466Y354789D01*
X297395Y354797D01*
X297344Y354786D01*
X297292Y354785D01*
X297224Y354760D01*
X297154Y354745D01*
X297109Y354718D01*
X297061Y354700D01*
X297005Y354655D01*
X296943Y354619D01*
X296909Y354579D01*
X296869Y354547D01*
X296830Y354486D01*
X296783Y354432D01*
X296764Y354383D01*
X296736Y354340D01*
X296718Y354270D01*
X296691Y354204D01*
X296683Y354132D01*
X296675Y354101D01*
X296677Y354078D01*
X296673Y354037D01*
X296673Y351459D01*
X296687Y351369D01*
X296695Y351278D01*
X296707Y351249D01*
X296712Y351217D01*
X296755Y351136D01*
X296791Y351052D01*
X296817Y351020D01*
X296828Y350999D01*
X296851Y350977D01*
X296896Y350921D01*
X300121Y347696D01*
X300195Y347643D01*
X300265Y347583D01*
X300295Y347571D01*
X300321Y347552D01*
X300408Y347525D01*
X300493Y347491D01*
X300534Y347487D01*
X300556Y347480D01*
X300588Y347481D01*
X300659Y347473D01*
X315291Y347473D01*
X315381Y347487D01*
X315472Y347495D01*
X315501Y347507D01*
X315533Y347512D01*
X315614Y347555D01*
X315698Y347591D01*
X315730Y347617D01*
X315751Y347628D01*
X315773Y347651D01*
X315829Y347696D01*
X322502Y354369D01*
X322514Y354385D01*
X322529Y354398D01*
X322585Y354485D01*
X322646Y354569D01*
X322651Y354588D01*
X322662Y354604D01*
X322688Y354705D01*
X322718Y354804D01*
X322717Y354824D01*
X322722Y354843D01*
X322714Y354946D01*
X322712Y355050D01*
X322705Y355068D01*
X322703Y355088D01*
X322663Y355183D01*
X322627Y355281D01*
X322615Y355296D01*
X322607Y355314D01*
X322502Y355445D01*
X322447Y355500D01*
X321055Y358861D01*
X321055Y377739D01*
X322447Y381100D01*
X325020Y383673D01*
X328381Y385065D01*
X332019Y385065D01*
X335380Y383673D01*
X337953Y381100D01*
X339345Y377739D01*
X339345Y358861D01*
X337953Y355500D01*
X335380Y352927D01*
X333154Y352006D01*
X333099Y351971D01*
X333038Y351945D01*
X332973Y351893D01*
X332945Y351876D01*
X332933Y351861D01*
X332907Y351841D01*
X319394Y338327D01*
X296556Y338327D01*
G37*
%LPD*%
%LPC*%
G36*
X264628Y484885D02*
X264628Y484885D01*
X260800Y486471D01*
X257871Y489400D01*
X256285Y493228D01*
X256285Y497372D01*
X257871Y501200D01*
X260800Y504129D01*
X261657Y504484D01*
X261757Y504546D01*
X261857Y504606D01*
X261861Y504610D01*
X261866Y504614D01*
X261941Y504704D01*
X262017Y504793D01*
X262019Y504798D01*
X262023Y504803D01*
X262065Y504912D01*
X262109Y505021D01*
X262110Y505028D01*
X262111Y505033D01*
X262112Y505051D01*
X262127Y505187D01*
X262127Y528944D01*
X287304Y554121D01*
X287357Y554195D01*
X287417Y554265D01*
X287429Y554295D01*
X287448Y554321D01*
X287475Y554408D01*
X287509Y554493D01*
X287513Y554534D01*
X287520Y554556D01*
X287519Y554588D01*
X287527Y554659D01*
X287527Y801994D01*
X370775Y885242D01*
X370843Y885336D01*
X370913Y885431D01*
X370915Y885437D01*
X370919Y885442D01*
X370953Y885553D01*
X370989Y885665D01*
X370989Y885671D01*
X370991Y885677D01*
X370988Y885794D01*
X370987Y885911D01*
X370985Y885918D01*
X370985Y885923D01*
X370978Y885940D01*
X370940Y886072D01*
X370585Y886928D01*
X370585Y891072D01*
X372171Y894900D01*
X375100Y897829D01*
X378928Y899415D01*
X383072Y899415D01*
X386900Y897829D01*
X389829Y894900D01*
X390184Y894043D01*
X390246Y893943D01*
X390306Y893843D01*
X390310Y893839D01*
X390314Y893834D01*
X390404Y893759D01*
X390493Y893683D01*
X390498Y893681D01*
X390503Y893677D01*
X390612Y893635D01*
X390721Y893591D01*
X390728Y893590D01*
X390733Y893589D01*
X390751Y893588D01*
X390887Y893573D01*
X391491Y893573D01*
X391581Y893587D01*
X391672Y893595D01*
X391701Y893607D01*
X391733Y893612D01*
X391814Y893655D01*
X391898Y893691D01*
X391930Y893717D01*
X391951Y893728D01*
X391973Y893751D01*
X392029Y893796D01*
X442606Y944373D01*
X608944Y944373D01*
X611846Y941471D01*
X626329Y926988D01*
X626403Y926935D01*
X626473Y926875D01*
X626503Y926863D01*
X626529Y926844D01*
X626616Y926817D01*
X626701Y926783D01*
X626742Y926779D01*
X626764Y926772D01*
X626796Y926773D01*
X626867Y926765D01*
X630354Y926765D01*
X633502Y925461D01*
X635911Y923052D01*
X637215Y919904D01*
X637215Y916496D01*
X635911Y913348D01*
X633446Y910883D01*
X633393Y910809D01*
X633333Y910740D01*
X633321Y910710D01*
X633302Y910684D01*
X633275Y910597D01*
X633241Y910512D01*
X633237Y910471D01*
X633230Y910448D01*
X633231Y910416D01*
X633223Y910345D01*
X633223Y906055D01*
X633237Y905965D01*
X633245Y905874D01*
X633257Y905844D01*
X633262Y905812D01*
X633305Y905732D01*
X633341Y905648D01*
X633367Y905616D01*
X633378Y905595D01*
X633401Y905573D01*
X633446Y905517D01*
X635911Y903052D01*
X637215Y899904D01*
X637215Y896496D01*
X635911Y893348D01*
X633502Y890939D01*
X630354Y889635D01*
X626946Y889635D01*
X623798Y890939D01*
X621389Y893348D01*
X620085Y896496D01*
X620085Y899904D01*
X621389Y903052D01*
X623854Y905517D01*
X623907Y905591D01*
X623967Y905660D01*
X623979Y905690D01*
X623998Y905716D01*
X624025Y905803D01*
X624059Y905888D01*
X624063Y905929D01*
X624070Y905952D01*
X624069Y905984D01*
X624077Y906055D01*
X624077Y910345D01*
X624063Y910435D01*
X624055Y910526D01*
X624043Y910556D01*
X624038Y910588D01*
X623995Y910668D01*
X623959Y910752D01*
X623933Y910784D01*
X623922Y910805D01*
X623899Y910827D01*
X623854Y910883D01*
X621389Y913348D01*
X620085Y916496D01*
X620085Y919983D01*
X620071Y920073D01*
X620063Y920164D01*
X620051Y920193D01*
X620046Y920225D01*
X620003Y920306D01*
X619967Y920390D01*
X619941Y920422D01*
X619930Y920443D01*
X619907Y920465D01*
X619862Y920521D01*
X605379Y935004D01*
X605305Y935057D01*
X605235Y935117D01*
X605205Y935129D01*
X605179Y935148D01*
X605092Y935175D01*
X605007Y935209D01*
X604966Y935213D01*
X604944Y935220D01*
X604912Y935219D01*
X604841Y935227D01*
X446709Y935227D01*
X446619Y935213D01*
X446528Y935205D01*
X446499Y935193D01*
X446467Y935188D01*
X446386Y935145D01*
X446302Y935109D01*
X446270Y935083D01*
X446249Y935072D01*
X446227Y935049D01*
X446171Y935004D01*
X395594Y884427D01*
X390887Y884427D01*
X390773Y884408D01*
X390656Y884391D01*
X390651Y884389D01*
X390645Y884388D01*
X390542Y884333D01*
X390437Y884280D01*
X390433Y884275D01*
X390427Y884272D01*
X390347Y884188D01*
X390265Y884104D01*
X390261Y884098D01*
X390258Y884094D01*
X390250Y884077D01*
X390184Y883957D01*
X389829Y883100D01*
X386900Y880171D01*
X383072Y878585D01*
X378928Y878585D01*
X378072Y878940D01*
X377959Y878967D01*
X377844Y878995D01*
X377838Y878995D01*
X377832Y878996D01*
X377716Y878985D01*
X377599Y878976D01*
X377594Y878974D01*
X377587Y878973D01*
X377479Y878925D01*
X377373Y878880D01*
X377367Y878875D01*
X377363Y878873D01*
X377348Y878860D01*
X377242Y878775D01*
X296896Y798429D01*
X296843Y798355D01*
X296783Y798285D01*
X296771Y798255D01*
X296752Y798229D01*
X296725Y798142D01*
X296691Y798057D01*
X296687Y798016D01*
X296680Y797994D01*
X296681Y797962D01*
X296673Y797891D01*
X296673Y550556D01*
X271496Y525379D01*
X271443Y525305D01*
X271383Y525235D01*
X271371Y525205D01*
X271352Y525179D01*
X271325Y525092D01*
X271291Y525007D01*
X271287Y524966D01*
X271280Y524944D01*
X271281Y524912D01*
X271273Y524841D01*
X271273Y505187D01*
X271292Y505073D01*
X271309Y504956D01*
X271311Y504951D01*
X271312Y504945D01*
X271367Y504842D01*
X271420Y504737D01*
X271425Y504733D01*
X271428Y504727D01*
X271512Y504647D01*
X271596Y504565D01*
X271602Y504561D01*
X271606Y504558D01*
X271623Y504550D01*
X271743Y504484D01*
X272600Y504129D01*
X275529Y501200D01*
X277115Y497372D01*
X277115Y493228D01*
X275529Y489400D01*
X272600Y486471D01*
X268772Y484885D01*
X264628Y484885D01*
G37*
%LPD*%
G36*
X391581Y576087D02*
X391581Y576087D01*
X391672Y576095D01*
X391701Y576107D01*
X391733Y576112D01*
X391814Y576155D01*
X391898Y576191D01*
X391930Y576217D01*
X391951Y576228D01*
X391973Y576251D01*
X392029Y576296D01*
X515904Y700171D01*
X515957Y700245D01*
X516017Y700315D01*
X516029Y700345D01*
X516048Y700371D01*
X516075Y700458D01*
X516109Y700543D01*
X516113Y700584D01*
X516120Y700606D01*
X516119Y700638D01*
X516127Y700709D01*
X516127Y705275D01*
X516116Y705346D01*
X516114Y705418D01*
X516096Y705467D01*
X516088Y705518D01*
X516054Y705581D01*
X516029Y705649D01*
X515997Y705689D01*
X515972Y705735D01*
X515920Y705785D01*
X515876Y705841D01*
X515832Y705869D01*
X515794Y705905D01*
X515729Y705935D01*
X515669Y705974D01*
X515618Y705986D01*
X515571Y706008D01*
X515500Y706016D01*
X515430Y706034D01*
X515378Y706030D01*
X515327Y706036D01*
X515256Y706020D01*
X515185Y706015D01*
X515137Y705994D01*
X515086Y705983D01*
X515025Y705946D01*
X514959Y705918D01*
X514903Y705874D01*
X514875Y705857D01*
X514860Y705839D01*
X514828Y705814D01*
X511577Y702563D01*
X504423Y702563D01*
X499363Y707623D01*
X499363Y714777D01*
X504423Y719837D01*
X511577Y719837D01*
X514828Y716586D01*
X514886Y716545D01*
X514938Y716495D01*
X514985Y716473D01*
X515027Y716443D01*
X515096Y716422D01*
X515161Y716392D01*
X515213Y716386D01*
X515263Y716371D01*
X515334Y716372D01*
X515405Y716364D01*
X515456Y716376D01*
X515508Y716377D01*
X515576Y716402D01*
X515646Y716417D01*
X515691Y716443D01*
X515739Y716461D01*
X515795Y716506D01*
X515857Y716543D01*
X515891Y716582D01*
X515931Y716615D01*
X515970Y716675D01*
X516017Y716730D01*
X516036Y716778D01*
X516064Y716822D01*
X516082Y716891D01*
X516109Y716958D01*
X516117Y717029D01*
X516125Y717060D01*
X516123Y717084D01*
X516127Y717125D01*
X516127Y730675D01*
X516116Y730746D01*
X516114Y730818D01*
X516096Y730867D01*
X516088Y730918D01*
X516054Y730981D01*
X516029Y731049D01*
X515997Y731089D01*
X515972Y731135D01*
X515920Y731185D01*
X515876Y731241D01*
X515832Y731269D01*
X515794Y731305D01*
X515729Y731335D01*
X515669Y731374D01*
X515618Y731386D01*
X515571Y731408D01*
X515500Y731416D01*
X515430Y731434D01*
X515378Y731430D01*
X515327Y731436D01*
X515256Y731420D01*
X515185Y731415D01*
X515137Y731394D01*
X515086Y731383D01*
X515025Y731346D01*
X514959Y731318D01*
X514903Y731274D01*
X514875Y731257D01*
X514860Y731239D01*
X514828Y731214D01*
X511577Y727963D01*
X504423Y727963D01*
X500582Y731804D01*
X500508Y731857D01*
X500438Y731917D01*
X500408Y731929D01*
X500382Y731948D01*
X500295Y731975D01*
X500210Y732009D01*
X500169Y732013D01*
X500147Y732020D01*
X500115Y732019D01*
X500043Y732027D01*
X465759Y732027D01*
X465669Y732013D01*
X465578Y732005D01*
X465549Y731993D01*
X465517Y731988D01*
X465436Y731945D01*
X465352Y731909D01*
X465320Y731883D01*
X465299Y731872D01*
X465277Y731849D01*
X465221Y731804D01*
X442946Y709529D01*
X442901Y709467D01*
X442873Y709438D01*
X442868Y709427D01*
X442833Y709385D01*
X442821Y709355D01*
X442802Y709329D01*
X442775Y709242D01*
X442741Y709157D01*
X442737Y709116D01*
X442730Y709094D01*
X442731Y709062D01*
X442723Y708991D01*
X442723Y652156D01*
X395594Y605027D01*
X390887Y605027D01*
X390773Y605008D01*
X390656Y604991D01*
X390651Y604989D01*
X390645Y604988D01*
X390542Y604933D01*
X390437Y604880D01*
X390433Y604875D01*
X390427Y604872D01*
X390347Y604788D01*
X390265Y604704D01*
X390261Y604698D01*
X390258Y604694D01*
X390250Y604677D01*
X390184Y604557D01*
X389829Y603700D01*
X386900Y600771D01*
X383072Y599185D01*
X378928Y599185D01*
X375100Y600771D01*
X372171Y603700D01*
X370585Y607528D01*
X370585Y611672D01*
X372171Y615500D01*
X373099Y616428D01*
X373141Y616486D01*
X373190Y616538D01*
X373212Y616585D01*
X373243Y616627D01*
X373264Y616696D01*
X373294Y616761D01*
X373300Y616813D01*
X373315Y616863D01*
X373313Y616934D01*
X373321Y617005D01*
X373310Y617056D01*
X373309Y617108D01*
X373284Y617176D01*
X373269Y617246D01*
X373242Y617291D01*
X373224Y617339D01*
X373179Y617395D01*
X373143Y617457D01*
X373103Y617491D01*
X373070Y617531D01*
X373010Y617570D01*
X372956Y617617D01*
X372907Y617636D01*
X372864Y617664D01*
X372794Y617682D01*
X372728Y617709D01*
X372656Y617717D01*
X372625Y617725D01*
X372602Y617723D01*
X372561Y617727D01*
X370509Y617727D01*
X370419Y617713D01*
X370328Y617705D01*
X370299Y617693D01*
X370267Y617688D01*
X370186Y617645D01*
X370102Y617609D01*
X370070Y617583D01*
X370049Y617572D01*
X370027Y617549D01*
X369971Y617504D01*
X366746Y614279D01*
X366693Y614205D01*
X366633Y614135D01*
X366621Y614105D01*
X366602Y614079D01*
X366575Y613992D01*
X366541Y613907D01*
X366537Y613866D01*
X366530Y613844D01*
X366531Y613812D01*
X366523Y613741D01*
X366523Y592759D01*
X366537Y592669D01*
X366545Y592578D01*
X366557Y592549D01*
X366562Y592517D01*
X366605Y592436D01*
X366641Y592352D01*
X366667Y592320D01*
X366678Y592299D01*
X366701Y592277D01*
X366746Y592221D01*
X369971Y588996D01*
X370045Y588943D01*
X370115Y588883D01*
X370145Y588871D01*
X370171Y588852D01*
X370258Y588825D01*
X370343Y588791D01*
X370384Y588787D01*
X370406Y588780D01*
X370438Y588781D01*
X370509Y588773D01*
X371113Y588773D01*
X371227Y588792D01*
X371344Y588809D01*
X371349Y588811D01*
X371355Y588812D01*
X371458Y588867D01*
X371563Y588920D01*
X371567Y588925D01*
X371573Y588928D01*
X371653Y589012D01*
X371735Y589096D01*
X371739Y589102D01*
X371742Y589106D01*
X371750Y589123D01*
X371816Y589243D01*
X372171Y590100D01*
X375100Y593029D01*
X378928Y594615D01*
X383072Y594615D01*
X386900Y593029D01*
X389829Y590100D01*
X391415Y586272D01*
X391415Y582128D01*
X389829Y578300D01*
X388901Y577372D01*
X388859Y577314D01*
X388810Y577262D01*
X388788Y577215D01*
X388757Y577173D01*
X388736Y577104D01*
X388706Y577039D01*
X388700Y576987D01*
X388685Y576937D01*
X388687Y576866D01*
X388679Y576795D01*
X388690Y576744D01*
X388691Y576692D01*
X388716Y576624D01*
X388731Y576554D01*
X388758Y576509D01*
X388776Y576461D01*
X388821Y576405D01*
X388857Y576343D01*
X388897Y576309D01*
X388930Y576269D01*
X388990Y576230D01*
X389044Y576183D01*
X389093Y576164D01*
X389136Y576136D01*
X389206Y576118D01*
X389272Y576091D01*
X389344Y576083D01*
X389375Y576075D01*
X389398Y576077D01*
X389439Y576073D01*
X391491Y576073D01*
X391581Y576087D01*
G37*
G36*
X111108Y530546D02*
X111108Y530546D01*
X111179Y530552D01*
X111227Y530572D01*
X111278Y530583D01*
X111339Y530620D01*
X111405Y530648D01*
X111461Y530693D01*
X111489Y530710D01*
X111504Y530727D01*
X111536Y530753D01*
X141254Y560471D01*
X179354Y598571D01*
X179407Y598645D01*
X179467Y598715D01*
X179479Y598745D01*
X179498Y598771D01*
X179525Y598858D01*
X179559Y598943D01*
X179563Y598984D01*
X179570Y599006D01*
X179569Y599038D01*
X179577Y599109D01*
X179577Y617844D01*
X201306Y639573D01*
X218713Y639573D01*
X218827Y639592D01*
X218944Y639609D01*
X218949Y639611D01*
X218955Y639612D01*
X219058Y639667D01*
X219163Y639720D01*
X219167Y639725D01*
X219173Y639728D01*
X219253Y639812D01*
X219335Y639896D01*
X219339Y639902D01*
X219342Y639906D01*
X219350Y639923D01*
X219416Y640043D01*
X219771Y640900D01*
X222700Y643829D01*
X226528Y645415D01*
X230672Y645415D01*
X234500Y643829D01*
X237429Y640900D01*
X239015Y637072D01*
X239015Y632928D01*
X237429Y629100D01*
X234500Y626171D01*
X230672Y624585D01*
X226528Y624585D01*
X222700Y626171D01*
X219771Y629100D01*
X219416Y629957D01*
X219354Y630057D01*
X219294Y630157D01*
X219290Y630161D01*
X219286Y630166D01*
X219196Y630241D01*
X219107Y630317D01*
X219102Y630319D01*
X219097Y630323D01*
X218988Y630365D01*
X218879Y630409D01*
X218872Y630410D01*
X218867Y630411D01*
X218849Y630412D01*
X218713Y630427D01*
X205409Y630427D01*
X205319Y630413D01*
X205228Y630405D01*
X205199Y630393D01*
X205167Y630388D01*
X205086Y630345D01*
X205002Y630309D01*
X204970Y630283D01*
X204949Y630272D01*
X204927Y630249D01*
X204871Y630204D01*
X188946Y614279D01*
X188893Y614205D01*
X188833Y614135D01*
X188821Y614105D01*
X188802Y614079D01*
X188775Y613992D01*
X188741Y613907D01*
X188737Y613866D01*
X188730Y613844D01*
X188731Y613812D01*
X188723Y613741D01*
X188723Y597077D01*
X188724Y597069D01*
X188724Y597066D01*
X188727Y597052D01*
X188734Y597007D01*
X188736Y596935D01*
X188754Y596886D01*
X188762Y596835D01*
X188796Y596771D01*
X188821Y596704D01*
X188853Y596663D01*
X188878Y596617D01*
X188930Y596568D01*
X188974Y596512D01*
X189018Y596484D01*
X189056Y596448D01*
X189121Y596418D01*
X189181Y596379D01*
X189232Y596366D01*
X189279Y596344D01*
X189350Y596336D01*
X189420Y596319D01*
X189472Y596323D01*
X189523Y596317D01*
X189594Y596332D01*
X189665Y596338D01*
X189713Y596358D01*
X189764Y596369D01*
X189825Y596406D01*
X189891Y596434D01*
X189947Y596479D01*
X189975Y596496D01*
X189990Y596513D01*
X190022Y596539D01*
X194956Y601473D01*
X220161Y601473D01*
X220232Y601484D01*
X220303Y601486D01*
X220352Y601504D01*
X220404Y601512D01*
X220467Y601546D01*
X220534Y601571D01*
X220575Y601603D01*
X220621Y601628D01*
X220670Y601680D01*
X220726Y601724D01*
X220754Y601768D01*
X220790Y601806D01*
X220821Y601871D01*
X220859Y601931D01*
X220872Y601982D01*
X220894Y602029D01*
X220902Y602100D01*
X220919Y602170D01*
X220915Y602222D01*
X220921Y602273D01*
X220906Y602344D01*
X220900Y602415D01*
X220880Y602463D01*
X220869Y602514D01*
X220832Y602575D01*
X220804Y602641D01*
X220759Y602697D01*
X220743Y602725D01*
X220725Y602740D01*
X220699Y602772D01*
X219771Y603700D01*
X218185Y607528D01*
X218185Y611672D01*
X219771Y615500D01*
X222700Y618429D01*
X226528Y620015D01*
X230672Y620015D01*
X234500Y618429D01*
X237429Y615500D01*
X239015Y611672D01*
X239015Y607528D01*
X237429Y603700D01*
X236501Y602772D01*
X236459Y602714D01*
X236410Y602662D01*
X236388Y602615D01*
X236357Y602573D01*
X236336Y602504D01*
X236306Y602439D01*
X236300Y602387D01*
X236285Y602337D01*
X236287Y602266D01*
X236279Y602195D01*
X236290Y602144D01*
X236291Y602092D01*
X236316Y602024D01*
X236331Y601954D01*
X236358Y601909D01*
X236376Y601861D01*
X236421Y601805D01*
X236457Y601743D01*
X236497Y601709D01*
X236530Y601669D01*
X236590Y601630D01*
X236644Y601583D01*
X236693Y601564D01*
X236736Y601536D01*
X236806Y601518D01*
X236872Y601491D01*
X236944Y601483D01*
X236975Y601475D01*
X236998Y601477D01*
X237039Y601473D01*
X239091Y601473D01*
X239181Y601487D01*
X239272Y601495D01*
X239301Y601507D01*
X239333Y601512D01*
X239414Y601555D01*
X239498Y601591D01*
X239530Y601617D01*
X239551Y601628D01*
X239573Y601651D01*
X239629Y601696D01*
X242854Y604921D01*
X242907Y604995D01*
X242967Y605065D01*
X242979Y605095D01*
X242998Y605121D01*
X243025Y605208D01*
X243059Y605293D01*
X243063Y605334D01*
X243070Y605356D01*
X243069Y605388D01*
X243077Y605459D01*
X243077Y702641D01*
X243063Y702731D01*
X243055Y702822D01*
X243043Y702851D01*
X243038Y702883D01*
X242995Y702964D01*
X242959Y703048D01*
X242933Y703080D01*
X242922Y703101D01*
X242899Y703123D01*
X242854Y703179D01*
X239629Y706404D01*
X239555Y706457D01*
X239485Y706517D01*
X239455Y706529D01*
X239429Y706548D01*
X239342Y706575D01*
X239257Y706609D01*
X239216Y706613D01*
X239194Y706620D01*
X239162Y706619D01*
X239091Y706627D01*
X238487Y706627D01*
X238373Y706608D01*
X238256Y706591D01*
X238251Y706589D01*
X238245Y706588D01*
X238142Y706533D01*
X238037Y706480D01*
X238033Y706475D01*
X238027Y706472D01*
X237947Y706388D01*
X237865Y706304D01*
X237861Y706298D01*
X237858Y706294D01*
X237850Y706277D01*
X237784Y706157D01*
X237429Y705300D01*
X234500Y702371D01*
X230672Y700785D01*
X226528Y700785D01*
X222700Y702371D01*
X219771Y705300D01*
X218185Y709128D01*
X218185Y713272D01*
X219771Y717100D01*
X220699Y718028D01*
X220741Y718086D01*
X220790Y718138D01*
X220812Y718185D01*
X220843Y718227D01*
X220864Y718296D01*
X220894Y718361D01*
X220900Y718413D01*
X220915Y718463D01*
X220913Y718534D01*
X220921Y718605D01*
X220910Y718656D01*
X220909Y718708D01*
X220884Y718776D01*
X220869Y718846D01*
X220842Y718891D01*
X220824Y718939D01*
X220779Y718995D01*
X220743Y719057D01*
X220703Y719091D01*
X220670Y719131D01*
X220610Y719170D01*
X220556Y719217D01*
X220507Y719236D01*
X220464Y719264D01*
X220394Y719282D01*
X220328Y719309D01*
X220256Y719317D01*
X220225Y719325D01*
X220202Y719323D01*
X220161Y719327D01*
X205409Y719327D01*
X205319Y719313D01*
X205228Y719305D01*
X205199Y719293D01*
X205167Y719288D01*
X205086Y719245D01*
X205002Y719209D01*
X204970Y719183D01*
X204949Y719172D01*
X204927Y719149D01*
X204871Y719104D01*
X188946Y703179D01*
X188893Y703105D01*
X188833Y703035D01*
X188821Y703005D01*
X188802Y702979D01*
X188775Y702892D01*
X188741Y702807D01*
X188737Y702766D01*
X188730Y702744D01*
X188731Y702712D01*
X188723Y702641D01*
X188723Y647877D01*
X188734Y647807D01*
X188736Y647735D01*
X188754Y647686D01*
X188762Y647635D01*
X188796Y647571D01*
X188821Y647504D01*
X188853Y647463D01*
X188878Y647417D01*
X188930Y647368D01*
X188974Y647312D01*
X189018Y647284D01*
X189056Y647248D01*
X189121Y647218D01*
X189181Y647179D01*
X189232Y647166D01*
X189279Y647144D01*
X189350Y647136D01*
X189420Y647119D01*
X189472Y647123D01*
X189523Y647117D01*
X189594Y647132D01*
X189665Y647138D01*
X189713Y647158D01*
X189764Y647169D01*
X189825Y647206D01*
X189891Y647234D01*
X189947Y647279D01*
X189975Y647296D01*
X189990Y647313D01*
X190022Y647339D01*
X207656Y664973D01*
X218713Y664973D01*
X218827Y664992D01*
X218944Y665009D01*
X218949Y665011D01*
X218955Y665012D01*
X219058Y665067D01*
X219163Y665120D01*
X219167Y665125D01*
X219173Y665128D01*
X219253Y665212D01*
X219335Y665296D01*
X219339Y665302D01*
X219342Y665306D01*
X219350Y665323D01*
X219416Y665443D01*
X219771Y666300D01*
X222700Y669229D01*
X226528Y670815D01*
X230672Y670815D01*
X234500Y669229D01*
X237429Y666300D01*
X239015Y662472D01*
X239015Y658328D01*
X237429Y654500D01*
X234500Y651571D01*
X230672Y649985D01*
X226528Y649985D01*
X222700Y651571D01*
X219771Y654500D01*
X219416Y655357D01*
X219354Y655457D01*
X219294Y655557D01*
X219290Y655561D01*
X219286Y655566D01*
X219196Y655641D01*
X219107Y655717D01*
X219102Y655719D01*
X219097Y655723D01*
X218988Y655765D01*
X218879Y655809D01*
X218872Y655810D01*
X218867Y655811D01*
X218849Y655812D01*
X218713Y655827D01*
X211759Y655827D01*
X211669Y655813D01*
X211578Y655805D01*
X211549Y655793D01*
X211517Y655788D01*
X211436Y655745D01*
X211352Y655709D01*
X211320Y655683D01*
X211299Y655672D01*
X211277Y655649D01*
X211221Y655604D01*
X131796Y576179D01*
X131743Y576105D01*
X131683Y576035D01*
X131671Y576005D01*
X131652Y575979D01*
X131625Y575892D01*
X131591Y575807D01*
X131587Y575766D01*
X131580Y575744D01*
X131581Y575712D01*
X131573Y575641D01*
X131573Y556906D01*
X116194Y541527D01*
X107525Y541527D01*
X107454Y541516D01*
X107382Y541514D01*
X107333Y541496D01*
X107282Y541488D01*
X107219Y541454D01*
X107151Y541429D01*
X107111Y541397D01*
X107065Y541372D01*
X107015Y541320D01*
X106959Y541276D01*
X106931Y541232D01*
X106895Y541194D01*
X106865Y541129D01*
X106826Y541069D01*
X106814Y541018D01*
X106792Y540971D01*
X106784Y540900D01*
X106766Y540830D01*
X106770Y540778D01*
X106764Y540727D01*
X106780Y540656D01*
X106785Y540585D01*
X106806Y540537D01*
X106817Y540486D01*
X106854Y540425D01*
X106882Y540359D01*
X106926Y540303D01*
X106943Y540275D01*
X106961Y540260D01*
X106986Y540228D01*
X110237Y536977D01*
X110237Y531291D01*
X110248Y531221D01*
X110250Y531149D01*
X110268Y531100D01*
X110276Y531049D01*
X110310Y530985D01*
X110335Y530918D01*
X110367Y530877D01*
X110392Y530831D01*
X110444Y530782D01*
X110488Y530726D01*
X110532Y530698D01*
X110570Y530662D01*
X110635Y530632D01*
X110695Y530593D01*
X110746Y530580D01*
X110793Y530558D01*
X110864Y530550D01*
X110934Y530533D01*
X110986Y530537D01*
X111037Y530531D01*
X111108Y530546D01*
G37*
%LPC*%
G36*
X353781Y351535D02*
X353781Y351535D01*
X350420Y352927D01*
X347847Y355500D01*
X346455Y358861D01*
X346455Y377739D01*
X347847Y381100D01*
X350420Y383673D01*
X350557Y383729D01*
X350657Y383791D01*
X350757Y383851D01*
X350761Y383856D01*
X350766Y383859D01*
X350841Y383949D01*
X350917Y384038D01*
X350919Y384044D01*
X350923Y384048D01*
X350965Y384157D01*
X351009Y384266D01*
X351010Y384273D01*
X351011Y384278D01*
X351012Y384296D01*
X351027Y384433D01*
X351027Y389244D01*
X407954Y446171D01*
X408007Y446245D01*
X408067Y446315D01*
X408079Y446345D01*
X408098Y446371D01*
X408125Y446458D01*
X408159Y446543D01*
X408163Y446584D01*
X408170Y446606D01*
X408169Y446638D01*
X408177Y446709D01*
X408177Y471794D01*
X423556Y487173D01*
X437262Y487173D01*
X437352Y487187D01*
X437443Y487195D01*
X437472Y487207D01*
X437504Y487212D01*
X437585Y487255D01*
X437669Y487291D01*
X437701Y487317D01*
X437722Y487328D01*
X437744Y487351D01*
X437800Y487396D01*
X441133Y490729D01*
X447867Y490729D01*
X451200Y487396D01*
X451274Y487343D01*
X451343Y487283D01*
X451374Y487271D01*
X451400Y487252D01*
X451487Y487225D01*
X451572Y487191D01*
X451613Y487187D01*
X451635Y487180D01*
X451667Y487181D01*
X451738Y487173D01*
X454991Y487173D01*
X455081Y487187D01*
X455172Y487195D01*
X455201Y487207D01*
X455233Y487212D01*
X455314Y487255D01*
X455398Y487291D01*
X455430Y487317D01*
X455451Y487328D01*
X455473Y487351D01*
X455529Y487396D01*
X468006Y499873D01*
X480391Y499873D01*
X480481Y499887D01*
X480572Y499895D01*
X480601Y499907D01*
X480633Y499912D01*
X480714Y499955D01*
X480798Y499991D01*
X480830Y500017D01*
X480851Y500028D01*
X480873Y500051D01*
X480929Y500096D01*
X490504Y509671D01*
X490557Y509745D01*
X490617Y509815D01*
X490629Y509845D01*
X490648Y509871D01*
X490675Y509958D01*
X490709Y510043D01*
X490713Y510084D01*
X490720Y510106D01*
X490719Y510138D01*
X490727Y510209D01*
X490727Y526162D01*
X490713Y526252D01*
X490705Y526343D01*
X490693Y526372D01*
X490688Y526404D01*
X490645Y526485D01*
X490609Y526569D01*
X490583Y526601D01*
X490572Y526622D01*
X490549Y526644D01*
X490504Y526700D01*
X488409Y528795D01*
X487171Y531783D01*
X487171Y548225D01*
X488409Y551213D01*
X490695Y553499D01*
X493683Y554737D01*
X496917Y554737D01*
X499905Y553499D01*
X502191Y551213D01*
X503429Y548225D01*
X503429Y538734D01*
X503432Y538714D01*
X503430Y538695D01*
X503452Y538593D01*
X503468Y538491D01*
X503478Y538474D01*
X503482Y538454D01*
X503535Y538365D01*
X503584Y538274D01*
X503598Y538260D01*
X503608Y538243D01*
X503687Y538176D01*
X503762Y538104D01*
X503780Y538096D01*
X503795Y538083D01*
X503891Y538044D01*
X503985Y538001D01*
X504005Y537999D01*
X504023Y537991D01*
X504190Y537973D01*
X511810Y537973D01*
X511830Y537976D01*
X511849Y537974D01*
X511951Y537996D01*
X512053Y538012D01*
X512070Y538022D01*
X512090Y538026D01*
X512179Y538079D01*
X512270Y538128D01*
X512284Y538142D01*
X512301Y538152D01*
X512368Y538231D01*
X512440Y538306D01*
X512448Y538324D01*
X512461Y538339D01*
X512500Y538435D01*
X512543Y538529D01*
X512545Y538549D01*
X512553Y538567D01*
X512571Y538734D01*
X512571Y548225D01*
X513809Y551213D01*
X516095Y553499D01*
X519083Y554737D01*
X522317Y554737D01*
X525305Y553499D01*
X527591Y551213D01*
X528829Y548225D01*
X528829Y531783D01*
X527591Y528795D01*
X527045Y528249D01*
X527033Y528233D01*
X527017Y528220D01*
X526961Y528133D01*
X526901Y528049D01*
X526895Y528030D01*
X526884Y528013D01*
X526859Y527913D01*
X526829Y527814D01*
X526829Y527794D01*
X526824Y527775D01*
X526832Y527672D01*
X526835Y527568D01*
X526842Y527549D01*
X526843Y527530D01*
X526884Y527435D01*
X526919Y527337D01*
X526932Y527321D01*
X526940Y527303D01*
X527045Y527172D01*
X547771Y506446D01*
X547845Y506393D01*
X547915Y506333D01*
X547945Y506321D01*
X547971Y506302D01*
X548058Y506275D01*
X548143Y506241D01*
X548184Y506237D01*
X548206Y506230D01*
X548238Y506231D01*
X548309Y506223D01*
X560694Y506223D01*
X585871Y481046D01*
X585945Y480993D01*
X586015Y480933D01*
X586045Y480921D01*
X586071Y480902D01*
X586158Y480875D01*
X586243Y480841D01*
X586284Y480837D01*
X586306Y480830D01*
X586338Y480831D01*
X586409Y480823D01*
X611494Y480823D01*
X626873Y465444D01*
X626873Y441138D01*
X626892Y441023D01*
X626909Y440907D01*
X626911Y440901D01*
X626912Y440895D01*
X626967Y440792D01*
X627020Y440687D01*
X627025Y440683D01*
X627028Y440677D01*
X627112Y440598D01*
X627196Y440515D01*
X627202Y440511D01*
X627206Y440508D01*
X627223Y440500D01*
X627343Y440434D01*
X627912Y440199D01*
X630699Y437412D01*
X632207Y433771D01*
X632207Y429829D01*
X630699Y426188D01*
X627912Y423401D01*
X624271Y421893D01*
X620329Y421893D01*
X616688Y423401D01*
X613901Y426188D01*
X612393Y429829D01*
X612393Y433771D01*
X613901Y437412D01*
X616688Y440199D01*
X617257Y440434D01*
X617357Y440496D01*
X617457Y440556D01*
X617461Y440561D01*
X617466Y440564D01*
X617541Y440653D01*
X617617Y440743D01*
X617619Y440749D01*
X617623Y440753D01*
X617665Y440861D01*
X617709Y440971D01*
X617710Y440978D01*
X617711Y440983D01*
X617712Y441001D01*
X617727Y441138D01*
X617727Y461341D01*
X617713Y461431D01*
X617705Y461522D01*
X617693Y461551D01*
X617688Y461583D01*
X617645Y461664D01*
X617609Y461748D01*
X617583Y461780D01*
X617572Y461801D01*
X617549Y461823D01*
X617504Y461879D01*
X607929Y471454D01*
X607855Y471507D01*
X607785Y471567D01*
X607755Y471579D01*
X607729Y471598D01*
X607642Y471625D01*
X607557Y471659D01*
X607516Y471663D01*
X607494Y471670D01*
X607462Y471669D01*
X607391Y471677D01*
X582306Y471677D01*
X557129Y496854D01*
X557055Y496907D01*
X556985Y496967D01*
X556955Y496979D01*
X556929Y496998D01*
X556842Y497025D01*
X556757Y497059D01*
X556716Y497063D01*
X556694Y497070D01*
X556662Y497069D01*
X556591Y497077D01*
X544206Y497077D01*
X516127Y525156D01*
X516127Y526162D01*
X516113Y526252D01*
X516105Y526343D01*
X516093Y526372D01*
X516088Y526404D01*
X516045Y526485D01*
X516009Y526569D01*
X515983Y526601D01*
X515972Y526622D01*
X515949Y526644D01*
X515904Y526700D01*
X514000Y528604D01*
X513926Y528657D01*
X513857Y528717D01*
X513826Y528729D01*
X513800Y528748D01*
X513713Y528775D01*
X513628Y528809D01*
X513587Y528813D01*
X513565Y528820D01*
X513533Y528819D01*
X513462Y528827D01*
X502538Y528827D01*
X502448Y528813D01*
X502357Y528805D01*
X502328Y528793D01*
X502296Y528788D01*
X502215Y528745D01*
X502131Y528709D01*
X502099Y528683D01*
X502078Y528672D01*
X502056Y528649D01*
X502000Y528604D01*
X500096Y526700D01*
X500043Y526626D01*
X499983Y526557D01*
X499971Y526526D01*
X499952Y526500D01*
X499925Y526413D01*
X499891Y526328D01*
X499887Y526287D01*
X499880Y526265D01*
X499881Y526233D01*
X499873Y526162D01*
X499873Y506106D01*
X484494Y490727D01*
X472109Y490727D01*
X472019Y490713D01*
X471928Y490705D01*
X471899Y490693D01*
X471867Y490688D01*
X471786Y490645D01*
X471702Y490609D01*
X471670Y490583D01*
X471649Y490572D01*
X471627Y490549D01*
X471571Y490504D01*
X459094Y478027D01*
X451738Y478027D01*
X451648Y478013D01*
X451557Y478005D01*
X451528Y477993D01*
X451496Y477988D01*
X451415Y477945D01*
X451331Y477909D01*
X451299Y477883D01*
X451278Y477872D01*
X451256Y477849D01*
X451200Y477804D01*
X447867Y474471D01*
X441133Y474471D01*
X437800Y477804D01*
X437726Y477857D01*
X437657Y477917D01*
X437626Y477929D01*
X437600Y477948D01*
X437513Y477975D01*
X437428Y478009D01*
X437387Y478013D01*
X437365Y478020D01*
X437333Y478019D01*
X437262Y478027D01*
X427659Y478027D01*
X427569Y478013D01*
X427478Y478005D01*
X427449Y477993D01*
X427417Y477988D01*
X427336Y477945D01*
X427252Y477909D01*
X427220Y477883D01*
X427199Y477872D01*
X427177Y477849D01*
X427121Y477804D01*
X417546Y468229D01*
X417503Y468170D01*
X417457Y468121D01*
X417449Y468104D01*
X417433Y468085D01*
X417421Y468055D01*
X417402Y468029D01*
X417378Y467952D01*
X417354Y467898D01*
X417352Y467884D01*
X417341Y467857D01*
X417337Y467816D01*
X417330Y467794D01*
X417331Y467762D01*
X417323Y467691D01*
X417323Y442606D01*
X360396Y385679D01*
X360343Y385605D01*
X360283Y385535D01*
X360271Y385505D01*
X360252Y385479D01*
X360225Y385392D01*
X360191Y385307D01*
X360187Y385266D01*
X360180Y385244D01*
X360181Y385212D01*
X360173Y385141D01*
X360173Y384433D01*
X360192Y384318D01*
X360209Y384202D01*
X360211Y384196D01*
X360212Y384190D01*
X360267Y384087D01*
X360320Y383983D01*
X360325Y383978D01*
X360328Y383973D01*
X360412Y383892D01*
X360496Y383810D01*
X360502Y383807D01*
X360506Y383803D01*
X360523Y383795D01*
X360643Y383729D01*
X360780Y383673D01*
X363353Y381100D01*
X364745Y377739D01*
X364745Y358861D01*
X363353Y355500D01*
X360780Y352927D01*
X357419Y351535D01*
X353781Y351535D01*
G37*
%LPD*%
%LPC*%
G36*
X612861Y371855D02*
X612861Y371855D01*
X609500Y373247D01*
X606927Y375820D01*
X605535Y379181D01*
X605535Y382819D01*
X606927Y386180D01*
X609500Y388753D01*
X612861Y390145D01*
X624663Y390145D01*
X624753Y390159D01*
X624844Y390167D01*
X624873Y390179D01*
X624905Y390184D01*
X624986Y390227D01*
X625070Y390263D01*
X625102Y390289D01*
X625123Y390300D01*
X625145Y390323D01*
X625201Y390368D01*
X642904Y408071D01*
X642957Y408145D01*
X643017Y408215D01*
X643029Y408245D01*
X643048Y408271D01*
X643075Y408358D01*
X643109Y408443D01*
X643113Y408484D01*
X643120Y408506D01*
X643119Y408538D01*
X643127Y408609D01*
X643127Y505791D01*
X643113Y505881D01*
X643105Y505972D01*
X643093Y506001D01*
X643088Y506033D01*
X643045Y506114D01*
X643009Y506198D01*
X642983Y506230D01*
X642972Y506251D01*
X642949Y506273D01*
X642904Y506329D01*
X625669Y523564D01*
X625575Y523631D01*
X625481Y523702D01*
X625475Y523704D01*
X625469Y523707D01*
X625359Y523742D01*
X625247Y523778D01*
X625240Y523778D01*
X625234Y523780D01*
X625118Y523777D01*
X625001Y523776D01*
X624994Y523774D01*
X624989Y523773D01*
X624971Y523767D01*
X624840Y523729D01*
X624271Y523493D01*
X620329Y523493D01*
X616688Y525001D01*
X613901Y527788D01*
X612393Y531429D01*
X612393Y535371D01*
X613901Y539012D01*
X616688Y541799D01*
X617257Y542034D01*
X617356Y542096D01*
X617457Y542156D01*
X617461Y542160D01*
X617466Y542164D01*
X617540Y542253D01*
X617617Y542343D01*
X617619Y542349D01*
X617623Y542353D01*
X617665Y542461D01*
X617709Y542571D01*
X617710Y542578D01*
X617711Y542583D01*
X617712Y542601D01*
X617727Y542738D01*
X617727Y569291D01*
X617713Y569381D01*
X617705Y569472D01*
X617693Y569501D01*
X617688Y569533D01*
X617645Y569614D01*
X617609Y569698D01*
X617583Y569730D01*
X617572Y569751D01*
X617549Y569773D01*
X617504Y569829D01*
X598785Y588548D01*
X598711Y588601D01*
X598641Y588661D01*
X598611Y588673D01*
X598585Y588692D01*
X598498Y588719D01*
X598413Y588753D01*
X598372Y588757D01*
X598350Y588764D01*
X598318Y588763D01*
X598247Y588771D01*
X593533Y588771D01*
X588771Y593533D01*
X588771Y600267D01*
X593533Y605029D01*
X600267Y605029D01*
X605029Y600267D01*
X605029Y595553D01*
X605030Y595546D01*
X605030Y595544D01*
X605032Y595534D01*
X605043Y595463D01*
X605051Y595372D01*
X605063Y595343D01*
X605068Y595311D01*
X605111Y595230D01*
X605147Y595146D01*
X605173Y595114D01*
X605184Y595093D01*
X605207Y595071D01*
X605252Y595015D01*
X626873Y573394D01*
X626873Y542738D01*
X626891Y542623D01*
X626909Y542507D01*
X626911Y542501D01*
X626912Y542495D01*
X626967Y542392D01*
X627020Y542287D01*
X627025Y542283D01*
X627028Y542277D01*
X627112Y542197D01*
X627196Y542115D01*
X627202Y542111D01*
X627206Y542108D01*
X627223Y542100D01*
X627343Y542034D01*
X627912Y541799D01*
X630699Y539012D01*
X632207Y535371D01*
X632207Y531429D01*
X631971Y530860D01*
X631944Y530747D01*
X631916Y530633D01*
X631916Y530627D01*
X631915Y530621D01*
X631926Y530504D01*
X631935Y530388D01*
X631937Y530382D01*
X631938Y530376D01*
X631986Y530268D01*
X632031Y530162D01*
X632036Y530156D01*
X632038Y530151D01*
X632051Y530138D01*
X632136Y530031D01*
X649371Y512796D01*
X652273Y509894D01*
X652273Y404506D01*
X636348Y388581D01*
X636336Y388565D01*
X636321Y388553D01*
X636265Y388465D01*
X636204Y388381D01*
X636199Y388362D01*
X636188Y388346D01*
X636162Y388245D01*
X636132Y388146D01*
X636133Y388126D01*
X636128Y388107D01*
X636136Y388004D01*
X636138Y387900D01*
X636145Y387882D01*
X636147Y387862D01*
X636187Y387767D01*
X636223Y387669D01*
X636235Y387654D01*
X636243Y387636D01*
X636348Y387505D01*
X637673Y386180D01*
X639065Y382819D01*
X639065Y379181D01*
X637673Y375820D01*
X635100Y373247D01*
X631739Y371855D01*
X612861Y371855D01*
G37*
%LPD*%
%LPC*%
G36*
X96261Y771601D02*
X96261Y771601D01*
X89038Y773537D01*
X82563Y777275D01*
X77275Y782563D01*
X73537Y789038D01*
X71601Y796261D01*
X71601Y803739D01*
X73537Y810962D01*
X77275Y817437D01*
X82563Y822725D01*
X89038Y826463D01*
X96261Y828399D01*
X103739Y828399D01*
X110962Y826463D01*
X117437Y822725D01*
X122725Y817437D01*
X126463Y810962D01*
X128399Y803739D01*
X128399Y796261D01*
X126463Y789038D01*
X122725Y782563D01*
X117437Y777275D01*
X110962Y773537D01*
X103739Y771601D01*
X96261Y771601D01*
G37*
%LPD*%
%LPC*%
G36*
X496261Y571601D02*
X496261Y571601D01*
X489038Y573537D01*
X482563Y577275D01*
X477275Y582563D01*
X473537Y589038D01*
X471601Y596261D01*
X471601Y603739D01*
X473537Y610962D01*
X477275Y617437D01*
X482563Y622725D01*
X489038Y626463D01*
X496261Y628399D01*
X503739Y628399D01*
X510962Y626463D01*
X517437Y622725D01*
X522725Y617437D01*
X526463Y610962D01*
X528399Y603739D01*
X528399Y596261D01*
X526463Y589038D01*
X522725Y582563D01*
X517437Y577275D01*
X510962Y573537D01*
X503739Y571601D01*
X496261Y571601D01*
G37*
%LPD*%
%LPC*%
G36*
X596261Y671601D02*
X596261Y671601D01*
X589038Y673537D01*
X582563Y677275D01*
X577275Y682563D01*
X573537Y689038D01*
X571601Y696261D01*
X571601Y703739D01*
X573537Y710962D01*
X577275Y717437D01*
X582563Y722725D01*
X589038Y726463D01*
X596261Y728399D01*
X603739Y728399D01*
X610962Y726463D01*
X617437Y722725D01*
X622725Y717437D01*
X626463Y710962D01*
X628399Y703739D01*
X628399Y696261D01*
X626463Y689038D01*
X622725Y682563D01*
X617437Y677275D01*
X610962Y673537D01*
X603739Y671601D01*
X596261Y671601D01*
G37*
%LPD*%
G36*
X112181Y563387D02*
X112181Y563387D01*
X112272Y563395D01*
X112301Y563407D01*
X112333Y563412D01*
X112414Y563455D01*
X112498Y563491D01*
X112530Y563517D01*
X112551Y563528D01*
X112573Y563551D01*
X112629Y563596D01*
X115854Y566821D01*
X115907Y566895D01*
X115967Y566965D01*
X115979Y566995D01*
X115998Y567021D01*
X116025Y567108D01*
X116059Y567193D01*
X116063Y567234D01*
X116070Y567256D01*
X116069Y567288D01*
X116077Y567359D01*
X116077Y586094D01*
X179354Y649371D01*
X179407Y649445D01*
X179467Y649515D01*
X179479Y649545D01*
X179498Y649571D01*
X179525Y649658D01*
X179559Y649743D01*
X179563Y649784D01*
X179570Y649806D01*
X179569Y649838D01*
X179577Y649909D01*
X179577Y706744D01*
X201306Y728473D01*
X220161Y728473D01*
X220232Y728484D01*
X220303Y728486D01*
X220352Y728504D01*
X220404Y728512D01*
X220467Y728546D01*
X220534Y728571D01*
X220575Y728603D01*
X220621Y728628D01*
X220670Y728680D01*
X220726Y728724D01*
X220754Y728768D01*
X220790Y728806D01*
X220821Y728871D01*
X220859Y728931D01*
X220872Y728982D01*
X220894Y729029D01*
X220902Y729100D01*
X220919Y729170D01*
X220915Y729222D01*
X220921Y729273D01*
X220906Y729344D01*
X220900Y729415D01*
X220880Y729463D01*
X220869Y729514D01*
X220832Y729575D01*
X220804Y729641D01*
X220759Y729697D01*
X220743Y729725D01*
X220725Y729740D01*
X220699Y729772D01*
X219771Y730700D01*
X219416Y731557D01*
X219354Y731657D01*
X219294Y731757D01*
X219290Y731761D01*
X219286Y731766D01*
X219196Y731841D01*
X219107Y731917D01*
X219102Y731919D01*
X219097Y731923D01*
X218988Y731965D01*
X218879Y732009D01*
X218872Y732010D01*
X218867Y732011D01*
X218849Y732012D01*
X218713Y732027D01*
X199059Y732027D01*
X198969Y732013D01*
X198878Y732005D01*
X198849Y731993D01*
X198817Y731988D01*
X198736Y731945D01*
X198652Y731909D01*
X198620Y731883D01*
X198599Y731872D01*
X198577Y731849D01*
X198521Y731804D01*
X157196Y690479D01*
X157148Y690412D01*
X157142Y690406D01*
X157140Y690402D01*
X157083Y690335D01*
X157071Y690305D01*
X157052Y690279D01*
X157025Y690192D01*
X156991Y690107D01*
X156987Y690066D01*
X156980Y690044D01*
X156981Y690012D01*
X156973Y689941D01*
X156973Y639456D01*
X154071Y636554D01*
X112746Y595229D01*
X109844Y592327D01*
X107525Y592327D01*
X107454Y592316D01*
X107382Y592314D01*
X107333Y592296D01*
X107282Y592288D01*
X107219Y592254D01*
X107151Y592229D01*
X107111Y592197D01*
X107065Y592172D01*
X107015Y592120D01*
X106959Y592076D01*
X106931Y592032D01*
X106895Y591994D01*
X106865Y591929D01*
X106826Y591869D01*
X106814Y591818D01*
X106792Y591771D01*
X106784Y591700D01*
X106766Y591630D01*
X106770Y591578D01*
X106764Y591527D01*
X106780Y591456D01*
X106785Y591385D01*
X106806Y591337D01*
X106817Y591286D01*
X106854Y591225D01*
X106882Y591159D01*
X106926Y591103D01*
X106943Y591075D01*
X106961Y591060D01*
X106986Y591028D01*
X110237Y587777D01*
X110237Y580623D01*
X105177Y575563D01*
X99745Y575563D01*
X99655Y575549D01*
X99564Y575541D01*
X99535Y575529D01*
X99503Y575524D01*
X99422Y575481D01*
X99338Y575445D01*
X99306Y575419D01*
X99285Y575408D01*
X99263Y575385D01*
X99207Y575340D01*
X93696Y569829D01*
X93643Y569755D01*
X93583Y569685D01*
X93571Y569655D01*
X93552Y569629D01*
X93525Y569542D01*
X93491Y569457D01*
X93487Y569416D01*
X93480Y569394D01*
X93481Y569362D01*
X93473Y569291D01*
X93473Y564725D01*
X93484Y564654D01*
X93486Y564582D01*
X93504Y564533D01*
X93512Y564482D01*
X93546Y564419D01*
X93571Y564351D01*
X93603Y564311D01*
X93628Y564265D01*
X93680Y564215D01*
X93724Y564159D01*
X93768Y564131D01*
X93806Y564095D01*
X93871Y564065D01*
X93931Y564026D01*
X93982Y564014D01*
X94029Y563992D01*
X94100Y563984D01*
X94170Y563966D01*
X94222Y563970D01*
X94273Y563964D01*
X94344Y563980D01*
X94415Y563985D01*
X94463Y564006D01*
X94514Y564017D01*
X94575Y564054D01*
X94641Y564082D01*
X94697Y564126D01*
X94725Y564143D01*
X94740Y564161D01*
X94772Y564186D01*
X98023Y567437D01*
X105177Y567437D01*
X109018Y563596D01*
X109092Y563543D01*
X109162Y563483D01*
X109192Y563471D01*
X109218Y563452D01*
X109305Y563425D01*
X109390Y563391D01*
X109431Y563387D01*
X109453Y563380D01*
X109485Y563381D01*
X109557Y563373D01*
X112091Y563373D01*
X112181Y563387D01*
G37*
G36*
X391581Y614187D02*
X391581Y614187D01*
X391672Y614195D01*
X391701Y614207D01*
X391733Y614212D01*
X391814Y614255D01*
X391898Y614291D01*
X391930Y614317D01*
X391951Y614328D01*
X391973Y614351D01*
X392029Y614396D01*
X433354Y655721D01*
X433407Y655795D01*
X433467Y655865D01*
X433479Y655895D01*
X433498Y655921D01*
X433525Y656008D01*
X433559Y656093D01*
X433563Y656134D01*
X433570Y656156D01*
X433569Y656188D01*
X433577Y656259D01*
X433577Y713094D01*
X461656Y741173D01*
X500043Y741173D01*
X500133Y741187D01*
X500224Y741195D01*
X500254Y741207D01*
X500286Y741212D01*
X500367Y741255D01*
X500451Y741291D01*
X500483Y741317D01*
X500503Y741328D01*
X500526Y741351D01*
X500582Y741396D01*
X504423Y745237D01*
X510109Y745237D01*
X510179Y745248D01*
X510251Y745250D01*
X510300Y745268D01*
X510351Y745276D01*
X510415Y745310D01*
X510482Y745335D01*
X510523Y745367D01*
X510569Y745392D01*
X510618Y745444D01*
X510674Y745488D01*
X510702Y745532D01*
X510738Y745570D01*
X510768Y745635D01*
X510807Y745695D01*
X510820Y745746D01*
X510842Y745793D01*
X510850Y745864D01*
X510867Y745934D01*
X510863Y745986D01*
X510869Y746037D01*
X510854Y746108D01*
X510848Y746179D01*
X510828Y746227D01*
X510817Y746278D01*
X510780Y746339D01*
X510752Y746405D01*
X510707Y746461D01*
X510690Y746489D01*
X510673Y746504D01*
X510647Y746536D01*
X503427Y753756D01*
X503427Y754043D01*
X503413Y754133D01*
X503405Y754224D01*
X503393Y754254D01*
X503388Y754286D01*
X503345Y754367D01*
X503309Y754451D01*
X503283Y754483D01*
X503272Y754503D01*
X503249Y754526D01*
X503204Y754582D01*
X499363Y758423D01*
X499363Y765577D01*
X504423Y770637D01*
X511577Y770637D01*
X514828Y767386D01*
X514886Y767345D01*
X514938Y767295D01*
X514985Y767273D01*
X515027Y767243D01*
X515096Y767222D01*
X515161Y767192D01*
X515213Y767186D01*
X515263Y767171D01*
X515334Y767172D01*
X515405Y767164D01*
X515456Y767176D01*
X515508Y767177D01*
X515576Y767202D01*
X515646Y767217D01*
X515691Y767243D01*
X515739Y767261D01*
X515795Y767306D01*
X515857Y767343D01*
X515891Y767382D01*
X515931Y767415D01*
X515970Y767475D01*
X516017Y767530D01*
X516036Y767578D01*
X516064Y767622D01*
X516082Y767691D01*
X516109Y767758D01*
X516117Y767829D01*
X516125Y767860D01*
X516123Y767884D01*
X516127Y767925D01*
X516127Y781475D01*
X516116Y781546D01*
X516114Y781618D01*
X516096Y781667D01*
X516088Y781718D01*
X516054Y781781D01*
X516029Y781849D01*
X515997Y781889D01*
X515972Y781935D01*
X515920Y781985D01*
X515876Y782041D01*
X515832Y782069D01*
X515794Y782105D01*
X515729Y782135D01*
X515669Y782174D01*
X515618Y782186D01*
X515571Y782208D01*
X515500Y782216D01*
X515430Y782234D01*
X515378Y782230D01*
X515327Y782236D01*
X515256Y782220D01*
X515185Y782215D01*
X515137Y782194D01*
X515086Y782183D01*
X515025Y782146D01*
X514959Y782118D01*
X514903Y782074D01*
X514875Y782057D01*
X514860Y782039D01*
X514828Y782014D01*
X511577Y778763D01*
X504423Y778763D01*
X500582Y782604D01*
X500508Y782657D01*
X500438Y782717D01*
X500408Y782729D01*
X500382Y782748D01*
X500295Y782775D01*
X500210Y782809D01*
X500169Y782813D01*
X500147Y782820D01*
X500115Y782819D01*
X500043Y782827D01*
X491159Y782827D01*
X491069Y782813D01*
X490978Y782805D01*
X490949Y782793D01*
X490917Y782788D01*
X490836Y782745D01*
X490752Y782709D01*
X490720Y782683D01*
X490699Y782672D01*
X490677Y782649D01*
X490621Y782604D01*
X430246Y722229D01*
X430193Y722155D01*
X430133Y722085D01*
X430121Y722055D01*
X430102Y722029D01*
X430075Y721942D01*
X430041Y721857D01*
X430037Y721816D01*
X430030Y721794D01*
X430031Y721762D01*
X430023Y721691D01*
X430023Y658506D01*
X389206Y617689D01*
X389196Y617688D01*
X389133Y617654D01*
X389066Y617629D01*
X389025Y617597D01*
X388979Y617572D01*
X388930Y617520D01*
X388874Y617476D01*
X388846Y617432D01*
X388810Y617394D01*
X388779Y617329D01*
X388741Y617269D01*
X388728Y617218D01*
X388706Y617171D01*
X388698Y617100D01*
X388681Y617030D01*
X388685Y616978D01*
X388679Y616927D01*
X388694Y616856D01*
X388700Y616785D01*
X388720Y616737D01*
X388731Y616686D01*
X388768Y616625D01*
X388796Y616559D01*
X388841Y616503D01*
X388857Y616475D01*
X388875Y616460D01*
X388901Y616428D01*
X389829Y615500D01*
X390184Y614643D01*
X390246Y614543D01*
X390306Y614443D01*
X390310Y614439D01*
X390314Y614434D01*
X390404Y614359D01*
X390493Y614283D01*
X390498Y614281D01*
X390503Y614277D01*
X390612Y614235D01*
X390721Y614191D01*
X390728Y614190D01*
X390733Y614189D01*
X390751Y614188D01*
X390887Y614173D01*
X391491Y614173D01*
X391581Y614187D01*
G37*
%LPC*%
G36*
X531783Y315467D02*
X531783Y315467D01*
X528795Y316705D01*
X526509Y318991D01*
X525271Y321979D01*
X525271Y324866D01*
X525268Y324886D01*
X525270Y324905D01*
X525248Y325007D01*
X525232Y325109D01*
X525222Y325126D01*
X525218Y325146D01*
X525165Y325235D01*
X525116Y325326D01*
X525102Y325340D01*
X525092Y325357D01*
X525013Y325424D01*
X524938Y325496D01*
X524920Y325504D01*
X524905Y325517D01*
X524809Y325556D01*
X524715Y325599D01*
X524695Y325601D01*
X524677Y325609D01*
X524510Y325627D01*
X518806Y325627D01*
X500252Y344181D01*
X500252Y381966D01*
X500238Y382056D01*
X500230Y382147D01*
X500218Y382176D01*
X500213Y382208D01*
X500170Y382289D01*
X500134Y382373D01*
X500108Y382405D01*
X500097Y382426D01*
X500074Y382448D01*
X500029Y382504D01*
X497185Y385348D01*
X497111Y385401D01*
X497041Y385461D01*
X497011Y385473D01*
X496985Y385492D01*
X496898Y385519D01*
X496813Y385553D01*
X496772Y385557D01*
X496750Y385564D01*
X496718Y385563D01*
X496647Y385571D01*
X491933Y385571D01*
X487171Y390333D01*
X487171Y397067D01*
X490504Y400400D01*
X490557Y400474D01*
X490617Y400543D01*
X490629Y400574D01*
X490648Y400600D01*
X490675Y400687D01*
X490709Y400772D01*
X490713Y400813D01*
X490720Y400835D01*
X490719Y400867D01*
X490727Y400938D01*
X490727Y414644D01*
X514101Y438018D01*
X514113Y438034D01*
X514129Y438047D01*
X514185Y438134D01*
X514245Y438218D01*
X514251Y438237D01*
X514262Y438254D01*
X514287Y438354D01*
X514317Y438453D01*
X514317Y438473D01*
X514322Y438492D01*
X514314Y438595D01*
X514311Y438699D01*
X514304Y438718D01*
X514303Y438738D01*
X514262Y438833D01*
X514227Y438930D01*
X514214Y438946D01*
X514206Y438964D01*
X514101Y439095D01*
X513809Y439387D01*
X512571Y442375D01*
X512571Y458817D01*
X513809Y461805D01*
X516095Y464091D01*
X519083Y465329D01*
X522317Y465329D01*
X525305Y464091D01*
X527591Y461805D01*
X528829Y458817D01*
X528829Y442375D01*
X527591Y439387D01*
X525496Y437292D01*
X525443Y437218D01*
X525383Y437149D01*
X525371Y437118D01*
X525352Y437092D01*
X525325Y437005D01*
X525291Y436920D01*
X525287Y436879D01*
X525280Y436857D01*
X525281Y436825D01*
X525273Y436754D01*
X525273Y436256D01*
X500096Y411079D01*
X500043Y411005D01*
X499983Y410935D01*
X499971Y410905D01*
X499952Y410879D01*
X499925Y410792D01*
X499891Y410707D01*
X499887Y410666D01*
X499880Y410644D01*
X499881Y410612D01*
X499873Y410541D01*
X499873Y400938D01*
X499887Y400848D01*
X499895Y400757D01*
X499907Y400728D01*
X499912Y400696D01*
X499955Y400615D01*
X499991Y400531D01*
X500017Y400499D01*
X500028Y400478D01*
X500051Y400456D01*
X500096Y400400D01*
X503429Y397067D01*
X503429Y392353D01*
X503443Y392263D01*
X503451Y392172D01*
X503463Y392143D01*
X503468Y392111D01*
X503511Y392030D01*
X503547Y391946D01*
X503573Y391914D01*
X503584Y391893D01*
X503607Y391871D01*
X503630Y391843D01*
X503632Y391839D01*
X503635Y391836D01*
X503652Y391815D01*
X509398Y386069D01*
X509398Y348284D01*
X509412Y348194D01*
X509420Y348103D01*
X509432Y348074D01*
X509437Y348042D01*
X509480Y347961D01*
X509516Y347877D01*
X509542Y347845D01*
X509553Y347824D01*
X509576Y347802D01*
X509621Y347746D01*
X522371Y334996D01*
X522445Y334943D01*
X522515Y334883D01*
X522545Y334871D01*
X522571Y334852D01*
X522658Y334825D01*
X522743Y334791D01*
X522784Y334787D01*
X522806Y334780D01*
X522838Y334781D01*
X522909Y334773D01*
X524510Y334773D01*
X524530Y334776D01*
X524549Y334774D01*
X524651Y334796D01*
X524753Y334812D01*
X524770Y334822D01*
X524790Y334826D01*
X524879Y334879D01*
X524970Y334928D01*
X524984Y334942D01*
X525001Y334952D01*
X525068Y335031D01*
X525140Y335106D01*
X525148Y335124D01*
X525161Y335139D01*
X525200Y335235D01*
X525243Y335329D01*
X525245Y335349D01*
X525253Y335367D01*
X525271Y335534D01*
X525271Y338421D01*
X526509Y341409D01*
X528795Y343695D01*
X531783Y344933D01*
X535017Y344933D01*
X538005Y343695D01*
X540291Y341409D01*
X541529Y338421D01*
X541529Y321979D01*
X540291Y318991D01*
X538005Y316705D01*
X535017Y315467D01*
X531783Y315467D01*
G37*
%LPD*%
%LPC*%
G36*
X531783Y391667D02*
X531783Y391667D01*
X528795Y392905D01*
X526509Y395191D01*
X525271Y398179D01*
X525271Y414621D01*
X526509Y417609D01*
X528604Y419704D01*
X528657Y419778D01*
X528717Y419847D01*
X528729Y419878D01*
X528748Y419904D01*
X528775Y419991D01*
X528809Y420076D01*
X528813Y420117D01*
X528820Y420139D01*
X528819Y420171D01*
X528827Y420242D01*
X528827Y427344D01*
X539501Y438018D01*
X539513Y438034D01*
X539529Y438047D01*
X539585Y438134D01*
X539645Y438218D01*
X539651Y438237D01*
X539662Y438254D01*
X539687Y438354D01*
X539717Y438453D01*
X539717Y438473D01*
X539722Y438492D01*
X539714Y438595D01*
X539711Y438699D01*
X539704Y438718D01*
X539703Y438738D01*
X539662Y438832D01*
X539627Y438930D01*
X539614Y438946D01*
X539606Y438964D01*
X539501Y439095D01*
X539209Y439387D01*
X537971Y442375D01*
X537971Y458817D01*
X539209Y461805D01*
X541495Y464091D01*
X544483Y465329D01*
X547717Y465329D01*
X550705Y464091D01*
X552991Y461805D01*
X554229Y458817D01*
X554229Y442375D01*
X552991Y439387D01*
X550896Y437292D01*
X550843Y437218D01*
X550783Y437149D01*
X550771Y437118D01*
X550752Y437092D01*
X550725Y437005D01*
X550691Y436920D01*
X550687Y436879D01*
X550680Y436857D01*
X550681Y436825D01*
X550673Y436754D01*
X550673Y436256D01*
X538196Y423779D01*
X538143Y423705D01*
X538083Y423635D01*
X538071Y423605D01*
X538052Y423579D01*
X538025Y423492D01*
X537991Y423407D01*
X537987Y423366D01*
X537980Y423344D01*
X537981Y423312D01*
X537973Y423241D01*
X537973Y420242D01*
X537987Y420152D01*
X537995Y420061D01*
X538007Y420032D01*
X538012Y420000D01*
X538055Y419919D01*
X538091Y419835D01*
X538117Y419803D01*
X538128Y419782D01*
X538151Y419760D01*
X538196Y419704D01*
X540291Y417609D01*
X541529Y414621D01*
X541529Y398179D01*
X540291Y395191D01*
X538005Y392905D01*
X535017Y391667D01*
X531783Y391667D01*
G37*
%LPD*%
%LPC*%
G36*
X612861Y321055D02*
X612861Y321055D01*
X609500Y322447D01*
X606927Y325020D01*
X605535Y328381D01*
X605535Y332019D01*
X606927Y335380D01*
X609500Y337953D01*
X612861Y339345D01*
X631739Y339345D01*
X635100Y337953D01*
X637673Y335380D01*
X639065Y332019D01*
X639065Y328381D01*
X637673Y325020D01*
X635100Y322447D01*
X631739Y321055D01*
X612861Y321055D01*
G37*
%LPD*%
%LPC*%
G36*
X442681Y351535D02*
X442681Y351535D01*
X439320Y352927D01*
X436747Y355500D01*
X435355Y358861D01*
X435355Y377739D01*
X436747Y381100D01*
X439320Y383673D01*
X442681Y385065D01*
X446319Y385065D01*
X449680Y383673D01*
X452253Y381100D01*
X453645Y377739D01*
X453645Y358861D01*
X452253Y355500D01*
X449680Y352927D01*
X446319Y351535D01*
X442681Y351535D01*
G37*
%LPD*%
%LPC*%
G36*
X417281Y351535D02*
X417281Y351535D01*
X413920Y352927D01*
X411347Y355500D01*
X409955Y358861D01*
X409955Y377739D01*
X411347Y381100D01*
X413920Y383673D01*
X417281Y385065D01*
X420919Y385065D01*
X424280Y383673D01*
X426853Y381100D01*
X428245Y377739D01*
X428245Y358861D01*
X426853Y355500D01*
X424280Y352927D01*
X420919Y351535D01*
X417281Y351535D01*
G37*
%LPD*%
%LPC*%
G36*
X188681Y351535D02*
X188681Y351535D01*
X185320Y352927D01*
X182747Y355500D01*
X181355Y358861D01*
X181355Y377739D01*
X182747Y381100D01*
X185320Y383673D01*
X188681Y385065D01*
X192319Y385065D01*
X195680Y383673D01*
X198253Y381100D01*
X199645Y377739D01*
X199645Y358861D01*
X198253Y355500D01*
X195680Y352927D01*
X192319Y351535D01*
X188681Y351535D01*
G37*
%LPD*%
%LPC*%
G36*
X163281Y351535D02*
X163281Y351535D01*
X159920Y352927D01*
X157347Y355500D01*
X155955Y358861D01*
X155955Y377739D01*
X157347Y381100D01*
X159920Y383673D01*
X163281Y385065D01*
X166919Y385065D01*
X170280Y383673D01*
X172853Y381100D01*
X174245Y377739D01*
X174245Y358861D01*
X172853Y355500D01*
X170280Y352927D01*
X166919Y351535D01*
X163281Y351535D01*
G37*
%LPD*%
%LPC*%
G36*
X612861Y346455D02*
X612861Y346455D01*
X609500Y347847D01*
X606927Y350420D01*
X605535Y353781D01*
X605535Y357419D01*
X606927Y360780D01*
X609500Y363353D01*
X612861Y364745D01*
X631739Y364745D01*
X635100Y363353D01*
X637673Y360780D01*
X639065Y357419D01*
X639065Y353781D01*
X637673Y350420D01*
X635100Y347847D01*
X631739Y346455D01*
X612861Y346455D01*
G37*
%LPD*%
%LPC*%
G36*
X569883Y435863D02*
X569883Y435863D01*
X566895Y437101D01*
X564609Y439387D01*
X563371Y442375D01*
X563371Y458817D01*
X564609Y461805D01*
X566895Y464091D01*
X569883Y465329D01*
X573117Y465329D01*
X576105Y464091D01*
X578391Y461805D01*
X579629Y458817D01*
X579629Y442375D01*
X578391Y439387D01*
X576105Y437101D01*
X573117Y435863D01*
X569883Y435863D01*
G37*
%LPD*%
%LPC*%
G36*
X544483Y525271D02*
X544483Y525271D01*
X541495Y526509D01*
X539209Y528795D01*
X537971Y531783D01*
X537971Y548225D01*
X539209Y551213D01*
X541495Y553499D01*
X544483Y554737D01*
X547717Y554737D01*
X550705Y553499D01*
X552991Y551213D01*
X554229Y548225D01*
X554229Y531783D01*
X552991Y528795D01*
X550705Y526509D01*
X547717Y525271D01*
X544483Y525271D01*
G37*
%LPD*%
%LPC*%
G36*
X493683Y435863D02*
X493683Y435863D01*
X490695Y437101D01*
X488409Y439387D01*
X487171Y442375D01*
X487171Y458817D01*
X488409Y461805D01*
X490695Y464091D01*
X493683Y465329D01*
X496917Y465329D01*
X499905Y464091D01*
X502191Y461805D01*
X503429Y458817D01*
X503429Y442375D01*
X502191Y439387D01*
X499905Y437101D01*
X496917Y435863D01*
X493683Y435863D01*
G37*
%LPD*%
%LPC*%
G36*
X92718Y866525D02*
X92718Y866525D01*
X91825Y867418D01*
X91825Y885182D01*
X92718Y886075D01*
X110482Y886075D01*
X111375Y885182D01*
X111375Y867418D01*
X110482Y866525D01*
X92718Y866525D01*
G37*
%LPD*%
%LPC*%
G36*
X226528Y827785D02*
X226528Y827785D01*
X222700Y829371D01*
X219771Y832300D01*
X218185Y836128D01*
X218185Y840272D01*
X219771Y844100D01*
X222700Y847029D01*
X226528Y848615D01*
X230672Y848615D01*
X234500Y847029D01*
X237429Y844100D01*
X239015Y840272D01*
X239015Y836128D01*
X237429Y832300D01*
X234500Y829371D01*
X230672Y827785D01*
X226528Y827785D01*
G37*
%LPD*%
%LPC*%
G36*
X378928Y649985D02*
X378928Y649985D01*
X375100Y651571D01*
X372171Y654500D01*
X370585Y658328D01*
X370585Y662472D01*
X372171Y666300D01*
X375100Y669229D01*
X378928Y670815D01*
X383072Y670815D01*
X386900Y669229D01*
X389829Y666300D01*
X391415Y662472D01*
X391415Y658328D01*
X389829Y654500D01*
X386900Y651571D01*
X383072Y649985D01*
X378928Y649985D01*
G37*
%LPD*%
%LPC*%
G36*
X226528Y675385D02*
X226528Y675385D01*
X222700Y676971D01*
X219771Y679900D01*
X218185Y683728D01*
X218185Y687872D01*
X219771Y691700D01*
X222700Y694629D01*
X226528Y696215D01*
X230672Y696215D01*
X234500Y694629D01*
X237429Y691700D01*
X239015Y687872D01*
X239015Y683728D01*
X237429Y679900D01*
X234500Y676971D01*
X230672Y675385D01*
X226528Y675385D01*
G37*
%LPD*%
%LPC*%
G36*
X378928Y675385D02*
X378928Y675385D01*
X375100Y676971D01*
X372171Y679900D01*
X370585Y683728D01*
X370585Y687872D01*
X372171Y691700D01*
X375100Y694629D01*
X378928Y696215D01*
X383072Y696215D01*
X386900Y694629D01*
X389829Y691700D01*
X391415Y687872D01*
X391415Y683728D01*
X389829Y679900D01*
X386900Y676971D01*
X383072Y675385D01*
X378928Y675385D01*
G37*
%LPD*%
%LPC*%
G36*
X378928Y446785D02*
X378928Y446785D01*
X375100Y448371D01*
X372171Y451300D01*
X370585Y455128D01*
X370585Y459272D01*
X372171Y463100D01*
X375100Y466029D01*
X378928Y467615D01*
X383072Y467615D01*
X386900Y466029D01*
X389829Y463100D01*
X391415Y459272D01*
X391415Y455128D01*
X389829Y451300D01*
X386900Y448371D01*
X383072Y446785D01*
X378928Y446785D01*
G37*
%LPD*%
%LPC*%
G36*
X226528Y878585D02*
X226528Y878585D01*
X222700Y880171D01*
X219771Y883100D01*
X218185Y886928D01*
X218185Y891072D01*
X219771Y894900D01*
X222700Y897829D01*
X226528Y899415D01*
X230672Y899415D01*
X234500Y897829D01*
X237429Y894900D01*
X239015Y891072D01*
X239015Y886928D01*
X237429Y883100D01*
X234500Y880171D01*
X230672Y878585D01*
X226528Y878585D01*
G37*
%LPD*%
%LPC*%
G36*
X378928Y472185D02*
X378928Y472185D01*
X375100Y473771D01*
X372171Y476700D01*
X370585Y480528D01*
X370585Y484672D01*
X372171Y488500D01*
X375100Y491429D01*
X378928Y493015D01*
X383072Y493015D01*
X386900Y491429D01*
X389829Y488500D01*
X391415Y484672D01*
X391415Y480528D01*
X389829Y476700D01*
X386900Y473771D01*
X383072Y472185D01*
X378928Y472185D01*
G37*
%LPD*%
%LPC*%
G36*
X378928Y726185D02*
X378928Y726185D01*
X375100Y727771D01*
X372171Y730700D01*
X370585Y734528D01*
X370585Y738672D01*
X372171Y742500D01*
X375100Y745429D01*
X378928Y747015D01*
X383072Y747015D01*
X386900Y745429D01*
X389829Y742500D01*
X391415Y738672D01*
X391415Y734528D01*
X389829Y730700D01*
X386900Y727771D01*
X383072Y726185D01*
X378928Y726185D01*
G37*
%LPD*%
%LPC*%
G36*
X378928Y751585D02*
X378928Y751585D01*
X375100Y753171D01*
X372171Y756100D01*
X370585Y759928D01*
X370585Y764072D01*
X372171Y767900D01*
X375100Y770829D01*
X378928Y772415D01*
X383072Y772415D01*
X386900Y770829D01*
X389829Y767900D01*
X391415Y764072D01*
X391415Y759928D01*
X389829Y756100D01*
X386900Y753171D01*
X383072Y751585D01*
X378928Y751585D01*
G37*
%LPD*%
%LPC*%
G36*
X226528Y751585D02*
X226528Y751585D01*
X222700Y753171D01*
X219771Y756100D01*
X218185Y759928D01*
X218185Y764072D01*
X219771Y767900D01*
X222700Y770829D01*
X226528Y772415D01*
X230672Y772415D01*
X234500Y770829D01*
X237429Y767900D01*
X239015Y764072D01*
X239015Y759928D01*
X237429Y756100D01*
X234500Y753171D01*
X230672Y751585D01*
X226528Y751585D01*
G37*
%LPD*%
%LPC*%
G36*
X226528Y497585D02*
X226528Y497585D01*
X222700Y499171D01*
X219771Y502100D01*
X218185Y505928D01*
X218185Y510072D01*
X219771Y513900D01*
X222700Y516829D01*
X226528Y518415D01*
X230672Y518415D01*
X234500Y516829D01*
X237429Y513900D01*
X239015Y510072D01*
X239015Y505928D01*
X237429Y502100D01*
X234500Y499171D01*
X230672Y497585D01*
X226528Y497585D01*
G37*
%LPD*%
%LPC*%
G36*
X226528Y802385D02*
X226528Y802385D01*
X222700Y803971D01*
X219771Y806900D01*
X218185Y810728D01*
X218185Y814872D01*
X219771Y818700D01*
X222700Y821629D01*
X226528Y823215D01*
X230672Y823215D01*
X234500Y821629D01*
X237429Y818700D01*
X239015Y814872D01*
X239015Y810728D01*
X237429Y806900D01*
X234500Y803971D01*
X230672Y802385D01*
X226528Y802385D01*
G37*
%LPD*%
%LPC*%
G36*
X226528Y548385D02*
X226528Y548385D01*
X222700Y549971D01*
X219771Y552900D01*
X218185Y556728D01*
X218185Y560872D01*
X219771Y564700D01*
X222700Y567629D01*
X226528Y569215D01*
X230672Y569215D01*
X234500Y567629D01*
X237429Y564700D01*
X239015Y560872D01*
X239015Y556728D01*
X237429Y552900D01*
X234500Y549971D01*
X230672Y548385D01*
X226528Y548385D01*
G37*
%LPD*%
%LPC*%
G36*
X226528Y522985D02*
X226528Y522985D01*
X222700Y524571D01*
X219771Y527500D01*
X218185Y531328D01*
X218185Y535472D01*
X219771Y539300D01*
X222700Y542229D01*
X226528Y543815D01*
X230672Y543815D01*
X234500Y542229D01*
X237429Y539300D01*
X239015Y535472D01*
X239015Y531328D01*
X237429Y527500D01*
X234500Y524571D01*
X230672Y522985D01*
X226528Y522985D01*
G37*
%LPD*%
%LPC*%
G36*
X529823Y880363D02*
X529823Y880363D01*
X524763Y885423D01*
X524763Y892577D01*
X529823Y897637D01*
X536977Y897637D01*
X542037Y892577D01*
X542037Y885423D01*
X536977Y880363D01*
X529823Y880363D01*
G37*
%LPD*%
%LPC*%
G36*
X72623Y473963D02*
X72623Y473963D01*
X67563Y479023D01*
X67563Y486177D01*
X72623Y491237D01*
X79777Y491237D01*
X84837Y486177D01*
X84837Y479023D01*
X79777Y473963D01*
X72623Y473963D01*
G37*
%LPD*%
%LPC*%
G36*
X72623Y524763D02*
X72623Y524763D01*
X67563Y529823D01*
X67563Y536977D01*
X72623Y542037D01*
X79777Y542037D01*
X84837Y536977D01*
X84837Y529823D01*
X79777Y524763D01*
X72623Y524763D01*
G37*
%LPD*%
%LPC*%
G36*
X72623Y600963D02*
X72623Y600963D01*
X67563Y606023D01*
X67563Y613177D01*
X72623Y618237D01*
X79777Y618237D01*
X84837Y613177D01*
X84837Y606023D01*
X79777Y600963D01*
X72623Y600963D01*
G37*
%LPD*%
%LPC*%
G36*
X626946Y869635D02*
X626946Y869635D01*
X623798Y870939D01*
X621389Y873348D01*
X620085Y876496D01*
X620085Y879904D01*
X621389Y883052D01*
X623798Y885461D01*
X626946Y886765D01*
X630354Y886765D01*
X633502Y885461D01*
X635911Y883052D01*
X637215Y879904D01*
X637215Y876496D01*
X635911Y873348D01*
X633502Y870939D01*
X630354Y869635D01*
X626946Y869635D01*
G37*
%LPD*%
%LPC*%
G36*
X626946Y849635D02*
X626946Y849635D01*
X623798Y850939D01*
X621389Y853348D01*
X620085Y856496D01*
X620085Y859904D01*
X621389Y863052D01*
X623798Y865461D01*
X626946Y866765D01*
X630354Y866765D01*
X633502Y865461D01*
X635911Y863052D01*
X637215Y859904D01*
X637215Y856496D01*
X635911Y853348D01*
X633502Y850939D01*
X630354Y849635D01*
X626946Y849635D01*
G37*
%LPD*%
%LPC*%
G36*
X568133Y309371D02*
X568133Y309371D01*
X563371Y314133D01*
X563371Y320867D01*
X568133Y325629D01*
X574867Y325629D01*
X579629Y320867D01*
X579629Y314133D01*
X574867Y309371D01*
X568133Y309371D01*
G37*
%LPD*%
%LPC*%
G36*
X568133Y385571D02*
X568133Y385571D01*
X563371Y390333D01*
X563371Y397067D01*
X568133Y401829D01*
X574867Y401829D01*
X579629Y397067D01*
X579629Y390333D01*
X574867Y385571D01*
X568133Y385571D01*
G37*
%LPD*%
%LPC*%
G36*
X491933Y309371D02*
X491933Y309371D01*
X487171Y314133D01*
X487171Y320867D01*
X491933Y325629D01*
X498667Y325629D01*
X503429Y320867D01*
X503429Y314133D01*
X498667Y309371D01*
X491933Y309371D01*
G37*
%LPD*%
%LPC*%
G36*
X580833Y607821D02*
X580833Y607821D01*
X576071Y612583D01*
X576071Y619317D01*
X580833Y624079D01*
X587567Y624079D01*
X592329Y619317D01*
X592329Y612583D01*
X587567Y607821D01*
X580833Y607821D01*
G37*
%LPD*%
%LPC*%
G36*
X573023Y534923D02*
X573023Y534923D01*
X573023Y555629D01*
X574167Y555401D01*
X575832Y554712D01*
X577330Y553711D01*
X578603Y552438D01*
X579604Y550940D01*
X580293Y549275D01*
X580645Y547509D01*
X580645Y534923D01*
X573023Y534923D01*
G37*
%LPD*%
%LPC*%
G36*
X562355Y534923D02*
X562355Y534923D01*
X562355Y547509D01*
X562707Y549275D01*
X563396Y550940D01*
X564397Y552438D01*
X565670Y553711D01*
X567168Y554712D01*
X568833Y555401D01*
X569977Y555629D01*
X569977Y534923D01*
X562355Y534923D01*
G37*
%LPD*%
%LPC*%
G36*
X141223Y369823D02*
X141223Y369823D01*
X141223Y385966D01*
X142079Y385831D01*
X143600Y385336D01*
X145025Y384610D01*
X146319Y383670D01*
X147450Y382539D01*
X148390Y381245D01*
X149116Y379820D01*
X149611Y378299D01*
X149861Y376720D01*
X149861Y369823D01*
X141223Y369823D01*
G37*
%LPD*%
%LPC*%
G36*
X255523Y369823D02*
X255523Y369823D01*
X255523Y385966D01*
X256379Y385831D01*
X257900Y385336D01*
X259325Y384610D01*
X260619Y383670D01*
X261750Y382539D01*
X262690Y381245D01*
X263416Y379820D01*
X263911Y378299D01*
X264161Y376720D01*
X264161Y369823D01*
X255523Y369823D01*
G37*
%LPD*%
%LPC*%
G36*
X141223Y366777D02*
X141223Y366777D01*
X149861Y366777D01*
X149861Y359880D01*
X149611Y358301D01*
X149116Y356780D01*
X148390Y355355D01*
X147450Y354061D01*
X146319Y352930D01*
X145025Y351990D01*
X143600Y351264D01*
X142079Y350769D01*
X141223Y350634D01*
X141223Y366777D01*
G37*
%LPD*%
%LPC*%
G36*
X255523Y366777D02*
X255523Y366777D01*
X264161Y366777D01*
X264161Y359880D01*
X263911Y358301D01*
X263416Y356780D01*
X262690Y355355D01*
X261750Y354061D01*
X260619Y352930D01*
X259325Y351990D01*
X257900Y351264D01*
X256379Y350769D01*
X255523Y350634D01*
X255523Y366777D01*
G37*
%LPD*%
%LPC*%
G36*
X129539Y369823D02*
X129539Y369823D01*
X129539Y376720D01*
X129789Y378299D01*
X130284Y379820D01*
X131010Y381245D01*
X131950Y382539D01*
X133081Y383670D01*
X134375Y384610D01*
X135800Y385336D01*
X137321Y385831D01*
X138177Y385966D01*
X138177Y369823D01*
X129539Y369823D01*
G37*
%LPD*%
%LPC*%
G36*
X243839Y369823D02*
X243839Y369823D01*
X243839Y376720D01*
X244089Y378299D01*
X244584Y379820D01*
X245310Y381245D01*
X246250Y382539D01*
X247381Y383670D01*
X248675Y384610D01*
X250100Y385336D01*
X251621Y385831D01*
X252477Y385966D01*
X252477Y369823D01*
X243839Y369823D01*
G37*
%LPD*%
%LPC*%
G36*
X251621Y350769D02*
X251621Y350769D01*
X250100Y351264D01*
X248675Y351990D01*
X247381Y352930D01*
X246250Y354061D01*
X245310Y355355D01*
X244584Y356780D01*
X244089Y358301D01*
X243839Y359880D01*
X243839Y366777D01*
X252477Y366777D01*
X252477Y350634D01*
X251621Y350769D01*
G37*
%LPD*%
%LPC*%
G36*
X137321Y350769D02*
X137321Y350769D01*
X135800Y351264D01*
X134375Y351990D01*
X133081Y352930D01*
X131950Y354061D01*
X131010Y355355D01*
X130284Y356780D01*
X129789Y358301D01*
X129539Y359880D01*
X129539Y366777D01*
X138177Y366777D01*
X138177Y350634D01*
X137321Y350769D01*
G37*
%LPD*%
%LPC*%
G36*
X230123Y484123D02*
X230123Y484123D01*
X230123Y493932D01*
X231277Y493749D01*
X232988Y493193D01*
X234591Y492376D01*
X236047Y491319D01*
X237319Y490047D01*
X238376Y488591D01*
X239193Y486988D01*
X239749Y485277D01*
X239932Y484123D01*
X230123Y484123D01*
G37*
%LPD*%
%LPC*%
G36*
X382523Y915923D02*
X382523Y915923D01*
X382523Y925732D01*
X383677Y925549D01*
X385388Y924993D01*
X386991Y924176D01*
X388447Y923119D01*
X389719Y921847D01*
X390776Y920391D01*
X391593Y918788D01*
X392149Y917077D01*
X392332Y915923D01*
X382523Y915923D01*
G37*
%LPD*%
%LPC*%
G36*
X344423Y496823D02*
X344423Y496823D01*
X344423Y506632D01*
X345577Y506449D01*
X347288Y505893D01*
X348891Y505076D01*
X350347Y504019D01*
X351619Y502747D01*
X352676Y501291D01*
X353493Y499688D01*
X354049Y497977D01*
X354232Y496823D01*
X344423Y496823D01*
G37*
%LPD*%
%LPC*%
G36*
X382523Y941323D02*
X382523Y941323D01*
X382523Y951132D01*
X383677Y950949D01*
X385388Y950393D01*
X386991Y949576D01*
X388447Y948519D01*
X389719Y947247D01*
X390776Y945791D01*
X391593Y944188D01*
X392149Y942477D01*
X392332Y941323D01*
X382523Y941323D01*
G37*
%LPD*%
%LPC*%
G36*
X230123Y481077D02*
X230123Y481077D01*
X239932Y481077D01*
X239749Y479923D01*
X239193Y478212D01*
X238376Y476609D01*
X237319Y475153D01*
X236047Y473881D01*
X234591Y472824D01*
X232988Y472007D01*
X231277Y471451D01*
X230123Y471268D01*
X230123Y481077D01*
G37*
%LPD*%
%LPC*%
G36*
X217268Y484123D02*
X217268Y484123D01*
X217451Y485277D01*
X218007Y486988D01*
X218824Y488591D01*
X219881Y490047D01*
X221153Y491319D01*
X222609Y492376D01*
X224212Y493193D01*
X225923Y493749D01*
X227077Y493932D01*
X227077Y484123D01*
X217268Y484123D01*
G37*
%LPD*%
%LPC*%
G36*
X344423Y493777D02*
X344423Y493777D01*
X354232Y493777D01*
X354049Y492623D01*
X353493Y490912D01*
X352676Y489309D01*
X351619Y487853D01*
X350347Y486581D01*
X348891Y485524D01*
X347288Y484707D01*
X345577Y484151D01*
X344423Y483968D01*
X344423Y493777D01*
G37*
%LPD*%
%LPC*%
G36*
X382523Y912877D02*
X382523Y912877D01*
X392332Y912877D01*
X392149Y911723D01*
X391593Y910012D01*
X390776Y908409D01*
X389719Y906953D01*
X388447Y905681D01*
X386991Y904624D01*
X385388Y903807D01*
X383677Y903251D01*
X382523Y903068D01*
X382523Y912877D01*
G37*
%LPD*%
%LPC*%
G36*
X331568Y496823D02*
X331568Y496823D01*
X331751Y497977D01*
X332307Y499688D01*
X333124Y501291D01*
X334181Y502747D01*
X335453Y504019D01*
X336909Y505076D01*
X338512Y505893D01*
X340223Y506449D01*
X341377Y506632D01*
X341377Y496823D01*
X331568Y496823D01*
G37*
%LPD*%
%LPC*%
G36*
X369668Y915923D02*
X369668Y915923D01*
X369851Y917077D01*
X370407Y918788D01*
X371224Y920391D01*
X372281Y921847D01*
X373553Y923119D01*
X375009Y924176D01*
X376612Y924993D01*
X378323Y925549D01*
X379477Y925732D01*
X379477Y915923D01*
X369668Y915923D01*
G37*
%LPD*%
%LPC*%
G36*
X382523Y938277D02*
X382523Y938277D01*
X392332Y938277D01*
X392149Y937123D01*
X391593Y935412D01*
X390776Y933809D01*
X389719Y932353D01*
X388447Y931081D01*
X386991Y930024D01*
X385388Y929207D01*
X383677Y928651D01*
X382523Y928468D01*
X382523Y938277D01*
G37*
%LPD*%
%LPC*%
G36*
X369668Y941323D02*
X369668Y941323D01*
X369851Y942477D01*
X370407Y944188D01*
X371224Y945791D01*
X372281Y947247D01*
X373553Y948519D01*
X375009Y949576D01*
X376612Y950393D01*
X378323Y950949D01*
X379477Y951132D01*
X379477Y941323D01*
X369668Y941323D01*
G37*
%LPD*%
%LPC*%
G36*
X378323Y928651D02*
X378323Y928651D01*
X376612Y929207D01*
X375009Y930024D01*
X373553Y931081D01*
X372281Y932353D01*
X371224Y933809D01*
X370407Y935412D01*
X369851Y937123D01*
X369668Y938277D01*
X379477Y938277D01*
X379477Y928468D01*
X378323Y928651D01*
G37*
%LPD*%
%LPC*%
G36*
X340223Y484151D02*
X340223Y484151D01*
X338512Y484707D01*
X336909Y485524D01*
X335453Y486581D01*
X334181Y487853D01*
X333124Y489309D01*
X332307Y490912D01*
X331751Y492623D01*
X331568Y493777D01*
X341377Y493777D01*
X341377Y483968D01*
X340223Y484151D01*
G37*
%LPD*%
%LPC*%
G36*
X378323Y903251D02*
X378323Y903251D01*
X376612Y903807D01*
X375009Y904624D01*
X373553Y905681D01*
X372281Y906953D01*
X371224Y908409D01*
X370407Y910012D01*
X369851Y911723D01*
X369668Y912877D01*
X379477Y912877D01*
X379477Y903068D01*
X378323Y903251D01*
G37*
%LPD*%
%LPC*%
G36*
X225923Y471451D02*
X225923Y471451D01*
X224212Y472007D01*
X222609Y472824D01*
X221153Y473881D01*
X219881Y475153D01*
X218824Y476609D01*
X218007Y478212D01*
X217451Y479923D01*
X217268Y481077D01*
X227077Y481077D01*
X227077Y471268D01*
X225923Y471451D01*
G37*
%LPD*%
%LPC*%
G36*
X630173Y839723D02*
X630173Y839723D01*
X630173Y847781D01*
X636024Y847781D01*
X636671Y847608D01*
X637250Y847273D01*
X637723Y846800D01*
X638058Y846221D01*
X638231Y845574D01*
X638231Y839723D01*
X630173Y839723D01*
G37*
%LPD*%
%LPC*%
G36*
X619069Y839723D02*
X619069Y839723D01*
X619069Y845574D01*
X619242Y846221D01*
X619577Y846800D01*
X620050Y847273D01*
X620629Y847608D01*
X621276Y847781D01*
X627127Y847781D01*
X627127Y839723D01*
X619069Y839723D01*
G37*
%LPD*%
%LPC*%
G36*
X630173Y828619D02*
X630173Y828619D01*
X630173Y836677D01*
X638231Y836677D01*
X638231Y830826D01*
X638058Y830179D01*
X637723Y829600D01*
X637250Y829127D01*
X636671Y828792D01*
X636024Y828619D01*
X630173Y828619D01*
G37*
%LPD*%
%LPC*%
G36*
X621276Y828619D02*
X621276Y828619D01*
X620629Y828792D01*
X620050Y829127D01*
X619577Y829600D01*
X619242Y830179D01*
X619069Y830826D01*
X619069Y836677D01*
X627127Y836677D01*
X627127Y828619D01*
X621276Y828619D01*
G37*
%LPD*%
%LPC*%
G36*
X103123Y915923D02*
X103123Y915923D01*
X103123Y925084D01*
X104127Y924925D01*
X105742Y924400D01*
X107255Y923629D01*
X108630Y922631D01*
X109831Y921430D01*
X110829Y920055D01*
X111600Y918542D01*
X112125Y916927D01*
X112284Y915923D01*
X103123Y915923D01*
G37*
%LPD*%
%LPC*%
G36*
X90916Y915923D02*
X90916Y915923D01*
X91075Y916927D01*
X91600Y918542D01*
X92371Y920055D01*
X93369Y921430D01*
X94570Y922631D01*
X95945Y923629D01*
X97458Y924400D01*
X99073Y924925D01*
X100077Y925084D01*
X100077Y915923D01*
X90916Y915923D01*
G37*
%LPD*%
%LPC*%
G36*
X103123Y912877D02*
X103123Y912877D01*
X112284Y912877D01*
X112125Y911873D01*
X111600Y910258D01*
X110829Y908745D01*
X109831Y907370D01*
X108630Y906169D01*
X107255Y905171D01*
X105742Y904400D01*
X104127Y903875D01*
X103123Y903716D01*
X103123Y912877D01*
G37*
%LPD*%
%LPC*%
G36*
X99073Y903875D02*
X99073Y903875D01*
X97458Y904400D01*
X95945Y905171D01*
X94570Y906169D01*
X93369Y907370D01*
X92371Y908745D01*
X91600Y910258D01*
X91075Y911873D01*
X90916Y912877D01*
X100077Y912877D01*
X100077Y903716D01*
X99073Y903875D01*
G37*
%LPD*%
%LPC*%
G36*
X103123Y484123D02*
X103123Y484123D01*
X103123Y492253D01*
X105598Y492253D01*
X111253Y486598D01*
X111253Y484123D01*
X103123Y484123D01*
G37*
%LPD*%
%LPC*%
G36*
X509523Y890523D02*
X509523Y890523D01*
X509523Y898653D01*
X511998Y898653D01*
X517653Y892998D01*
X517653Y890523D01*
X509523Y890523D01*
G37*
%LPD*%
%LPC*%
G36*
X498347Y890523D02*
X498347Y890523D01*
X498347Y892998D01*
X504002Y898653D01*
X506477Y898653D01*
X506477Y890523D01*
X498347Y890523D01*
G37*
%LPD*%
%LPC*%
G36*
X91947Y484123D02*
X91947Y484123D01*
X91947Y486598D01*
X97602Y492253D01*
X100077Y492253D01*
X100077Y484123D01*
X91947Y484123D01*
G37*
%LPD*%
%LPC*%
G36*
X103123Y472947D02*
X103123Y472947D01*
X103123Y481077D01*
X111253Y481077D01*
X111253Y478602D01*
X105598Y472947D01*
X103123Y472947D01*
G37*
%LPD*%
%LPC*%
G36*
X97602Y472947D02*
X97602Y472947D01*
X91947Y478602D01*
X91947Y481077D01*
X100077Y481077D01*
X100077Y472947D01*
X97602Y472947D01*
G37*
%LPD*%
%LPC*%
G36*
X446023Y509523D02*
X446023Y509523D01*
X446023Y517145D01*
X448288Y517145D01*
X453645Y511788D01*
X453645Y509523D01*
X446023Y509523D01*
G37*
%LPD*%
%LPC*%
G36*
X573023Y598423D02*
X573023Y598423D01*
X573023Y606045D01*
X575288Y606045D01*
X580645Y600688D01*
X580645Y598423D01*
X573023Y598423D01*
G37*
%LPD*%
%LPC*%
G36*
X562355Y598423D02*
X562355Y598423D01*
X562355Y600688D01*
X567712Y606045D01*
X569977Y606045D01*
X569977Y598423D01*
X562355Y598423D01*
G37*
%LPD*%
%LPC*%
G36*
X446023Y498855D02*
X446023Y498855D01*
X446023Y506477D01*
X453645Y506477D01*
X453645Y504212D01*
X448288Y498855D01*
X446023Y498855D01*
G37*
%LPD*%
%LPC*%
G36*
X573023Y587755D02*
X573023Y587755D01*
X573023Y595377D01*
X580645Y595377D01*
X580645Y593112D01*
X575288Y587755D01*
X573023Y587755D01*
G37*
%LPD*%
%LPC*%
G36*
X435355Y509523D02*
X435355Y509523D01*
X435355Y511788D01*
X440712Y517145D01*
X442977Y517145D01*
X442977Y509523D01*
X435355Y509523D01*
G37*
%LPD*%
%LPC*%
G36*
X440712Y498855D02*
X440712Y498855D01*
X435355Y504212D01*
X435355Y506477D01*
X442977Y506477D01*
X442977Y498855D01*
X440712Y498855D01*
G37*
%LPD*%
%LPC*%
G36*
X567712Y587755D02*
X567712Y587755D01*
X562355Y593112D01*
X562355Y595377D01*
X569977Y595377D01*
X569977Y587755D01*
X567712Y587755D01*
G37*
%LPD*%
%LPC*%
G36*
X573023Y531877D02*
X573023Y531877D01*
X580521Y531877D01*
X580293Y530733D01*
X579604Y529068D01*
X578603Y527570D01*
X577330Y526297D01*
X575832Y525296D01*
X574167Y524607D01*
X573023Y524379D01*
X573023Y531877D01*
G37*
%LPD*%
%LPC*%
G36*
X568833Y524607D02*
X568833Y524607D01*
X567168Y525296D01*
X565670Y526297D01*
X564397Y527570D01*
X563396Y529068D01*
X562707Y530733D01*
X562479Y531877D01*
X569977Y531877D01*
X569977Y524379D01*
X568833Y524607D01*
G37*
%LPD*%
%LPC*%
G36*
X228599Y482599D02*
X228599Y482599D01*
X228599Y482601D01*
X228601Y482601D01*
X228601Y482599D01*
X228599Y482599D01*
G37*
%LPD*%
%LPC*%
G36*
X101599Y914399D02*
X101599Y914399D01*
X101599Y914401D01*
X101601Y914401D01*
X101601Y914399D01*
X101599Y914399D01*
G37*
%LPD*%
%LPC*%
G36*
X253999Y368299D02*
X253999Y368299D01*
X253999Y368301D01*
X254001Y368301D01*
X254001Y368299D01*
X253999Y368299D01*
G37*
%LPD*%
%LPC*%
G36*
X139699Y368299D02*
X139699Y368299D01*
X139699Y368301D01*
X139701Y368301D01*
X139701Y368299D01*
X139699Y368299D01*
G37*
%LPD*%
%LPC*%
G36*
X101599Y482599D02*
X101599Y482599D01*
X101599Y482601D01*
X101601Y482601D01*
X101601Y482599D01*
X101599Y482599D01*
G37*
%LPD*%
%LPC*%
G36*
X571499Y533399D02*
X571499Y533399D01*
X571499Y533401D01*
X571501Y533401D01*
X571501Y533399D01*
X571499Y533399D01*
G37*
%LPD*%
%LPC*%
G36*
X628649Y838199D02*
X628649Y838199D01*
X628649Y838201D01*
X628651Y838201D01*
X628651Y838199D01*
X628649Y838199D01*
G37*
%LPD*%
%LPC*%
G36*
X444499Y507999D02*
X444499Y507999D01*
X444499Y508001D01*
X444501Y508001D01*
X444501Y507999D01*
X444499Y507999D01*
G37*
%LPD*%
%LPC*%
G36*
X342899Y495299D02*
X342899Y495299D01*
X342899Y495301D01*
X342901Y495301D01*
X342901Y495299D01*
X342899Y495299D01*
G37*
%LPD*%
%LPC*%
G36*
X380999Y939799D02*
X380999Y939799D01*
X380999Y939801D01*
X381001Y939801D01*
X381001Y939799D01*
X380999Y939799D01*
G37*
%LPD*%
%LPC*%
G36*
X571499Y596899D02*
X571499Y596899D01*
X571499Y596901D01*
X571501Y596901D01*
X571501Y596899D01*
X571499Y596899D01*
G37*
%LPD*%
%LPC*%
G36*
X380999Y914399D02*
X380999Y914399D01*
X380999Y914401D01*
X381001Y914401D01*
X381001Y914399D01*
X380999Y914399D01*
G37*
%LPD*%
D10*
X444500Y482600D03*
X444500Y508000D03*
D11*
X533400Y336804D02*
X533400Y323596D01*
X533400Y399796D02*
X533400Y413004D01*
D12*
X622300Y533400D03*
X622300Y431800D03*
D13*
X101600Y876300D03*
D14*
X101600Y914400D03*
D15*
X614680Y330200D02*
X629920Y330200D01*
X629920Y355600D02*
X614680Y355600D01*
X614680Y381000D02*
X629920Y381000D01*
D11*
X495300Y443992D02*
X495300Y457200D01*
X520700Y457200D02*
X520700Y443992D01*
X520700Y533400D02*
X520700Y546608D01*
X495300Y546608D02*
X495300Y533400D01*
X546100Y457200D02*
X546100Y443992D01*
X571500Y443992D02*
X571500Y457200D01*
X546100Y533400D02*
X546100Y546608D01*
X571500Y546608D02*
X571500Y533400D01*
D10*
X495300Y317500D03*
X495300Y393700D03*
D16*
X571500Y393700D03*
X571500Y317500D03*
D17*
X596900Y596900D03*
X584200Y615950D03*
X571500Y596900D03*
D18*
X228600Y457200D03*
X228600Y482600D03*
X228600Y508000D03*
X228600Y533400D03*
X228600Y558800D03*
X228600Y584200D03*
X228600Y609600D03*
X228600Y635000D03*
X228600Y660400D03*
X228600Y685800D03*
X228600Y711200D03*
X228600Y736600D03*
X228600Y762000D03*
X228600Y787400D03*
X228600Y812800D03*
X228600Y838200D03*
X228600Y863600D03*
X228600Y889000D03*
X228600Y914400D03*
X228600Y939800D03*
X381000Y457200D03*
X381000Y482600D03*
X381000Y508000D03*
X381000Y533400D03*
X381000Y558800D03*
X381000Y584200D03*
X381000Y609600D03*
X381000Y635000D03*
X381000Y660400D03*
X381000Y685800D03*
X381000Y711200D03*
X381000Y736600D03*
X381000Y762000D03*
X381000Y787400D03*
X381000Y812800D03*
X381000Y838200D03*
X381000Y863600D03*
X381000Y889000D03*
X381000Y914400D03*
X381000Y939800D03*
X342900Y495300D03*
X317500Y495300D03*
X292100Y495300D03*
X266700Y495300D03*
D19*
X533400Y711200D03*
X508000Y711200D03*
X533400Y736600D03*
X508000Y736600D03*
X533400Y762000D03*
X508000Y762000D03*
X533400Y787400D03*
X508000Y787400D03*
X533400Y812800D03*
X508000Y812800D03*
X533400Y838200D03*
X508000Y838200D03*
X533400Y863600D03*
X508000Y863600D03*
X533400Y889000D03*
X508000Y889000D03*
D20*
X76200Y660400D03*
X101600Y660400D03*
X76200Y635000D03*
X101600Y635000D03*
X76200Y609600D03*
X101600Y609600D03*
X76200Y584200D03*
X101600Y584200D03*
X76200Y558800D03*
X101600Y558800D03*
X76200Y533400D03*
X101600Y533400D03*
X76200Y508000D03*
X101600Y508000D03*
X76200Y482600D03*
X101600Y482600D03*
D15*
X139700Y375920D02*
X139700Y360680D01*
X165100Y360680D02*
X165100Y375920D01*
X190500Y375920D02*
X190500Y360680D01*
X50800Y360680D02*
X50800Y375920D01*
X76200Y375920D02*
X76200Y360680D01*
X419100Y360680D02*
X419100Y375920D01*
X444500Y375920D02*
X444500Y360680D01*
X304800Y360680D02*
X304800Y375920D01*
X330200Y375920D02*
X330200Y360680D01*
X355600Y360680D02*
X355600Y375920D01*
X279400Y375920D02*
X279400Y360680D01*
X254000Y360680D02*
X254000Y375920D01*
D21*
X628650Y838200D03*
D22*
X628650Y858200D03*
X628650Y878200D03*
X628650Y898200D03*
X628650Y918200D03*
D23*
X457200Y482600D02*
X444500Y482600D01*
X495300Y508000D02*
X495300Y533400D01*
X469900Y495300D02*
X457200Y482600D01*
X469900Y495300D02*
X482600Y495300D01*
X495300Y508000D01*
X495300Y533400D02*
X520700Y533400D01*
X622300Y463550D02*
X622300Y431800D01*
X622300Y463550D02*
X609600Y476250D01*
X520700Y527050D02*
X520700Y533400D01*
X584200Y476250D02*
X609600Y476250D01*
X584200Y476250D02*
X558800Y501650D01*
X546100Y501650D01*
X520700Y527050D01*
X355600Y387350D02*
X355600Y368300D01*
X425450Y482600D02*
X444500Y482600D01*
X412750Y444500D02*
X355600Y387350D01*
X412750Y444500D02*
X412750Y469900D01*
X425450Y482600D01*
D24*
X425450Y768350D03*
X419100Y615950D03*
X482600Y749300D03*
X171450Y647700D03*
X161925Y590550D03*
D23*
X514350Y876300D02*
X520700Y869950D01*
X463550Y876300D02*
X425450Y838200D01*
X381000Y838200D01*
X463550Y876300D02*
X514350Y876300D01*
X520700Y755650D02*
X527050Y749300D01*
X546100Y749300D02*
X552450Y742950D01*
X552450Y717550D01*
X546100Y711200D01*
X533400Y711200D01*
X520700Y755650D02*
X520700Y869950D01*
X527050Y749300D02*
X546100Y749300D01*
X533400Y330200D02*
X520700Y330200D01*
X504825Y384175D02*
X495300Y393700D01*
X504825Y346075D02*
X520700Y330200D01*
X504825Y346075D02*
X504825Y384175D01*
X520700Y438150D02*
X520700Y457200D01*
X495300Y412750D02*
X495300Y393700D01*
X495300Y412750D02*
X520700Y438150D01*
X279400Y381000D02*
X279400Y368300D01*
X279400Y381000D02*
X266700Y393700D01*
X88900Y393700D02*
X76200Y381000D01*
X76200Y368300D01*
X88900Y393700D02*
X266700Y393700D01*
X495300Y838200D02*
X508000Y838200D01*
X450850Y768350D02*
X393700Y711200D01*
X381000Y711200D01*
X450850Y793750D02*
X495300Y838200D01*
X450850Y793750D02*
X450850Y768350D01*
X482600Y863600D02*
X508000Y863600D01*
X368300Y800100D02*
X361950Y793750D01*
X361950Y641350D01*
X368300Y635000D01*
X381000Y635000D01*
X419100Y800100D02*
X482600Y863600D01*
X419100Y800100D02*
X368300Y800100D01*
X381000Y609600D02*
X393700Y609600D01*
X463550Y736600D02*
X508000Y736600D01*
X438150Y654050D02*
X393700Y609600D01*
X438150Y654050D02*
X438150Y711200D01*
X463550Y736600D01*
X381000Y584200D02*
X368300Y584200D01*
X361950Y590550D01*
X361950Y615950D01*
X368300Y622300D01*
X387350Y622300D01*
X425450Y660400D01*
X425450Y723900D02*
X488950Y787400D01*
X508000Y787400D01*
X425450Y723900D02*
X425450Y660400D01*
X508000Y755650D02*
X508000Y762000D01*
X508000Y755650D02*
X520700Y742950D01*
X368300Y571500D02*
X361950Y565150D01*
X361950Y514350D01*
X368300Y508000D01*
X381000Y508000D01*
X520700Y698500D02*
X520700Y742950D01*
X520700Y698500D02*
X393700Y571500D01*
X368300Y571500D01*
X533400Y762000D02*
X546100Y762000D01*
X565150Y742950D01*
X565150Y660400D01*
X444500Y603250D02*
X444500Y558800D01*
X419100Y533400D01*
X381000Y533400D01*
X539750Y635000D02*
X565150Y660400D01*
X539750Y635000D02*
X476250Y635000D01*
X444500Y603250D01*
X228600Y939800D02*
X203200Y939800D01*
X76200Y723900D02*
X76200Y660400D01*
X152400Y889000D02*
X203200Y939800D01*
X152400Y889000D02*
X152400Y800100D01*
X76200Y723900D01*
X101600Y558800D02*
X114300Y558800D01*
X120650Y565150D01*
X120650Y584200D01*
X241300Y723900D02*
X247650Y730250D01*
X247650Y901700D01*
X234950Y914400D01*
X228600Y914400D01*
X184150Y647700D02*
X120650Y584200D01*
X184150Y647700D02*
X184150Y704850D01*
X203200Y723900D01*
X241300Y723900D01*
X228600Y863600D02*
X190500Y863600D01*
X177800Y850900D01*
X101600Y711200D02*
X101600Y660400D01*
X177800Y787400D02*
X177800Y850900D01*
X177800Y787400D02*
X101600Y711200D01*
X88900Y596900D02*
X76200Y584200D01*
X88900Y596900D02*
X107950Y596900D01*
X152400Y641350D01*
X196850Y736600D02*
X228600Y736600D01*
X152400Y692150D02*
X152400Y641350D01*
X152400Y692150D02*
X196850Y736600D01*
X107950Y508000D02*
X101600Y508000D01*
X196850Y596900D02*
X241300Y596900D01*
X247650Y603250D01*
X247650Y704850D01*
X241300Y711200D01*
X228600Y711200D01*
X196850Y596900D02*
X107950Y508000D01*
X88900Y571500D02*
X101600Y584200D01*
X88900Y552450D02*
X95250Y546100D01*
X114300Y546100D01*
X209550Y660400D02*
X228600Y660400D01*
X88900Y571500D02*
X88900Y552450D01*
X114300Y546100D02*
X127000Y558800D01*
X127000Y577850D01*
X209550Y660400D01*
X88900Y520700D02*
X76200Y508000D01*
X88900Y520700D02*
X107950Y520700D01*
X146050Y558800D01*
X184150Y596900D01*
X203200Y635000D02*
X228600Y635000D01*
X184150Y615950D02*
X184150Y596900D01*
X184150Y615950D02*
X203200Y635000D01*
X304800Y787400D02*
X304800Y368300D01*
X304800Y787400D02*
X381000Y863600D01*
X228600Y457200D02*
X292100Y393700D01*
X292100Y349250D02*
X298450Y342900D01*
X317500Y342900D01*
X330200Y355600D02*
X330200Y368300D01*
X292100Y349250D02*
X292100Y393700D01*
X330200Y355600D02*
X317500Y342900D01*
X266700Y495300D02*
X266700Y527050D01*
X292100Y552450D01*
X292100Y800100D01*
X381000Y889000D01*
X393700Y889000D01*
X607050Y939800D02*
X628650Y918200D01*
X444500Y939800D02*
X393700Y889000D01*
X444500Y939800D02*
X607050Y939800D01*
X628650Y918200D02*
X628650Y898200D01*
X50800Y387350D02*
X50800Y368300D01*
X50800Y387350D02*
X57150Y393700D01*
X57150Y641350D02*
X63500Y647700D01*
X203200Y787400D02*
X228600Y787400D01*
X57150Y641350D02*
X57150Y393700D01*
X63500Y647700D02*
X107950Y647700D01*
X127000Y666750D01*
X127000Y711200D01*
X203200Y787400D01*
X596900Y596900D02*
X622300Y571500D01*
X622300Y533400D01*
X647700Y508000D01*
X647700Y406400D01*
X622300Y381000D01*
X546100Y438150D02*
X546100Y457200D01*
X533400Y425450D02*
X533400Y406400D01*
X533400Y425450D02*
X546100Y438150D01*
M02*
