G04 EAGLE Gerber RS-274X export*
G75*
%MOMM*%
%FSLAX34Y34*%
%LPD*%
%INBottom Copper*%
%IPPOS*%
%AMOC8*
5,1,8,0,0,1.08239X$1,22.5*%
G01*
%ADD10P,1.429621X8X112.500000*%
%ADD11C,1.320800*%
%ADD12C,1.676400*%
%ADD13R,1.650000X1.650000*%
%ADD14C,1.650000*%
%ADD15C,1.524000*%
%ADD16P,1.429621X8X292.500000*%
%ADD17P,1.429621X8X22.500000*%
%ADD18C,1.778000*%
%ADD19P,1.539592X8X112.500000*%
%ADD20P,1.539592X8X292.500000*%
%ADD21R,1.408000X1.408000*%
%ADD22C,1.408000*%
%ADD23R,1.270000X2.540000*%
%ADD24C,0.304800*%
%ADD25C,0.756400*%

G36*
X661998Y289564D02*
X661998Y289564D01*
X662017Y289562D01*
X662119Y289584D01*
X662221Y289600D01*
X662238Y289610D01*
X662258Y289614D01*
X662347Y289667D01*
X662438Y289716D01*
X662452Y289730D01*
X662469Y289740D01*
X662536Y289819D01*
X662608Y289894D01*
X662616Y289912D01*
X662629Y289927D01*
X662668Y290023D01*
X662711Y290117D01*
X662713Y290137D01*
X662721Y290155D01*
X662739Y290322D01*
X662739Y953518D01*
X662736Y953538D01*
X662738Y953557D01*
X662716Y953659D01*
X662700Y953761D01*
X662690Y953778D01*
X662686Y953798D01*
X662633Y953887D01*
X662584Y953978D01*
X662570Y953992D01*
X662560Y954009D01*
X662481Y954076D01*
X662406Y954148D01*
X662388Y954156D01*
X662373Y954169D01*
X662277Y954208D01*
X662183Y954251D01*
X662163Y954253D01*
X662145Y954261D01*
X661978Y954279D01*
X10922Y954279D01*
X10902Y954276D01*
X10883Y954278D01*
X10781Y954256D01*
X10679Y954240D01*
X10662Y954230D01*
X10642Y954226D01*
X10553Y954173D01*
X10462Y954124D01*
X10448Y954110D01*
X10431Y954100D01*
X10364Y954021D01*
X10292Y953946D01*
X10284Y953928D01*
X10271Y953913D01*
X10232Y953817D01*
X10189Y953723D01*
X10187Y953703D01*
X10179Y953685D01*
X10161Y953518D01*
X10161Y290322D01*
X10164Y290302D01*
X10162Y290283D01*
X10184Y290181D01*
X10200Y290079D01*
X10210Y290062D01*
X10214Y290042D01*
X10267Y289953D01*
X10316Y289862D01*
X10330Y289848D01*
X10340Y289831D01*
X10419Y289764D01*
X10494Y289692D01*
X10512Y289684D01*
X10527Y289671D01*
X10623Y289632D01*
X10717Y289589D01*
X10737Y289587D01*
X10755Y289579D01*
X10922Y289561D01*
X661978Y289561D01*
X661998Y289564D01*
G37*
%LPC*%
G36*
X169556Y338327D02*
X169556Y338327D01*
X160527Y347356D01*
X160527Y352167D01*
X160508Y352282D01*
X160491Y352398D01*
X160489Y352404D01*
X160488Y352410D01*
X160433Y352513D01*
X160380Y352617D01*
X160375Y352622D01*
X160372Y352627D01*
X160288Y352708D01*
X160204Y352790D01*
X160198Y352793D01*
X160194Y352797D01*
X160177Y352805D01*
X160057Y352871D01*
X159920Y352927D01*
X157347Y355500D01*
X155955Y358861D01*
X155955Y377739D01*
X157347Y381100D01*
X159920Y383673D01*
X163281Y385065D01*
X166919Y385065D01*
X170280Y383673D01*
X172853Y381100D01*
X174245Y377739D01*
X174245Y358861D01*
X172853Y355500D01*
X170280Y352927D01*
X170143Y352871D01*
X170043Y352809D01*
X169943Y352749D01*
X169939Y352744D01*
X169934Y352741D01*
X169859Y352651D01*
X169783Y352562D01*
X169781Y352556D01*
X169777Y352552D01*
X169735Y352443D01*
X169691Y352334D01*
X169690Y352327D01*
X169689Y352322D01*
X169688Y352304D01*
X169673Y352167D01*
X169673Y351459D01*
X169687Y351369D01*
X169695Y351278D01*
X169707Y351249D01*
X169712Y351217D01*
X169755Y351136D01*
X169791Y351052D01*
X169817Y351020D01*
X169828Y350999D01*
X169851Y350977D01*
X169896Y350921D01*
X173121Y347696D01*
X173195Y347643D01*
X173265Y347583D01*
X173295Y347571D01*
X173321Y347552D01*
X173408Y347525D01*
X173493Y347491D01*
X173534Y347487D01*
X173556Y347480D01*
X173588Y347481D01*
X173659Y347473D01*
X200991Y347473D01*
X201081Y347487D01*
X201172Y347495D01*
X201201Y347507D01*
X201233Y347512D01*
X201314Y347555D01*
X201398Y347591D01*
X201430Y347617D01*
X201451Y347628D01*
X201473Y347651D01*
X201529Y347696D01*
X204754Y350921D01*
X204807Y350995D01*
X204867Y351065D01*
X204879Y351095D01*
X204898Y351121D01*
X204925Y351208D01*
X204959Y351293D01*
X204963Y351334D01*
X204970Y351356D01*
X204969Y351388D01*
X204977Y351459D01*
X204977Y376544D01*
X252106Y423673D01*
X416891Y423673D01*
X416981Y423687D01*
X417072Y423695D01*
X417101Y423707D01*
X417133Y423712D01*
X417214Y423755D01*
X417298Y423791D01*
X417330Y423817D01*
X417351Y423828D01*
X417373Y423851D01*
X417429Y423896D01*
X436256Y442723D01*
X461341Y442723D01*
X461431Y442737D01*
X461522Y442745D01*
X461551Y442757D01*
X461583Y442762D01*
X461664Y442805D01*
X461748Y442841D01*
X461780Y442867D01*
X461801Y442878D01*
X461823Y442901D01*
X461879Y442946D01*
X471454Y452521D01*
X471507Y452595D01*
X471567Y452665D01*
X471579Y452695D01*
X471598Y452721D01*
X471625Y452808D01*
X471659Y452893D01*
X471663Y452934D01*
X471670Y452956D01*
X471669Y452988D01*
X471677Y453059D01*
X471677Y467452D01*
X471666Y467522D01*
X471664Y467594D01*
X471646Y467643D01*
X471638Y467694D01*
X471604Y467758D01*
X471579Y467825D01*
X471547Y467866D01*
X471522Y467912D01*
X471470Y467961D01*
X471426Y468017D01*
X471382Y468045D01*
X471344Y468081D01*
X471279Y468111D01*
X471219Y468150D01*
X471168Y468163D01*
X471121Y468185D01*
X471050Y468193D01*
X470980Y468210D01*
X470928Y468206D01*
X470877Y468212D01*
X470806Y468197D01*
X470735Y468191D01*
X470687Y468171D01*
X470636Y468160D01*
X470575Y468123D01*
X470509Y468095D01*
X470453Y468050D01*
X470425Y468033D01*
X470410Y468016D01*
X470378Y467990D01*
X457917Y455529D01*
X455015Y452627D01*
X433985Y452627D01*
X396108Y490504D01*
X396034Y490557D01*
X395964Y490617D01*
X395934Y490629D01*
X395908Y490648D01*
X395821Y490675D01*
X395736Y490709D01*
X395695Y490713D01*
X395673Y490720D01*
X395641Y490719D01*
X395570Y490727D01*
X389439Y490727D01*
X389368Y490716D01*
X389297Y490714D01*
X389248Y490696D01*
X389196Y490688D01*
X389133Y490654D01*
X389066Y490629D01*
X389025Y490597D01*
X388979Y490572D01*
X388930Y490520D01*
X388874Y490476D01*
X388846Y490432D01*
X388810Y490394D01*
X388779Y490329D01*
X388741Y490269D01*
X388728Y490218D01*
X388706Y490171D01*
X388698Y490100D01*
X388681Y490030D01*
X388685Y489978D01*
X388679Y489927D01*
X388694Y489856D01*
X388700Y489785D01*
X388720Y489737D01*
X388731Y489686D01*
X388768Y489625D01*
X388796Y489559D01*
X388841Y489503D01*
X388857Y489475D01*
X388875Y489460D01*
X388901Y489428D01*
X389829Y488500D01*
X391415Y484672D01*
X391415Y480528D01*
X389829Y476700D01*
X386900Y473771D01*
X383072Y472185D01*
X378928Y472185D01*
X375100Y473771D01*
X372171Y476700D01*
X371816Y477557D01*
X371754Y477657D01*
X371694Y477757D01*
X371690Y477761D01*
X371686Y477766D01*
X371596Y477841D01*
X371507Y477917D01*
X371502Y477919D01*
X371497Y477923D01*
X371388Y477965D01*
X371279Y478009D01*
X371272Y478010D01*
X371267Y478011D01*
X371249Y478012D01*
X371113Y478027D01*
X364159Y478027D01*
X364069Y478013D01*
X363978Y478005D01*
X363949Y477993D01*
X363917Y477988D01*
X363836Y477945D01*
X363752Y477909D01*
X363720Y477883D01*
X363699Y477872D01*
X363677Y477849D01*
X363621Y477804D01*
X313044Y427227D01*
X243509Y427227D01*
X243419Y427213D01*
X243328Y427205D01*
X243299Y427193D01*
X243267Y427188D01*
X243186Y427145D01*
X243102Y427109D01*
X243070Y427083D01*
X243049Y427072D01*
X243027Y427049D01*
X242971Y427004D01*
X198198Y382231D01*
X198186Y382215D01*
X198171Y382202D01*
X198115Y382115D01*
X198054Y382031D01*
X198049Y382012D01*
X198038Y381996D01*
X198012Y381895D01*
X197982Y381796D01*
X197983Y381776D01*
X197978Y381757D01*
X197986Y381654D01*
X197988Y381550D01*
X197995Y381532D01*
X197997Y381512D01*
X198037Y381417D01*
X198073Y381319D01*
X198085Y381304D01*
X198093Y381286D01*
X198171Y381188D01*
X198175Y381181D01*
X198180Y381177D01*
X198198Y381155D01*
X198253Y381100D01*
X199645Y377739D01*
X199645Y358861D01*
X198253Y355500D01*
X195680Y352927D01*
X192319Y351535D01*
X188681Y351535D01*
X185320Y352927D01*
X182747Y355500D01*
X181355Y358861D01*
X181355Y377739D01*
X182747Y381100D01*
X185320Y383673D01*
X187546Y384594D01*
X187602Y384629D01*
X187662Y384655D01*
X187726Y384707D01*
X187755Y384724D01*
X187767Y384739D01*
X187793Y384759D01*
X236504Y433471D01*
X239406Y436373D01*
X308941Y436373D01*
X309031Y436387D01*
X309122Y436395D01*
X309151Y436407D01*
X309183Y436412D01*
X309264Y436455D01*
X309348Y436491D01*
X309380Y436517D01*
X309401Y436528D01*
X309423Y436551D01*
X309479Y436596D01*
X343261Y470378D01*
X343303Y470436D01*
X343352Y470488D01*
X343374Y470535D01*
X343404Y470577D01*
X343426Y470646D01*
X343456Y470711D01*
X343462Y470763D01*
X343477Y470813D01*
X343475Y470884D01*
X343483Y470955D01*
X343472Y471006D01*
X343470Y471058D01*
X343446Y471126D01*
X343431Y471196D01*
X343404Y471241D01*
X343386Y471289D01*
X343341Y471345D01*
X343304Y471407D01*
X343265Y471441D01*
X343232Y471481D01*
X343172Y471520D01*
X343118Y471567D01*
X343069Y471586D01*
X343025Y471614D01*
X342956Y471632D01*
X342889Y471659D01*
X342818Y471667D01*
X342787Y471675D01*
X342764Y471673D01*
X342723Y471677D01*
X334656Y471677D01*
X331754Y474579D01*
X321258Y485075D01*
X321163Y485143D01*
X321069Y485213D01*
X321063Y485215D01*
X321058Y485219D01*
X320947Y485253D01*
X320835Y485289D01*
X320829Y485289D01*
X320823Y485291D01*
X320706Y485288D01*
X320589Y485287D01*
X320582Y485285D01*
X320577Y485285D01*
X320560Y485278D01*
X320428Y485240D01*
X319572Y484885D01*
X315428Y484885D01*
X311600Y486471D01*
X308671Y489400D01*
X307085Y493228D01*
X307085Y497372D01*
X308671Y501200D01*
X311600Y504129D01*
X315428Y505715D01*
X319572Y505715D01*
X323400Y504129D01*
X326329Y501200D01*
X327915Y497372D01*
X327915Y493228D01*
X327560Y492372D01*
X327533Y492258D01*
X327505Y492144D01*
X327505Y492138D01*
X327504Y492132D01*
X327515Y492016D01*
X327524Y491899D01*
X327526Y491894D01*
X327527Y491887D01*
X327575Y491779D01*
X327620Y491673D01*
X327625Y491667D01*
X327627Y491663D01*
X327640Y491648D01*
X327708Y491563D01*
X327708Y491562D01*
X327709Y491562D01*
X327725Y491542D01*
X338221Y481046D01*
X338295Y480993D01*
X338365Y480933D01*
X338395Y480921D01*
X338421Y480902D01*
X338508Y480875D01*
X338593Y480841D01*
X338634Y480837D01*
X338656Y480830D01*
X338688Y480831D01*
X338759Y480823D01*
X344770Y480823D01*
X344860Y480837D01*
X344951Y480845D01*
X344980Y480857D01*
X345012Y480862D01*
X345093Y480905D01*
X345177Y480941D01*
X345209Y480967D01*
X345230Y480978D01*
X345252Y481001D01*
X345308Y481046D01*
X347536Y483274D01*
X347575Y483329D01*
X347623Y483377D01*
X347647Y483428D01*
X347679Y483473D01*
X347699Y483538D01*
X347728Y483599D01*
X347735Y483655D01*
X347752Y483708D01*
X347750Y483776D01*
X347758Y483844D01*
X347747Y483898D01*
X347745Y483954D01*
X347722Y484018D01*
X347708Y484084D01*
X347680Y484133D01*
X347661Y484185D01*
X347618Y484238D01*
X347584Y484297D01*
X347542Y484334D01*
X347507Y484377D01*
X347450Y484414D01*
X347399Y484459D01*
X347347Y484480D01*
X347300Y484510D01*
X347234Y484527D01*
X347172Y484553D01*
X347116Y484557D01*
X347062Y484570D01*
X346994Y484565D01*
X346927Y484570D01*
X346849Y484554D01*
X346817Y484551D01*
X346797Y484543D01*
X346762Y484536D01*
X345577Y484151D01*
X344423Y483968D01*
X344423Y493777D01*
X354232Y493777D01*
X354049Y492623D01*
X353664Y491438D01*
X353654Y491371D01*
X353634Y491306D01*
X353635Y491250D01*
X353627Y491195D01*
X353638Y491128D01*
X353640Y491060D01*
X353659Y491008D01*
X353669Y490952D01*
X353701Y490893D01*
X353725Y490829D01*
X353760Y490785D01*
X353786Y490736D01*
X353836Y490690D01*
X353878Y490637D01*
X353925Y490607D01*
X353967Y490569D01*
X354028Y490541D01*
X354085Y490504D01*
X354140Y490490D01*
X354191Y490467D01*
X354258Y490460D01*
X354324Y490444D01*
X354380Y490448D01*
X354435Y490443D01*
X354502Y490458D01*
X354569Y490463D01*
X354620Y490485D01*
X354675Y490497D01*
X354733Y490533D01*
X354795Y490559D01*
X354857Y490609D01*
X354885Y490626D01*
X354899Y490642D01*
X354926Y490664D01*
X361233Y496971D01*
X364135Y499873D01*
X372561Y499873D01*
X372632Y499884D01*
X372703Y499886D01*
X372752Y499904D01*
X372804Y499912D01*
X372867Y499946D01*
X372934Y499971D01*
X372975Y500003D01*
X373021Y500028D01*
X373070Y500080D01*
X373126Y500124D01*
X373154Y500168D01*
X373190Y500206D01*
X373221Y500271D01*
X373259Y500331D01*
X373272Y500382D01*
X373294Y500429D01*
X373302Y500500D01*
X373319Y500570D01*
X373315Y500622D01*
X373321Y500673D01*
X373306Y500744D01*
X373300Y500815D01*
X373280Y500863D01*
X373269Y500914D01*
X373232Y500975D01*
X373204Y501041D01*
X373159Y501097D01*
X373143Y501125D01*
X373125Y501140D01*
X373099Y501172D01*
X372171Y502100D01*
X370585Y505928D01*
X370585Y510072D01*
X372171Y513900D01*
X373099Y514828D01*
X373141Y514886D01*
X373190Y514938D01*
X373212Y514985D01*
X373243Y515027D01*
X373264Y515096D01*
X373294Y515161D01*
X373300Y515213D01*
X373315Y515263D01*
X373313Y515334D01*
X373321Y515405D01*
X373310Y515456D01*
X373309Y515508D01*
X373284Y515576D01*
X373269Y515646D01*
X373242Y515691D01*
X373224Y515739D01*
X373179Y515795D01*
X373143Y515857D01*
X373103Y515891D01*
X373070Y515931D01*
X373010Y515970D01*
X372956Y516017D01*
X372907Y516036D01*
X372864Y516064D01*
X372794Y516082D01*
X372728Y516109D01*
X372656Y516117D01*
X372625Y516125D01*
X372602Y516123D01*
X372561Y516127D01*
X370509Y516127D01*
X370419Y516113D01*
X370328Y516105D01*
X370299Y516093D01*
X370267Y516088D01*
X370186Y516045D01*
X370102Y516009D01*
X370070Y515983D01*
X370049Y515972D01*
X370027Y515949D01*
X369971Y515904D01*
X366746Y512679D01*
X363844Y509777D01*
X313359Y509777D01*
X313269Y509763D01*
X313178Y509755D01*
X313149Y509743D01*
X313117Y509738D01*
X313036Y509695D01*
X312952Y509659D01*
X312920Y509633D01*
X312899Y509622D01*
X312877Y509599D01*
X312821Y509554D01*
X302325Y499058D01*
X302257Y498963D01*
X302187Y498869D01*
X302185Y498863D01*
X302181Y498858D01*
X302147Y498747D01*
X302111Y498635D01*
X302111Y498629D01*
X302109Y498623D01*
X302112Y498506D01*
X302113Y498389D01*
X302115Y498382D01*
X302115Y498377D01*
X302122Y498360D01*
X302160Y498228D01*
X302515Y497372D01*
X302515Y493228D01*
X300929Y489400D01*
X298000Y486471D01*
X294172Y484885D01*
X290028Y484885D01*
X286200Y486471D01*
X283271Y489400D01*
X281685Y493228D01*
X281685Y497372D01*
X283271Y501200D01*
X286200Y504129D01*
X290028Y505715D01*
X294172Y505715D01*
X295028Y505360D01*
X295141Y505333D01*
X295256Y505305D01*
X295262Y505305D01*
X295268Y505304D01*
X295384Y505315D01*
X295501Y505324D01*
X295506Y505326D01*
X295513Y505327D01*
X295621Y505375D01*
X295727Y505420D01*
X295733Y505425D01*
X295737Y505427D01*
X295752Y505440D01*
X295858Y505525D01*
X309256Y518923D01*
X359741Y518923D01*
X359831Y518937D01*
X359922Y518945D01*
X359951Y518957D01*
X359983Y518962D01*
X360064Y519005D01*
X360148Y519041D01*
X360180Y519067D01*
X360201Y519078D01*
X360223Y519101D01*
X360279Y519146D01*
X363504Y522371D01*
X366406Y525273D01*
X372561Y525273D01*
X372632Y525284D01*
X372703Y525286D01*
X372752Y525304D01*
X372804Y525312D01*
X372867Y525346D01*
X372934Y525371D01*
X372975Y525403D01*
X373021Y525428D01*
X373070Y525480D01*
X373126Y525524D01*
X373154Y525568D01*
X373190Y525606D01*
X373221Y525671D01*
X373259Y525731D01*
X373272Y525782D01*
X373294Y525829D01*
X373302Y525900D01*
X373319Y525970D01*
X373315Y526022D01*
X373321Y526073D01*
X373306Y526144D01*
X373300Y526215D01*
X373280Y526263D01*
X373269Y526314D01*
X373232Y526375D01*
X373204Y526441D01*
X373159Y526497D01*
X373143Y526525D01*
X373125Y526540D01*
X373099Y526572D01*
X372171Y527500D01*
X370585Y531328D01*
X370585Y535472D01*
X372171Y539300D01*
X373099Y540228D01*
X373141Y540286D01*
X373190Y540338D01*
X373212Y540385D01*
X373243Y540427D01*
X373264Y540496D01*
X373294Y540561D01*
X373300Y540613D01*
X373315Y540663D01*
X373313Y540734D01*
X373321Y540805D01*
X373310Y540856D01*
X373309Y540908D01*
X373284Y540976D01*
X373269Y541046D01*
X373242Y541091D01*
X373224Y541139D01*
X373179Y541195D01*
X373143Y541257D01*
X373103Y541291D01*
X373070Y541331D01*
X373010Y541370D01*
X372956Y541417D01*
X372907Y541436D01*
X372864Y541464D01*
X372794Y541482D01*
X372728Y541509D01*
X372656Y541517D01*
X372625Y541525D01*
X372602Y541523D01*
X372561Y541527D01*
X307009Y541527D01*
X306919Y541513D01*
X306828Y541505D01*
X306799Y541493D01*
X306767Y541488D01*
X306686Y541445D01*
X306602Y541409D01*
X306570Y541383D01*
X306549Y541372D01*
X306527Y541349D01*
X306471Y541304D01*
X281294Y516127D01*
X243509Y516127D01*
X243419Y516113D01*
X243328Y516105D01*
X243299Y516093D01*
X243267Y516088D01*
X243186Y516045D01*
X243102Y516009D01*
X243070Y515983D01*
X243049Y515972D01*
X243027Y515949D01*
X242971Y515904D01*
X238825Y511758D01*
X238757Y511664D01*
X238687Y511569D01*
X238685Y511563D01*
X238681Y511558D01*
X238647Y511447D01*
X238611Y511335D01*
X238611Y511329D01*
X238609Y511323D01*
X238612Y511206D01*
X238613Y511090D01*
X238615Y511082D01*
X238615Y511077D01*
X238622Y511060D01*
X238660Y510928D01*
X239015Y510072D01*
X239015Y505928D01*
X237429Y502100D01*
X234500Y499171D01*
X230672Y497585D01*
X226528Y497585D01*
X222700Y499171D01*
X219771Y502100D01*
X219416Y502957D01*
X219354Y503057D01*
X219294Y503157D01*
X219290Y503161D01*
X219286Y503166D01*
X219196Y503241D01*
X219107Y503317D01*
X219102Y503319D01*
X219097Y503323D01*
X218988Y503365D01*
X218879Y503409D01*
X218872Y503410D01*
X218867Y503411D01*
X218849Y503412D01*
X218713Y503427D01*
X214006Y503427D01*
X204977Y512456D01*
X204977Y541644D01*
X214006Y550673D01*
X220161Y550673D01*
X220232Y550684D01*
X220303Y550686D01*
X220352Y550704D01*
X220404Y550712D01*
X220467Y550746D01*
X220534Y550771D01*
X220575Y550803D01*
X220621Y550828D01*
X220670Y550880D01*
X220726Y550924D01*
X220754Y550968D01*
X220790Y551006D01*
X220821Y551071D01*
X220859Y551131D01*
X220872Y551182D01*
X220894Y551229D01*
X220902Y551300D01*
X220919Y551370D01*
X220915Y551422D01*
X220921Y551473D01*
X220906Y551544D01*
X220900Y551615D01*
X220880Y551663D01*
X220869Y551714D01*
X220832Y551775D01*
X220804Y551841D01*
X220759Y551897D01*
X220743Y551925D01*
X220725Y551940D01*
X220699Y551972D01*
X219771Y552900D01*
X219416Y553757D01*
X219354Y553857D01*
X219294Y553957D01*
X219290Y553961D01*
X219286Y553966D01*
X219196Y554041D01*
X219107Y554117D01*
X219102Y554119D01*
X219097Y554123D01*
X218988Y554165D01*
X218879Y554209D01*
X218872Y554210D01*
X218867Y554211D01*
X218849Y554212D01*
X218713Y554227D01*
X199059Y554227D01*
X198969Y554213D01*
X198878Y554205D01*
X198849Y554193D01*
X198817Y554188D01*
X198736Y554145D01*
X198652Y554109D01*
X198620Y554083D01*
X198599Y554072D01*
X198577Y554049D01*
X198521Y554004D01*
X135244Y490727D01*
X108962Y490727D01*
X108891Y490716D01*
X108819Y490714D01*
X108770Y490696D01*
X108719Y490688D01*
X108655Y490654D01*
X108588Y490629D01*
X108547Y490597D01*
X108501Y490572D01*
X108452Y490520D01*
X108396Y490476D01*
X108368Y490432D01*
X108332Y490394D01*
X108302Y490329D01*
X108263Y490269D01*
X108250Y490218D01*
X108228Y490171D01*
X108221Y490100D01*
X108203Y490030D01*
X108207Y489978D01*
X108201Y489927D01*
X108217Y489856D01*
X108222Y489785D01*
X108242Y489737D01*
X108254Y489686D01*
X108290Y489625D01*
X108318Y489559D01*
X108363Y489503D01*
X108380Y489475D01*
X108398Y489460D01*
X108423Y489428D01*
X111253Y486598D01*
X111253Y484123D01*
X102362Y484123D01*
X102342Y484120D01*
X102323Y484122D01*
X102221Y484100D01*
X102119Y484083D01*
X102102Y484074D01*
X102082Y484070D01*
X101993Y484017D01*
X101902Y483968D01*
X101888Y483954D01*
X101871Y483944D01*
X101804Y483865D01*
X101733Y483790D01*
X101724Y483772D01*
X101711Y483757D01*
X101673Y483661D01*
X101629Y483567D01*
X101627Y483547D01*
X101619Y483529D01*
X101601Y483362D01*
X101601Y482599D01*
X101599Y482599D01*
X101599Y483362D01*
X101596Y483382D01*
X101598Y483401D01*
X101576Y483503D01*
X101559Y483605D01*
X101550Y483622D01*
X101546Y483642D01*
X101493Y483731D01*
X101444Y483822D01*
X101430Y483836D01*
X101420Y483853D01*
X101341Y483920D01*
X101266Y483991D01*
X101248Y484000D01*
X101233Y484013D01*
X101137Y484052D01*
X101043Y484095D01*
X101023Y484097D01*
X101005Y484105D01*
X100838Y484123D01*
X91947Y484123D01*
X91947Y486598D01*
X94777Y489428D01*
X94819Y489486D01*
X94868Y489538D01*
X94890Y489585D01*
X94920Y489627D01*
X94941Y489696D01*
X94972Y489761D01*
X94977Y489813D01*
X94993Y489863D01*
X94991Y489934D01*
X94999Y490005D01*
X94988Y490056D01*
X94986Y490108D01*
X94962Y490176D01*
X94946Y490246D01*
X94920Y490291D01*
X94902Y490339D01*
X94857Y490395D01*
X94820Y490457D01*
X94781Y490491D01*
X94748Y490531D01*
X94688Y490570D01*
X94633Y490617D01*
X94585Y490636D01*
X94541Y490664D01*
X94472Y490682D01*
X94405Y490709D01*
X94334Y490717D01*
X94303Y490725D01*
X94279Y490723D01*
X94238Y490727D01*
X91109Y490727D01*
X91019Y490713D01*
X90928Y490705D01*
X90899Y490693D01*
X90867Y490688D01*
X90786Y490645D01*
X90702Y490609D01*
X90670Y490583D01*
X90649Y490572D01*
X90627Y490549D01*
X90571Y490504D01*
X85060Y484993D01*
X85007Y484919D01*
X84947Y484849D01*
X84935Y484819D01*
X84916Y484793D01*
X84889Y484706D01*
X84866Y484649D01*
X84865Y484646D01*
X84865Y484645D01*
X84855Y484621D01*
X84851Y484580D01*
X84844Y484558D01*
X84845Y484526D01*
X84837Y484455D01*
X84837Y479023D01*
X79777Y473963D01*
X72623Y473963D01*
X67563Y479023D01*
X67563Y486177D01*
X72623Y491237D01*
X78055Y491237D01*
X78145Y491251D01*
X78236Y491259D01*
X78265Y491271D01*
X78297Y491276D01*
X78378Y491319D01*
X78462Y491355D01*
X78494Y491381D01*
X78515Y491392D01*
X78537Y491415D01*
X78593Y491460D01*
X87006Y499873D01*
X95675Y499873D01*
X95746Y499884D01*
X95818Y499886D01*
X95867Y499904D01*
X95918Y499912D01*
X95981Y499946D01*
X96049Y499971D01*
X96089Y500003D01*
X96135Y500028D01*
X96185Y500080D01*
X96241Y500124D01*
X96269Y500168D01*
X96305Y500206D01*
X96335Y500271D01*
X96374Y500331D01*
X96386Y500382D01*
X96408Y500429D01*
X96416Y500500D01*
X96434Y500570D01*
X96430Y500622D01*
X96436Y500673D01*
X96420Y500744D01*
X96415Y500815D01*
X96394Y500863D01*
X96383Y500914D01*
X96346Y500975D01*
X96318Y501041D01*
X96274Y501097D01*
X96257Y501125D01*
X96239Y501140D01*
X96214Y501172D01*
X92963Y504423D01*
X92963Y511577D01*
X98023Y516637D01*
X105177Y516637D01*
X110237Y511577D01*
X110237Y504423D01*
X106986Y501172D01*
X106945Y501114D01*
X106895Y501062D01*
X106873Y501015D01*
X106843Y500973D01*
X106822Y500904D01*
X106792Y500839D01*
X106786Y500787D01*
X106771Y500737D01*
X106772Y500666D01*
X106764Y500595D01*
X106776Y500544D01*
X106777Y500492D01*
X106802Y500424D01*
X106817Y500354D01*
X106843Y500309D01*
X106861Y500261D01*
X106906Y500205D01*
X106943Y500143D01*
X106982Y500109D01*
X107015Y500069D01*
X107075Y500030D01*
X107130Y499983D01*
X107178Y499964D01*
X107222Y499936D01*
X107291Y499918D01*
X107358Y499891D01*
X107429Y499883D01*
X107460Y499875D01*
X107484Y499877D01*
X107525Y499873D01*
X131141Y499873D01*
X131231Y499887D01*
X131322Y499895D01*
X131351Y499907D01*
X131383Y499912D01*
X131464Y499955D01*
X131548Y499991D01*
X131580Y500017D01*
X131601Y500028D01*
X131623Y500051D01*
X131679Y500096D01*
X194956Y563373D01*
X218713Y563373D01*
X218827Y563392D01*
X218944Y563409D01*
X218949Y563411D01*
X218955Y563412D01*
X219058Y563467D01*
X219163Y563520D01*
X219167Y563525D01*
X219173Y563528D01*
X219253Y563612D01*
X219335Y563696D01*
X219339Y563702D01*
X219342Y563706D01*
X219350Y563723D01*
X219416Y563843D01*
X219771Y564700D01*
X220699Y565628D01*
X220741Y565686D01*
X220790Y565738D01*
X220812Y565785D01*
X220843Y565827D01*
X220864Y565896D01*
X220894Y565961D01*
X220900Y566013D01*
X220915Y566063D01*
X220913Y566134D01*
X220921Y566205D01*
X220910Y566256D01*
X220909Y566308D01*
X220884Y566376D01*
X220869Y566446D01*
X220842Y566491D01*
X220824Y566539D01*
X220779Y566595D01*
X220743Y566657D01*
X220703Y566691D01*
X220670Y566731D01*
X220610Y566770D01*
X220556Y566817D01*
X220507Y566836D01*
X220464Y566864D01*
X220394Y566882D01*
X220328Y566909D01*
X220256Y566917D01*
X220225Y566925D01*
X220202Y566923D01*
X220161Y566927D01*
X186359Y566927D01*
X186269Y566913D01*
X186178Y566905D01*
X186149Y566893D01*
X186117Y566888D01*
X186036Y566845D01*
X185952Y566809D01*
X185920Y566783D01*
X185899Y566772D01*
X185877Y566749D01*
X185821Y566704D01*
X150846Y531729D01*
X147944Y528827D01*
X109557Y528827D01*
X109467Y528813D01*
X109376Y528805D01*
X109346Y528793D01*
X109314Y528788D01*
X109233Y528745D01*
X109149Y528709D01*
X109117Y528683D01*
X109097Y528672D01*
X109074Y528649D01*
X109018Y528604D01*
X105177Y524763D01*
X98023Y524763D01*
X92963Y529823D01*
X92963Y536977D01*
X98023Y542037D01*
X105177Y542037D01*
X109018Y538196D01*
X109092Y538143D01*
X109162Y538083D01*
X109192Y538071D01*
X109218Y538052D01*
X109305Y538025D01*
X109390Y537991D01*
X109431Y537987D01*
X109453Y537980D01*
X109485Y537981D01*
X109557Y537973D01*
X143841Y537973D01*
X143931Y537987D01*
X144022Y537995D01*
X144051Y538007D01*
X144083Y538012D01*
X144164Y538055D01*
X144248Y538091D01*
X144280Y538117D01*
X144301Y538128D01*
X144323Y538151D01*
X144379Y538196D01*
X179354Y573171D01*
X182256Y576073D01*
X220161Y576073D01*
X220232Y576084D01*
X220303Y576086D01*
X220352Y576104D01*
X220404Y576112D01*
X220467Y576146D01*
X220534Y576171D01*
X220575Y576203D01*
X220621Y576228D01*
X220670Y576280D01*
X220726Y576324D01*
X220754Y576368D01*
X220790Y576406D01*
X220821Y576471D01*
X220859Y576531D01*
X220872Y576582D01*
X220894Y576629D01*
X220902Y576700D01*
X220919Y576770D01*
X220915Y576822D01*
X220921Y576873D01*
X220906Y576944D01*
X220900Y577015D01*
X220880Y577063D01*
X220869Y577114D01*
X220832Y577175D01*
X220804Y577241D01*
X220759Y577297D01*
X220743Y577325D01*
X220725Y577340D01*
X220699Y577372D01*
X219771Y578300D01*
X219416Y579157D01*
X219354Y579257D01*
X219294Y579357D01*
X219290Y579361D01*
X219286Y579366D01*
X219196Y579441D01*
X219107Y579517D01*
X219102Y579519D01*
X219097Y579523D01*
X218988Y579565D01*
X218879Y579609D01*
X218872Y579610D01*
X218867Y579611D01*
X218849Y579612D01*
X218713Y579627D01*
X207656Y579627D01*
X182479Y604804D01*
X182405Y604857D01*
X182335Y604917D01*
X182305Y604929D01*
X182279Y604948D01*
X182192Y604975D01*
X182107Y605009D01*
X182066Y605013D01*
X182044Y605020D01*
X182012Y605019D01*
X181941Y605027D01*
X109557Y605027D01*
X109467Y605013D01*
X109376Y605005D01*
X109346Y604993D01*
X109314Y604988D01*
X109233Y604945D01*
X109149Y604909D01*
X109117Y604883D01*
X109097Y604872D01*
X109074Y604849D01*
X109018Y604804D01*
X105177Y600963D01*
X98023Y600963D01*
X92963Y606023D01*
X92963Y613177D01*
X96214Y616428D01*
X96255Y616486D01*
X96305Y616538D01*
X96327Y616585D01*
X96357Y616627D01*
X96378Y616696D01*
X96408Y616761D01*
X96414Y616813D01*
X96429Y616863D01*
X96428Y616934D01*
X96436Y617005D01*
X96424Y617056D01*
X96423Y617108D01*
X96398Y617176D01*
X96383Y617246D01*
X96357Y617291D01*
X96339Y617339D01*
X96294Y617395D01*
X96257Y617457D01*
X96218Y617491D01*
X96185Y617531D01*
X96125Y617570D01*
X96070Y617617D01*
X96022Y617636D01*
X95978Y617664D01*
X95909Y617682D01*
X95842Y617709D01*
X95771Y617717D01*
X95740Y617725D01*
X95716Y617723D01*
X95675Y617727D01*
X91109Y617727D01*
X91019Y617713D01*
X90928Y617705D01*
X90899Y617693D01*
X90867Y617688D01*
X90786Y617645D01*
X90702Y617609D01*
X90670Y617583D01*
X90649Y617572D01*
X90627Y617549D01*
X90571Y617504D01*
X85060Y611993D01*
X85007Y611919D01*
X84947Y611849D01*
X84935Y611819D01*
X84916Y611793D01*
X84889Y611706D01*
X84855Y611621D01*
X84851Y611580D01*
X84844Y611558D01*
X84845Y611526D01*
X84837Y611455D01*
X84837Y606023D01*
X79777Y600963D01*
X72623Y600963D01*
X67563Y606023D01*
X67563Y613177D01*
X72623Y618237D01*
X78055Y618237D01*
X78145Y618251D01*
X78236Y618259D01*
X78265Y618271D01*
X78297Y618276D01*
X78378Y618319D01*
X78462Y618355D01*
X78494Y618381D01*
X78515Y618392D01*
X78537Y618415D01*
X78593Y618460D01*
X84104Y623971D01*
X87006Y626873D01*
X95675Y626873D01*
X95746Y626884D01*
X95818Y626886D01*
X95867Y626904D01*
X95918Y626912D01*
X95981Y626946D01*
X96049Y626971D01*
X96089Y627003D01*
X96135Y627028D01*
X96185Y627080D01*
X96241Y627124D01*
X96269Y627168D01*
X96305Y627206D01*
X96335Y627271D01*
X96374Y627331D01*
X96386Y627382D01*
X96408Y627429D01*
X96416Y627500D01*
X96434Y627570D01*
X96430Y627622D01*
X96436Y627673D01*
X96420Y627744D01*
X96415Y627815D01*
X96394Y627863D01*
X96383Y627914D01*
X96346Y627975D01*
X96318Y628041D01*
X96274Y628097D01*
X96257Y628125D01*
X96239Y628140D01*
X96214Y628172D01*
X92963Y631423D01*
X92963Y638577D01*
X96214Y641828D01*
X96255Y641886D01*
X96305Y641938D01*
X96327Y641985D01*
X96357Y642027D01*
X96378Y642096D01*
X96408Y642161D01*
X96414Y642213D01*
X96429Y642263D01*
X96428Y642334D01*
X96436Y642405D01*
X96424Y642456D01*
X96423Y642508D01*
X96399Y642576D01*
X96383Y642646D01*
X96357Y642691D01*
X96339Y642739D01*
X96294Y642795D01*
X96257Y642857D01*
X96218Y642891D01*
X96185Y642931D01*
X96125Y642970D01*
X96070Y643017D01*
X96022Y643036D01*
X95978Y643064D01*
X95909Y643082D01*
X95842Y643109D01*
X95771Y643117D01*
X95740Y643125D01*
X95716Y643123D01*
X95675Y643127D01*
X91109Y643127D01*
X91019Y643113D01*
X90928Y643105D01*
X90899Y643093D01*
X90867Y643088D01*
X90786Y643045D01*
X90702Y643009D01*
X90670Y642983D01*
X90649Y642972D01*
X90627Y642949D01*
X90571Y642904D01*
X85060Y637393D01*
X85007Y637319D01*
X84947Y637249D01*
X84935Y637219D01*
X84916Y637193D01*
X84889Y637106D01*
X84855Y637021D01*
X84851Y636980D01*
X84844Y636958D01*
X84845Y636926D01*
X84837Y636855D01*
X84837Y631423D01*
X79777Y626363D01*
X72623Y626363D01*
X67563Y631423D01*
X67563Y638577D01*
X72623Y643637D01*
X78055Y643637D01*
X78145Y643651D01*
X78236Y643659D01*
X78265Y643671D01*
X78297Y643676D01*
X78378Y643719D01*
X78462Y643755D01*
X78494Y643781D01*
X78515Y643792D01*
X78537Y643815D01*
X78593Y643860D01*
X84104Y649371D01*
X87006Y652273D01*
X95675Y652273D01*
X95746Y652284D01*
X95818Y652286D01*
X95867Y652304D01*
X95918Y652312D01*
X95981Y652346D01*
X96049Y652371D01*
X96089Y652403D01*
X96135Y652428D01*
X96185Y652480D01*
X96241Y652524D01*
X96269Y652568D01*
X96305Y652606D01*
X96335Y652671D01*
X96374Y652731D01*
X96386Y652782D01*
X96408Y652829D01*
X96416Y652900D01*
X96434Y652970D01*
X96430Y653022D01*
X96436Y653073D01*
X96420Y653144D01*
X96415Y653215D01*
X96394Y653263D01*
X96383Y653314D01*
X96346Y653375D01*
X96318Y653441D01*
X96274Y653497D01*
X96257Y653525D01*
X96239Y653540D01*
X96214Y653572D01*
X92963Y656823D01*
X92963Y663977D01*
X98023Y669037D01*
X105177Y669037D01*
X110237Y663977D01*
X110237Y656823D01*
X106986Y653572D01*
X106945Y653514D01*
X106895Y653462D01*
X106873Y653415D01*
X106843Y653373D01*
X106822Y653304D01*
X106792Y653239D01*
X106786Y653187D01*
X106771Y653137D01*
X106772Y653066D01*
X106764Y652995D01*
X106776Y652944D01*
X106777Y652892D01*
X106802Y652824D01*
X106817Y652754D01*
X106843Y652709D01*
X106861Y652661D01*
X106906Y652605D01*
X106943Y652543D01*
X106982Y652509D01*
X107015Y652469D01*
X107075Y652430D01*
X107130Y652383D01*
X107178Y652364D01*
X107222Y652336D01*
X107291Y652318D01*
X107358Y652291D01*
X107429Y652283D01*
X107460Y652275D01*
X107484Y652277D01*
X107525Y652273D01*
X112091Y652273D01*
X112181Y652287D01*
X112272Y652295D01*
X112301Y652307D01*
X112333Y652312D01*
X112414Y652355D01*
X112498Y652391D01*
X112530Y652417D01*
X112551Y652428D01*
X112573Y652451D01*
X112629Y652496D01*
X128554Y668421D01*
X128607Y668495D01*
X128667Y668565D01*
X128679Y668595D01*
X128698Y668621D01*
X128725Y668708D01*
X128759Y668793D01*
X128763Y668834D01*
X128770Y668856D01*
X128769Y668888D01*
X128777Y668959D01*
X128777Y694044D01*
X201306Y766573D01*
X218713Y766573D01*
X218827Y766592D01*
X218944Y766609D01*
X218949Y766611D01*
X218955Y766612D01*
X219058Y766667D01*
X219163Y766720D01*
X219167Y766725D01*
X219173Y766728D01*
X219253Y766812D01*
X219335Y766896D01*
X219339Y766902D01*
X219342Y766906D01*
X219350Y766923D01*
X219416Y767043D01*
X219771Y767900D01*
X222700Y770829D01*
X226528Y772415D01*
X230672Y772415D01*
X234500Y770829D01*
X237429Y767900D01*
X239015Y764072D01*
X239015Y759928D01*
X237429Y756100D01*
X234500Y753171D01*
X230672Y751585D01*
X226528Y751585D01*
X222700Y753171D01*
X219771Y756100D01*
X219416Y756957D01*
X219354Y757057D01*
X219294Y757157D01*
X219290Y757161D01*
X219286Y757166D01*
X219196Y757241D01*
X219107Y757317D01*
X219102Y757319D01*
X219097Y757323D01*
X218988Y757365D01*
X218879Y757409D01*
X218872Y757410D01*
X218867Y757411D01*
X218849Y757412D01*
X218713Y757427D01*
X205409Y757427D01*
X205319Y757413D01*
X205228Y757405D01*
X205199Y757393D01*
X205167Y757388D01*
X205086Y757345D01*
X205002Y757309D01*
X204970Y757283D01*
X204949Y757272D01*
X204927Y757249D01*
X204871Y757204D01*
X138146Y690479D01*
X138098Y690412D01*
X138092Y690406D01*
X138090Y690402D01*
X138033Y690335D01*
X138021Y690305D01*
X138002Y690279D01*
X137975Y690192D01*
X137941Y690107D01*
X137937Y690066D01*
X137930Y690044D01*
X137931Y690012D01*
X137923Y689941D01*
X137923Y664856D01*
X116194Y643127D01*
X107525Y643127D01*
X107454Y643116D01*
X107382Y643114D01*
X107333Y643096D01*
X107282Y643088D01*
X107219Y643054D01*
X107151Y643029D01*
X107111Y642997D01*
X107065Y642972D01*
X107015Y642920D01*
X106959Y642876D01*
X106931Y642832D01*
X106895Y642794D01*
X106865Y642729D01*
X106826Y642669D01*
X106814Y642618D01*
X106792Y642571D01*
X106784Y642500D01*
X106766Y642430D01*
X106770Y642378D01*
X106764Y642327D01*
X106780Y642256D01*
X106785Y642185D01*
X106806Y642137D01*
X106817Y642086D01*
X106854Y642025D01*
X106882Y641959D01*
X106926Y641903D01*
X106943Y641875D01*
X106961Y641860D01*
X106986Y641828D01*
X109018Y639796D01*
X109092Y639743D01*
X109162Y639683D01*
X109192Y639671D01*
X109218Y639652D01*
X109305Y639625D01*
X109390Y639591D01*
X109431Y639587D01*
X109453Y639580D01*
X109485Y639581D01*
X109557Y639573D01*
X131141Y639573D01*
X131231Y639587D01*
X131322Y639595D01*
X131351Y639607D01*
X131383Y639612D01*
X131464Y639655D01*
X131548Y639691D01*
X131580Y639717D01*
X131601Y639728D01*
X131623Y639751D01*
X131679Y639796D01*
X182256Y690373D01*
X218713Y690373D01*
X218827Y690392D01*
X218944Y690409D01*
X218949Y690411D01*
X218955Y690412D01*
X219058Y690467D01*
X219163Y690520D01*
X219167Y690525D01*
X219173Y690528D01*
X219253Y690612D01*
X219335Y690696D01*
X219339Y690702D01*
X219342Y690706D01*
X219350Y690723D01*
X219416Y690843D01*
X219771Y691700D01*
X222700Y694629D01*
X226528Y696215D01*
X230672Y696215D01*
X234500Y694629D01*
X237429Y691700D01*
X239015Y687872D01*
X239015Y683728D01*
X237429Y679900D01*
X234500Y676971D01*
X230672Y675385D01*
X226528Y675385D01*
X222700Y676971D01*
X219771Y679900D01*
X219416Y680757D01*
X219354Y680857D01*
X219294Y680957D01*
X219290Y680961D01*
X219286Y680966D01*
X219196Y681041D01*
X219107Y681117D01*
X219102Y681119D01*
X219097Y681123D01*
X218988Y681165D01*
X218879Y681209D01*
X218872Y681210D01*
X218867Y681211D01*
X218849Y681212D01*
X218713Y681227D01*
X186359Y681227D01*
X186269Y681213D01*
X186178Y681205D01*
X186149Y681193D01*
X186117Y681188D01*
X186036Y681145D01*
X185952Y681109D01*
X185920Y681083D01*
X185899Y681072D01*
X185877Y681049D01*
X185821Y681004D01*
X135244Y630427D01*
X109557Y630427D01*
X109467Y630413D01*
X109376Y630405D01*
X109346Y630393D01*
X109314Y630388D01*
X109234Y630345D01*
X109149Y630309D01*
X109117Y630283D01*
X109097Y630272D01*
X109075Y630249D01*
X109018Y630204D01*
X106986Y628172D01*
X106945Y628114D01*
X106895Y628062D01*
X106873Y628015D01*
X106843Y627973D01*
X106822Y627904D01*
X106792Y627839D01*
X106786Y627787D01*
X106771Y627737D01*
X106772Y627666D01*
X106764Y627595D01*
X106776Y627544D01*
X106777Y627492D01*
X106802Y627424D01*
X106817Y627354D01*
X106843Y627309D01*
X106861Y627261D01*
X106906Y627205D01*
X106943Y627143D01*
X106982Y627109D01*
X107015Y627069D01*
X107075Y627030D01*
X107130Y626983D01*
X107178Y626964D01*
X107222Y626936D01*
X107291Y626918D01*
X107358Y626891D01*
X107429Y626883D01*
X107460Y626875D01*
X107484Y626877D01*
X107525Y626873D01*
X198744Y626873D01*
X211221Y614396D01*
X211295Y614343D01*
X211365Y614283D01*
X211395Y614271D01*
X211421Y614252D01*
X211508Y614225D01*
X211593Y614191D01*
X211634Y614187D01*
X211656Y614180D01*
X211688Y614181D01*
X211759Y614173D01*
X218713Y614173D01*
X218827Y614192D01*
X218944Y614209D01*
X218949Y614211D01*
X218955Y614212D01*
X219058Y614267D01*
X219163Y614320D01*
X219167Y614325D01*
X219173Y614328D01*
X219253Y614412D01*
X219335Y614496D01*
X219339Y614502D01*
X219342Y614506D01*
X219350Y614523D01*
X219416Y614643D01*
X219771Y615500D01*
X222700Y618429D01*
X226528Y620015D01*
X230672Y620015D01*
X234500Y618429D01*
X237429Y615500D01*
X239015Y611672D01*
X239015Y607528D01*
X237429Y603700D01*
X234500Y600771D01*
X230672Y599185D01*
X226528Y599185D01*
X222700Y600771D01*
X219771Y603700D01*
X219416Y604557D01*
X219354Y604657D01*
X219294Y604757D01*
X219290Y604761D01*
X219286Y604766D01*
X219196Y604841D01*
X219107Y604917D01*
X219102Y604919D01*
X219097Y604923D01*
X218988Y604965D01*
X218879Y605009D01*
X218872Y605010D01*
X218867Y605011D01*
X218849Y605012D01*
X218713Y605027D01*
X207656Y605027D01*
X195179Y617504D01*
X195105Y617557D01*
X195035Y617617D01*
X195005Y617629D01*
X194979Y617648D01*
X194892Y617675D01*
X194807Y617709D01*
X194766Y617713D01*
X194744Y617720D01*
X194712Y617719D01*
X194641Y617727D01*
X107525Y617727D01*
X107454Y617716D01*
X107382Y617714D01*
X107333Y617696D01*
X107282Y617688D01*
X107219Y617654D01*
X107151Y617629D01*
X107111Y617597D01*
X107065Y617572D01*
X107015Y617520D01*
X106959Y617476D01*
X106931Y617432D01*
X106895Y617394D01*
X106865Y617329D01*
X106826Y617269D01*
X106814Y617218D01*
X106792Y617171D01*
X106784Y617100D01*
X106766Y617030D01*
X106770Y616978D01*
X106764Y616927D01*
X106780Y616856D01*
X106785Y616785D01*
X106806Y616737D01*
X106817Y616686D01*
X106854Y616625D01*
X106882Y616559D01*
X106926Y616503D01*
X106943Y616475D01*
X106961Y616460D01*
X106986Y616428D01*
X109018Y614396D01*
X109092Y614343D01*
X109162Y614283D01*
X109192Y614271D01*
X109218Y614252D01*
X109305Y614225D01*
X109390Y614191D01*
X109431Y614187D01*
X109453Y614180D01*
X109485Y614181D01*
X109557Y614173D01*
X186044Y614173D01*
X211221Y588996D01*
X211295Y588943D01*
X211365Y588883D01*
X211395Y588871D01*
X211421Y588852D01*
X211508Y588825D01*
X211593Y588791D01*
X211634Y588787D01*
X211656Y588780D01*
X211688Y588781D01*
X211759Y588773D01*
X218713Y588773D01*
X218827Y588792D01*
X218944Y588809D01*
X218949Y588811D01*
X218955Y588812D01*
X219058Y588867D01*
X219163Y588920D01*
X219167Y588925D01*
X219173Y588928D01*
X219253Y589012D01*
X219335Y589096D01*
X219339Y589102D01*
X219342Y589106D01*
X219350Y589123D01*
X219416Y589243D01*
X219771Y590100D01*
X222700Y593029D01*
X226528Y594615D01*
X230672Y594615D01*
X234500Y593029D01*
X237429Y590100D01*
X239015Y586272D01*
X239015Y582128D01*
X237429Y578300D01*
X236501Y577372D01*
X236459Y577314D01*
X236410Y577262D01*
X236388Y577215D01*
X236357Y577173D01*
X236336Y577104D01*
X236306Y577039D01*
X236300Y576987D01*
X236285Y576937D01*
X236287Y576866D01*
X236279Y576795D01*
X236290Y576744D01*
X236291Y576692D01*
X236316Y576624D01*
X236331Y576554D01*
X236358Y576509D01*
X236376Y576461D01*
X236421Y576405D01*
X236457Y576343D01*
X236497Y576309D01*
X236530Y576269D01*
X236590Y576230D01*
X236644Y576183D01*
X236693Y576164D01*
X236736Y576136D01*
X236806Y576118D01*
X236872Y576091D01*
X236944Y576083D01*
X236975Y576075D01*
X236998Y576077D01*
X237039Y576073D01*
X239091Y576073D01*
X239181Y576087D01*
X239272Y576095D01*
X239301Y576107D01*
X239333Y576112D01*
X239414Y576155D01*
X239498Y576191D01*
X239530Y576217D01*
X239551Y576228D01*
X239573Y576251D01*
X239629Y576296D01*
X243108Y579775D01*
X243161Y579849D01*
X243221Y579919D01*
X243233Y579949D01*
X243252Y579975D01*
X243279Y580062D01*
X243313Y580147D01*
X243317Y580188D01*
X243324Y580210D01*
X243323Y580242D01*
X243331Y580313D01*
X243331Y803987D01*
X243317Y804077D01*
X243309Y804168D01*
X243297Y804197D01*
X243292Y804229D01*
X243249Y804310D01*
X243213Y804394D01*
X243187Y804426D01*
X243176Y804447D01*
X243153Y804469D01*
X243108Y804525D01*
X239629Y808004D01*
X239555Y808057D01*
X239485Y808117D01*
X239455Y808129D01*
X239429Y808148D01*
X239342Y808175D01*
X239257Y808209D01*
X239216Y808213D01*
X239194Y808220D01*
X239162Y808219D01*
X239091Y808227D01*
X238487Y808227D01*
X238373Y808208D01*
X238256Y808191D01*
X238251Y808189D01*
X238245Y808188D01*
X238142Y808133D01*
X238037Y808080D01*
X238033Y808075D01*
X238027Y808072D01*
X237947Y807988D01*
X237865Y807904D01*
X237861Y807898D01*
X237858Y807894D01*
X237850Y807877D01*
X237784Y807757D01*
X237429Y806900D01*
X234500Y803971D01*
X230672Y802385D01*
X226528Y802385D01*
X222700Y803971D01*
X219771Y806900D01*
X218185Y810728D01*
X218185Y814872D01*
X219771Y818700D01*
X222700Y821629D01*
X226528Y823215D01*
X230672Y823215D01*
X234500Y821629D01*
X237429Y818700D01*
X237784Y817843D01*
X237846Y817743D01*
X237906Y817643D01*
X237910Y817639D01*
X237914Y817634D01*
X238004Y817559D01*
X238093Y817483D01*
X238098Y817481D01*
X238103Y817477D01*
X238212Y817435D01*
X238321Y817391D01*
X238328Y817390D01*
X238333Y817389D01*
X238351Y817388D01*
X238487Y817373D01*
X243194Y817373D01*
X248128Y812439D01*
X248186Y812397D01*
X248238Y812348D01*
X248285Y812326D01*
X248327Y812296D01*
X248396Y812274D01*
X248461Y812244D01*
X248513Y812239D01*
X248563Y812223D01*
X248634Y812225D01*
X248705Y812217D01*
X248756Y812228D01*
X248808Y812230D01*
X248876Y812254D01*
X248946Y812269D01*
X248991Y812296D01*
X249039Y812314D01*
X249095Y812359D01*
X249157Y812396D01*
X249191Y812435D01*
X249231Y812468D01*
X249270Y812528D01*
X249317Y812582D01*
X249336Y812631D01*
X249364Y812675D01*
X249382Y812744D01*
X249409Y812811D01*
X249417Y812882D01*
X249425Y812913D01*
X249423Y812936D01*
X249427Y812977D01*
X249427Y893141D01*
X249413Y893231D01*
X249405Y893322D01*
X249393Y893351D01*
X249388Y893383D01*
X249345Y893464D01*
X249309Y893548D01*
X249283Y893580D01*
X249272Y893601D01*
X249249Y893623D01*
X249204Y893679D01*
X245979Y896904D01*
X245905Y896957D01*
X245835Y897017D01*
X245805Y897029D01*
X245779Y897048D01*
X245692Y897075D01*
X245607Y897109D01*
X245566Y897113D01*
X245544Y897120D01*
X245512Y897119D01*
X245441Y897127D01*
X237039Y897127D01*
X236968Y897116D01*
X236897Y897114D01*
X236848Y897096D01*
X236796Y897088D01*
X236733Y897054D01*
X236666Y897029D01*
X236625Y896997D01*
X236579Y896972D01*
X236530Y896920D01*
X236474Y896876D01*
X236446Y896832D01*
X236410Y896794D01*
X236379Y896729D01*
X236341Y896669D01*
X236328Y896618D01*
X236306Y896571D01*
X236298Y896500D01*
X236281Y896430D01*
X236285Y896378D01*
X236279Y896327D01*
X236294Y896256D01*
X236300Y896185D01*
X236320Y896137D01*
X236331Y896086D01*
X236368Y896025D01*
X236396Y895959D01*
X236441Y895903D01*
X236457Y895875D01*
X236475Y895860D01*
X236501Y895828D01*
X237429Y894900D01*
X239015Y891072D01*
X239015Y886928D01*
X237429Y883100D01*
X234500Y880171D01*
X230672Y878585D01*
X226528Y878585D01*
X225672Y878940D01*
X225559Y878967D01*
X225444Y878995D01*
X225438Y878995D01*
X225432Y878996D01*
X225316Y878985D01*
X225199Y878976D01*
X225194Y878974D01*
X225187Y878973D01*
X225079Y878925D01*
X224973Y878880D01*
X224967Y878875D01*
X224963Y878873D01*
X224948Y878860D01*
X224842Y878775D01*
X144496Y798429D01*
X144443Y798355D01*
X144383Y798285D01*
X144371Y798255D01*
X144352Y798229D01*
X144325Y798142D01*
X144291Y798057D01*
X144287Y798016D01*
X144280Y797994D01*
X144281Y797962D01*
X144273Y797891D01*
X144273Y779156D01*
X116194Y751077D01*
X91109Y751077D01*
X91019Y751063D01*
X90928Y751055D01*
X90899Y751043D01*
X90867Y751038D01*
X90786Y750995D01*
X90702Y750959D01*
X90670Y750933D01*
X90649Y750922D01*
X90627Y750899D01*
X90571Y750854D01*
X49246Y709529D01*
X49201Y709467D01*
X49173Y709438D01*
X49168Y709427D01*
X49133Y709385D01*
X49121Y709355D01*
X49102Y709329D01*
X49075Y709242D01*
X49041Y709157D01*
X49037Y709116D01*
X49030Y709094D01*
X49031Y709062D01*
X49023Y708991D01*
X49023Y548309D01*
X49037Y548219D01*
X49045Y548128D01*
X49057Y548099D01*
X49062Y548067D01*
X49105Y547986D01*
X49141Y547902D01*
X49167Y547870D01*
X49178Y547849D01*
X49201Y547827D01*
X49246Y547771D01*
X58821Y538196D01*
X58895Y538143D01*
X58965Y538083D01*
X58995Y538071D01*
X59021Y538052D01*
X59108Y538025D01*
X59193Y537991D01*
X59234Y537987D01*
X59256Y537980D01*
X59288Y537981D01*
X59359Y537973D01*
X68243Y537973D01*
X68333Y537987D01*
X68424Y537995D01*
X68454Y538007D01*
X68486Y538012D01*
X68567Y538055D01*
X68651Y538091D01*
X68683Y538117D01*
X68703Y538128D01*
X68726Y538151D01*
X68782Y538196D01*
X72623Y542037D01*
X79777Y542037D01*
X84837Y536977D01*
X84837Y529823D01*
X79777Y524763D01*
X72623Y524763D01*
X68782Y528604D01*
X68708Y528657D01*
X68638Y528717D01*
X68608Y528729D01*
X68582Y528748D01*
X68495Y528775D01*
X68410Y528809D01*
X68369Y528813D01*
X68347Y528820D01*
X68315Y528819D01*
X68243Y528827D01*
X55256Y528827D01*
X39877Y544206D01*
X39877Y713094D01*
X87006Y760223D01*
X112091Y760223D01*
X112181Y760237D01*
X112272Y760245D01*
X112301Y760257D01*
X112333Y760262D01*
X112414Y760305D01*
X112498Y760341D01*
X112530Y760367D01*
X112551Y760378D01*
X112573Y760401D01*
X112629Y760446D01*
X134904Y782721D01*
X134957Y782795D01*
X135017Y782865D01*
X135029Y782895D01*
X135048Y782921D01*
X135075Y783008D01*
X135109Y783093D01*
X135113Y783134D01*
X135120Y783156D01*
X135119Y783188D01*
X135127Y783259D01*
X135127Y801994D01*
X138029Y804896D01*
X218375Y885242D01*
X218443Y885336D01*
X218513Y885431D01*
X218515Y885437D01*
X218519Y885442D01*
X218553Y885553D01*
X218589Y885665D01*
X218589Y885671D01*
X218591Y885677D01*
X218588Y885794D01*
X218587Y885911D01*
X218585Y885918D01*
X218585Y885923D01*
X218578Y885940D01*
X218540Y886072D01*
X218185Y886928D01*
X218185Y891072D01*
X219771Y894900D01*
X220699Y895828D01*
X220741Y895886D01*
X220790Y895938D01*
X220812Y895985D01*
X220843Y896027D01*
X220864Y896096D01*
X220894Y896161D01*
X220900Y896213D01*
X220915Y896263D01*
X220913Y896334D01*
X220921Y896405D01*
X220910Y896456D01*
X220909Y896508D01*
X220884Y896576D01*
X220869Y896646D01*
X220842Y896691D01*
X220824Y896739D01*
X220779Y896795D01*
X220743Y896857D01*
X220703Y896891D01*
X220670Y896931D01*
X220610Y896970D01*
X220556Y897017D01*
X220507Y897036D01*
X220464Y897064D01*
X220394Y897082D01*
X220328Y897109D01*
X220256Y897117D01*
X220225Y897125D01*
X220202Y897123D01*
X220161Y897127D01*
X218109Y897127D01*
X218019Y897113D01*
X217928Y897105D01*
X217899Y897093D01*
X217867Y897088D01*
X217786Y897045D01*
X217702Y897009D01*
X217670Y896983D01*
X217649Y896972D01*
X217627Y896949D01*
X217571Y896904D01*
X192394Y871727D01*
X112136Y871727D01*
X112116Y871724D01*
X112097Y871726D01*
X111995Y871704D01*
X111893Y871688D01*
X111876Y871678D01*
X111856Y871674D01*
X111767Y871621D01*
X111676Y871572D01*
X111662Y871558D01*
X111645Y871548D01*
X111578Y871469D01*
X111506Y871394D01*
X111498Y871376D01*
X111485Y871361D01*
X111446Y871265D01*
X111403Y871171D01*
X111401Y871151D01*
X111393Y871133D01*
X111375Y870966D01*
X111375Y867418D01*
X110482Y866525D01*
X92718Y866525D01*
X91825Y867418D01*
X91825Y885182D01*
X92718Y886075D01*
X110482Y886075D01*
X111375Y885182D01*
X111375Y881634D01*
X111378Y881614D01*
X111376Y881595D01*
X111398Y881493D01*
X111414Y881391D01*
X111424Y881374D01*
X111428Y881354D01*
X111481Y881265D01*
X111530Y881174D01*
X111544Y881160D01*
X111554Y881143D01*
X111633Y881076D01*
X111708Y881004D01*
X111726Y880996D01*
X111741Y880983D01*
X111837Y880944D01*
X111931Y880901D01*
X111951Y880899D01*
X111969Y880891D01*
X112136Y880873D01*
X188291Y880873D01*
X188381Y880887D01*
X188472Y880895D01*
X188501Y880907D01*
X188533Y880912D01*
X188614Y880955D01*
X188698Y880991D01*
X188730Y881017D01*
X188751Y881028D01*
X188773Y881051D01*
X188829Y881096D01*
X214006Y906273D01*
X220161Y906273D01*
X220232Y906284D01*
X220303Y906286D01*
X220352Y906304D01*
X220404Y906312D01*
X220467Y906346D01*
X220534Y906371D01*
X220575Y906403D01*
X220621Y906428D01*
X220670Y906480D01*
X220726Y906524D01*
X220754Y906568D01*
X220790Y906606D01*
X220821Y906671D01*
X220859Y906731D01*
X220872Y906782D01*
X220894Y906829D01*
X220902Y906900D01*
X220919Y906970D01*
X220915Y907022D01*
X220921Y907073D01*
X220906Y907144D01*
X220900Y907215D01*
X220880Y907263D01*
X220869Y907314D01*
X220832Y907375D01*
X220804Y907441D01*
X220759Y907497D01*
X220743Y907525D01*
X220725Y907540D01*
X220699Y907572D01*
X219771Y908500D01*
X218185Y912328D01*
X218185Y916472D01*
X219771Y920300D01*
X222700Y923229D01*
X226528Y924815D01*
X230672Y924815D01*
X234500Y923229D01*
X237429Y920300D01*
X239015Y916472D01*
X239015Y912328D01*
X237429Y908500D01*
X236501Y907572D01*
X236459Y907514D01*
X236410Y907462D01*
X236388Y907415D01*
X236357Y907373D01*
X236336Y907304D01*
X236306Y907239D01*
X236300Y907187D01*
X236285Y907137D01*
X236287Y907066D01*
X236279Y906995D01*
X236290Y906944D01*
X236291Y906892D01*
X236316Y906824D01*
X236331Y906754D01*
X236358Y906709D01*
X236376Y906661D01*
X236421Y906605D01*
X236457Y906543D01*
X236497Y906509D01*
X236530Y906469D01*
X236590Y906430D01*
X236644Y906383D01*
X236693Y906364D01*
X236736Y906336D01*
X236806Y906318D01*
X236872Y906291D01*
X236944Y906283D01*
X236975Y906275D01*
X236998Y906277D01*
X237039Y906273D01*
X249544Y906273D01*
X255671Y900146D01*
X258573Y897244D01*
X258573Y550556D01*
X255671Y547654D01*
X252446Y544429D01*
X249544Y541527D01*
X237039Y541527D01*
X236968Y541516D01*
X236897Y541514D01*
X236848Y541496D01*
X236796Y541488D01*
X236733Y541454D01*
X236666Y541429D01*
X236625Y541397D01*
X236579Y541372D01*
X236530Y541320D01*
X236474Y541276D01*
X236446Y541232D01*
X236410Y541194D01*
X236379Y541129D01*
X236341Y541069D01*
X236328Y541018D01*
X236306Y540971D01*
X236298Y540900D01*
X236281Y540830D01*
X236285Y540778D01*
X236279Y540727D01*
X236294Y540656D01*
X236300Y540585D01*
X236320Y540537D01*
X236331Y540486D01*
X236368Y540425D01*
X236396Y540359D01*
X236441Y540303D01*
X236457Y540275D01*
X236475Y540260D01*
X236501Y540228D01*
X237429Y539300D01*
X237784Y538443D01*
X237846Y538343D01*
X237906Y538243D01*
X237910Y538239D01*
X237914Y538234D01*
X238004Y538159D01*
X238093Y538083D01*
X238098Y538081D01*
X238103Y538077D01*
X238212Y538035D01*
X238321Y537991D01*
X238328Y537990D01*
X238333Y537989D01*
X238351Y537988D01*
X238487Y537973D01*
X251791Y537973D01*
X251881Y537987D01*
X251972Y537995D01*
X252001Y538007D01*
X252033Y538012D01*
X252114Y538055D01*
X252198Y538091D01*
X252230Y538117D01*
X252251Y538128D01*
X252273Y538151D01*
X252329Y538196D01*
X274604Y560471D01*
X274657Y560545D01*
X274717Y560615D01*
X274729Y560645D01*
X274748Y560671D01*
X274775Y560758D01*
X274809Y560843D01*
X274813Y560884D01*
X274820Y560906D01*
X274819Y560938D01*
X274827Y561009D01*
X274827Y776594D01*
X353706Y855473D01*
X372561Y855473D01*
X372632Y855484D01*
X372703Y855486D01*
X372752Y855504D01*
X372804Y855512D01*
X372867Y855546D01*
X372934Y855571D01*
X372975Y855603D01*
X373021Y855628D01*
X373070Y855680D01*
X373126Y855724D01*
X373154Y855768D01*
X373190Y855806D01*
X373221Y855871D01*
X373259Y855931D01*
X373272Y855982D01*
X373294Y856029D01*
X373302Y856100D01*
X373319Y856170D01*
X373315Y856222D01*
X373321Y856273D01*
X373306Y856344D01*
X373300Y856415D01*
X373280Y856463D01*
X373269Y856514D01*
X373232Y856575D01*
X373204Y856641D01*
X373159Y856697D01*
X373143Y856725D01*
X373125Y856740D01*
X373099Y856772D01*
X372171Y857700D01*
X370585Y861528D01*
X370585Y865672D01*
X372171Y869500D01*
X375100Y872429D01*
X378928Y874015D01*
X383072Y874015D01*
X386900Y872429D01*
X389829Y869500D01*
X391415Y865672D01*
X391415Y861528D01*
X389829Y857700D01*
X388901Y856772D01*
X388859Y856714D01*
X388810Y856662D01*
X388788Y856615D01*
X388757Y856573D01*
X388736Y856504D01*
X388706Y856439D01*
X388700Y856387D01*
X388685Y856337D01*
X388687Y856266D01*
X388679Y856195D01*
X388690Y856144D01*
X388691Y856092D01*
X388716Y856024D01*
X388731Y855954D01*
X388758Y855909D01*
X388776Y855861D01*
X388821Y855805D01*
X388857Y855743D01*
X388897Y855709D01*
X388930Y855669D01*
X388990Y855630D01*
X389044Y855583D01*
X389093Y855564D01*
X389136Y855536D01*
X389206Y855518D01*
X389272Y855491D01*
X389344Y855483D01*
X389375Y855475D01*
X389398Y855477D01*
X389439Y855473D01*
X391491Y855473D01*
X391581Y855487D01*
X391672Y855495D01*
X391701Y855507D01*
X391733Y855512D01*
X391814Y855555D01*
X391898Y855591D01*
X391930Y855617D01*
X391951Y855628D01*
X391973Y855651D01*
X392029Y855696D01*
X417206Y880873D01*
X500638Y880873D01*
X500709Y880884D01*
X500781Y880886D01*
X500830Y880904D01*
X500881Y880912D01*
X500945Y880946D01*
X501012Y880971D01*
X501053Y881003D01*
X501099Y881028D01*
X501148Y881080D01*
X501204Y881124D01*
X501232Y881168D01*
X501268Y881206D01*
X501298Y881271D01*
X501337Y881331D01*
X501350Y881382D01*
X501372Y881429D01*
X501379Y881500D01*
X501397Y881570D01*
X501393Y881622D01*
X501399Y881673D01*
X501383Y881744D01*
X501378Y881815D01*
X501358Y881863D01*
X501346Y881914D01*
X501310Y881975D01*
X501282Y882041D01*
X501237Y882097D01*
X501220Y882125D01*
X501202Y882140D01*
X501177Y882172D01*
X498347Y885002D01*
X498347Y887477D01*
X507238Y887477D01*
X507258Y887480D01*
X507277Y887478D01*
X507379Y887500D01*
X507481Y887517D01*
X507498Y887526D01*
X507518Y887530D01*
X507607Y887583D01*
X507698Y887632D01*
X507712Y887646D01*
X507729Y887656D01*
X507796Y887735D01*
X507867Y887810D01*
X507876Y887828D01*
X507889Y887843D01*
X507927Y887939D01*
X507971Y888033D01*
X507973Y888053D01*
X507981Y888071D01*
X507999Y888238D01*
X507999Y889001D01*
X508001Y889001D01*
X508001Y888238D01*
X508004Y888218D01*
X508002Y888199D01*
X508024Y888097D01*
X508041Y887995D01*
X508050Y887978D01*
X508054Y887958D01*
X508107Y887869D01*
X508156Y887778D01*
X508170Y887764D01*
X508180Y887747D01*
X508259Y887680D01*
X508334Y887609D01*
X508352Y887600D01*
X508367Y887587D01*
X508463Y887548D01*
X508557Y887505D01*
X508577Y887503D01*
X508595Y887495D01*
X508762Y887477D01*
X517653Y887477D01*
X517653Y885002D01*
X514823Y882172D01*
X514781Y882114D01*
X514732Y882062D01*
X514710Y882015D01*
X514680Y881973D01*
X514659Y881904D01*
X514628Y881839D01*
X514623Y881787D01*
X514607Y881737D01*
X514609Y881666D01*
X514601Y881595D01*
X514612Y881544D01*
X514614Y881492D01*
X514638Y881424D01*
X514654Y881354D01*
X514680Y881309D01*
X514698Y881261D01*
X514743Y881205D01*
X514780Y881143D01*
X514819Y881109D01*
X514852Y881069D01*
X514912Y881030D01*
X514967Y880983D01*
X515015Y880964D01*
X515059Y880936D01*
X515128Y880918D01*
X515195Y880891D01*
X515266Y880883D01*
X515297Y880875D01*
X515321Y880877D01*
X515362Y880873D01*
X518491Y880873D01*
X518581Y880887D01*
X518672Y880895D01*
X518701Y880907D01*
X518733Y880912D01*
X518814Y880955D01*
X518898Y880991D01*
X518930Y881017D01*
X518951Y881028D01*
X518973Y881051D01*
X519029Y881096D01*
X524540Y886607D01*
X524583Y886666D01*
X524628Y886714D01*
X524636Y886731D01*
X524653Y886751D01*
X524665Y886781D01*
X524684Y886807D01*
X524709Y886887D01*
X524732Y886937D01*
X524733Y886950D01*
X524745Y886979D01*
X524749Y887020D01*
X524756Y887042D01*
X524755Y887074D01*
X524763Y887145D01*
X524763Y892577D01*
X529823Y897637D01*
X536977Y897637D01*
X542037Y892577D01*
X542037Y885423D01*
X536977Y880363D01*
X531545Y880363D01*
X531455Y880349D01*
X531364Y880341D01*
X531335Y880329D01*
X531303Y880324D01*
X531222Y880281D01*
X531138Y880245D01*
X531106Y880219D01*
X531085Y880208D01*
X531063Y880185D01*
X531007Y880140D01*
X522594Y871727D01*
X513925Y871727D01*
X513854Y871716D01*
X513782Y871714D01*
X513733Y871696D01*
X513682Y871688D01*
X513619Y871654D01*
X513551Y871629D01*
X513511Y871597D01*
X513465Y871572D01*
X513415Y871520D01*
X513359Y871476D01*
X513331Y871432D01*
X513295Y871394D01*
X513265Y871329D01*
X513226Y871269D01*
X513214Y871218D01*
X513192Y871171D01*
X513184Y871100D01*
X513166Y871030D01*
X513170Y870978D01*
X513164Y870927D01*
X513180Y870856D01*
X513185Y870785D01*
X513206Y870737D01*
X513217Y870686D01*
X513254Y870625D01*
X513282Y870559D01*
X513326Y870503D01*
X513343Y870475D01*
X513361Y870460D01*
X513386Y870428D01*
X516637Y867177D01*
X516637Y860023D01*
X511577Y854963D01*
X504423Y854963D01*
X499363Y860023D01*
X499363Y867177D01*
X502614Y870428D01*
X502655Y870486D01*
X502705Y870538D01*
X502727Y870585D01*
X502757Y870627D01*
X502778Y870696D01*
X502808Y870761D01*
X502814Y870813D01*
X502829Y870863D01*
X502828Y870934D01*
X502836Y871005D01*
X502824Y871056D01*
X502823Y871108D01*
X502798Y871176D01*
X502783Y871246D01*
X502757Y871291D01*
X502739Y871339D01*
X502694Y871395D01*
X502657Y871457D01*
X502618Y871491D01*
X502585Y871531D01*
X502525Y871570D01*
X502470Y871617D01*
X502422Y871636D01*
X502378Y871664D01*
X502309Y871682D01*
X502242Y871709D01*
X502171Y871717D01*
X502140Y871725D01*
X502116Y871723D01*
X502075Y871727D01*
X421309Y871727D01*
X421219Y871713D01*
X421128Y871705D01*
X421099Y871693D01*
X421067Y871688D01*
X420986Y871645D01*
X420902Y871609D01*
X420870Y871583D01*
X420849Y871572D01*
X420827Y871549D01*
X420771Y871504D01*
X395594Y846327D01*
X389439Y846327D01*
X389368Y846316D01*
X389297Y846314D01*
X389248Y846296D01*
X389196Y846288D01*
X389133Y846254D01*
X389066Y846229D01*
X389025Y846197D01*
X388979Y846172D01*
X388930Y846120D01*
X388874Y846076D01*
X388846Y846032D01*
X388810Y845994D01*
X388779Y845929D01*
X388741Y845869D01*
X388728Y845818D01*
X388706Y845771D01*
X388698Y845700D01*
X388681Y845630D01*
X388685Y845578D01*
X388679Y845527D01*
X388694Y845456D01*
X388700Y845385D01*
X388720Y845337D01*
X388731Y845286D01*
X388768Y845225D01*
X388796Y845159D01*
X388841Y845103D01*
X388857Y845075D01*
X388875Y845060D01*
X388901Y845028D01*
X389829Y844100D01*
X391415Y840272D01*
X391415Y836128D01*
X389829Y832300D01*
X386900Y829371D01*
X383072Y827785D01*
X378928Y827785D01*
X375100Y829371D01*
X372171Y832300D01*
X370585Y836128D01*
X370585Y840272D01*
X372171Y844100D01*
X373099Y845028D01*
X373141Y845086D01*
X373190Y845138D01*
X373212Y845185D01*
X373243Y845227D01*
X373264Y845296D01*
X373294Y845361D01*
X373300Y845413D01*
X373315Y845463D01*
X373313Y845534D01*
X373321Y845605D01*
X373310Y845656D01*
X373309Y845708D01*
X373284Y845776D01*
X373269Y845846D01*
X373242Y845891D01*
X373224Y845939D01*
X373179Y845995D01*
X373143Y846057D01*
X373103Y846091D01*
X373070Y846131D01*
X373010Y846170D01*
X372956Y846217D01*
X372907Y846236D01*
X372864Y846264D01*
X372794Y846282D01*
X372728Y846309D01*
X372656Y846317D01*
X372625Y846325D01*
X372602Y846323D01*
X372561Y846327D01*
X357809Y846327D01*
X357719Y846313D01*
X357628Y846305D01*
X357599Y846293D01*
X357567Y846288D01*
X357486Y846245D01*
X357402Y846209D01*
X357370Y846183D01*
X357349Y846172D01*
X357327Y846149D01*
X357271Y846104D01*
X284196Y773029D01*
X284143Y772955D01*
X284083Y772885D01*
X284071Y772855D01*
X284052Y772829D01*
X284025Y772742D01*
X283991Y772657D01*
X283987Y772616D01*
X283980Y772594D01*
X283981Y772562D01*
X283973Y772491D01*
X283973Y556906D01*
X255894Y528827D01*
X238487Y528827D01*
X238373Y528808D01*
X238256Y528791D01*
X238251Y528789D01*
X238245Y528788D01*
X238142Y528733D01*
X238037Y528680D01*
X238033Y528675D01*
X238027Y528672D01*
X237947Y528588D01*
X237865Y528504D01*
X237861Y528498D01*
X237858Y528494D01*
X237850Y528477D01*
X237784Y528357D01*
X237429Y527500D01*
X234500Y524571D01*
X230672Y522985D01*
X226528Y522985D01*
X222700Y524571D01*
X219771Y527500D01*
X218185Y531328D01*
X218185Y535472D01*
X219771Y539300D01*
X220699Y540228D01*
X220741Y540286D01*
X220790Y540338D01*
X220812Y540385D01*
X220843Y540427D01*
X220864Y540496D01*
X220894Y540561D01*
X220900Y540613D01*
X220915Y540663D01*
X220913Y540734D01*
X220921Y540805D01*
X220910Y540856D01*
X220909Y540908D01*
X220884Y540976D01*
X220869Y541046D01*
X220842Y541091D01*
X220824Y541139D01*
X220779Y541195D01*
X220743Y541257D01*
X220703Y541291D01*
X220670Y541331D01*
X220610Y541370D01*
X220556Y541417D01*
X220507Y541436D01*
X220464Y541464D01*
X220394Y541482D01*
X220328Y541509D01*
X220256Y541517D01*
X220225Y541525D01*
X220202Y541523D01*
X220161Y541527D01*
X218109Y541527D01*
X218019Y541513D01*
X217928Y541505D01*
X217899Y541493D01*
X217867Y541488D01*
X217786Y541445D01*
X217702Y541409D01*
X217670Y541383D01*
X217649Y541372D01*
X217627Y541349D01*
X217571Y541304D01*
X214346Y538079D01*
X214293Y538005D01*
X214233Y537935D01*
X214221Y537905D01*
X214202Y537879D01*
X214175Y537792D01*
X214141Y537707D01*
X214137Y537666D01*
X214130Y537644D01*
X214131Y537612D01*
X214123Y537541D01*
X214123Y516559D01*
X214137Y516469D01*
X214145Y516378D01*
X214157Y516349D01*
X214162Y516317D01*
X214205Y516236D01*
X214241Y516152D01*
X214267Y516120D01*
X214278Y516099D01*
X214301Y516077D01*
X214346Y516021D01*
X217571Y512796D01*
X217645Y512743D01*
X217715Y512683D01*
X217745Y512671D01*
X217771Y512652D01*
X217858Y512625D01*
X217943Y512591D01*
X217984Y512587D01*
X218006Y512580D01*
X218038Y512581D01*
X218109Y512573D01*
X218713Y512573D01*
X218827Y512592D01*
X218944Y512609D01*
X218949Y512611D01*
X218955Y512612D01*
X219058Y512667D01*
X219163Y512720D01*
X219167Y512725D01*
X219173Y512728D01*
X219252Y512811D01*
X219335Y512896D01*
X219339Y512902D01*
X219342Y512906D01*
X219350Y512923D01*
X219416Y513043D01*
X219771Y513900D01*
X222700Y516829D01*
X226528Y518415D01*
X230672Y518415D01*
X231528Y518060D01*
X231642Y518033D01*
X231756Y518005D01*
X231762Y518005D01*
X231768Y518004D01*
X231884Y518015D01*
X232001Y518024D01*
X232006Y518026D01*
X232013Y518027D01*
X232120Y518075D01*
X232227Y518120D01*
X232233Y518125D01*
X232237Y518127D01*
X232251Y518139D01*
X232358Y518225D01*
X239406Y525273D01*
X277191Y525273D01*
X277281Y525287D01*
X277372Y525295D01*
X277401Y525307D01*
X277433Y525312D01*
X277514Y525355D01*
X277598Y525391D01*
X277630Y525417D01*
X277651Y525428D01*
X277673Y525451D01*
X277729Y525496D01*
X302906Y550673D01*
X372561Y550673D01*
X372632Y550684D01*
X372703Y550686D01*
X372752Y550704D01*
X372804Y550712D01*
X372867Y550746D01*
X372934Y550771D01*
X372975Y550803D01*
X373021Y550828D01*
X373070Y550880D01*
X373126Y550924D01*
X373154Y550968D01*
X373190Y551006D01*
X373221Y551071D01*
X373259Y551131D01*
X373272Y551182D01*
X373294Y551229D01*
X373302Y551300D01*
X373319Y551370D01*
X373315Y551422D01*
X373321Y551473D01*
X373306Y551544D01*
X373300Y551615D01*
X373280Y551663D01*
X373269Y551714D01*
X373232Y551775D01*
X373204Y551841D01*
X373159Y551897D01*
X373143Y551925D01*
X373125Y551940D01*
X373099Y551972D01*
X372171Y552900D01*
X370585Y556728D01*
X370585Y560872D01*
X372171Y564700D01*
X375100Y567629D01*
X378928Y569215D01*
X383072Y569215D01*
X386900Y567629D01*
X389829Y564700D01*
X390184Y563843D01*
X390246Y563743D01*
X390306Y563643D01*
X390310Y563639D01*
X390314Y563634D01*
X390404Y563559D01*
X390493Y563483D01*
X390498Y563481D01*
X390503Y563477D01*
X390612Y563435D01*
X390721Y563391D01*
X390728Y563390D01*
X390733Y563389D01*
X390751Y563388D01*
X390887Y563373D01*
X397841Y563373D01*
X397931Y563387D01*
X398022Y563395D01*
X398051Y563407D01*
X398083Y563412D01*
X398164Y563455D01*
X398248Y563491D01*
X398280Y563517D01*
X398301Y563528D01*
X398323Y563551D01*
X398379Y563596D01*
X433354Y598571D01*
X433407Y598645D01*
X433467Y598715D01*
X433479Y598745D01*
X433498Y598771D01*
X433525Y598858D01*
X433559Y598943D01*
X433563Y598984D01*
X433570Y599006D01*
X433569Y599038D01*
X433577Y599109D01*
X433577Y624194D01*
X436479Y627096D01*
X468006Y658623D01*
X514412Y658623D01*
X514502Y658637D01*
X514593Y658645D01*
X514622Y658657D01*
X514654Y658662D01*
X514735Y658705D01*
X514819Y658741D01*
X514851Y658767D01*
X514872Y658778D01*
X514894Y658801D01*
X514950Y658846D01*
X523332Y667228D01*
X523374Y667286D01*
X523423Y667338D01*
X523445Y667385D01*
X523476Y667427D01*
X523497Y667496D01*
X523527Y667561D01*
X523533Y667613D01*
X523548Y667663D01*
X523546Y667734D01*
X523554Y667805D01*
X523543Y667856D01*
X523542Y667908D01*
X523517Y667976D01*
X523502Y668046D01*
X523475Y668091D01*
X523457Y668139D01*
X523412Y668195D01*
X523375Y668257D01*
X523336Y668291D01*
X523303Y668331D01*
X523243Y668370D01*
X523189Y668417D01*
X523140Y668436D01*
X523096Y668464D01*
X523027Y668482D01*
X522960Y668509D01*
X522889Y668517D01*
X522858Y668525D01*
X522835Y668523D01*
X522794Y668527D01*
X408609Y668527D01*
X408519Y668513D01*
X408428Y668505D01*
X408399Y668493D01*
X408367Y668488D01*
X408286Y668445D01*
X408202Y668409D01*
X408170Y668383D01*
X408149Y668372D01*
X408127Y668349D01*
X408071Y668304D01*
X398496Y658729D01*
X395594Y655827D01*
X390887Y655827D01*
X390773Y655808D01*
X390656Y655791D01*
X390651Y655789D01*
X390645Y655788D01*
X390542Y655733D01*
X390437Y655680D01*
X390433Y655675D01*
X390427Y655672D01*
X390347Y655588D01*
X390265Y655504D01*
X390261Y655498D01*
X390258Y655494D01*
X390250Y655477D01*
X390184Y655357D01*
X389829Y654500D01*
X386900Y651571D01*
X383072Y649985D01*
X378928Y649985D01*
X375100Y651571D01*
X372171Y654500D01*
X370585Y658328D01*
X370585Y662472D01*
X372171Y666300D01*
X375100Y669229D01*
X378928Y670815D01*
X383072Y670815D01*
X386900Y669229D01*
X389829Y666300D01*
X390184Y665443D01*
X390246Y665343D01*
X390306Y665243D01*
X390310Y665239D01*
X390314Y665234D01*
X390404Y665159D01*
X390493Y665083D01*
X390498Y665081D01*
X390503Y665077D01*
X390612Y665035D01*
X390721Y664991D01*
X390728Y664990D01*
X390733Y664989D01*
X390751Y664988D01*
X390887Y664973D01*
X391491Y664973D01*
X391581Y664987D01*
X391672Y664995D01*
X391701Y665007D01*
X391733Y665012D01*
X391814Y665055D01*
X391898Y665091D01*
X391930Y665117D01*
X391951Y665128D01*
X391973Y665151D01*
X392029Y665196D01*
X401604Y674771D01*
X404506Y677673D01*
X524841Y677673D01*
X524931Y677687D01*
X525022Y677695D01*
X525051Y677707D01*
X525083Y677712D01*
X525164Y677755D01*
X525248Y677791D01*
X525280Y677817D01*
X525301Y677828D01*
X525323Y677851D01*
X525379Y677896D01*
X547654Y700171D01*
X547707Y700245D01*
X547767Y700315D01*
X547779Y700345D01*
X547798Y700371D01*
X547825Y700458D01*
X547859Y700543D01*
X547863Y700584D01*
X547870Y700606D01*
X547869Y700638D01*
X547877Y700709D01*
X547877Y766141D01*
X547863Y766231D01*
X547855Y766322D01*
X547843Y766351D01*
X547838Y766383D01*
X547795Y766464D01*
X547759Y766548D01*
X547733Y766580D01*
X547722Y766601D01*
X547699Y766623D01*
X547654Y766679D01*
X535793Y778540D01*
X535719Y778593D01*
X535649Y778653D01*
X535619Y778665D01*
X535593Y778684D01*
X535506Y778711D01*
X535421Y778745D01*
X535380Y778749D01*
X535358Y778756D01*
X535326Y778755D01*
X535255Y778763D01*
X529823Y778763D01*
X526572Y782014D01*
X526514Y782055D01*
X526462Y782105D01*
X526415Y782127D01*
X526373Y782157D01*
X526304Y782178D01*
X526239Y782208D01*
X526187Y782214D01*
X526137Y782229D01*
X526066Y782228D01*
X525995Y782236D01*
X525944Y782224D01*
X525892Y782223D01*
X525824Y782198D01*
X525754Y782183D01*
X525709Y782157D01*
X525661Y782139D01*
X525605Y782094D01*
X525543Y782057D01*
X525509Y782018D01*
X525469Y781985D01*
X525430Y781925D01*
X525383Y781870D01*
X525364Y781822D01*
X525336Y781778D01*
X525318Y781709D01*
X525291Y781642D01*
X525283Y781571D01*
X525275Y781540D01*
X525277Y781516D01*
X525273Y781475D01*
X525273Y779156D01*
X516244Y770127D01*
X513925Y770127D01*
X513854Y770116D01*
X513782Y770114D01*
X513733Y770096D01*
X513682Y770088D01*
X513619Y770054D01*
X513551Y770029D01*
X513511Y769997D01*
X513465Y769972D01*
X513415Y769920D01*
X513359Y769876D01*
X513331Y769832D01*
X513295Y769794D01*
X513265Y769729D01*
X513226Y769669D01*
X513214Y769618D01*
X513192Y769571D01*
X513184Y769500D01*
X513166Y769430D01*
X513170Y769378D01*
X513164Y769327D01*
X513180Y769256D01*
X513185Y769185D01*
X513206Y769137D01*
X513217Y769086D01*
X513254Y769025D01*
X513282Y768959D01*
X513326Y768903D01*
X513343Y768875D01*
X513361Y768860D01*
X513386Y768828D01*
X516637Y765577D01*
X516637Y758423D01*
X511577Y753363D01*
X504423Y753363D01*
X499363Y758423D01*
X499363Y765577D01*
X502614Y768828D01*
X502655Y768886D01*
X502705Y768938D01*
X502727Y768985D01*
X502757Y769027D01*
X502778Y769096D01*
X502808Y769161D01*
X502814Y769213D01*
X502829Y769263D01*
X502828Y769334D01*
X502836Y769405D01*
X502824Y769456D01*
X502823Y769508D01*
X502798Y769576D01*
X502783Y769646D01*
X502757Y769691D01*
X502739Y769739D01*
X502694Y769795D01*
X502657Y769857D01*
X502618Y769891D01*
X502585Y769931D01*
X502525Y769970D01*
X502470Y770017D01*
X502422Y770036D01*
X502378Y770064D01*
X502309Y770082D01*
X502242Y770109D01*
X502171Y770117D01*
X502140Y770125D01*
X502116Y770123D01*
X502075Y770127D01*
X459409Y770127D01*
X459319Y770113D01*
X459228Y770105D01*
X459199Y770093D01*
X459167Y770088D01*
X459086Y770045D01*
X459002Y770009D01*
X458970Y769983D01*
X458949Y769972D01*
X458927Y769949D01*
X458871Y769904D01*
X420994Y732027D01*
X390887Y732027D01*
X390773Y732008D01*
X390656Y731991D01*
X390651Y731989D01*
X390645Y731988D01*
X390542Y731933D01*
X390437Y731880D01*
X390433Y731875D01*
X390427Y731872D01*
X390347Y731788D01*
X390265Y731704D01*
X390261Y731698D01*
X390258Y731694D01*
X390250Y731677D01*
X390184Y731557D01*
X389829Y730700D01*
X388901Y729772D01*
X388859Y729714D01*
X388810Y729662D01*
X388788Y729615D01*
X388757Y729573D01*
X388736Y729504D01*
X388706Y729439D01*
X388700Y729387D01*
X388685Y729337D01*
X388687Y729266D01*
X388679Y729195D01*
X388690Y729144D01*
X388691Y729092D01*
X388716Y729024D01*
X388731Y728954D01*
X388758Y728909D01*
X388776Y728861D01*
X388821Y728805D01*
X388857Y728743D01*
X388897Y728709D01*
X388930Y728669D01*
X388990Y728630D01*
X389044Y728583D01*
X389093Y728564D01*
X389136Y728536D01*
X389206Y728518D01*
X389272Y728491D01*
X389344Y728483D01*
X389375Y728475D01*
X389398Y728477D01*
X389439Y728473D01*
X420994Y728473D01*
X433471Y715996D01*
X433545Y715943D01*
X433615Y715883D01*
X433645Y715871D01*
X433671Y715852D01*
X433758Y715825D01*
X433843Y715791D01*
X433884Y715787D01*
X433906Y715780D01*
X433938Y715781D01*
X434009Y715773D01*
X500043Y715773D01*
X500133Y715787D01*
X500224Y715795D01*
X500254Y715807D01*
X500286Y715812D01*
X500367Y715855D01*
X500451Y715891D01*
X500483Y715917D01*
X500503Y715928D01*
X500526Y715951D01*
X500582Y715996D01*
X504423Y719837D01*
X511577Y719837D01*
X514828Y716586D01*
X514886Y716545D01*
X514938Y716495D01*
X514985Y716473D01*
X515027Y716443D01*
X515096Y716422D01*
X515161Y716392D01*
X515213Y716386D01*
X515263Y716371D01*
X515334Y716372D01*
X515405Y716364D01*
X515456Y716376D01*
X515508Y716377D01*
X515576Y716402D01*
X515646Y716417D01*
X515691Y716443D01*
X515739Y716461D01*
X515795Y716506D01*
X515857Y716543D01*
X515891Y716582D01*
X515931Y716615D01*
X515970Y716675D01*
X516017Y716730D01*
X516036Y716778D01*
X516064Y716822D01*
X516082Y716891D01*
X516109Y716958D01*
X516117Y717029D01*
X516125Y717060D01*
X516123Y717084D01*
X516127Y717125D01*
X516127Y725794D01*
X524540Y734207D01*
X524593Y734281D01*
X524653Y734351D01*
X524665Y734381D01*
X524684Y734407D01*
X524711Y734494D01*
X524745Y734579D01*
X524749Y734620D01*
X524756Y734642D01*
X524755Y734674D01*
X524763Y734745D01*
X524763Y740177D01*
X529823Y745237D01*
X536977Y745237D01*
X542037Y740177D01*
X542037Y733023D01*
X536977Y727963D01*
X531545Y727963D01*
X531455Y727949D01*
X531364Y727941D01*
X531335Y727929D01*
X531303Y727924D01*
X531222Y727881D01*
X531138Y727845D01*
X531106Y727819D01*
X531085Y727808D01*
X531063Y727785D01*
X531007Y727740D01*
X525496Y722229D01*
X525443Y722155D01*
X525383Y722085D01*
X525371Y722055D01*
X525352Y722029D01*
X525325Y721942D01*
X525291Y721857D01*
X525287Y721816D01*
X525280Y721794D01*
X525281Y721762D01*
X525273Y721691D01*
X525273Y717125D01*
X525284Y717054D01*
X525286Y716982D01*
X525304Y716933D01*
X525312Y716882D01*
X525346Y716819D01*
X525371Y716751D01*
X525403Y716711D01*
X525428Y716665D01*
X525480Y716615D01*
X525524Y716559D01*
X525568Y716531D01*
X525606Y716495D01*
X525671Y716465D01*
X525731Y716426D01*
X525782Y716414D01*
X525829Y716392D01*
X525900Y716384D01*
X525970Y716366D01*
X526022Y716370D01*
X526073Y716364D01*
X526144Y716380D01*
X526215Y716385D01*
X526263Y716406D01*
X526314Y716417D01*
X526375Y716454D01*
X526441Y716482D01*
X526497Y716526D01*
X526525Y716543D01*
X526540Y716561D01*
X526572Y716586D01*
X529823Y719837D01*
X536977Y719837D01*
X542037Y714777D01*
X542037Y707623D01*
X536977Y702563D01*
X529823Y702563D01*
X526572Y705814D01*
X526514Y705855D01*
X526462Y705905D01*
X526415Y705927D01*
X526373Y705957D01*
X526304Y705978D01*
X526239Y706008D01*
X526187Y706014D01*
X526137Y706029D01*
X526066Y706028D01*
X525995Y706036D01*
X525944Y706024D01*
X525892Y706023D01*
X525824Y705998D01*
X525754Y705983D01*
X525709Y705957D01*
X525661Y705939D01*
X525605Y705894D01*
X525543Y705857D01*
X525509Y705818D01*
X525469Y705785D01*
X525430Y705725D01*
X525383Y705670D01*
X525364Y705622D01*
X525336Y705578D01*
X525318Y705509D01*
X525291Y705442D01*
X525283Y705371D01*
X525275Y705340D01*
X525277Y705316D01*
X525273Y705275D01*
X525273Y696606D01*
X509894Y681227D01*
X390887Y681227D01*
X390773Y681208D01*
X390656Y681191D01*
X390651Y681189D01*
X390645Y681188D01*
X390542Y681133D01*
X390437Y681080D01*
X390433Y681075D01*
X390427Y681072D01*
X390347Y680988D01*
X390265Y680904D01*
X390261Y680898D01*
X390258Y680894D01*
X390250Y680877D01*
X390184Y680757D01*
X389829Y679900D01*
X386900Y676971D01*
X383072Y675385D01*
X378928Y675385D01*
X375100Y676971D01*
X372171Y679900D01*
X370585Y683728D01*
X370585Y687872D01*
X372171Y691700D01*
X375100Y694629D01*
X378928Y696215D01*
X383072Y696215D01*
X386900Y694629D01*
X389829Y691700D01*
X390184Y690843D01*
X390246Y690743D01*
X390306Y690643D01*
X390310Y690639D01*
X390314Y690634D01*
X390404Y690559D01*
X390493Y690483D01*
X390498Y690481D01*
X390503Y690477D01*
X390612Y690435D01*
X390721Y690391D01*
X390728Y690390D01*
X390733Y690389D01*
X390751Y690388D01*
X390887Y690373D01*
X505791Y690373D01*
X505881Y690387D01*
X505972Y690395D01*
X506001Y690407D01*
X506033Y690412D01*
X506114Y690455D01*
X506198Y690491D01*
X506230Y690517D01*
X506251Y690528D01*
X506273Y690551D01*
X506329Y690596D01*
X515904Y700171D01*
X515957Y700245D01*
X516017Y700315D01*
X516029Y700345D01*
X516048Y700371D01*
X516075Y700458D01*
X516109Y700543D01*
X516113Y700584D01*
X516120Y700606D01*
X516119Y700638D01*
X516127Y700709D01*
X516127Y705275D01*
X516116Y705346D01*
X516114Y705418D01*
X516096Y705467D01*
X516088Y705518D01*
X516054Y705581D01*
X516029Y705649D01*
X515997Y705689D01*
X515972Y705735D01*
X515920Y705785D01*
X515876Y705841D01*
X515832Y705869D01*
X515794Y705905D01*
X515729Y705935D01*
X515669Y705974D01*
X515618Y705986D01*
X515571Y706008D01*
X515500Y706016D01*
X515430Y706034D01*
X515378Y706030D01*
X515327Y706036D01*
X515256Y706020D01*
X515185Y706015D01*
X515137Y705994D01*
X515086Y705983D01*
X515025Y705946D01*
X514959Y705918D01*
X514903Y705874D01*
X514875Y705857D01*
X514860Y705839D01*
X514828Y705814D01*
X511577Y702563D01*
X504423Y702563D01*
X500582Y706404D01*
X500508Y706457D01*
X500438Y706517D01*
X500408Y706529D01*
X500382Y706548D01*
X500295Y706575D01*
X500210Y706609D01*
X500169Y706613D01*
X500147Y706620D01*
X500115Y706619D01*
X500043Y706627D01*
X429906Y706627D01*
X417429Y719104D01*
X417355Y719157D01*
X417285Y719217D01*
X417255Y719229D01*
X417229Y719248D01*
X417142Y719275D01*
X417057Y719309D01*
X417016Y719313D01*
X416994Y719320D01*
X416962Y719319D01*
X416891Y719327D01*
X389439Y719327D01*
X389368Y719316D01*
X389297Y719314D01*
X389248Y719296D01*
X389196Y719288D01*
X389133Y719254D01*
X389066Y719229D01*
X389025Y719197D01*
X388979Y719172D01*
X388930Y719120D01*
X388874Y719076D01*
X388846Y719032D01*
X388810Y718994D01*
X388779Y718929D01*
X388741Y718869D01*
X388728Y718818D01*
X388706Y718771D01*
X388698Y718700D01*
X388681Y718630D01*
X388685Y718578D01*
X388679Y718527D01*
X388694Y718456D01*
X388700Y718385D01*
X388720Y718337D01*
X388731Y718286D01*
X388768Y718225D01*
X388796Y718159D01*
X388841Y718103D01*
X388857Y718075D01*
X388875Y718060D01*
X388901Y718028D01*
X389829Y717100D01*
X391415Y713272D01*
X391415Y709128D01*
X389829Y705300D01*
X386900Y702371D01*
X383072Y700785D01*
X378928Y700785D01*
X375100Y702371D01*
X372171Y705300D01*
X370585Y709128D01*
X370585Y713272D01*
X372171Y717100D01*
X373099Y718028D01*
X373141Y718086D01*
X373190Y718138D01*
X373212Y718185D01*
X373243Y718227D01*
X373264Y718296D01*
X373294Y718361D01*
X373300Y718413D01*
X373315Y718463D01*
X373313Y718534D01*
X373321Y718605D01*
X373310Y718656D01*
X373309Y718708D01*
X373284Y718776D01*
X373269Y718846D01*
X373242Y718891D01*
X373224Y718939D01*
X373179Y718995D01*
X373143Y719057D01*
X373103Y719091D01*
X373070Y719131D01*
X373010Y719170D01*
X372956Y719217D01*
X372907Y719236D01*
X372864Y719264D01*
X372794Y719282D01*
X372728Y719309D01*
X372656Y719317D01*
X372625Y719325D01*
X372602Y719323D01*
X372561Y719327D01*
X366406Y719327D01*
X357377Y728356D01*
X357377Y751194D01*
X369854Y763671D01*
X370712Y764529D01*
X370750Y764582D01*
X370796Y764629D01*
X370836Y764702D01*
X370855Y764728D01*
X370861Y764747D01*
X370877Y764776D01*
X372171Y767900D01*
X375100Y770829D01*
X378928Y772415D01*
X383072Y772415D01*
X386900Y770829D01*
X389829Y767900D01*
X391415Y764072D01*
X391415Y759928D01*
X389829Y756100D01*
X386900Y753171D01*
X383072Y751585D01*
X378928Y751585D01*
X375100Y753171D01*
X374232Y754039D01*
X374216Y754051D01*
X374204Y754066D01*
X374117Y754122D01*
X374033Y754183D01*
X374014Y754188D01*
X373997Y754199D01*
X373896Y754224D01*
X373798Y754255D01*
X373778Y754254D01*
X373758Y754259D01*
X373655Y754251D01*
X373552Y754249D01*
X373533Y754242D01*
X373513Y754240D01*
X373418Y754200D01*
X373321Y754164D01*
X373305Y754152D01*
X373287Y754144D01*
X373156Y754039D01*
X366746Y747629D01*
X366693Y747555D01*
X366633Y747485D01*
X366621Y747455D01*
X366602Y747429D01*
X366575Y747342D01*
X366541Y747257D01*
X366537Y747216D01*
X366530Y747194D01*
X366531Y747162D01*
X366523Y747091D01*
X366523Y732459D01*
X366537Y732369D01*
X366545Y732278D01*
X366557Y732249D01*
X366562Y732217D01*
X366605Y732136D01*
X366641Y732052D01*
X366667Y732020D01*
X366678Y731999D01*
X366701Y731977D01*
X366746Y731921D01*
X369971Y728696D01*
X370045Y728643D01*
X370115Y728583D01*
X370145Y728571D01*
X370171Y728552D01*
X370258Y728525D01*
X370343Y728491D01*
X370384Y728487D01*
X370406Y728480D01*
X370438Y728481D01*
X370509Y728473D01*
X372561Y728473D01*
X372632Y728484D01*
X372703Y728486D01*
X372752Y728504D01*
X372804Y728512D01*
X372867Y728546D01*
X372934Y728571D01*
X372975Y728603D01*
X373021Y728628D01*
X373070Y728680D01*
X373126Y728724D01*
X373154Y728768D01*
X373190Y728806D01*
X373221Y728871D01*
X373259Y728931D01*
X373272Y728982D01*
X373294Y729029D01*
X373302Y729100D01*
X373319Y729170D01*
X373315Y729222D01*
X373321Y729273D01*
X373306Y729344D01*
X373300Y729415D01*
X373280Y729463D01*
X373269Y729514D01*
X373232Y729575D01*
X373204Y729641D01*
X373159Y729697D01*
X373143Y729725D01*
X373125Y729740D01*
X373099Y729772D01*
X372171Y730700D01*
X370585Y734528D01*
X370585Y738672D01*
X372171Y742500D01*
X375100Y745429D01*
X378928Y747015D01*
X383072Y747015D01*
X386900Y745429D01*
X389829Y742500D01*
X390184Y741643D01*
X390246Y741543D01*
X390306Y741443D01*
X390310Y741439D01*
X390314Y741434D01*
X390404Y741359D01*
X390493Y741283D01*
X390498Y741281D01*
X390503Y741277D01*
X390612Y741235D01*
X390721Y741191D01*
X390728Y741190D01*
X390733Y741189D01*
X390751Y741188D01*
X390887Y741173D01*
X416891Y741173D01*
X416981Y741187D01*
X417072Y741195D01*
X417101Y741207D01*
X417133Y741212D01*
X417214Y741255D01*
X417298Y741291D01*
X417330Y741317D01*
X417351Y741328D01*
X417373Y741351D01*
X417429Y741396D01*
X455306Y779273D01*
X502075Y779273D01*
X502146Y779284D01*
X502218Y779286D01*
X502267Y779304D01*
X502318Y779312D01*
X502381Y779346D01*
X502449Y779371D01*
X502489Y779403D01*
X502535Y779428D01*
X502585Y779480D01*
X502641Y779524D01*
X502669Y779568D01*
X502705Y779606D01*
X502735Y779671D01*
X502774Y779731D01*
X502786Y779782D01*
X502808Y779829D01*
X502816Y779900D01*
X502834Y779970D01*
X502830Y780022D01*
X502836Y780073D01*
X502820Y780144D01*
X502815Y780215D01*
X502794Y780263D01*
X502783Y780314D01*
X502746Y780375D01*
X502718Y780441D01*
X502674Y780497D01*
X502657Y780525D01*
X502639Y780540D01*
X502614Y780572D01*
X499363Y783823D01*
X499363Y790977D01*
X502614Y794228D01*
X502655Y794286D01*
X502705Y794338D01*
X502727Y794385D01*
X502757Y794427D01*
X502778Y794496D01*
X502808Y794561D01*
X502814Y794613D01*
X502829Y794663D01*
X502828Y794734D01*
X502836Y794805D01*
X502824Y794856D01*
X502823Y794908D01*
X502798Y794976D01*
X502783Y795046D01*
X502757Y795091D01*
X502739Y795139D01*
X502694Y795195D01*
X502657Y795257D01*
X502618Y795291D01*
X502585Y795331D01*
X502525Y795370D01*
X502470Y795417D01*
X502422Y795436D01*
X502378Y795464D01*
X502309Y795482D01*
X502242Y795509D01*
X502171Y795517D01*
X502140Y795525D01*
X502116Y795523D01*
X502075Y795527D01*
X427659Y795527D01*
X427569Y795513D01*
X427478Y795505D01*
X427449Y795493D01*
X427417Y795488D01*
X427336Y795445D01*
X427252Y795409D01*
X427220Y795383D01*
X427199Y795372D01*
X427177Y795349D01*
X427121Y795304D01*
X417546Y785729D01*
X414644Y782827D01*
X390887Y782827D01*
X390773Y782808D01*
X390656Y782791D01*
X390651Y782789D01*
X390645Y782788D01*
X390542Y782733D01*
X390437Y782680D01*
X390433Y782675D01*
X390427Y782672D01*
X390347Y782588D01*
X390265Y782504D01*
X390261Y782498D01*
X390258Y782494D01*
X390250Y782477D01*
X390184Y782357D01*
X389829Y781500D01*
X386900Y778571D01*
X383072Y776985D01*
X378928Y776985D01*
X375100Y778571D01*
X372171Y781500D01*
X370585Y785328D01*
X370585Y789472D01*
X372171Y793300D01*
X375100Y796229D01*
X378928Y797815D01*
X383072Y797815D01*
X386900Y796229D01*
X389829Y793300D01*
X390184Y792443D01*
X390246Y792343D01*
X390306Y792243D01*
X390310Y792239D01*
X390314Y792234D01*
X390404Y792159D01*
X390493Y792083D01*
X390498Y792081D01*
X390503Y792077D01*
X390612Y792035D01*
X390721Y791991D01*
X390728Y791990D01*
X390733Y791989D01*
X390751Y791988D01*
X390887Y791973D01*
X410541Y791973D01*
X410631Y791987D01*
X410722Y791995D01*
X410751Y792007D01*
X410783Y792012D01*
X410864Y792055D01*
X410948Y792091D01*
X410980Y792117D01*
X411001Y792128D01*
X411012Y792140D01*
X411014Y792141D01*
X411026Y792153D01*
X411079Y792196D01*
X420654Y801771D01*
X423556Y804673D01*
X502075Y804673D01*
X502146Y804684D01*
X502218Y804686D01*
X502267Y804704D01*
X502318Y804712D01*
X502381Y804746D01*
X502449Y804771D01*
X502489Y804803D01*
X502535Y804828D01*
X502585Y804880D01*
X502641Y804924D01*
X502669Y804968D01*
X502705Y805006D01*
X502735Y805071D01*
X502774Y805131D01*
X502786Y805182D01*
X502808Y805229D01*
X502816Y805300D01*
X502834Y805370D01*
X502830Y805422D01*
X502836Y805473D01*
X502820Y805544D01*
X502815Y805615D01*
X502794Y805663D01*
X502783Y805714D01*
X502746Y805775D01*
X502718Y805841D01*
X502674Y805897D01*
X502657Y805925D01*
X502639Y805940D01*
X502614Y805972D01*
X500582Y808004D01*
X500508Y808057D01*
X500438Y808117D01*
X500408Y808129D01*
X500382Y808148D01*
X500295Y808175D01*
X500210Y808209D01*
X500169Y808213D01*
X500147Y808220D01*
X500115Y808219D01*
X500043Y808227D01*
X390887Y808227D01*
X390773Y808208D01*
X390656Y808191D01*
X390651Y808189D01*
X390645Y808188D01*
X390542Y808133D01*
X390437Y808080D01*
X390433Y808075D01*
X390427Y808072D01*
X390347Y807988D01*
X390265Y807904D01*
X390261Y807898D01*
X390258Y807894D01*
X390250Y807877D01*
X390184Y807757D01*
X389829Y806900D01*
X386900Y803971D01*
X383072Y802385D01*
X378928Y802385D01*
X375100Y803971D01*
X372171Y806900D01*
X370585Y810728D01*
X370585Y814872D01*
X372171Y818700D01*
X375100Y821629D01*
X378928Y823215D01*
X383072Y823215D01*
X386900Y821629D01*
X389829Y818700D01*
X390184Y817843D01*
X390246Y817743D01*
X390306Y817643D01*
X390310Y817639D01*
X390314Y817634D01*
X390404Y817559D01*
X390493Y817483D01*
X390498Y817481D01*
X390503Y817477D01*
X390612Y817435D01*
X390721Y817391D01*
X390728Y817390D01*
X390733Y817389D01*
X390751Y817388D01*
X390887Y817373D01*
X500043Y817373D01*
X500133Y817387D01*
X500224Y817395D01*
X500254Y817407D01*
X500286Y817412D01*
X500367Y817455D01*
X500451Y817491D01*
X500483Y817517D01*
X500503Y817528D01*
X500526Y817551D01*
X500582Y817596D01*
X504423Y821437D01*
X511577Y821437D01*
X514828Y818186D01*
X514886Y818145D01*
X514938Y818095D01*
X514985Y818073D01*
X515027Y818043D01*
X515096Y818022D01*
X515161Y817992D01*
X515213Y817986D01*
X515263Y817971D01*
X515334Y817972D01*
X515405Y817964D01*
X515456Y817976D01*
X515508Y817977D01*
X515576Y818002D01*
X515646Y818017D01*
X515691Y818043D01*
X515739Y818061D01*
X515795Y818106D01*
X515857Y818143D01*
X515891Y818182D01*
X515931Y818215D01*
X515970Y818275D01*
X516017Y818330D01*
X516036Y818378D01*
X516064Y818422D01*
X516082Y818491D01*
X516109Y818558D01*
X516117Y818629D01*
X516125Y818660D01*
X516123Y818684D01*
X516127Y818725D01*
X516127Y827394D01*
X524540Y835807D01*
X524593Y835881D01*
X524653Y835951D01*
X524665Y835981D01*
X524684Y836007D01*
X524711Y836094D01*
X524745Y836179D01*
X524749Y836220D01*
X524756Y836242D01*
X524755Y836274D01*
X524763Y836345D01*
X524763Y841777D01*
X529823Y846837D01*
X536977Y846837D01*
X542037Y841777D01*
X542037Y834623D01*
X536977Y829563D01*
X531545Y829563D01*
X531455Y829549D01*
X531364Y829541D01*
X531335Y829529D01*
X531303Y829524D01*
X531222Y829481D01*
X531138Y829445D01*
X531106Y829419D01*
X531085Y829408D01*
X531063Y829385D01*
X531007Y829340D01*
X525496Y823829D01*
X525443Y823755D01*
X525383Y823685D01*
X525371Y823655D01*
X525352Y823629D01*
X525325Y823542D01*
X525291Y823457D01*
X525287Y823416D01*
X525280Y823394D01*
X525281Y823362D01*
X525273Y823291D01*
X525273Y818725D01*
X525284Y818654D01*
X525286Y818582D01*
X525304Y818533D01*
X525312Y818482D01*
X525346Y818419D01*
X525371Y818351D01*
X525403Y818311D01*
X525428Y818265D01*
X525480Y818215D01*
X525524Y818159D01*
X525568Y818131D01*
X525606Y818095D01*
X525671Y818065D01*
X525731Y818026D01*
X525782Y818014D01*
X525829Y817992D01*
X525900Y817984D01*
X525970Y817966D01*
X526022Y817970D01*
X526073Y817964D01*
X526144Y817980D01*
X526215Y817985D01*
X526263Y818006D01*
X526314Y818017D01*
X526375Y818054D01*
X526441Y818082D01*
X526497Y818126D01*
X526525Y818143D01*
X526540Y818161D01*
X526572Y818186D01*
X529823Y821437D01*
X536977Y821437D01*
X542037Y816377D01*
X542037Y809223D01*
X538196Y805382D01*
X538143Y805308D01*
X538083Y805238D01*
X538071Y805208D01*
X538052Y805182D01*
X538025Y805095D01*
X537991Y805010D01*
X537987Y804969D01*
X537980Y804947D01*
X537981Y804915D01*
X537973Y804843D01*
X537973Y804556D01*
X530753Y797336D01*
X530711Y797278D01*
X530662Y797226D01*
X530640Y797179D01*
X530610Y797137D01*
X530588Y797068D01*
X530558Y797003D01*
X530553Y796951D01*
X530537Y796901D01*
X530539Y796830D01*
X530531Y796759D01*
X530542Y796708D01*
X530544Y796656D01*
X530568Y796588D01*
X530583Y796518D01*
X530610Y796473D01*
X530628Y796425D01*
X530673Y796369D01*
X530710Y796307D01*
X530749Y796273D01*
X530782Y796233D01*
X530842Y796194D01*
X530896Y796147D01*
X530945Y796128D01*
X530989Y796100D01*
X531058Y796082D01*
X531125Y796055D01*
X531196Y796047D01*
X531227Y796039D01*
X531250Y796041D01*
X531291Y796037D01*
X536977Y796037D01*
X542037Y790977D01*
X542037Y785545D01*
X542051Y785455D01*
X542059Y785364D01*
X542071Y785335D01*
X542076Y785303D01*
X542119Y785222D01*
X542155Y785138D01*
X542181Y785106D01*
X542192Y785085D01*
X542215Y785063D01*
X542260Y785007D01*
X552928Y774339D01*
X552986Y774297D01*
X553038Y774248D01*
X553085Y774226D01*
X553127Y774196D01*
X553196Y774174D01*
X553261Y774144D01*
X553313Y774139D01*
X553363Y774123D01*
X553434Y774125D01*
X553505Y774117D01*
X553556Y774128D01*
X553608Y774130D01*
X553676Y774154D01*
X553746Y774169D01*
X553791Y774196D01*
X553839Y774214D01*
X553895Y774259D01*
X553957Y774296D01*
X553991Y774335D01*
X554031Y774368D01*
X554070Y774428D01*
X554117Y774482D01*
X554136Y774531D01*
X554164Y774575D01*
X554182Y774644D01*
X554209Y774711D01*
X554217Y774782D01*
X554225Y774813D01*
X554223Y774836D01*
X554227Y774877D01*
X554227Y835991D01*
X554213Y836081D01*
X554205Y836172D01*
X554193Y836201D01*
X554188Y836233D01*
X554145Y836314D01*
X554109Y836398D01*
X554083Y836430D01*
X554072Y836451D01*
X554049Y836473D01*
X554004Y836529D01*
X535793Y854740D01*
X535719Y854793D01*
X535649Y854853D01*
X535619Y854865D01*
X535593Y854884D01*
X535506Y854911D01*
X535421Y854945D01*
X535380Y854949D01*
X535358Y854956D01*
X535326Y854955D01*
X535255Y854963D01*
X529823Y854963D01*
X524763Y860023D01*
X524763Y867177D01*
X529823Y872237D01*
X536977Y872237D01*
X542037Y867177D01*
X542037Y861745D01*
X542051Y861655D01*
X542059Y861564D01*
X542071Y861535D01*
X542076Y861503D01*
X542119Y861422D01*
X542155Y861338D01*
X542181Y861306D01*
X542192Y861285D01*
X542215Y861263D01*
X542260Y861207D01*
X560471Y842996D01*
X563373Y840094D01*
X563373Y694335D01*
X560471Y691433D01*
X521417Y652379D01*
X518515Y649477D01*
X472109Y649477D01*
X472019Y649463D01*
X471928Y649455D01*
X471899Y649443D01*
X471867Y649438D01*
X471786Y649395D01*
X471702Y649359D01*
X471670Y649333D01*
X471649Y649322D01*
X471627Y649299D01*
X471571Y649254D01*
X442946Y620629D01*
X442893Y620555D01*
X442833Y620485D01*
X442821Y620455D01*
X442802Y620429D01*
X442775Y620342D01*
X442741Y620257D01*
X442737Y620216D01*
X442730Y620194D01*
X442731Y620162D01*
X442723Y620091D01*
X442723Y595006D01*
X401944Y554227D01*
X390887Y554227D01*
X390773Y554208D01*
X390656Y554191D01*
X390651Y554189D01*
X390645Y554188D01*
X390542Y554133D01*
X390437Y554080D01*
X390433Y554075D01*
X390427Y554072D01*
X390347Y553988D01*
X390265Y553904D01*
X390261Y553898D01*
X390258Y553894D01*
X390250Y553877D01*
X390184Y553757D01*
X389829Y552900D01*
X388901Y551972D01*
X388859Y551914D01*
X388810Y551862D01*
X388788Y551815D01*
X388757Y551773D01*
X388736Y551704D01*
X388706Y551639D01*
X388700Y551587D01*
X388685Y551537D01*
X388687Y551466D01*
X388679Y551395D01*
X388690Y551344D01*
X388691Y551292D01*
X388716Y551224D01*
X388731Y551154D01*
X388758Y551109D01*
X388776Y551061D01*
X388821Y551005D01*
X388857Y550943D01*
X388897Y550909D01*
X388930Y550869D01*
X388990Y550830D01*
X389044Y550783D01*
X389093Y550764D01*
X389136Y550736D01*
X389206Y550718D01*
X389272Y550691D01*
X389344Y550683D01*
X389375Y550675D01*
X389398Y550677D01*
X389439Y550673D01*
X408294Y550673D01*
X423673Y535294D01*
X423673Y503859D01*
X423687Y503769D01*
X423695Y503678D01*
X423707Y503649D01*
X423712Y503617D01*
X423755Y503536D01*
X423791Y503452D01*
X423817Y503420D01*
X423828Y503399D01*
X423851Y503377D01*
X423896Y503321D01*
X438272Y488945D01*
X438288Y488933D01*
X438301Y488917D01*
X438388Y488861D01*
X438472Y488801D01*
X438491Y488795D01*
X438508Y488784D01*
X438608Y488759D01*
X438707Y488729D01*
X438727Y488729D01*
X438746Y488724D01*
X438849Y488732D01*
X438953Y488735D01*
X438972Y488742D01*
X438992Y488743D01*
X439086Y488784D01*
X439184Y488819D01*
X439200Y488832D01*
X439218Y488840D01*
X439349Y488945D01*
X441133Y490729D01*
X447867Y490729D01*
X452629Y485967D01*
X452629Y479233D01*
X447867Y474471D01*
X441133Y474471D01*
X437800Y477804D01*
X437726Y477857D01*
X437657Y477917D01*
X437626Y477929D01*
X437600Y477948D01*
X437513Y477975D01*
X437428Y478009D01*
X437387Y478013D01*
X437365Y478020D01*
X437333Y478019D01*
X437262Y478027D01*
X436256Y478027D01*
X414527Y499756D01*
X414527Y531191D01*
X414513Y531281D01*
X414505Y531372D01*
X414493Y531401D01*
X414488Y531433D01*
X414445Y531514D01*
X414409Y531598D01*
X414383Y531630D01*
X414372Y531651D01*
X414349Y531673D01*
X414304Y531729D01*
X404729Y541304D01*
X404655Y541357D01*
X404585Y541417D01*
X404555Y541429D01*
X404529Y541448D01*
X404442Y541475D01*
X404357Y541509D01*
X404316Y541513D01*
X404294Y541520D01*
X404262Y541519D01*
X404191Y541527D01*
X389439Y541527D01*
X389368Y541516D01*
X389297Y541514D01*
X389248Y541496D01*
X389196Y541488D01*
X389133Y541454D01*
X389066Y541429D01*
X389025Y541397D01*
X388979Y541372D01*
X388930Y541320D01*
X388874Y541276D01*
X388846Y541232D01*
X388810Y541194D01*
X388779Y541129D01*
X388741Y541069D01*
X388728Y541018D01*
X388706Y540971D01*
X388698Y540900D01*
X388681Y540830D01*
X388685Y540778D01*
X388679Y540727D01*
X388694Y540656D01*
X388700Y540585D01*
X388720Y540537D01*
X388731Y540486D01*
X388768Y540425D01*
X388796Y540359D01*
X388841Y540303D01*
X388857Y540275D01*
X388875Y540260D01*
X388901Y540228D01*
X389829Y539300D01*
X391415Y535472D01*
X391415Y531328D01*
X389829Y527500D01*
X388901Y526572D01*
X388859Y526514D01*
X388810Y526462D01*
X388788Y526415D01*
X388757Y526373D01*
X388736Y526304D01*
X388706Y526239D01*
X388700Y526187D01*
X388685Y526137D01*
X388687Y526066D01*
X388679Y525995D01*
X388690Y525944D01*
X388691Y525892D01*
X388716Y525824D01*
X388731Y525754D01*
X388758Y525709D01*
X388776Y525661D01*
X388821Y525605D01*
X388857Y525543D01*
X388897Y525509D01*
X388930Y525469D01*
X388990Y525430D01*
X389044Y525383D01*
X389093Y525364D01*
X389136Y525336D01*
X389206Y525318D01*
X389272Y525291D01*
X389344Y525283D01*
X389375Y525275D01*
X389398Y525277D01*
X389439Y525273D01*
X395594Y525273D01*
X410973Y509894D01*
X410973Y497509D01*
X410987Y497419D01*
X410995Y497328D01*
X411007Y497299D01*
X411012Y497267D01*
X411055Y497186D01*
X411091Y497102D01*
X411117Y497070D01*
X411128Y497049D01*
X411151Y497027D01*
X411196Y496971D01*
X439821Y468346D01*
X439895Y468293D01*
X439965Y468233D01*
X439995Y468221D01*
X440021Y468202D01*
X440108Y468175D01*
X440193Y468141D01*
X440234Y468137D01*
X440256Y468130D01*
X440288Y468131D01*
X440359Y468123D01*
X448641Y468123D01*
X448731Y468137D01*
X448822Y468145D01*
X448851Y468157D01*
X448883Y468162D01*
X448964Y468205D01*
X449048Y468241D01*
X449080Y468267D01*
X449101Y468278D01*
X449123Y468301D01*
X449179Y468346D01*
X458754Y477921D01*
X458807Y477995D01*
X458867Y478065D01*
X458879Y478095D01*
X458898Y478121D01*
X458925Y478208D01*
X458959Y478293D01*
X458963Y478334D01*
X458970Y478356D01*
X458969Y478388D01*
X458977Y478459D01*
X458977Y575641D01*
X458963Y575731D01*
X458955Y575822D01*
X458943Y575851D01*
X458938Y575883D01*
X458895Y575964D01*
X458859Y576048D01*
X458833Y576080D01*
X458822Y576101D01*
X458799Y576123D01*
X458754Y576179D01*
X452627Y582306D01*
X452627Y624194D01*
X474102Y645669D01*
X554066Y645669D01*
X554156Y645683D01*
X554247Y645691D01*
X554276Y645703D01*
X554308Y645708D01*
X554389Y645751D01*
X554473Y645787D01*
X554505Y645813D01*
X554526Y645824D01*
X554548Y645847D01*
X554604Y645892D01*
X567081Y658369D01*
X623916Y658369D01*
X624006Y658383D01*
X624097Y658391D01*
X624126Y658403D01*
X624158Y658408D01*
X624239Y658451D01*
X624323Y658487D01*
X624355Y658513D01*
X624376Y658524D01*
X624398Y658547D01*
X624454Y658592D01*
X636808Y670946D01*
X636861Y671020D01*
X636921Y671090D01*
X636933Y671120D01*
X636952Y671146D01*
X636979Y671233D01*
X637013Y671318D01*
X637017Y671359D01*
X637024Y671381D01*
X637023Y671413D01*
X637031Y671484D01*
X637031Y778587D01*
X637017Y778677D01*
X637009Y778768D01*
X636997Y778797D01*
X636992Y778829D01*
X636949Y778910D01*
X636913Y778994D01*
X636887Y779026D01*
X636876Y779047D01*
X636853Y779069D01*
X636808Y779125D01*
X598677Y817256D01*
X598677Y865494D01*
X615956Y882773D01*
X620795Y882773D01*
X620885Y882787D01*
X620976Y882795D01*
X621006Y882807D01*
X621038Y882812D01*
X621118Y882855D01*
X621202Y882891D01*
X621234Y882917D01*
X621255Y882928D01*
X621277Y882951D01*
X621333Y882996D01*
X623798Y885461D01*
X626946Y886765D01*
X630354Y886765D01*
X633502Y885461D01*
X635911Y883052D01*
X637215Y879904D01*
X637215Y876496D01*
X635911Y873348D01*
X633502Y870939D01*
X630354Y869635D01*
X626946Y869635D01*
X623798Y870939D01*
X621333Y873404D01*
X621259Y873457D01*
X621190Y873517D01*
X621160Y873529D01*
X621134Y873548D01*
X621047Y873575D01*
X620962Y873609D01*
X620921Y873613D01*
X620898Y873620D01*
X620866Y873619D01*
X620795Y873627D01*
X620059Y873627D01*
X619969Y873613D01*
X619878Y873605D01*
X619849Y873593D01*
X619817Y873588D01*
X619736Y873545D01*
X619652Y873509D01*
X619620Y873483D01*
X619599Y873472D01*
X619577Y873449D01*
X619521Y873404D01*
X608046Y861929D01*
X607993Y861855D01*
X607933Y861785D01*
X607921Y861755D01*
X607902Y861729D01*
X607875Y861642D01*
X607841Y861557D01*
X607837Y861516D01*
X607830Y861494D01*
X607831Y861462D01*
X607823Y861391D01*
X607823Y821359D01*
X607837Y821269D01*
X607845Y821178D01*
X607857Y821149D01*
X607862Y821117D01*
X607905Y821036D01*
X607941Y820952D01*
X607967Y820920D01*
X607978Y820899D01*
X608001Y820877D01*
X608046Y820821D01*
X641828Y787039D01*
X641886Y786997D01*
X641938Y786948D01*
X641985Y786926D01*
X642027Y786896D01*
X642096Y786874D01*
X642161Y786844D01*
X642213Y786838D01*
X642263Y786823D01*
X642334Y786825D01*
X642405Y786817D01*
X642456Y786828D01*
X642508Y786830D01*
X642576Y786854D01*
X642646Y786869D01*
X642691Y786896D01*
X642739Y786914D01*
X642795Y786959D01*
X642857Y786996D01*
X642891Y787035D01*
X642931Y787068D01*
X642970Y787128D01*
X643017Y787182D01*
X643036Y787231D01*
X643064Y787275D01*
X643082Y787344D01*
X643109Y787411D01*
X643117Y787482D01*
X643125Y787513D01*
X643123Y787536D01*
X643127Y787577D01*
X643127Y848691D01*
X643113Y848781D01*
X643105Y848872D01*
X643093Y848901D01*
X643088Y848933D01*
X643045Y849014D01*
X643009Y849098D01*
X642983Y849130D01*
X642972Y849151D01*
X642949Y849173D01*
X642904Y849229D01*
X638729Y853404D01*
X638655Y853457D01*
X638585Y853517D01*
X638555Y853529D01*
X638529Y853548D01*
X638442Y853575D01*
X638357Y853609D01*
X638316Y853613D01*
X638294Y853620D01*
X638262Y853619D01*
X638191Y853627D01*
X636505Y853627D01*
X636415Y853613D01*
X636324Y853605D01*
X636294Y853593D01*
X636262Y853588D01*
X636182Y853545D01*
X636098Y853509D01*
X636066Y853483D01*
X636045Y853472D01*
X636023Y853449D01*
X635967Y853404D01*
X633502Y850939D01*
X630354Y849635D01*
X626946Y849635D01*
X623798Y850939D01*
X621389Y853348D01*
X620085Y856496D01*
X620085Y859904D01*
X621389Y863052D01*
X623798Y865461D01*
X626946Y866765D01*
X630354Y866765D01*
X633502Y865461D01*
X635967Y862996D01*
X636041Y862943D01*
X636110Y862883D01*
X636140Y862871D01*
X636166Y862852D01*
X636253Y862825D01*
X636338Y862791D01*
X636379Y862787D01*
X636402Y862780D01*
X636434Y862781D01*
X636505Y862773D01*
X642294Y862773D01*
X652273Y852794D01*
X652273Y664856D01*
X630544Y643127D01*
X573709Y643127D01*
X573619Y643113D01*
X573528Y643105D01*
X573499Y643093D01*
X573467Y643088D01*
X573386Y643045D01*
X573302Y643009D01*
X573270Y642983D01*
X573249Y642972D01*
X573227Y642949D01*
X573171Y642904D01*
X560694Y630427D01*
X480730Y630427D01*
X480640Y630413D01*
X480549Y630405D01*
X480520Y630393D01*
X480488Y630388D01*
X480407Y630345D01*
X480323Y630309D01*
X480291Y630283D01*
X480270Y630272D01*
X480248Y630249D01*
X480192Y630204D01*
X468346Y618358D01*
X468293Y618284D01*
X468233Y618214D01*
X468221Y618184D01*
X468202Y618158D01*
X468175Y618071D01*
X468141Y617986D01*
X468137Y617945D01*
X468130Y617923D01*
X468131Y617891D01*
X468123Y617820D01*
X468123Y588680D01*
X468137Y588590D01*
X468145Y588499D01*
X468157Y588470D01*
X468162Y588438D01*
X468205Y588357D01*
X468241Y588273D01*
X468267Y588241D01*
X468278Y588220D01*
X468301Y588198D01*
X468346Y588142D01*
X474473Y582015D01*
X474473Y558977D01*
X474484Y558907D01*
X474486Y558835D01*
X474504Y558786D01*
X474512Y558735D01*
X474546Y558671D01*
X474571Y558604D01*
X474603Y558563D01*
X474628Y558517D01*
X474680Y558468D01*
X474724Y558412D01*
X474768Y558384D01*
X474806Y558348D01*
X474871Y558318D01*
X474931Y558279D01*
X474982Y558266D01*
X475029Y558244D01*
X475100Y558236D01*
X475170Y558219D01*
X475222Y558223D01*
X475273Y558217D01*
X475344Y558232D01*
X475415Y558238D01*
X475463Y558258D01*
X475514Y558269D01*
X475575Y558306D01*
X475641Y558334D01*
X475697Y558379D01*
X475725Y558396D01*
X475740Y558413D01*
X475772Y558439D01*
X487056Y569723D01*
X524841Y569723D01*
X524931Y569737D01*
X525022Y569745D01*
X525051Y569757D01*
X525083Y569762D01*
X525164Y569805D01*
X525248Y569841D01*
X525280Y569867D01*
X525301Y569878D01*
X525323Y569901D01*
X525379Y569946D01*
X537856Y582423D01*
X575641Y582423D01*
X575731Y582437D01*
X575822Y582445D01*
X575851Y582457D01*
X575883Y582462D01*
X575964Y582505D01*
X576048Y582541D01*
X576080Y582567D01*
X576101Y582578D01*
X576123Y582601D01*
X576179Y582646D01*
X579404Y585871D01*
X579457Y585945D01*
X579517Y586015D01*
X579529Y586045D01*
X579548Y586071D01*
X579575Y586158D01*
X579609Y586243D01*
X579613Y586284D01*
X579620Y586306D01*
X579619Y586338D01*
X579627Y586409D01*
X579627Y590257D01*
X579624Y590276D01*
X579626Y590294D01*
X579615Y590344D01*
X579614Y590399D01*
X579596Y590448D01*
X579588Y590500D01*
X579577Y590519D01*
X579574Y590534D01*
X579549Y590575D01*
X579529Y590630D01*
X579497Y590671D01*
X579472Y590717D01*
X579455Y590734D01*
X579448Y590745D01*
X579414Y590774D01*
X579376Y590822D01*
X579332Y590851D01*
X579294Y590886D01*
X579270Y590898D01*
X579261Y590905D01*
X579223Y590921D01*
X579169Y590955D01*
X579118Y590968D01*
X579071Y590990D01*
X579043Y590993D01*
X579033Y590997D01*
X578978Y591003D01*
X578930Y591015D01*
X578894Y591013D01*
X578866Y591016D01*
X578864Y591016D01*
X578854Y591014D01*
X578827Y591017D01*
X578756Y591002D01*
X578685Y590996D01*
X578648Y590980D01*
X578621Y590976D01*
X578609Y590970D01*
X578586Y590965D01*
X578525Y590928D01*
X578459Y590900D01*
X578422Y590871D01*
X578403Y590861D01*
X578392Y590849D01*
X578375Y590839D01*
X578360Y590821D01*
X578328Y590795D01*
X575288Y587755D01*
X573023Y587755D01*
X573023Y596138D01*
X573020Y596158D01*
X573022Y596177D01*
X573000Y596279D01*
X572983Y596381D01*
X572974Y596398D01*
X572970Y596418D01*
X572917Y596507D01*
X572868Y596598D01*
X572854Y596612D01*
X572844Y596629D01*
X572765Y596696D01*
X572690Y596767D01*
X572672Y596776D01*
X572657Y596789D01*
X572561Y596827D01*
X572467Y596871D01*
X572447Y596873D01*
X572429Y596881D01*
X572262Y596899D01*
X571499Y596899D01*
X571499Y596901D01*
X572262Y596901D01*
X572282Y596904D01*
X572301Y596902D01*
X572403Y596924D01*
X572505Y596941D01*
X572522Y596950D01*
X572542Y596954D01*
X572631Y597007D01*
X572722Y597056D01*
X572736Y597070D01*
X572753Y597080D01*
X572820Y597159D01*
X572891Y597234D01*
X572900Y597252D01*
X572913Y597267D01*
X572952Y597363D01*
X572995Y597457D01*
X572997Y597477D01*
X573005Y597495D01*
X573023Y597662D01*
X573023Y606045D01*
X575288Y606045D01*
X578328Y603005D01*
X578386Y602963D01*
X578438Y602914D01*
X578485Y602892D01*
X578527Y602861D01*
X578596Y602840D01*
X578661Y602810D01*
X578713Y602804D01*
X578763Y602789D01*
X578834Y602791D01*
X578905Y602783D01*
X578956Y602794D01*
X579008Y602795D01*
X579076Y602820D01*
X579146Y602835D01*
X579191Y602862D01*
X579239Y602880D01*
X579295Y602925D01*
X579357Y602961D01*
X579391Y603001D01*
X579431Y603033D01*
X579470Y603094D01*
X579517Y603148D01*
X579536Y603197D01*
X579564Y603240D01*
X579582Y603310D01*
X579609Y603376D01*
X579617Y603448D01*
X579625Y603479D01*
X579623Y603502D01*
X579627Y603543D01*
X579627Y608712D01*
X579613Y608802D01*
X579605Y608893D01*
X579593Y608922D01*
X579588Y608954D01*
X579545Y609035D01*
X579509Y609119D01*
X579483Y609151D01*
X579472Y609172D01*
X579449Y609194D01*
X579404Y609250D01*
X576071Y612583D01*
X576071Y619317D01*
X580833Y624079D01*
X587567Y624079D01*
X592329Y619317D01*
X592329Y612583D01*
X588996Y609250D01*
X588943Y609176D01*
X588883Y609107D01*
X588871Y609076D01*
X588852Y609050D01*
X588825Y608963D01*
X588791Y608878D01*
X588787Y608837D01*
X588780Y608815D01*
X588781Y608783D01*
X588773Y608712D01*
X588773Y602106D01*
X588784Y602036D01*
X588786Y601964D01*
X588804Y601915D01*
X588812Y601864D01*
X588846Y601800D01*
X588871Y601733D01*
X588903Y601692D01*
X588928Y601646D01*
X588980Y601597D01*
X589024Y601541D01*
X589068Y601513D01*
X589106Y601477D01*
X589171Y601447D01*
X589231Y601408D01*
X589282Y601395D01*
X589329Y601373D01*
X589400Y601365D01*
X589470Y601348D01*
X589522Y601352D01*
X589573Y601346D01*
X589644Y601361D01*
X589715Y601367D01*
X589763Y601387D01*
X589814Y601398D01*
X589875Y601435D01*
X589941Y601463D01*
X589997Y601508D01*
X590025Y601525D01*
X590040Y601542D01*
X590072Y601568D01*
X593533Y605029D01*
X600267Y605029D01*
X605029Y600267D01*
X605029Y593533D01*
X600267Y588771D01*
X593533Y588771D01*
X590072Y592232D01*
X590014Y592274D01*
X589962Y592323D01*
X589915Y592345D01*
X589873Y592376D01*
X589804Y592397D01*
X589739Y592427D01*
X589687Y592433D01*
X589637Y592448D01*
X589566Y592446D01*
X589495Y592454D01*
X589444Y592443D01*
X589392Y592442D01*
X589324Y592417D01*
X589254Y592402D01*
X589209Y592375D01*
X589161Y592357D01*
X589105Y592312D01*
X589043Y592275D01*
X589009Y592236D01*
X588969Y592203D01*
X588930Y592143D01*
X588883Y592089D01*
X588864Y592040D01*
X588836Y591996D01*
X588818Y591927D01*
X588791Y591860D01*
X588783Y591789D01*
X588775Y591758D01*
X588777Y591735D01*
X588773Y591694D01*
X588773Y582306D01*
X579744Y573277D01*
X541959Y573277D01*
X541869Y573263D01*
X541778Y573255D01*
X541749Y573243D01*
X541717Y573238D01*
X541636Y573195D01*
X541552Y573159D01*
X541520Y573133D01*
X541499Y573122D01*
X541477Y573099D01*
X541421Y573054D01*
X528944Y560577D01*
X491159Y560577D01*
X491069Y560563D01*
X490978Y560555D01*
X490949Y560543D01*
X490917Y560538D01*
X490836Y560495D01*
X490752Y560459D01*
X490720Y560433D01*
X490699Y560422D01*
X490689Y560412D01*
X490688Y560411D01*
X490675Y560397D01*
X490621Y560354D01*
X481046Y550779D01*
X480993Y550705D01*
X480933Y550635D01*
X480921Y550605D01*
X480902Y550579D01*
X480875Y550492D01*
X480841Y550407D01*
X480837Y550366D01*
X480830Y550344D01*
X480831Y550312D01*
X480823Y550241D01*
X480823Y448956D01*
X465444Y433577D01*
X440359Y433577D01*
X440269Y433563D01*
X440178Y433555D01*
X440149Y433543D01*
X440117Y433538D01*
X440036Y433495D01*
X439952Y433459D01*
X439920Y433433D01*
X439899Y433422D01*
X439877Y433399D01*
X439821Y433354D01*
X437789Y431322D01*
X437747Y431264D01*
X437698Y431212D01*
X437676Y431165D01*
X437646Y431123D01*
X437624Y431054D01*
X437594Y430989D01*
X437589Y430937D01*
X437573Y430887D01*
X437575Y430816D01*
X437567Y430745D01*
X437578Y430694D01*
X437580Y430642D01*
X437604Y430574D01*
X437619Y430504D01*
X437646Y430459D01*
X437664Y430411D01*
X437709Y430355D01*
X437746Y430293D01*
X437785Y430259D01*
X437818Y430219D01*
X437878Y430180D01*
X437932Y430133D01*
X437981Y430114D01*
X438025Y430086D01*
X438094Y430068D01*
X438161Y430041D01*
X438232Y430033D01*
X438263Y430025D01*
X438286Y430027D01*
X438327Y430023D01*
X553466Y430023D01*
X553486Y430026D01*
X553505Y430024D01*
X553607Y430046D01*
X553709Y430062D01*
X553726Y430072D01*
X553746Y430076D01*
X553835Y430129D01*
X553926Y430178D01*
X553940Y430192D01*
X553957Y430202D01*
X554024Y430281D01*
X554096Y430356D01*
X554104Y430374D01*
X554117Y430389D01*
X554156Y430485D01*
X554199Y430579D01*
X554201Y430599D01*
X554209Y430617D01*
X554227Y430784D01*
X554227Y438786D01*
X554225Y438797D01*
X554226Y438805D01*
X554217Y438845D01*
X554216Y438856D01*
X554214Y438928D01*
X554196Y438977D01*
X554188Y439028D01*
X554154Y439092D01*
X554129Y439159D01*
X554097Y439200D01*
X554072Y439246D01*
X554020Y439295D01*
X553976Y439351D01*
X553932Y439379D01*
X553894Y439415D01*
X553829Y439445D01*
X553769Y439484D01*
X553718Y439497D01*
X553671Y439519D01*
X553600Y439527D01*
X553530Y439544D01*
X553478Y439540D01*
X553427Y439546D01*
X553356Y439531D01*
X553285Y439525D01*
X553237Y439505D01*
X553186Y439494D01*
X553125Y439457D01*
X553059Y439429D01*
X553003Y439384D01*
X552975Y439367D01*
X552960Y439350D01*
X552928Y439324D01*
X550705Y437101D01*
X547717Y435863D01*
X544483Y435863D01*
X541495Y437101D01*
X539209Y439387D01*
X537971Y442375D01*
X537971Y458817D01*
X539209Y461805D01*
X541495Y464091D01*
X544483Y465329D01*
X547717Y465329D01*
X550705Y464091D01*
X552928Y461868D01*
X552986Y461826D01*
X553038Y461777D01*
X553085Y461755D01*
X553127Y461724D01*
X553196Y461703D01*
X553261Y461673D01*
X553313Y461667D01*
X553363Y461652D01*
X553434Y461654D01*
X553505Y461646D01*
X553556Y461657D01*
X553608Y461658D01*
X553676Y461683D01*
X553746Y461698D01*
X553791Y461725D01*
X553839Y461743D01*
X553895Y461788D01*
X553957Y461825D01*
X553991Y461864D01*
X554031Y461897D01*
X554070Y461957D01*
X554117Y462011D01*
X554136Y462060D01*
X554164Y462104D01*
X554182Y462173D01*
X554209Y462240D01*
X554217Y462311D01*
X554225Y462342D01*
X554223Y462365D01*
X554227Y462406D01*
X554227Y480391D01*
X554213Y480481D01*
X554205Y480572D01*
X554193Y480601D01*
X554188Y480633D01*
X554145Y480714D01*
X554109Y480798D01*
X554083Y480830D01*
X554072Y480851D01*
X554049Y480873D01*
X554004Y480929D01*
X544429Y490504D01*
X541527Y493406D01*
X541527Y526162D01*
X541513Y526252D01*
X541505Y526343D01*
X541493Y526372D01*
X541488Y526404D01*
X541445Y526485D01*
X541409Y526569D01*
X541383Y526601D01*
X541372Y526622D01*
X541349Y526644D01*
X541304Y526700D01*
X539209Y528795D01*
X537971Y531783D01*
X537971Y548225D01*
X539209Y551213D01*
X541495Y553499D01*
X544483Y554737D01*
X547717Y554737D01*
X550705Y553499D01*
X552991Y551213D01*
X554229Y548225D01*
X554229Y531783D01*
X552991Y528795D01*
X550896Y526700D01*
X550843Y526626D01*
X550783Y526557D01*
X550771Y526526D01*
X550752Y526500D01*
X550725Y526413D01*
X550691Y526328D01*
X550687Y526287D01*
X550680Y526265D01*
X550681Y526233D01*
X550673Y526162D01*
X550673Y497509D01*
X550687Y497419D01*
X550695Y497328D01*
X550707Y497299D01*
X550712Y497267D01*
X550755Y497186D01*
X550791Y497102D01*
X550817Y497070D01*
X550828Y497049D01*
X550851Y497027D01*
X550896Y496971D01*
X560471Y487396D01*
X563373Y484494D01*
X563373Y462406D01*
X563384Y462336D01*
X563386Y462264D01*
X563404Y462215D01*
X563412Y462164D01*
X563446Y462100D01*
X563471Y462033D01*
X563503Y461992D01*
X563528Y461946D01*
X563580Y461897D01*
X563624Y461841D01*
X563668Y461813D01*
X563706Y461777D01*
X563771Y461747D01*
X563831Y461708D01*
X563882Y461695D01*
X563929Y461673D01*
X564000Y461665D01*
X564070Y461648D01*
X564122Y461652D01*
X564173Y461646D01*
X564244Y461661D01*
X564315Y461667D01*
X564363Y461687D01*
X564414Y461698D01*
X564475Y461735D01*
X564541Y461763D01*
X564597Y461808D01*
X564625Y461825D01*
X564640Y461842D01*
X564672Y461868D01*
X566895Y464091D01*
X569883Y465329D01*
X573117Y465329D01*
X576105Y464091D01*
X578391Y461805D01*
X579629Y458817D01*
X579629Y442375D01*
X578391Y439387D01*
X576105Y437101D01*
X573117Y435863D01*
X569883Y435863D01*
X566895Y437101D01*
X564672Y439324D01*
X564614Y439366D01*
X564562Y439415D01*
X564515Y439437D01*
X564473Y439468D01*
X564404Y439489D01*
X564339Y439519D01*
X564287Y439525D01*
X564237Y439540D01*
X564166Y439538D01*
X564095Y439546D01*
X564044Y439535D01*
X563992Y439534D01*
X563924Y439509D01*
X563854Y439494D01*
X563809Y439467D01*
X563761Y439449D01*
X563705Y439404D01*
X563643Y439367D01*
X563609Y439328D01*
X563569Y439295D01*
X563530Y439235D01*
X563483Y439181D01*
X563464Y439132D01*
X563436Y439088D01*
X563418Y439019D01*
X563391Y438952D01*
X563383Y438881D01*
X563375Y438850D01*
X563377Y438827D01*
X563373Y438786D01*
X563373Y408609D01*
X563387Y408519D01*
X563395Y408428D01*
X563407Y408399D01*
X563412Y408367D01*
X563455Y408286D01*
X563491Y408202D01*
X563517Y408170D01*
X563528Y408149D01*
X563551Y408127D01*
X563596Y408071D01*
X569615Y402052D01*
X569689Y401999D01*
X569759Y401939D01*
X569789Y401927D01*
X569815Y401908D01*
X569902Y401881D01*
X569987Y401847D01*
X570028Y401843D01*
X570050Y401836D01*
X570082Y401837D01*
X570153Y401829D01*
X574867Y401829D01*
X579629Y397067D01*
X579629Y390333D01*
X574867Y385571D01*
X568133Y385571D01*
X563371Y390333D01*
X563371Y395047D01*
X563357Y395137D01*
X563349Y395228D01*
X563337Y395257D01*
X563332Y395289D01*
X563289Y395370D01*
X563253Y395454D01*
X563227Y395486D01*
X563216Y395507D01*
X563193Y395529D01*
X563148Y395585D01*
X557129Y401604D01*
X554227Y404506D01*
X554227Y420116D01*
X554224Y420136D01*
X554226Y420155D01*
X554204Y420257D01*
X554188Y420359D01*
X554178Y420376D01*
X554174Y420396D01*
X554121Y420485D01*
X554072Y420576D01*
X554058Y420590D01*
X554048Y420607D01*
X553969Y420674D01*
X553894Y420746D01*
X553876Y420754D01*
X553861Y420767D01*
X553765Y420806D01*
X553671Y420849D01*
X553651Y420851D01*
X553633Y420859D01*
X553466Y420877D01*
X538860Y420877D01*
X538790Y420866D01*
X538718Y420864D01*
X538669Y420846D01*
X538618Y420838D01*
X538554Y420804D01*
X538487Y420779D01*
X538446Y420747D01*
X538400Y420722D01*
X538351Y420670D01*
X538295Y420626D01*
X538267Y420582D01*
X538231Y420544D01*
X538201Y420479D01*
X538162Y420419D01*
X538149Y420368D01*
X538127Y420321D01*
X538119Y420250D01*
X538102Y420180D01*
X538106Y420128D01*
X538100Y420077D01*
X538115Y420006D01*
X538121Y419935D01*
X538141Y419887D01*
X538152Y419836D01*
X538189Y419775D01*
X538217Y419709D01*
X538262Y419653D01*
X538279Y419625D01*
X538296Y419610D01*
X538322Y419578D01*
X540291Y417609D01*
X541529Y414621D01*
X541529Y398179D01*
X540291Y395191D01*
X538005Y392905D01*
X535017Y391667D01*
X531783Y391667D01*
X528795Y392905D01*
X526509Y395191D01*
X525271Y398179D01*
X525271Y401066D01*
X525268Y401086D01*
X525270Y401105D01*
X525248Y401207D01*
X525232Y401309D01*
X525222Y401326D01*
X525218Y401346D01*
X525165Y401435D01*
X525116Y401526D01*
X525102Y401540D01*
X525092Y401557D01*
X525013Y401624D01*
X524938Y401696D01*
X524920Y401704D01*
X524905Y401717D01*
X524809Y401756D01*
X524715Y401799D01*
X524695Y401801D01*
X524677Y401809D01*
X524510Y401827D01*
X500506Y401827D01*
X500436Y401816D01*
X500364Y401814D01*
X500315Y401796D01*
X500264Y401788D01*
X500200Y401754D01*
X500133Y401729D01*
X500092Y401697D01*
X500046Y401672D01*
X499997Y401620D01*
X499941Y401576D01*
X499913Y401532D01*
X499877Y401494D01*
X499847Y401429D01*
X499808Y401369D01*
X499795Y401318D01*
X499773Y401271D01*
X499765Y401200D01*
X499748Y401130D01*
X499752Y401078D01*
X499746Y401027D01*
X499761Y400956D01*
X499767Y400885D01*
X499787Y400837D01*
X499798Y400786D01*
X499835Y400725D01*
X499863Y400659D01*
X499908Y400603D01*
X499925Y400575D01*
X499942Y400560D01*
X499968Y400528D01*
X503429Y397067D01*
X503429Y390333D01*
X498667Y385571D01*
X491933Y385571D01*
X487171Y390333D01*
X487171Y397067D01*
X490632Y400528D01*
X490674Y400586D01*
X490723Y400638D01*
X490745Y400685D01*
X490776Y400727D01*
X490797Y400796D01*
X490827Y400861D01*
X490833Y400913D01*
X490848Y400963D01*
X490846Y401034D01*
X490854Y401105D01*
X490843Y401156D01*
X490842Y401208D01*
X490817Y401276D01*
X490802Y401346D01*
X490775Y401391D01*
X490757Y401439D01*
X490712Y401495D01*
X490675Y401557D01*
X490636Y401591D01*
X490603Y401631D01*
X490543Y401670D01*
X490489Y401717D01*
X490440Y401736D01*
X490396Y401764D01*
X490327Y401782D01*
X490260Y401809D01*
X490189Y401817D01*
X490158Y401825D01*
X490135Y401823D01*
X490094Y401827D01*
X440359Y401827D01*
X440269Y401813D01*
X440178Y401805D01*
X440149Y401793D01*
X440117Y401788D01*
X440036Y401745D01*
X439952Y401709D01*
X439920Y401683D01*
X439899Y401672D01*
X439877Y401649D01*
X439821Y401604D01*
X423896Y385679D01*
X423843Y385605D01*
X423783Y385535D01*
X423771Y385505D01*
X423752Y385479D01*
X423725Y385392D01*
X423691Y385307D01*
X423687Y385266D01*
X423680Y385244D01*
X423681Y385212D01*
X423673Y385141D01*
X423673Y384433D01*
X423692Y384318D01*
X423709Y384202D01*
X423711Y384196D01*
X423712Y384190D01*
X423767Y384087D01*
X423820Y383983D01*
X423825Y383978D01*
X423828Y383973D01*
X423912Y383892D01*
X423996Y383810D01*
X424002Y383807D01*
X424006Y383803D01*
X424023Y383795D01*
X424143Y383729D01*
X424280Y383673D01*
X426853Y381100D01*
X428245Y377739D01*
X428245Y358861D01*
X426853Y355500D01*
X424280Y352927D01*
X420919Y351535D01*
X417281Y351535D01*
X413920Y352927D01*
X411347Y355500D01*
X409955Y358861D01*
X409955Y377739D01*
X411347Y381100D01*
X413920Y383673D01*
X414057Y383729D01*
X414157Y383791D01*
X414257Y383851D01*
X414261Y383856D01*
X414266Y383859D01*
X414341Y383949D01*
X414417Y384038D01*
X414419Y384044D01*
X414423Y384048D01*
X414465Y384157D01*
X414509Y384266D01*
X414510Y384273D01*
X414511Y384278D01*
X414512Y384296D01*
X414527Y384433D01*
X414527Y389244D01*
X436256Y410973D01*
X524510Y410973D01*
X524530Y410976D01*
X524549Y410974D01*
X524651Y410996D01*
X524753Y411012D01*
X524770Y411022D01*
X524790Y411026D01*
X524879Y411079D01*
X524970Y411128D01*
X524984Y411142D01*
X525001Y411152D01*
X525068Y411231D01*
X525140Y411306D01*
X525148Y411324D01*
X525161Y411339D01*
X525200Y411435D01*
X525243Y411529D01*
X525245Y411549D01*
X525253Y411567D01*
X525271Y411734D01*
X525271Y414621D01*
X526509Y417609D01*
X528478Y419578D01*
X528520Y419636D01*
X528569Y419688D01*
X528591Y419735D01*
X528622Y419777D01*
X528643Y419846D01*
X528673Y419911D01*
X528679Y419963D01*
X528694Y420013D01*
X528692Y420084D01*
X528700Y420155D01*
X528689Y420206D01*
X528688Y420258D01*
X528663Y420326D01*
X528648Y420396D01*
X528621Y420441D01*
X528603Y420489D01*
X528558Y420545D01*
X528521Y420607D01*
X528482Y420641D01*
X528449Y420681D01*
X528389Y420720D01*
X528335Y420767D01*
X528286Y420786D01*
X528242Y420814D01*
X528173Y420832D01*
X528106Y420859D01*
X528035Y420867D01*
X528004Y420875D01*
X527981Y420873D01*
X527940Y420877D01*
X440359Y420877D01*
X440269Y420863D01*
X440178Y420855D01*
X440149Y420843D01*
X440117Y420838D01*
X440036Y420795D01*
X439952Y420759D01*
X439920Y420733D01*
X439899Y420722D01*
X439877Y420699D01*
X439821Y420654D01*
X427344Y408177D01*
X313359Y408177D01*
X313269Y408163D01*
X313178Y408155D01*
X313149Y408143D01*
X313117Y408138D01*
X313036Y408095D01*
X312952Y408059D01*
X312920Y408033D01*
X312899Y408022D01*
X312877Y407999D01*
X312821Y407954D01*
X287098Y382231D01*
X287086Y382215D01*
X287071Y382202D01*
X287015Y382115D01*
X286954Y382031D01*
X286949Y382012D01*
X286938Y381996D01*
X286912Y381895D01*
X286882Y381796D01*
X286883Y381776D01*
X286878Y381757D01*
X286886Y381654D01*
X286888Y381550D01*
X286895Y381532D01*
X286897Y381512D01*
X286937Y381417D01*
X286973Y381319D01*
X286985Y381304D01*
X286993Y381286D01*
X287071Y381188D01*
X287075Y381181D01*
X287080Y381177D01*
X287098Y381155D01*
X287153Y381100D01*
X288545Y377739D01*
X288545Y358861D01*
X287153Y355500D01*
X284580Y352927D01*
X281219Y351535D01*
X277581Y351535D01*
X274220Y352927D01*
X271647Y355500D01*
X270255Y358861D01*
X270255Y377739D01*
X271647Y381100D01*
X274220Y383673D01*
X276446Y384594D01*
X276502Y384629D01*
X276562Y384655D01*
X276626Y384707D01*
X276655Y384724D01*
X276667Y384739D01*
X276693Y384759D01*
X305161Y413228D01*
X305203Y413286D01*
X305252Y413338D01*
X305274Y413385D01*
X305304Y413427D01*
X305326Y413496D01*
X305356Y413561D01*
X305362Y413613D01*
X305377Y413663D01*
X305375Y413734D01*
X305383Y413805D01*
X305372Y413856D01*
X305370Y413908D01*
X305346Y413976D01*
X305331Y414046D01*
X305304Y414090D01*
X305286Y414139D01*
X305241Y414195D01*
X305204Y414257D01*
X305165Y414291D01*
X305132Y414331D01*
X305072Y414370D01*
X305018Y414417D01*
X304969Y414436D01*
X304925Y414464D01*
X304856Y414482D01*
X304789Y414509D01*
X304718Y414517D01*
X304687Y414525D01*
X304664Y414523D01*
X304623Y414527D01*
X256209Y414527D01*
X256119Y414513D01*
X256028Y414505D01*
X255999Y414493D01*
X255967Y414488D01*
X255886Y414445D01*
X255802Y414409D01*
X255770Y414383D01*
X255749Y414372D01*
X255727Y414349D01*
X255671Y414304D01*
X214346Y372979D01*
X214293Y372905D01*
X214233Y372835D01*
X214221Y372805D01*
X214202Y372779D01*
X214175Y372692D01*
X214141Y372607D01*
X214137Y372566D01*
X214130Y372544D01*
X214131Y372512D01*
X214123Y372441D01*
X214123Y347356D01*
X205094Y338327D01*
X169556Y338327D01*
G37*
%LPD*%
%LPC*%
G36*
X72623Y550163D02*
X72623Y550163D01*
X68782Y554004D01*
X68708Y554057D01*
X68638Y554117D01*
X68608Y554129D01*
X68582Y554148D01*
X68495Y554175D01*
X68410Y554209D01*
X68369Y554213D01*
X68347Y554220D01*
X68315Y554219D01*
X68243Y554227D01*
X61606Y554227D01*
X52577Y563256D01*
X52577Y681344D01*
X214006Y842773D01*
X218713Y842773D01*
X218827Y842792D01*
X218944Y842809D01*
X218949Y842811D01*
X218955Y842812D01*
X219058Y842867D01*
X219163Y842920D01*
X219167Y842925D01*
X219173Y842928D01*
X219253Y843012D01*
X219335Y843096D01*
X219339Y843102D01*
X219342Y843106D01*
X219350Y843123D01*
X219416Y843243D01*
X219771Y844100D01*
X222700Y847029D01*
X226528Y848615D01*
X230672Y848615D01*
X234500Y847029D01*
X237429Y844100D01*
X239015Y840272D01*
X239015Y836128D01*
X237429Y832300D01*
X234500Y829371D01*
X230672Y827785D01*
X226528Y827785D01*
X222700Y829371D01*
X219771Y832300D01*
X219416Y833157D01*
X219354Y833257D01*
X219294Y833357D01*
X219290Y833361D01*
X219286Y833366D01*
X219196Y833441D01*
X219107Y833517D01*
X219102Y833519D01*
X219097Y833523D01*
X218988Y833565D01*
X218879Y833609D01*
X218872Y833610D01*
X218867Y833611D01*
X218849Y833612D01*
X218713Y833627D01*
X218109Y833627D01*
X218019Y833613D01*
X217928Y833605D01*
X217899Y833593D01*
X217867Y833588D01*
X217786Y833545D01*
X217702Y833509D01*
X217670Y833483D01*
X217649Y833472D01*
X217627Y833449D01*
X217571Y833404D01*
X61946Y677779D01*
X61893Y677705D01*
X61833Y677635D01*
X61821Y677605D01*
X61802Y677579D01*
X61775Y677492D01*
X61741Y677407D01*
X61737Y677366D01*
X61730Y677344D01*
X61731Y677312D01*
X61723Y677241D01*
X61723Y567359D01*
X61737Y567269D01*
X61745Y567178D01*
X61757Y567149D01*
X61762Y567117D01*
X61805Y567036D01*
X61841Y566952D01*
X61867Y566920D01*
X61878Y566899D01*
X61901Y566877D01*
X61946Y566821D01*
X65171Y563596D01*
X65245Y563543D01*
X65315Y563483D01*
X65345Y563471D01*
X65371Y563452D01*
X65458Y563425D01*
X65543Y563391D01*
X65584Y563387D01*
X65606Y563380D01*
X65638Y563381D01*
X65709Y563373D01*
X68243Y563373D01*
X68333Y563387D01*
X68424Y563395D01*
X68454Y563407D01*
X68486Y563412D01*
X68567Y563455D01*
X68651Y563491D01*
X68683Y563517D01*
X68703Y563528D01*
X68726Y563551D01*
X68782Y563596D01*
X72623Y567437D01*
X79777Y567437D01*
X84837Y562377D01*
X84837Y555223D01*
X79777Y550163D01*
X72623Y550163D01*
G37*
%LPD*%
%LPC*%
G36*
X596261Y671601D02*
X596261Y671601D01*
X589038Y673537D01*
X582563Y677275D01*
X577275Y682563D01*
X573537Y689038D01*
X571601Y696261D01*
X571601Y703739D01*
X573537Y710962D01*
X577275Y717437D01*
X582563Y722725D01*
X589038Y726463D01*
X596261Y728399D01*
X603739Y728399D01*
X610962Y726463D01*
X617437Y722725D01*
X622725Y717437D01*
X626463Y710962D01*
X628399Y703739D01*
X628399Y696261D01*
X626463Y689038D01*
X622725Y682563D01*
X617437Y677275D01*
X610962Y673537D01*
X603739Y671601D01*
X596261Y671601D01*
G37*
%LPD*%
%LPC*%
G36*
X96261Y771601D02*
X96261Y771601D01*
X89038Y773537D01*
X82563Y777275D01*
X77275Y782563D01*
X73537Y789038D01*
X71601Y796261D01*
X71601Y803739D01*
X73537Y810962D01*
X77275Y817437D01*
X82563Y822725D01*
X89038Y826463D01*
X96261Y828399D01*
X103739Y828399D01*
X110962Y826463D01*
X117437Y822725D01*
X122725Y817437D01*
X126463Y810962D01*
X128399Y803739D01*
X128399Y796261D01*
X126463Y789038D01*
X122725Y782563D01*
X117437Y777275D01*
X110962Y773537D01*
X103739Y771601D01*
X96261Y771601D01*
G37*
%LPD*%
%LPC*%
G36*
X496261Y571601D02*
X496261Y571601D01*
X489038Y573537D01*
X482563Y577275D01*
X477275Y582563D01*
X473537Y589038D01*
X471601Y596261D01*
X471601Y603739D01*
X473537Y610962D01*
X477275Y617437D01*
X482563Y622725D01*
X489038Y626463D01*
X496261Y628399D01*
X503739Y628399D01*
X510962Y626463D01*
X517437Y622725D01*
X522725Y617437D01*
X526463Y610962D01*
X528399Y603739D01*
X528399Y596261D01*
X526463Y589038D01*
X522725Y582563D01*
X517437Y577275D01*
X510962Y573537D01*
X503739Y571601D01*
X496261Y571601D01*
G37*
%LPD*%
%LPC*%
G36*
X568133Y309371D02*
X568133Y309371D01*
X563371Y314133D01*
X563371Y320867D01*
X568133Y325629D01*
X572847Y325629D01*
X572937Y325643D01*
X573028Y325651D01*
X573057Y325663D01*
X573089Y325668D01*
X573170Y325711D01*
X573254Y325747D01*
X573286Y325773D01*
X573307Y325784D01*
X573329Y325807D01*
X573385Y325852D01*
X602595Y355062D01*
X602606Y355078D01*
X602622Y355090D01*
X602678Y355178D01*
X602738Y355261D01*
X602744Y355280D01*
X602755Y355297D01*
X602780Y355398D01*
X602811Y355497D01*
X602810Y355516D01*
X602815Y355536D01*
X602807Y355639D01*
X602804Y355742D01*
X602798Y355761D01*
X602796Y355781D01*
X602756Y355876D01*
X602720Y355973D01*
X602707Y355989D01*
X602700Y356007D01*
X602595Y356138D01*
X592327Y366406D01*
X592327Y408294D01*
X595229Y411196D01*
X612464Y428431D01*
X612531Y428525D01*
X612602Y428619D01*
X612604Y428625D01*
X612607Y428631D01*
X612642Y428741D01*
X612678Y428853D01*
X612678Y428860D01*
X612680Y428866D01*
X612677Y428982D01*
X612676Y429099D01*
X612674Y429106D01*
X612673Y429111D01*
X612667Y429129D01*
X612629Y429260D01*
X612393Y429829D01*
X612393Y433771D01*
X613901Y437412D01*
X616688Y440199D01*
X620329Y441707D01*
X624271Y441707D01*
X627912Y440199D01*
X630699Y437412D01*
X632207Y433771D01*
X632207Y429829D01*
X630699Y426188D01*
X627912Y423401D01*
X624271Y421893D01*
X620329Y421893D01*
X619760Y422129D01*
X619647Y422156D01*
X619533Y422184D01*
X619527Y422184D01*
X619521Y422185D01*
X619404Y422174D01*
X619288Y422165D01*
X619282Y422163D01*
X619276Y422162D01*
X619168Y422114D01*
X619062Y422069D01*
X619056Y422064D01*
X619051Y422062D01*
X619038Y422049D01*
X618931Y421964D01*
X601696Y404729D01*
X601643Y404655D01*
X601583Y404585D01*
X601571Y404555D01*
X601552Y404529D01*
X601525Y404442D01*
X601491Y404357D01*
X601487Y404316D01*
X601480Y404294D01*
X601481Y404262D01*
X601473Y404191D01*
X601473Y370509D01*
X601487Y370419D01*
X601495Y370328D01*
X601507Y370299D01*
X601512Y370267D01*
X601555Y370186D01*
X601591Y370102D01*
X601617Y370070D01*
X601628Y370049D01*
X601651Y370027D01*
X601696Y369971D01*
X608369Y363298D01*
X608385Y363286D01*
X608398Y363271D01*
X608485Y363215D01*
X608569Y363154D01*
X608588Y363149D01*
X608604Y363138D01*
X608705Y363112D01*
X608804Y363082D01*
X608824Y363083D01*
X608843Y363078D01*
X608946Y363086D01*
X609050Y363088D01*
X609068Y363095D01*
X609088Y363097D01*
X609183Y363137D01*
X609281Y363173D01*
X609296Y363185D01*
X609314Y363193D01*
X609445Y363298D01*
X609500Y363353D01*
X612861Y364745D01*
X631739Y364745D01*
X635100Y363353D01*
X637673Y360780D01*
X639065Y357419D01*
X639065Y353781D01*
X637673Y350420D01*
X635100Y347847D01*
X631739Y346455D01*
X612861Y346455D01*
X609500Y347847D01*
X609445Y347902D01*
X609429Y347914D01*
X609417Y347929D01*
X609330Y347985D01*
X609246Y348046D01*
X609227Y348051D01*
X609210Y348062D01*
X609110Y348087D01*
X609011Y348118D01*
X608991Y348117D01*
X608971Y348122D01*
X608868Y348114D01*
X608765Y348112D01*
X608746Y348105D01*
X608726Y348103D01*
X608631Y348063D01*
X608534Y348027D01*
X608518Y348015D01*
X608500Y348007D01*
X608369Y347902D01*
X579852Y319385D01*
X579799Y319311D01*
X579739Y319241D01*
X579727Y319211D01*
X579708Y319185D01*
X579681Y319098D01*
X579647Y319013D01*
X579643Y318972D01*
X579636Y318950D01*
X579637Y318918D01*
X579629Y318847D01*
X579629Y314133D01*
X574867Y309371D01*
X568133Y309371D01*
G37*
%LPD*%
%LPC*%
G36*
X74381Y351535D02*
X74381Y351535D01*
X71020Y352927D01*
X68447Y355500D01*
X67055Y358861D01*
X67055Y377739D01*
X68447Y381100D01*
X71020Y383673D01*
X74381Y385065D01*
X78019Y385065D01*
X81380Y383673D01*
X83953Y381100D01*
X84961Y378666D01*
X84985Y378627D01*
X85001Y378584D01*
X85049Y378523D01*
X85090Y378457D01*
X85126Y378428D01*
X85154Y378392D01*
X85220Y378350D01*
X85280Y378300D01*
X85323Y378284D01*
X85361Y378259D01*
X85437Y378240D01*
X85509Y378212D01*
X85555Y378210D01*
X85600Y378199D01*
X85677Y378205D01*
X85755Y378202D01*
X85799Y378214D01*
X85845Y378218D01*
X85917Y378248D01*
X85991Y378270D01*
X86029Y378296D01*
X86071Y378314D01*
X86178Y378400D01*
X86193Y378410D01*
X86196Y378414D01*
X86202Y378419D01*
X90454Y382671D01*
X90498Y382732D01*
X90531Y382766D01*
X90536Y382779D01*
X90567Y382815D01*
X90579Y382845D01*
X90598Y382871D01*
X90625Y382958D01*
X90659Y383043D01*
X90663Y383084D01*
X90670Y383106D01*
X90669Y383138D01*
X90677Y383209D01*
X90677Y391491D01*
X90663Y391581D01*
X90655Y391672D01*
X90643Y391701D01*
X90638Y391733D01*
X90595Y391814D01*
X90559Y391898D01*
X90533Y391930D01*
X90522Y391951D01*
X90499Y391973D01*
X90454Y392029D01*
X84108Y398375D01*
X84092Y398387D01*
X84079Y398402D01*
X83992Y398458D01*
X83908Y398519D01*
X83889Y398525D01*
X83872Y398535D01*
X83772Y398561D01*
X83673Y398591D01*
X83653Y398591D01*
X83634Y398595D01*
X83531Y398587D01*
X83427Y398585D01*
X83409Y398578D01*
X83389Y398576D01*
X83294Y398536D01*
X83265Y398525D01*
X69218Y398525D01*
X68325Y399418D01*
X68325Y426082D01*
X69218Y426975D01*
X83182Y426975D01*
X84075Y426082D01*
X84075Y411657D01*
X84089Y411567D01*
X84097Y411476D01*
X84109Y411447D01*
X84114Y411415D01*
X84157Y411334D01*
X84193Y411250D01*
X84219Y411218D01*
X84230Y411197D01*
X84253Y411175D01*
X84298Y411119D01*
X99823Y395594D01*
X99823Y379106D01*
X85568Y364851D01*
X85515Y364777D01*
X85455Y364707D01*
X85443Y364677D01*
X85424Y364651D01*
X85397Y364564D01*
X85363Y364479D01*
X85359Y364438D01*
X85352Y364416D01*
X85353Y364384D01*
X85345Y364313D01*
X85345Y358861D01*
X83953Y355500D01*
X81380Y352927D01*
X78019Y351535D01*
X74381Y351535D01*
G37*
%LPD*%
%LPC*%
G36*
X48981Y351535D02*
X48981Y351535D01*
X45620Y352927D01*
X43047Y355500D01*
X41655Y358861D01*
X41655Y364313D01*
X41641Y364403D01*
X41633Y364494D01*
X41621Y364523D01*
X41616Y364555D01*
X41573Y364636D01*
X41537Y364720D01*
X41511Y364752D01*
X41500Y364773D01*
X41477Y364795D01*
X41432Y364851D01*
X39654Y366629D01*
X27177Y379106D01*
X27177Y395594D01*
X42702Y411119D01*
X42755Y411193D01*
X42815Y411263D01*
X42827Y411293D01*
X42846Y411319D01*
X42873Y411406D01*
X42907Y411491D01*
X42911Y411532D01*
X42918Y411554D01*
X42917Y411586D01*
X42925Y411657D01*
X42925Y426082D01*
X43818Y426975D01*
X57782Y426975D01*
X58675Y426082D01*
X58675Y399418D01*
X57782Y398525D01*
X43749Y398525D01*
X43733Y398535D01*
X43633Y398561D01*
X43534Y398591D01*
X43514Y398591D01*
X43494Y398595D01*
X43392Y398587D01*
X43288Y398585D01*
X43269Y398578D01*
X43249Y398576D01*
X43154Y398536D01*
X43057Y398500D01*
X43041Y398488D01*
X43023Y398480D01*
X42892Y398375D01*
X36546Y392029D01*
X36493Y391955D01*
X36433Y391885D01*
X36421Y391855D01*
X36402Y391829D01*
X36375Y391742D01*
X36341Y391657D01*
X36337Y391616D01*
X36330Y391594D01*
X36331Y391562D01*
X36323Y391491D01*
X36323Y383209D01*
X36337Y383119D01*
X36345Y383028D01*
X36357Y382999D01*
X36362Y382967D01*
X36405Y382886D01*
X36441Y382802D01*
X36467Y382770D01*
X36478Y382749D01*
X36501Y382727D01*
X36509Y382717D01*
X36517Y382704D01*
X36525Y382696D01*
X36546Y382671D01*
X40798Y378419D01*
X40835Y378392D01*
X40866Y378359D01*
X40934Y378321D01*
X40997Y378276D01*
X41041Y378262D01*
X41082Y378240D01*
X41158Y378226D01*
X41233Y378203D01*
X41278Y378204D01*
X41324Y378196D01*
X41401Y378208D01*
X41478Y378210D01*
X41522Y378225D01*
X41567Y378232D01*
X41636Y378267D01*
X41709Y378294D01*
X41745Y378323D01*
X41786Y378344D01*
X41841Y378399D01*
X41901Y378448D01*
X41926Y378486D01*
X41958Y378519D01*
X42024Y378639D01*
X42034Y378655D01*
X42036Y378659D01*
X42039Y378666D01*
X43047Y381100D01*
X45620Y383673D01*
X48981Y385065D01*
X52619Y385065D01*
X55980Y383673D01*
X58553Y381100D01*
X59945Y377739D01*
X59945Y358861D01*
X58553Y355500D01*
X55980Y352927D01*
X52619Y351535D01*
X48981Y351535D01*
G37*
%LPD*%
%LPC*%
G36*
X491933Y309371D02*
X491933Y309371D01*
X487171Y314133D01*
X487171Y318847D01*
X487157Y318937D01*
X487149Y319028D01*
X487137Y319057D01*
X487132Y319089D01*
X487089Y319170D01*
X487053Y319254D01*
X487027Y319286D01*
X487016Y319307D01*
X486993Y319329D01*
X486948Y319385D01*
X452081Y354252D01*
X452065Y354264D01*
X452053Y354279D01*
X451965Y354335D01*
X451881Y354396D01*
X451862Y354401D01*
X451846Y354412D01*
X451745Y354438D01*
X451646Y354468D01*
X451626Y354467D01*
X451607Y354472D01*
X451504Y354464D01*
X451400Y354462D01*
X451382Y354455D01*
X451362Y354453D01*
X451267Y354413D01*
X451169Y354377D01*
X451154Y354365D01*
X451136Y354357D01*
X451005Y354252D01*
X449680Y352927D01*
X446319Y351535D01*
X442681Y351535D01*
X439320Y352927D01*
X436747Y355500D01*
X435355Y358861D01*
X435355Y377739D01*
X436747Y381100D01*
X439320Y383673D01*
X442681Y385065D01*
X446319Y385065D01*
X449680Y383673D01*
X452253Y381100D01*
X453645Y377739D01*
X453645Y365937D01*
X453659Y365847D01*
X453667Y365756D01*
X453679Y365727D01*
X453684Y365695D01*
X453727Y365614D01*
X453763Y365530D01*
X453789Y365498D01*
X453800Y365477D01*
X453823Y365455D01*
X453868Y365399D01*
X493415Y325852D01*
X493489Y325799D01*
X493559Y325739D01*
X493589Y325727D01*
X493615Y325708D01*
X493702Y325681D01*
X493787Y325647D01*
X493828Y325643D01*
X493850Y325636D01*
X493882Y325637D01*
X493953Y325629D01*
X498667Y325629D01*
X503429Y320867D01*
X503429Y314133D01*
X498667Y309371D01*
X491933Y309371D01*
G37*
%LPD*%
%LPC*%
G36*
X226528Y446785D02*
X226528Y446785D01*
X222700Y448371D01*
X219771Y451300D01*
X218185Y455128D01*
X218185Y459272D01*
X219771Y463100D01*
X222700Y466029D01*
X226528Y467615D01*
X230672Y467615D01*
X234500Y466029D01*
X237429Y463100D01*
X237784Y462243D01*
X237846Y462143D01*
X237906Y462043D01*
X237910Y462039D01*
X237914Y462034D01*
X238004Y461959D01*
X238093Y461883D01*
X238098Y461881D01*
X238103Y461877D01*
X238212Y461835D01*
X238321Y461791D01*
X238328Y461790D01*
X238333Y461789D01*
X238351Y461788D01*
X238487Y461773D01*
X239091Y461773D01*
X239181Y461787D01*
X239272Y461795D01*
X239301Y461807D01*
X239333Y461812D01*
X239414Y461855D01*
X239498Y461891D01*
X239530Y461917D01*
X239551Y461928D01*
X239573Y461951D01*
X239629Y461996D01*
X261904Y484271D01*
X261957Y484345D01*
X262017Y484415D01*
X262029Y484445D01*
X262048Y484471D01*
X262075Y484558D01*
X262109Y484643D01*
X262113Y484684D01*
X262120Y484706D01*
X262119Y484738D01*
X262127Y484809D01*
X262127Y485413D01*
X262108Y485527D01*
X262091Y485644D01*
X262089Y485649D01*
X262088Y485655D01*
X262033Y485758D01*
X261980Y485863D01*
X261975Y485867D01*
X261972Y485873D01*
X261888Y485953D01*
X261804Y486035D01*
X261798Y486039D01*
X261794Y486042D01*
X261777Y486050D01*
X261657Y486116D01*
X260800Y486471D01*
X257871Y489400D01*
X256285Y493228D01*
X256285Y497372D01*
X257871Y501200D01*
X260800Y504129D01*
X264628Y505715D01*
X268772Y505715D01*
X272600Y504129D01*
X275529Y501200D01*
X277115Y497372D01*
X277115Y493228D01*
X275529Y489400D01*
X272600Y486471D01*
X271743Y486116D01*
X271643Y486054D01*
X271543Y485994D01*
X271539Y485990D01*
X271534Y485986D01*
X271459Y485896D01*
X271383Y485807D01*
X271381Y485802D01*
X271377Y485797D01*
X271335Y485688D01*
X271291Y485579D01*
X271290Y485572D01*
X271289Y485567D01*
X271288Y485549D01*
X271273Y485413D01*
X271273Y480706D01*
X243194Y452627D01*
X238487Y452627D01*
X238373Y452608D01*
X238256Y452591D01*
X238251Y452589D01*
X238245Y452588D01*
X238142Y452533D01*
X238037Y452480D01*
X238033Y452475D01*
X238027Y452472D01*
X237947Y452388D01*
X237865Y452304D01*
X237861Y452298D01*
X237858Y452294D01*
X237850Y452277D01*
X237784Y452157D01*
X237429Y451300D01*
X234500Y448371D01*
X230672Y446785D01*
X226528Y446785D01*
G37*
%LPD*%
%LPC*%
G36*
X612861Y321055D02*
X612861Y321055D01*
X609500Y322447D01*
X606927Y325020D01*
X605535Y328381D01*
X605535Y332019D01*
X606927Y335380D01*
X609500Y337953D01*
X612861Y339345D01*
X631739Y339345D01*
X635100Y337953D01*
X637673Y335380D01*
X639065Y332019D01*
X639065Y328381D01*
X637673Y325020D01*
X635100Y322447D01*
X631739Y321055D01*
X612861Y321055D01*
G37*
%LPD*%
%LPC*%
G36*
X612861Y371855D02*
X612861Y371855D01*
X609500Y373247D01*
X606927Y375820D01*
X605535Y379181D01*
X605535Y382819D01*
X606927Y386180D01*
X609500Y388753D01*
X612861Y390145D01*
X631739Y390145D01*
X635100Y388753D01*
X637673Y386180D01*
X639065Y382819D01*
X639065Y379181D01*
X637673Y375820D01*
X635100Y373247D01*
X631739Y371855D01*
X612861Y371855D01*
G37*
%LPD*%
%LPC*%
G36*
X353781Y351535D02*
X353781Y351535D01*
X350420Y352927D01*
X347847Y355500D01*
X346455Y358861D01*
X346455Y377739D01*
X347847Y381100D01*
X350420Y383673D01*
X353781Y385065D01*
X357419Y385065D01*
X360780Y383673D01*
X363353Y381100D01*
X364745Y377739D01*
X364745Y358861D01*
X363353Y355500D01*
X360780Y352927D01*
X357419Y351535D01*
X353781Y351535D01*
G37*
%LPD*%
%LPC*%
G36*
X328381Y351535D02*
X328381Y351535D01*
X325020Y352927D01*
X322447Y355500D01*
X321055Y358861D01*
X321055Y377739D01*
X322447Y381100D01*
X325020Y383673D01*
X328381Y385065D01*
X332019Y385065D01*
X335380Y383673D01*
X337953Y381100D01*
X339345Y377739D01*
X339345Y358861D01*
X337953Y355500D01*
X335380Y352927D01*
X332019Y351535D01*
X328381Y351535D01*
G37*
%LPD*%
%LPC*%
G36*
X302981Y351535D02*
X302981Y351535D01*
X299620Y352927D01*
X297047Y355500D01*
X295655Y358861D01*
X295655Y377739D01*
X297047Y381100D01*
X299620Y383673D01*
X302981Y385065D01*
X306619Y385065D01*
X309980Y383673D01*
X312553Y381100D01*
X313945Y377739D01*
X313945Y358861D01*
X312553Y355500D01*
X309980Y352927D01*
X306619Y351535D01*
X302981Y351535D01*
G37*
%LPD*%
%LPC*%
G36*
X493683Y525271D02*
X493683Y525271D01*
X490695Y526509D01*
X488409Y528795D01*
X487171Y531783D01*
X487171Y548225D01*
X488409Y551213D01*
X490695Y553499D01*
X493683Y554737D01*
X496917Y554737D01*
X499905Y553499D01*
X502191Y551213D01*
X503429Y548225D01*
X503429Y531783D01*
X502191Y528795D01*
X499905Y526509D01*
X496917Y525271D01*
X493683Y525271D01*
G37*
%LPD*%
%LPC*%
G36*
X519083Y525271D02*
X519083Y525271D01*
X516095Y526509D01*
X513809Y528795D01*
X512571Y531783D01*
X512571Y548225D01*
X513809Y551213D01*
X516095Y553499D01*
X519083Y554737D01*
X522317Y554737D01*
X525305Y553499D01*
X527591Y551213D01*
X528829Y548225D01*
X528829Y531783D01*
X527591Y528795D01*
X525305Y526509D01*
X522317Y525271D01*
X519083Y525271D01*
G37*
%LPD*%
%LPC*%
G36*
X531783Y315467D02*
X531783Y315467D01*
X528795Y316705D01*
X526509Y318991D01*
X525271Y321979D01*
X525271Y338421D01*
X526509Y341409D01*
X528795Y343695D01*
X531783Y344933D01*
X535017Y344933D01*
X538005Y343695D01*
X540291Y341409D01*
X541529Y338421D01*
X541529Y321979D01*
X540291Y318991D01*
X538005Y316705D01*
X535017Y315467D01*
X531783Y315467D01*
G37*
%LPD*%
%LPC*%
G36*
X519083Y435863D02*
X519083Y435863D01*
X516095Y437101D01*
X513809Y439387D01*
X512571Y442375D01*
X512571Y458817D01*
X513809Y461805D01*
X516095Y464091D01*
X519083Y465329D01*
X522317Y465329D01*
X525305Y464091D01*
X527591Y461805D01*
X528829Y458817D01*
X528829Y442375D01*
X527591Y439387D01*
X525305Y437101D01*
X522317Y435863D01*
X519083Y435863D01*
G37*
%LPD*%
%LPC*%
G36*
X493683Y435863D02*
X493683Y435863D01*
X490695Y437101D01*
X488409Y439387D01*
X487171Y442375D01*
X487171Y458817D01*
X488409Y461805D01*
X490695Y464091D01*
X493683Y465329D01*
X496917Y465329D01*
X499905Y464091D01*
X502191Y461805D01*
X503429Y458817D01*
X503429Y442375D01*
X502191Y439387D01*
X499905Y437101D01*
X496917Y435863D01*
X493683Y435863D01*
G37*
%LPD*%
%LPC*%
G36*
X378928Y599185D02*
X378928Y599185D01*
X375100Y600771D01*
X372171Y603700D01*
X370585Y607528D01*
X370585Y611672D01*
X372171Y615500D01*
X375100Y618429D01*
X378928Y620015D01*
X383072Y620015D01*
X386900Y618429D01*
X389829Y615500D01*
X391415Y611672D01*
X391415Y607528D01*
X389829Y603700D01*
X386900Y600771D01*
X383072Y599185D01*
X378928Y599185D01*
G37*
%LPD*%
%LPC*%
G36*
X226528Y649985D02*
X226528Y649985D01*
X222700Y651571D01*
X219771Y654500D01*
X218185Y658328D01*
X218185Y662472D01*
X219771Y666300D01*
X222700Y669229D01*
X226528Y670815D01*
X230672Y670815D01*
X234500Y669229D01*
X237429Y666300D01*
X239015Y662472D01*
X239015Y658328D01*
X237429Y654500D01*
X234500Y651571D01*
X230672Y649985D01*
X226528Y649985D01*
G37*
%LPD*%
%LPC*%
G36*
X226528Y700785D02*
X226528Y700785D01*
X222700Y702371D01*
X219771Y705300D01*
X218185Y709128D01*
X218185Y713272D01*
X219771Y717100D01*
X222700Y720029D01*
X226528Y721615D01*
X230672Y721615D01*
X234500Y720029D01*
X237429Y717100D01*
X239015Y713272D01*
X239015Y709128D01*
X237429Y705300D01*
X234500Y702371D01*
X230672Y700785D01*
X226528Y700785D01*
G37*
%LPD*%
%LPC*%
G36*
X226528Y726185D02*
X226528Y726185D01*
X222700Y727771D01*
X219771Y730700D01*
X218185Y734528D01*
X218185Y738672D01*
X219771Y742500D01*
X222700Y745429D01*
X226528Y747015D01*
X230672Y747015D01*
X234500Y745429D01*
X237429Y742500D01*
X239015Y738672D01*
X239015Y734528D01*
X237429Y730700D01*
X234500Y727771D01*
X230672Y726185D01*
X226528Y726185D01*
G37*
%LPD*%
%LPC*%
G36*
X226528Y624585D02*
X226528Y624585D01*
X222700Y626171D01*
X219771Y629100D01*
X218185Y632928D01*
X218185Y637072D01*
X219771Y640900D01*
X222700Y643829D01*
X226528Y645415D01*
X230672Y645415D01*
X234500Y643829D01*
X237429Y640900D01*
X239015Y637072D01*
X239015Y632928D01*
X237429Y629100D01*
X234500Y626171D01*
X230672Y624585D01*
X226528Y624585D01*
G37*
%LPD*%
%LPC*%
G36*
X226528Y776985D02*
X226528Y776985D01*
X222700Y778571D01*
X219771Y781500D01*
X218185Y785328D01*
X218185Y789472D01*
X219771Y793300D01*
X222700Y796229D01*
X226528Y797815D01*
X230672Y797815D01*
X234500Y796229D01*
X237429Y793300D01*
X239015Y789472D01*
X239015Y785328D01*
X237429Y781500D01*
X234500Y778571D01*
X230672Y776985D01*
X226528Y776985D01*
G37*
%LPD*%
%LPC*%
G36*
X226528Y929385D02*
X226528Y929385D01*
X222700Y930971D01*
X219771Y933900D01*
X218185Y937728D01*
X218185Y941872D01*
X219771Y945700D01*
X222700Y948629D01*
X226528Y950215D01*
X230672Y950215D01*
X234500Y948629D01*
X237429Y945700D01*
X239015Y941872D01*
X239015Y937728D01*
X237429Y933900D01*
X234500Y930971D01*
X230672Y929385D01*
X226528Y929385D01*
G37*
%LPD*%
%LPC*%
G36*
X378928Y624585D02*
X378928Y624585D01*
X375100Y626171D01*
X372171Y629100D01*
X370585Y632928D01*
X370585Y637072D01*
X372171Y640900D01*
X375100Y643829D01*
X378928Y645415D01*
X383072Y645415D01*
X386900Y643829D01*
X389829Y640900D01*
X391415Y637072D01*
X391415Y632928D01*
X389829Y629100D01*
X386900Y626171D01*
X383072Y624585D01*
X378928Y624585D01*
G37*
%LPD*%
%LPC*%
G36*
X378928Y573785D02*
X378928Y573785D01*
X375100Y575371D01*
X372171Y578300D01*
X370585Y582128D01*
X370585Y586272D01*
X372171Y590100D01*
X375100Y593029D01*
X378928Y594615D01*
X383072Y594615D01*
X386900Y593029D01*
X389829Y590100D01*
X391415Y586272D01*
X391415Y582128D01*
X389829Y578300D01*
X386900Y575371D01*
X383072Y573785D01*
X378928Y573785D01*
G37*
%LPD*%
%LPC*%
G36*
X226528Y853185D02*
X226528Y853185D01*
X222700Y854771D01*
X219771Y857700D01*
X218185Y861528D01*
X218185Y865672D01*
X219771Y869500D01*
X222700Y872429D01*
X226528Y874015D01*
X230672Y874015D01*
X234500Y872429D01*
X237429Y869500D01*
X239015Y865672D01*
X239015Y861528D01*
X237429Y857700D01*
X234500Y854771D01*
X230672Y853185D01*
X226528Y853185D01*
G37*
%LPD*%
%LPC*%
G36*
X378928Y446785D02*
X378928Y446785D01*
X375100Y448371D01*
X372171Y451300D01*
X370585Y455128D01*
X370585Y459272D01*
X372171Y463100D01*
X375100Y466029D01*
X378928Y467615D01*
X383072Y467615D01*
X386900Y466029D01*
X389829Y463100D01*
X391415Y459272D01*
X391415Y455128D01*
X389829Y451300D01*
X386900Y448371D01*
X383072Y446785D01*
X378928Y446785D01*
G37*
%LPD*%
%LPC*%
G36*
X378928Y878585D02*
X378928Y878585D01*
X375100Y880171D01*
X372171Y883100D01*
X370585Y886928D01*
X370585Y891072D01*
X372171Y894900D01*
X375100Y897829D01*
X378928Y899415D01*
X383072Y899415D01*
X386900Y897829D01*
X389829Y894900D01*
X391415Y891072D01*
X391415Y886928D01*
X389829Y883100D01*
X386900Y880171D01*
X383072Y878585D01*
X378928Y878585D01*
G37*
%LPD*%
%LPC*%
G36*
X620329Y523493D02*
X620329Y523493D01*
X616688Y525001D01*
X613901Y527788D01*
X612393Y531429D01*
X612393Y535371D01*
X613901Y539012D01*
X616688Y541799D01*
X620329Y543307D01*
X624271Y543307D01*
X627912Y541799D01*
X630699Y539012D01*
X632207Y535371D01*
X632207Y531429D01*
X630699Y527788D01*
X627912Y525001D01*
X624271Y523493D01*
X620329Y523493D01*
G37*
%LPD*%
%LPC*%
G36*
X98023Y575563D02*
X98023Y575563D01*
X92963Y580623D01*
X92963Y587777D01*
X98023Y592837D01*
X105177Y592837D01*
X110237Y587777D01*
X110237Y580623D01*
X105177Y575563D01*
X98023Y575563D01*
G37*
%LPD*%
%LPC*%
G36*
X72623Y575563D02*
X72623Y575563D01*
X67563Y580623D01*
X67563Y587777D01*
X72623Y592837D01*
X79777Y592837D01*
X84837Y587777D01*
X84837Y580623D01*
X79777Y575563D01*
X72623Y575563D01*
G37*
%LPD*%
%LPC*%
G36*
X72623Y651763D02*
X72623Y651763D01*
X67563Y656823D01*
X67563Y663977D01*
X72623Y669037D01*
X79777Y669037D01*
X84837Y663977D01*
X84837Y656823D01*
X79777Y651763D01*
X72623Y651763D01*
G37*
%LPD*%
%LPC*%
G36*
X72623Y499363D02*
X72623Y499363D01*
X67563Y504423D01*
X67563Y511577D01*
X72623Y516637D01*
X79777Y516637D01*
X84837Y511577D01*
X84837Y504423D01*
X79777Y499363D01*
X72623Y499363D01*
G37*
%LPD*%
%LPC*%
G36*
X98023Y550163D02*
X98023Y550163D01*
X92963Y555223D01*
X92963Y562377D01*
X98023Y567437D01*
X105177Y567437D01*
X110237Y562377D01*
X110237Y555223D01*
X105177Y550163D01*
X98023Y550163D01*
G37*
%LPD*%
%LPC*%
G36*
X529823Y753363D02*
X529823Y753363D01*
X524763Y758423D01*
X524763Y765577D01*
X529823Y770637D01*
X536977Y770637D01*
X542037Y765577D01*
X542037Y758423D01*
X536977Y753363D01*
X529823Y753363D01*
G37*
%LPD*%
%LPC*%
G36*
X504423Y727963D02*
X504423Y727963D01*
X499363Y733023D01*
X499363Y740177D01*
X504423Y745237D01*
X511577Y745237D01*
X516637Y740177D01*
X516637Y733023D01*
X511577Y727963D01*
X504423Y727963D01*
G37*
%LPD*%
%LPC*%
G36*
X504423Y829563D02*
X504423Y829563D01*
X499363Y834623D01*
X499363Y841777D01*
X504423Y846837D01*
X511577Y846837D01*
X516637Y841777D01*
X516637Y834623D01*
X511577Y829563D01*
X504423Y829563D01*
G37*
%LPD*%
%LPC*%
G36*
X626946Y889635D02*
X626946Y889635D01*
X623798Y890939D01*
X621389Y893348D01*
X620085Y896496D01*
X620085Y899904D01*
X621389Y903052D01*
X623798Y905461D01*
X626946Y906765D01*
X630354Y906765D01*
X633502Y905461D01*
X635911Y903052D01*
X637215Y899904D01*
X637215Y896496D01*
X635911Y893348D01*
X633502Y890939D01*
X630354Y889635D01*
X626946Y889635D01*
G37*
%LPD*%
%LPC*%
G36*
X626946Y909635D02*
X626946Y909635D01*
X623798Y910939D01*
X621389Y913348D01*
X620085Y916496D01*
X620085Y919904D01*
X621389Y923052D01*
X623798Y925461D01*
X626946Y926765D01*
X630354Y926765D01*
X633502Y925461D01*
X635911Y923052D01*
X637215Y919904D01*
X637215Y916496D01*
X635911Y913348D01*
X633502Y910939D01*
X630354Y909635D01*
X626946Y909635D01*
G37*
%LPD*%
%LPC*%
G36*
X573023Y534923D02*
X573023Y534923D01*
X573023Y555629D01*
X574167Y555401D01*
X575832Y554712D01*
X577330Y553711D01*
X578603Y552438D01*
X579604Y550940D01*
X580293Y549275D01*
X580645Y547509D01*
X580645Y534923D01*
X573023Y534923D01*
G37*
%LPD*%
%LPC*%
G36*
X562355Y534923D02*
X562355Y534923D01*
X562355Y547509D01*
X562707Y549275D01*
X563396Y550940D01*
X564397Y552438D01*
X565670Y553711D01*
X567168Y554712D01*
X568833Y555401D01*
X569977Y555629D01*
X569977Y534923D01*
X562355Y534923D01*
G37*
%LPD*%
%LPC*%
G36*
X255523Y369823D02*
X255523Y369823D01*
X255523Y385966D01*
X256379Y385831D01*
X257900Y385336D01*
X259325Y384610D01*
X260619Y383670D01*
X261750Y382539D01*
X262690Y381245D01*
X263416Y379820D01*
X263911Y378299D01*
X264161Y376720D01*
X264161Y369823D01*
X255523Y369823D01*
G37*
%LPD*%
%LPC*%
G36*
X141223Y369823D02*
X141223Y369823D01*
X141223Y385966D01*
X142079Y385831D01*
X143600Y385336D01*
X145025Y384610D01*
X146319Y383670D01*
X147450Y382539D01*
X148390Y381245D01*
X149116Y379820D01*
X149611Y378299D01*
X149861Y376720D01*
X149861Y369823D01*
X141223Y369823D01*
G37*
%LPD*%
%LPC*%
G36*
X255523Y366777D02*
X255523Y366777D01*
X264161Y366777D01*
X264161Y359880D01*
X263911Y358301D01*
X263416Y356780D01*
X262690Y355355D01*
X261750Y354061D01*
X260619Y352930D01*
X259325Y351990D01*
X257900Y351264D01*
X256379Y350769D01*
X255523Y350634D01*
X255523Y366777D01*
G37*
%LPD*%
%LPC*%
G36*
X141223Y366777D02*
X141223Y366777D01*
X149861Y366777D01*
X149861Y359880D01*
X149611Y358301D01*
X149116Y356780D01*
X148390Y355355D01*
X147450Y354061D01*
X146319Y352930D01*
X145025Y351990D01*
X143600Y351264D01*
X142079Y350769D01*
X141223Y350634D01*
X141223Y366777D01*
G37*
%LPD*%
%LPC*%
G36*
X243839Y369823D02*
X243839Y369823D01*
X243839Y376720D01*
X244089Y378299D01*
X244584Y379820D01*
X245310Y381245D01*
X246250Y382539D01*
X247381Y383670D01*
X248675Y384610D01*
X250100Y385336D01*
X251621Y385831D01*
X252477Y385966D01*
X252477Y369823D01*
X243839Y369823D01*
G37*
%LPD*%
%LPC*%
G36*
X129539Y369823D02*
X129539Y369823D01*
X129539Y376720D01*
X129789Y378299D01*
X130284Y379820D01*
X131010Y381245D01*
X131950Y382539D01*
X133081Y383670D01*
X134375Y384610D01*
X135800Y385336D01*
X137321Y385831D01*
X138177Y385966D01*
X138177Y369823D01*
X129539Y369823D01*
G37*
%LPD*%
%LPC*%
G36*
X251621Y350769D02*
X251621Y350769D01*
X250100Y351264D01*
X248675Y351990D01*
X247381Y352930D01*
X246250Y354061D01*
X245310Y355355D01*
X244584Y356780D01*
X244089Y358301D01*
X243839Y359880D01*
X243839Y366777D01*
X252477Y366777D01*
X252477Y350634D01*
X251621Y350769D01*
G37*
%LPD*%
%LPC*%
G36*
X137321Y350769D02*
X137321Y350769D01*
X135800Y351264D01*
X134375Y351990D01*
X133081Y352930D01*
X131950Y354061D01*
X131010Y355355D01*
X130284Y356780D01*
X129789Y358301D01*
X129539Y359880D01*
X129539Y366777D01*
X138177Y366777D01*
X138177Y350634D01*
X137321Y350769D01*
G37*
%LPD*%
%LPC*%
G36*
X382523Y941323D02*
X382523Y941323D01*
X382523Y951132D01*
X383677Y950949D01*
X385388Y950393D01*
X386991Y949576D01*
X388447Y948519D01*
X389719Y947247D01*
X390776Y945791D01*
X391593Y944188D01*
X392149Y942477D01*
X392332Y941323D01*
X382523Y941323D01*
G37*
%LPD*%
%LPC*%
G36*
X382523Y915923D02*
X382523Y915923D01*
X382523Y925732D01*
X383677Y925549D01*
X385388Y924993D01*
X386991Y924176D01*
X388447Y923119D01*
X389719Y921847D01*
X390776Y920391D01*
X391593Y918788D01*
X392149Y917077D01*
X392332Y915923D01*
X382523Y915923D01*
G37*
%LPD*%
%LPC*%
G36*
X230123Y484123D02*
X230123Y484123D01*
X230123Y493932D01*
X231277Y493749D01*
X232988Y493193D01*
X234591Y492376D01*
X236047Y491319D01*
X237319Y490047D01*
X238376Y488591D01*
X239193Y486988D01*
X239749Y485277D01*
X239932Y484123D01*
X230123Y484123D01*
G37*
%LPD*%
%LPC*%
G36*
X344423Y496823D02*
X344423Y496823D01*
X344423Y506632D01*
X345577Y506449D01*
X347288Y505893D01*
X348891Y505076D01*
X350347Y504019D01*
X351619Y502747D01*
X352676Y501291D01*
X353493Y499688D01*
X354049Y497977D01*
X354232Y496823D01*
X344423Y496823D01*
G37*
%LPD*%
%LPC*%
G36*
X382523Y938277D02*
X382523Y938277D01*
X392332Y938277D01*
X392149Y937123D01*
X391593Y935412D01*
X390776Y933809D01*
X389719Y932353D01*
X388447Y931081D01*
X386991Y930024D01*
X385388Y929207D01*
X383677Y928651D01*
X382523Y928468D01*
X382523Y938277D01*
G37*
%LPD*%
%LPC*%
G36*
X382523Y912877D02*
X382523Y912877D01*
X392332Y912877D01*
X392149Y911723D01*
X391593Y910012D01*
X390776Y908409D01*
X389719Y906953D01*
X388447Y905681D01*
X386991Y904624D01*
X385388Y903807D01*
X383677Y903251D01*
X382523Y903068D01*
X382523Y912877D01*
G37*
%LPD*%
%LPC*%
G36*
X230123Y481077D02*
X230123Y481077D01*
X239932Y481077D01*
X239749Y479923D01*
X239193Y478212D01*
X238376Y476609D01*
X237319Y475153D01*
X236047Y473881D01*
X234591Y472824D01*
X232988Y472007D01*
X231277Y471451D01*
X230123Y471268D01*
X230123Y481077D01*
G37*
%LPD*%
%LPC*%
G36*
X217268Y484123D02*
X217268Y484123D01*
X217451Y485277D01*
X218007Y486988D01*
X218824Y488591D01*
X219881Y490047D01*
X221153Y491319D01*
X222609Y492376D01*
X224212Y493193D01*
X225923Y493749D01*
X227077Y493932D01*
X227077Y484123D01*
X217268Y484123D01*
G37*
%LPD*%
%LPC*%
G36*
X331568Y496823D02*
X331568Y496823D01*
X331751Y497977D01*
X332307Y499688D01*
X333124Y501291D01*
X334181Y502747D01*
X335453Y504019D01*
X336909Y505076D01*
X338512Y505893D01*
X340223Y506449D01*
X341377Y506632D01*
X341377Y496823D01*
X331568Y496823D01*
G37*
%LPD*%
%LPC*%
G36*
X369668Y941323D02*
X369668Y941323D01*
X369851Y942477D01*
X370407Y944188D01*
X371224Y945791D01*
X372281Y947247D01*
X373553Y948519D01*
X375009Y949576D01*
X376612Y950393D01*
X378323Y950949D01*
X379477Y951132D01*
X379477Y941323D01*
X369668Y941323D01*
G37*
%LPD*%
%LPC*%
G36*
X369668Y915923D02*
X369668Y915923D01*
X369851Y917077D01*
X370407Y918788D01*
X371224Y920391D01*
X372281Y921847D01*
X373553Y923119D01*
X375009Y924176D01*
X376612Y924993D01*
X378323Y925549D01*
X379477Y925732D01*
X379477Y915923D01*
X369668Y915923D01*
G37*
%LPD*%
%LPC*%
G36*
X378323Y903251D02*
X378323Y903251D01*
X376612Y903807D01*
X375009Y904624D01*
X373553Y905681D01*
X372281Y906953D01*
X371224Y908409D01*
X370407Y910012D01*
X369851Y911723D01*
X369668Y912877D01*
X379477Y912877D01*
X379477Y903068D01*
X378323Y903251D01*
G37*
%LPD*%
%LPC*%
G36*
X378323Y928651D02*
X378323Y928651D01*
X376612Y929207D01*
X375009Y930024D01*
X373553Y931081D01*
X372281Y932353D01*
X371224Y933809D01*
X370407Y935412D01*
X369851Y937123D01*
X369668Y938277D01*
X379477Y938277D01*
X379477Y928468D01*
X378323Y928651D01*
G37*
%LPD*%
%LPC*%
G36*
X340223Y484151D02*
X340223Y484151D01*
X338512Y484707D01*
X336909Y485524D01*
X335453Y486581D01*
X334181Y487853D01*
X333124Y489309D01*
X332307Y490912D01*
X331751Y492623D01*
X331568Y493777D01*
X341377Y493777D01*
X341377Y483968D01*
X340223Y484151D01*
G37*
%LPD*%
%LPC*%
G36*
X225923Y471451D02*
X225923Y471451D01*
X224212Y472007D01*
X222609Y472824D01*
X221153Y473881D01*
X219881Y475153D01*
X218824Y476609D01*
X218007Y478212D01*
X217451Y479923D01*
X217268Y481077D01*
X227077Y481077D01*
X227077Y471268D01*
X225923Y471451D01*
G37*
%LPD*%
%LPC*%
G36*
X630173Y839723D02*
X630173Y839723D01*
X630173Y847781D01*
X636024Y847781D01*
X636671Y847608D01*
X637250Y847273D01*
X637723Y846800D01*
X638058Y846221D01*
X638231Y845574D01*
X638231Y839723D01*
X630173Y839723D01*
G37*
%LPD*%
%LPC*%
G36*
X630173Y828619D02*
X630173Y828619D01*
X630173Y836677D01*
X638231Y836677D01*
X638231Y830826D01*
X638058Y830179D01*
X637723Y829600D01*
X637250Y829127D01*
X636671Y828792D01*
X636024Y828619D01*
X630173Y828619D01*
G37*
%LPD*%
%LPC*%
G36*
X619069Y839723D02*
X619069Y839723D01*
X619069Y845574D01*
X619242Y846221D01*
X619577Y846800D01*
X620050Y847273D01*
X620629Y847608D01*
X621276Y847781D01*
X627127Y847781D01*
X627127Y839723D01*
X619069Y839723D01*
G37*
%LPD*%
%LPC*%
G36*
X621276Y828619D02*
X621276Y828619D01*
X620629Y828792D01*
X620050Y829127D01*
X619577Y829600D01*
X619242Y830179D01*
X619069Y830826D01*
X619069Y836677D01*
X627127Y836677D01*
X627127Y828619D01*
X621276Y828619D01*
G37*
%LPD*%
%LPC*%
G36*
X103123Y915923D02*
X103123Y915923D01*
X103123Y925084D01*
X104127Y924925D01*
X105742Y924400D01*
X107255Y923629D01*
X108630Y922631D01*
X109831Y921430D01*
X110829Y920055D01*
X111600Y918542D01*
X112125Y916927D01*
X112284Y915923D01*
X103123Y915923D01*
G37*
%LPD*%
%LPC*%
G36*
X90916Y915923D02*
X90916Y915923D01*
X91075Y916927D01*
X91600Y918542D01*
X92371Y920055D01*
X93369Y921430D01*
X94570Y922631D01*
X95945Y923629D01*
X97458Y924400D01*
X99073Y924925D01*
X100077Y925084D01*
X100077Y915923D01*
X90916Y915923D01*
G37*
%LPD*%
%LPC*%
G36*
X103123Y912877D02*
X103123Y912877D01*
X112284Y912877D01*
X112125Y911873D01*
X111600Y910258D01*
X110829Y908745D01*
X109831Y907370D01*
X108630Y906169D01*
X107255Y905171D01*
X105742Y904400D01*
X104127Y903875D01*
X103123Y903716D01*
X103123Y912877D01*
G37*
%LPD*%
%LPC*%
G36*
X99073Y903875D02*
X99073Y903875D01*
X97458Y904400D01*
X95945Y905171D01*
X94570Y906169D01*
X93369Y907370D01*
X92371Y908745D01*
X91600Y910258D01*
X91075Y911873D01*
X90916Y912877D01*
X100077Y912877D01*
X100077Y903716D01*
X99073Y903875D01*
G37*
%LPD*%
%LPC*%
G36*
X509523Y890523D02*
X509523Y890523D01*
X509523Y898653D01*
X511998Y898653D01*
X517653Y892998D01*
X517653Y890523D01*
X509523Y890523D01*
G37*
%LPD*%
%LPC*%
G36*
X498347Y890523D02*
X498347Y890523D01*
X498347Y892998D01*
X504002Y898653D01*
X506477Y898653D01*
X506477Y890523D01*
X498347Y890523D01*
G37*
%LPD*%
%LPC*%
G36*
X103123Y472947D02*
X103123Y472947D01*
X103123Y481077D01*
X111253Y481077D01*
X111253Y478602D01*
X105598Y472947D01*
X103123Y472947D01*
G37*
%LPD*%
%LPC*%
G36*
X97602Y472947D02*
X97602Y472947D01*
X91947Y478602D01*
X91947Y481077D01*
X100077Y481077D01*
X100077Y472947D01*
X97602Y472947D01*
G37*
%LPD*%
%LPC*%
G36*
X446023Y509523D02*
X446023Y509523D01*
X446023Y517145D01*
X448288Y517145D01*
X453645Y511788D01*
X453645Y509523D01*
X446023Y509523D01*
G37*
%LPD*%
%LPC*%
G36*
X562355Y598423D02*
X562355Y598423D01*
X562355Y600688D01*
X567712Y606045D01*
X569977Y606045D01*
X569977Y598423D01*
X562355Y598423D01*
G37*
%LPD*%
%LPC*%
G36*
X435355Y509523D02*
X435355Y509523D01*
X435355Y511788D01*
X440712Y517145D01*
X442977Y517145D01*
X442977Y509523D01*
X435355Y509523D01*
G37*
%LPD*%
%LPC*%
G36*
X446023Y498855D02*
X446023Y498855D01*
X446023Y506477D01*
X453645Y506477D01*
X453645Y504212D01*
X448288Y498855D01*
X446023Y498855D01*
G37*
%LPD*%
%LPC*%
G36*
X440712Y498855D02*
X440712Y498855D01*
X435355Y504212D01*
X435355Y506477D01*
X442977Y506477D01*
X442977Y498855D01*
X440712Y498855D01*
G37*
%LPD*%
%LPC*%
G36*
X567712Y587755D02*
X567712Y587755D01*
X562355Y593112D01*
X562355Y595377D01*
X569977Y595377D01*
X569977Y587755D01*
X567712Y587755D01*
G37*
%LPD*%
%LPC*%
G36*
X573023Y531877D02*
X573023Y531877D01*
X580521Y531877D01*
X580293Y530733D01*
X579604Y529068D01*
X578603Y527570D01*
X577330Y526297D01*
X575832Y525296D01*
X574167Y524607D01*
X573023Y524379D01*
X573023Y531877D01*
G37*
%LPD*%
%LPC*%
G36*
X568833Y524607D02*
X568833Y524607D01*
X567168Y525296D01*
X565670Y526297D01*
X564397Y527570D01*
X563396Y529068D01*
X562707Y530733D01*
X562479Y531877D01*
X569977Y531877D01*
X569977Y524379D01*
X568833Y524607D01*
G37*
%LPD*%
%LPC*%
G36*
X571499Y533399D02*
X571499Y533399D01*
X571499Y533401D01*
X571501Y533401D01*
X571501Y533399D01*
X571499Y533399D01*
G37*
%LPD*%
%LPC*%
G36*
X380999Y914399D02*
X380999Y914399D01*
X380999Y914401D01*
X381001Y914401D01*
X381001Y914399D01*
X380999Y914399D01*
G37*
%LPD*%
%LPC*%
G36*
X101599Y914399D02*
X101599Y914399D01*
X101599Y914401D01*
X101601Y914401D01*
X101601Y914399D01*
X101599Y914399D01*
G37*
%LPD*%
%LPC*%
G36*
X228599Y482599D02*
X228599Y482599D01*
X228599Y482601D01*
X228601Y482601D01*
X228601Y482599D01*
X228599Y482599D01*
G37*
%LPD*%
%LPC*%
G36*
X342899Y495299D02*
X342899Y495299D01*
X342899Y495301D01*
X342901Y495301D01*
X342901Y495299D01*
X342899Y495299D01*
G37*
%LPD*%
%LPC*%
G36*
X380999Y939799D02*
X380999Y939799D01*
X380999Y939801D01*
X381001Y939801D01*
X381001Y939799D01*
X380999Y939799D01*
G37*
%LPD*%
%LPC*%
G36*
X253999Y368299D02*
X253999Y368299D01*
X253999Y368301D01*
X254001Y368301D01*
X254001Y368299D01*
X253999Y368299D01*
G37*
%LPD*%
%LPC*%
G36*
X139699Y368299D02*
X139699Y368299D01*
X139699Y368301D01*
X139701Y368301D01*
X139701Y368299D01*
X139699Y368299D01*
G37*
%LPD*%
%LPC*%
G36*
X628649Y838199D02*
X628649Y838199D01*
X628649Y838201D01*
X628651Y838201D01*
X628651Y838199D01*
X628649Y838199D01*
G37*
%LPD*%
%LPC*%
G36*
X444499Y507999D02*
X444499Y507999D01*
X444499Y508001D01*
X444501Y508001D01*
X444501Y507999D01*
X444499Y507999D01*
G37*
%LPD*%
D10*
X444500Y482600D03*
X444500Y508000D03*
D11*
X533400Y336804D02*
X533400Y323596D01*
X533400Y399796D02*
X533400Y413004D01*
D12*
X622300Y533400D03*
X622300Y431800D03*
D13*
X101600Y876300D03*
D14*
X101600Y914400D03*
D15*
X614680Y330200D02*
X629920Y330200D01*
X629920Y355600D02*
X614680Y355600D01*
X614680Y381000D02*
X629920Y381000D01*
D11*
X495300Y443992D02*
X495300Y457200D01*
X520700Y457200D02*
X520700Y443992D01*
X520700Y533400D02*
X520700Y546608D01*
X495300Y546608D02*
X495300Y533400D01*
X546100Y457200D02*
X546100Y443992D01*
X571500Y443992D02*
X571500Y457200D01*
X546100Y533400D02*
X546100Y546608D01*
X571500Y546608D02*
X571500Y533400D01*
D10*
X495300Y317500D03*
X495300Y393700D03*
D16*
X571500Y393700D03*
X571500Y317500D03*
D17*
X596900Y596900D03*
X584200Y615950D03*
X571500Y596900D03*
D18*
X228600Y457200D03*
X228600Y482600D03*
X228600Y508000D03*
X228600Y533400D03*
X228600Y558800D03*
X228600Y584200D03*
X228600Y609600D03*
X228600Y635000D03*
X228600Y660400D03*
X228600Y685800D03*
X228600Y711200D03*
X228600Y736600D03*
X228600Y762000D03*
X228600Y787400D03*
X228600Y812800D03*
X228600Y838200D03*
X228600Y863600D03*
X228600Y889000D03*
X228600Y914400D03*
X228600Y939800D03*
X381000Y457200D03*
X381000Y482600D03*
X381000Y508000D03*
X381000Y533400D03*
X381000Y558800D03*
X381000Y584200D03*
X381000Y609600D03*
X381000Y635000D03*
X381000Y660400D03*
X381000Y685800D03*
X381000Y711200D03*
X381000Y736600D03*
X381000Y762000D03*
X381000Y787400D03*
X381000Y812800D03*
X381000Y838200D03*
X381000Y863600D03*
X381000Y889000D03*
X381000Y914400D03*
X381000Y939800D03*
X342900Y495300D03*
X317500Y495300D03*
X292100Y495300D03*
X266700Y495300D03*
D19*
X533400Y711200D03*
X508000Y711200D03*
X533400Y736600D03*
X508000Y736600D03*
X533400Y762000D03*
X508000Y762000D03*
X533400Y787400D03*
X508000Y787400D03*
X533400Y812800D03*
X508000Y812800D03*
X533400Y838200D03*
X508000Y838200D03*
X533400Y863600D03*
X508000Y863600D03*
X533400Y889000D03*
X508000Y889000D03*
D20*
X76200Y660400D03*
X101600Y660400D03*
X76200Y635000D03*
X101600Y635000D03*
X76200Y609600D03*
X101600Y609600D03*
X76200Y584200D03*
X101600Y584200D03*
X76200Y558800D03*
X101600Y558800D03*
X76200Y533400D03*
X101600Y533400D03*
X76200Y508000D03*
X101600Y508000D03*
X76200Y482600D03*
X101600Y482600D03*
D15*
X139700Y375920D02*
X139700Y360680D01*
X165100Y360680D02*
X165100Y375920D01*
X190500Y375920D02*
X190500Y360680D01*
X50800Y360680D02*
X50800Y375920D01*
X76200Y375920D02*
X76200Y360680D01*
X419100Y360680D02*
X419100Y375920D01*
X444500Y375920D02*
X444500Y360680D01*
X304800Y360680D02*
X304800Y375920D01*
X330200Y375920D02*
X330200Y360680D01*
X355600Y360680D02*
X355600Y375920D01*
X279400Y375920D02*
X279400Y360680D01*
X254000Y360680D02*
X254000Y375920D01*
D21*
X628650Y838200D03*
D22*
X628650Y858200D03*
X628650Y878200D03*
X628650Y898200D03*
X628650Y918200D03*
D23*
X50800Y412750D03*
X76200Y412750D03*
D24*
X101600Y876300D02*
X190500Y876300D01*
X215900Y901700D01*
X247650Y901700D01*
X254000Y895350D01*
X609600Y355600D02*
X571500Y317500D01*
X609600Y355600D02*
X622300Y355600D01*
X596900Y406400D02*
X622300Y431800D01*
X596900Y406400D02*
X596900Y368300D01*
X609600Y355600D01*
X254000Y552450D02*
X247650Y546100D01*
X215900Y546100D01*
X209550Y539750D01*
X209550Y514350D02*
X215900Y508000D01*
X228600Y508000D01*
X254000Y552450D02*
X254000Y895350D01*
X209550Y539750D02*
X209550Y514350D01*
X228600Y508000D02*
X241300Y520700D01*
X260350Y520700D01*
X279400Y520700D01*
X304800Y546100D01*
X406400Y546100D02*
X419100Y533400D01*
X438150Y482600D02*
X444500Y482600D01*
X406400Y546100D02*
X304800Y546100D01*
X419100Y533400D02*
X419100Y501650D01*
X438150Y482600D01*
D25*
X425450Y768350D03*
X419100Y615950D03*
X482600Y749300D03*
X171450Y647700D03*
X161925Y590550D03*
D24*
X431800Y711200D02*
X508000Y711200D01*
X431800Y711200D02*
X419100Y723900D01*
X368300Y723900D02*
X361950Y730250D01*
X361950Y749300D01*
X374650Y762000D01*
X381000Y762000D01*
X368300Y723900D02*
X419100Y723900D01*
X520700Y825500D02*
X533400Y838200D01*
X520700Y825500D02*
X520700Y806450D01*
X514350Y800100D01*
X425450Y800100D02*
X412750Y787400D01*
X381000Y787400D01*
X425450Y800100D02*
X514350Y800100D01*
X508000Y812800D02*
X381000Y812800D01*
X546100Y495300D02*
X558800Y482600D01*
X558800Y406400D02*
X571500Y393700D01*
X546100Y495300D02*
X546100Y533400D01*
X558800Y482600D02*
X558800Y425450D01*
X558800Y406400D01*
X279400Y381000D02*
X279400Y368300D01*
X425450Y412750D02*
X438150Y425450D01*
X558800Y425450D01*
X311150Y412750D02*
X279400Y381000D01*
X311150Y412750D02*
X425450Y412750D01*
X95250Y393700D02*
X76200Y412750D01*
X95250Y393700D02*
X95250Y381000D01*
X82550Y368300D01*
X76200Y368300D01*
X190500Y368300D02*
X190500Y381000D01*
X361950Y482600D02*
X381000Y482600D01*
X241300Y431800D02*
X190500Y381000D01*
X241300Y431800D02*
X311150Y431800D01*
X361950Y482600D01*
X533400Y806450D02*
X533400Y812800D01*
X533400Y806450D02*
X520700Y793750D01*
X520700Y781050D02*
X514350Y774700D01*
X419100Y736600D02*
X381000Y736600D01*
X520700Y781050D02*
X520700Y793750D01*
X514350Y774700D02*
X457200Y774700D01*
X419100Y736600D01*
X520700Y723900D02*
X533400Y736600D01*
X508000Y685800D02*
X381000Y685800D01*
X520700Y698500D02*
X520700Y723900D01*
X520700Y698500D02*
X508000Y685800D01*
X552450Y768350D02*
X533400Y787400D01*
X406400Y673100D02*
X393700Y660400D01*
X381000Y660400D01*
X552450Y698500D02*
X552450Y768350D01*
X552450Y698500D02*
X527050Y673100D01*
X406400Y673100D01*
X558800Y838200D02*
X533400Y863600D01*
X558800Y696229D02*
X516621Y654050D01*
X469900Y654050D01*
X438150Y622300D01*
X438150Y596900D02*
X400050Y558800D01*
X381000Y558800D01*
X558800Y696229D02*
X558800Y838200D01*
X438150Y622300D02*
X438150Y596900D01*
X520700Y876300D02*
X533400Y889000D01*
X419100Y876300D02*
X393700Y850900D01*
X355600Y850900D01*
X279400Y774700D01*
X419100Y876300D02*
X520700Y876300D01*
X279400Y774700D02*
X279400Y558800D01*
X254000Y533400D02*
X228600Y533400D01*
X254000Y533400D02*
X279400Y558800D01*
X139700Y800100D02*
X228600Y889000D01*
X139700Y800100D02*
X139700Y781050D01*
X76200Y533400D02*
X57150Y533400D01*
X44450Y546100D01*
X44450Y711200D01*
X114300Y755650D02*
X139700Y781050D01*
X88900Y755650D02*
X44450Y711200D01*
X88900Y755650D02*
X114300Y755650D01*
X76200Y558800D02*
X63500Y558800D01*
X57150Y565150D01*
X57150Y679450D01*
X215900Y838200D02*
X228600Y838200D01*
X215900Y838200D02*
X57150Y679450D01*
X101600Y533400D02*
X146050Y533400D01*
X247904Y806196D02*
X241300Y812800D01*
X228600Y812800D01*
X184150Y571500D02*
X146050Y533400D01*
X184150Y571500D02*
X241300Y571500D01*
X247904Y578104D01*
X247904Y806196D01*
X88900Y647700D02*
X76200Y635000D01*
X88900Y647700D02*
X114300Y647700D01*
X133350Y666750D01*
X203200Y762000D02*
X228600Y762000D01*
X133350Y692150D02*
X133350Y666750D01*
X133350Y692150D02*
X203200Y762000D01*
X133350Y635000D02*
X101600Y635000D01*
X184150Y685800D02*
X228600Y685800D01*
X184150Y685800D02*
X133350Y635000D01*
X101600Y609600D02*
X184150Y609600D01*
X209550Y584200D02*
X228600Y584200D01*
X209550Y584200D02*
X184150Y609600D01*
X88900Y495300D02*
X76200Y482600D01*
X196850Y558800D02*
X228600Y558800D01*
X133350Y495300D02*
X88900Y495300D01*
X133350Y495300D02*
X196850Y558800D01*
X584200Y584200D02*
X584200Y615950D01*
X584200Y584200D02*
X577850Y577850D01*
X539750Y577850D02*
X527050Y565150D01*
X488950Y565150D01*
X476250Y552450D01*
X539750Y577850D02*
X577850Y577850D01*
X209550Y374650D02*
X209550Y349250D01*
X203200Y342900D01*
X171450Y342900D02*
X165100Y349250D01*
X165100Y368300D01*
X254000Y419100D02*
X419100Y419100D01*
X254000Y419100D02*
X209550Y374650D01*
X203200Y342900D02*
X171450Y342900D01*
X419100Y419100D02*
X438150Y438150D01*
X463550Y438150D02*
X476250Y450850D01*
X463550Y438150D02*
X438150Y438150D01*
X476250Y450850D02*
X476250Y552450D01*
X241300Y457200D02*
X228600Y457200D01*
X266700Y482600D02*
X266700Y495300D01*
X266700Y482600D02*
X241300Y457200D01*
X444500Y368300D02*
X495300Y317500D01*
X50800Y412750D02*
X31750Y393700D01*
X31750Y381000D01*
X44450Y368300D01*
X50800Y368300D01*
X76200Y609600D02*
X88900Y622300D01*
X196850Y622300D02*
X209550Y609600D01*
X228600Y609600D01*
X196850Y622300D02*
X88900Y622300D01*
X438150Y406400D02*
X533400Y406400D01*
X438150Y406400D02*
X419100Y387350D01*
X419100Y368300D01*
X336550Y476250D02*
X317500Y495300D01*
X336550Y476250D02*
X346979Y476250D01*
X366029Y495300D01*
X397779Y495300D01*
X435879Y457200D01*
X453121Y457200D02*
X469900Y473979D01*
X453121Y457200D02*
X435879Y457200D01*
X469900Y473979D02*
X469900Y580121D01*
X463550Y586471D01*
X463550Y620029D01*
X628650Y647700D02*
X647700Y666750D01*
X647700Y850900D01*
X640400Y858200D02*
X628650Y858200D01*
X478521Y635000D02*
X463550Y620029D01*
X478521Y635000D02*
X558800Y635000D01*
X571500Y647700D01*
X628650Y647700D01*
X647700Y850900D02*
X640400Y858200D01*
X311150Y514350D02*
X292100Y495300D01*
X361950Y514350D02*
X368300Y520700D01*
X393700Y520700D01*
X406400Y508000D01*
X406400Y495300D01*
X438150Y463550D01*
X361950Y514350D02*
X311150Y514350D01*
X438150Y463550D02*
X450850Y463550D01*
X463550Y476250D01*
X463550Y577850D02*
X457200Y584200D01*
X463550Y577850D02*
X463550Y476250D01*
X457200Y584200D02*
X457200Y622300D01*
X556275Y641096D02*
X568975Y653796D01*
X617850Y878200D02*
X628650Y878200D01*
X475996Y641096D02*
X457200Y622300D01*
X475996Y641096D02*
X556275Y641096D01*
X568975Y653796D02*
X626125Y653796D01*
X641604Y669275D01*
X641604Y780796D01*
X603250Y819150D01*
X603250Y863600D01*
X617850Y878200D01*
M02*
