M48
;GenerationSoftware,Autodesk,EAGLE,9.6.2*%
;CreationDate,2022-07-07T19:45:42Z*%
FMAT,2
ICI,OFF
METRIC,TZ,000.000
T9C0.350
T8C0.813
T7C0.900
T6C0.914
T5C1.016
T4C1.100
T3C1.118
T2C3.277
%
G90
M71
T2
X10000Y80000
X50000Y60000
X60000Y70000
T3
X62230Y53340
X62230Y43180
T4
X10160Y87630
X10160Y91440
T5
X38100Y50800
X38100Y60960
X38100Y48260
X38100Y45720
X22860Y93980
X22860Y91440
X22860Y88900
X22860Y86360
X22860Y83820
X22860Y81280
X22860Y78740
X22860Y76200
X22860Y73660
X22860Y71120
X22860Y68580
X22860Y66040
X22860Y63500
X38100Y53340
X38100Y55880
X38100Y58420
X22860Y50800
X38100Y63500
X38100Y66040
X38100Y68580
X38100Y71120
X38100Y73660
X38100Y76200
X38100Y78740
X38100Y81280
X38100Y83820
X38100Y86360
X38100Y88900
X38100Y91440
X22860Y58420
X25400Y36830
X27940Y36830
X35560Y36830
X33020Y36830
X62230Y33020
X62230Y35560
X62230Y38100
X30480Y36830
X44450Y36830
X41910Y36830
X7620Y36830
X5080Y36830
X19050Y36830
X16510Y36830
X13970Y36830
X26670Y49530
X29210Y49530
X31750Y49530
X34290Y49530
X38100Y93980
X22860Y45720
X22860Y48260
X22860Y53340
X22860Y55880
X22860Y60960
T6
X7620Y55880
X53340Y81280
X50800Y81280
X53340Y83820
X50800Y78740
X53340Y86360
X50800Y83820
X50800Y86360
X53340Y88900
X50800Y88900
X7620Y66040
X10160Y66040
X7620Y63500
X10160Y63500
X7620Y60960
X10160Y60960
X7620Y58420
X10160Y58420
X50800Y76200
X10160Y48260
X7620Y48260
X10160Y50800
X7620Y50800
X10160Y53340
X7620Y53340
X10160Y55880
X53340Y71120
X50800Y71120
X53340Y73660
X50800Y73660
X53340Y76200
X53340Y78740
T7
X62865Y83820
X62865Y85820
X62865Y87820
X62865Y89820
X62865Y91820
T8
X58420Y61595
X44450Y48260
X44450Y50800
X53340Y33020
X53340Y40640
X49530Y45720
X52070Y45720
X52070Y53340
X49530Y53340
X54610Y45720
X57150Y45720
X54610Y53340
X57150Y53340
X49530Y31750
X49530Y39370
X57150Y39370
X57150Y31750
X59690Y59690
X57150Y59690
T9
X16192Y59055
X17145Y64770
X48260Y74930
X41910Y61595
X42545Y76835
M30